<?xml version="1.0" standalone="no"?><!DOCTYPE svg PUBLIC "-//W3C//DTD SVG 1.1//EN" "http://www.w3.org/Graphics/SVG/1.1/DTD/svg11.dtd" ><svg xmlns="http://www.w3.org/2000/svg"><metadata></metadata><defs><font id="1.000;YE  ;YEFONTFuJiYaTi-Regular" horiz-adv-x="1000"><font-face font-family="YEFONTFuJiYaTi 標準" font-weight="400" font-stretch="normal" units-per-em="1000" panose-1="2 0 6 3 6 0 0 0 0 0" ascent="1000" descent="-400" x-height="0" bbox="2 -209 996 891" underline-thickness="50" underline-position="-100" unicode-range="U+0020-ff5e" /><missing-glyph horiz-adv-x="500"  /><glyph glyph-name="nonbreakingspace" unicode="  " d="" /><glyph glyph-name="exclam" unicode="!" d="M86 742 q25 0 27 -101 q-8 -330 -8 -438 q0 -66 -19 -66 q-23 0 -35 27 l15 559 q6 19 12 19 l8 0 ZM70 53 q24 0 35 -28 q0 -15 -23 -31 q-43 0 -43 35 l0 8 q0 10 31 16 Z" /><glyph glyph-name="quotedbl" unicode="&quot;" d="M188 795 q19 -12 19 -31 l0 -24 q0 -119 -59 -179 q-7 0 -7 7 l0 39 q25 188 35 188 l12 0 ZM55 764 l11 0 q22 0 28 -63 q-6 -125 -43 -125 q-12 14 -12 28 l0 3 q0 16 12 114 l-4 39 l8 4 Z" /><glyph glyph-name="numbersign" unicode="#" d="M402 680 q32 0 43 -174 l82 0 q22 0 28 -16 l0 -8 q0 -5 -12 -11 l-29 0 q-51 0 -69 -6 l4 -27 l0 -114 q104 8 129 8 q33 -4 33 -27 q0 -12 -162 -24 q0 -260 -23 -260 l-8 0 q-18 0 -33 22 q10 78 13 238 l-3 0 q-133 -10 -133 -17 q0 -190 -37 -190 q-18 6 -28 22 l0 4 q16 107 16 164 q-4 0 -4 4 q-20 -8 -86 -8 l-47 0 q-29 0 -37 17 l0 4 q0 16 162 20 q20 0 20 49 q4 76 4 115 l-4 0 q-133 6 -133 29 l0 8 q2 8 8 8 q27 -8 45 -8 l84 0 l4 45 l0 64 q0 30 15 35 q26 0 26 -60 l0 -76 q1 -8 7 -8 l114 0 l7 4 l-7 166 q2 0 11 8 ZM357 465 l-87 0 l0 -31 q0 -39 -4 -121 l4 0 q39 0 128 7 q0 4 4 12 q-4 63 -4 98 l0 31 l-3 6 l-38 -2 Z" /><glyph glyph-name="dollar" unicode="$" d="M238 742 q22 0 28 -86 q95 0 156 -82 l0 -8 q0 -7 -8 -7 l-12 0 q-62 58 -121 58 l-11 0 q3 -125 3 -183 l0 -8 q0 -35 40 -35 q117 -41 117 -110 q0 -103 -141 -172 q-6 0 -12 -11 l0 -47 q0 -94 -19 -94 l-8 0 q-23 0 -31 23 q4 65 4 63 l0 31 l4 20 q-73 6 -141 74 q-47 55 -47 105 l8 4 q76 -132 164 -132 l8 0 q8 0 8 7 l0 47 q0 57 -4 176 q-176 29 -176 105 q0 75 125 157 q47 9 47 19 l0 78 q2 8 8 8 l11 0 ZM94 465 q0 -27 129 -51 q-2 191 -8 191 q-39 -7 -98 -82 q-23 -39 -23 -58 ZM277 172 q2 -8 8 -8 q94 68 94 141 q0 33 -102 54 l0 -187 Z" /><glyph glyph-name="percent" unicode="%" d="M434 738 q15 -6 23 -19 q-182 -391 -287 -594 q119 74 275 139 l4 0 q16 -8 16 -20 l0 -12 q99 -29 99 -74 q0 -45 -119 -119 q-37 -12 -58 -12 q-55 16 -55 55 q0 25 59 123 l-4 0 q-266 -123 -266 -182 q-39 -64 -47 -68 l-4 0 q-21 0 -31 18 l0 11 q0 8 31 55 q182 354 332 652 l-4 0 q-62 -23 -154 -41 l0 -4 q20 -23 20 -39 q0 -68 -137 -138 l-29 0 q-41 0 -59 60 l0 8 q0 90 78 158 l14 4 q23 -8 23 -15 l0 -4 l-23 -20 l0 -4 q195 39 303 82 ZM82 525 q4 -19 16 -19 q74 23 123 98 l0 23 l-20 4 q-41 -4 -66 -4 q0 6 -14 16 q-17 0 -39 -118 ZM438 209 q-59 -70 -67 -131 l0 -8 q2 -7 8 -7 q98 27 139 95 q0 4 3 12 q-68 39 -83 39 Z" /><glyph glyph-name="ampersand" unicode="&amp;" d="M270 676 q113 -14 113 -98 q0 -82 -106 -195 l0 -4 q43 -66 98 -117 l4 0 q39 90 62 191 l4 0 q24 -10 24 -31 l0 -12 q0 -72 -55 -195 q131 -117 172 -137 l4 -19 q-10 -8 -12 -8 l-4 0 q-45 0 -179 133 q-100 -129 -200 -129 l-7 0 q-149 15 -149 113 q0 72 180 230 q-55 90 -63 165 q14 113 114 113 ZM199 566 q0 -48 47 -140 q78 70 98 144 l0 32 q0 35 -55 43 l-19 0 q-71 -10 -71 -71 l0 -8 ZM86 137 q25 -43 86 -43 q94 0 183 129 l-109 129 l-4 0 q-156 -135 -156 -196 l0 -19 Z" /><glyph glyph-name="quotesingle" unicode="&#39;" d="M109 781 q22 0 28 -43 l0 -8 q0 -82 -67 -175 l-23 -16 q-8 0 -8 8 l0 8 q0 19 51 175 q0 51 19 51 Z" /><glyph glyph-name="parenleft" unicode="(" d="M227 734 q15 0 23 -17 l0 -8 q-156 -141 -156 -375 q0 -197 168 -354 l0 -7 q0 -8 -12 -8 q-115 49 -180 215 q-31 72 -31 183 q0 190 137 342 q35 29 51 29 Z" /><glyph glyph-name="parenright" unicode=")" d="M78 736 q65 -21 129 -142 q55 -119 55 -231 l0 -21 q0 -209 -176 -356 q-22 -15 -43 -15 l-4 8 l0 7 q168 149 168 364 q0 197 -133 341 q-23 14 -23 20 l0 8 q6 17 27 17 Z" /><glyph glyph-name="asterisk" unicode="*" d="M186 766 q31 0 31 -90 l0 -4 l-2 0 q56 31 76 31 q8 0 14 -12 q0 -19 -86 -70 l0 -2 q109 -78 109 -84 l0 -6 q0 -9 -10 -9 l-11 0 q-24 0 -90 52 l0 2 l-2 -13 l0 -36 q8 -41 -12 -41 q-19 0 -33 18 l0 18 q0 39 -6 56 q-31 -25 -98 -51 q-15 0 -27 20 q35 35 113 80 q0 0 -89 66 l0 4 q1 10 9 10 l4 0 q26 0 92 -47 l0 98 q2 10 10 10 l8 0 Z" /><glyph glyph-name="plus" unicode="+" d="M234 592 l6 0 q31 0 31 -176 l0 -27 q2 -6 8 -6 q110 10 153 19 q15 -4 15 -23 l0 -4 q0 -20 -172 -33 l0 -188 q0 -78 -17 -78 l-4 0 q-22 8 -27 20 l0 242 q-55 -8 -106 -10 q-70 2 -82 27 l0 6 l4 8 q55 -4 55 -8 q76 10 129 18 l0 184 l-2 23 l9 6 Z" /><glyph glyph-name="comma" unicode="," d="M84 100 q66 -14 66 -57 q0 -66 -80 -150 q-25 -10 -31 -10 l0 10 q0 11 59 136 q7 26 7 28 q-31 15 -31 35 q0 8 6 8 l4 0 Z" /><glyph glyph-name="hyphen" unicode="-" d="M41 369 q156 0 375 12 q14 2 23 -18 l0 -11 q0 -8 -27 -18 q-365 -20 -367 8 l-6 12 l0 7 l2 8 Z" /><glyph glyph-name="period" unicode="." d="M90 102 q41 0 62 -63 q0 -39 -54 -39 q-39 0 -59 55 q14 47 47 47 l4 0 Z" /><glyph glyph-name="slash" unicode="/" d="M344 734 q19 -5 21 -13 l2 -12 q6 -55 -207 -568 q-49 -139 -74 -180 l-8 -2 q-23 -2 -35 21 q-4 36 270 696 q15 56 31 58 Z" /><glyph glyph-name="zero" unicode="0" d="M211 697 q107 0 148 -183 q12 -53 16 -160 q0 -266 -152 -352 l-28 -4 l-7 0 q-106 0 -145 184 q-4 23 -4 54 l0 16 q8 258 145 437 q11 8 27 8 ZM90 236 q14 -191 82 -191 q82 0 137 187 q19 77 19 161 q0 228 -94 273 l-11 0 q-61 -72 -110 -254 q-23 -96 -23 -176 Z" /><glyph glyph-name="one" unicode="1" d="M135 705 l8 0 q23 -12 23 -66 q2 -69 -76 -635 q-10 -8 -12 -8 q-25 0 -39 31 q63 459 88 674 l8 4 Z" /><glyph glyph-name="two" unicode="2" d="M107 693 q198 -43 241 -91 q43 -43 43 -90 q0 -151 -239 -440 l0 -4 q127 22 256 24 q31 -10 31 -35 q-25 -10 -224 -24 l-145 -31 q-31 10 -31 35 q0 6 106 106 q195 261 195 384 q0 86 -205 123 q-39 20 -39 28 l0 8 q0 7 11 7 Z" /><glyph glyph-name="three" unicode="3" d="M102 699 q25 -21 144 -78 q47 -39 47 -74 q0 -55 -141 -180 l86 0 q147 0 157 -64 l0 -4 q0 -76 -250 -289 q-30 -10 -43 -10 q-51 0 -63 84 l0 12 q0 43 24 97 l11 0 q12 -144 24 -144 q172 121 250 258 q0 23 -86 23 l-149 0 q-39 4 -39 33 l0 4 q172 151 172 188 l0 11 q0 28 -141 90 q-23 18 -23 35 q2 8 8 8 l12 0 Z" /><glyph glyph-name="four" unicode="4" d="M260 697 q35 0 35 -154 l0 -197 l8 0 q107 62 121 62 l17 0 q12 -4 12 -23 q0 -20 -158 -102 q-8 -287 -24 -287 l-7 0 q-22 0 -35 24 q11 156 11 209 l4 19 l-8 0 q-95 -60 -131 -60 l-3 0 q-51 0 -63 72 l0 11 q0 43 35 393 l0 12 q2 10 8 10 l8 0 q23 0 27 -73 l-27 -373 l8 -4 q47 20 146 78 q4 84 4 125 l0 250 q0 8 12 8 Z" /><glyph glyph-name="five" unicode="5" d="M115 711 q24 -14 24 -55 l0 -35 l4 0 l211 35 q31 -4 31 -31 q0 -16 -231 -47 l-19 0 q-33 -182 -33 -201 l3 0 q129 23 204 23 q89 -15 89 -86 q0 -109 -156 -289 q-39 -27 -66 -27 l-8 0 q-86 0 -129 156 l0 32 q2 7 8 7 q68 -148 105 -148 l4 0 q73 0 184 242 q8 39 8 47 q-8 23 -16 23 l-16 0 q-41 0 -203 -23 q-62 8 -62 62 q45 239 45 264 l0 43 q2 8 8 8 l11 0 Z" /><glyph glyph-name="six" unicode="6" d="M258 707 q6 0 15 -16 l0 -7 q-183 -221 -183 -481 q12 -160 58 -160 q59 0 149 125 q35 61 35 105 l0 8 q0 78 -148 78 q0 2 -55 16 l0 4 q0 12 51 16 l47 0 q107 0 152 -102 q4 -22 4 -31 q0 -100 -125 -223 q-47 -39 -82 -39 l-20 0 q-92 0 -117 188 l0 50 q0 268 207 469 l12 0 Z" /><glyph glyph-name="seven" unicode="7" d="M59 697 q11 -17 72 -17 l133 0 q50 0 123 4 q31 -12 31 -36 q-59 -80 -119 -322 q-49 -197 -49 -273 q4 -16 4 -43 l-12 -8 l-15 0 q-28 14 -28 39 l0 55 q10 205 153 545 l-206 0 q-107 0 -107 47 q2 9 8 9 l12 0 Z" /><glyph glyph-name="eight" unicode="8" d="M215 707 q80 0 133 -102 q4 -7 4 -15 q0 -12 -16 -12 q-14 0 -55 70 q-31 20 -54 24 q-65 -6 -118 -63 q-19 -43 -19 -58 l0 -24 q0 -68 94 -125 q214 180 244 180 q23 -8 23 -16 l0 -15 q-4 -10 -166 -129 q-55 -45 -55 -51 q133 -60 133 -193 q0 -121 -125 -180 q-8 -2 -19 -2 l-4 0 q-119 0 -172 158 q0 4 -4 24 q0 95 113 197 l0 8 q-109 70 -109 164 l0 8 q0 113 156 152 l16 0 ZM199 348 q-109 -100 -109 -186 q0 -90 105 -125 q118 49 118 156 l0 20 q0 94 -114 135 Z" /><glyph glyph-name="nine" unicode="9" d="M221 703 q115 0 183 -150 q-93 -248 -166 -555 l-8 -4 l-3 0 q-24 0 -41 31 q25 135 113 389 q-88 -62 -147 -62 l-15 0 q-76 0 -98 101 l0 33 q0 98 86 180 q43 33 96 37 ZM86 457 q0 -62 43 -62 q90 0 205 130 q20 32 20 51 l0 4 q-51 86 -114 86 q-129 0 -154 -209 Z" /><glyph glyph-name="colon" unicode=":" d="M90 533 q41 0 62 -43 q0 -31 -50 -51 q-63 16 -63 59 q14 35 43 35 l8 0 ZM86 264 q66 -14 66 -51 q-25 -43 -54 -43 q-59 14 -59 55 q0 25 47 39 Z" /><glyph glyph-name="semicolon" unicode=";" d="M152 525 q32 0 43 -43 q-15 -58 -54 -58 l-4 0 q-41 0 -51 58 q0 43 66 43 ZM148 264 q28 0 51 -47 q0 -112 -160 -180 l0 4 q0 14 94 117 q0 8 -4 8 q-27 16 -27 39 l0 8 q13 51 46 51 Z" /><glyph glyph-name="less" unicode="&lt;" d="M482 656 q20 0 26 -13 l0 -4 q0 -28 -143 -139 q-138 -98 -252 -158 q215 -94 383 -221 q16 0 24 -31 l-16 -10 q-25 0 -115 70 q-176 110 -338 184 l-12 16 l0 11 q4 8 117 59 q149 90 326 236 Z" /><glyph glyph-name="equal" unicode="=" d="M90 506 l8 0 q13 -26 86 -39 q115 -8 148 -8 q139 4 160 4 q16 -6 24 -20 l0 -11 q0 -16 -98 -16 l-82 0 q-197 0 -254 55 q-8 11 -8 23 l16 12 ZM55 291 q19 -16 175 -16 q116 0 301 12 q16 -17 16 -27 q0 -28 -289 -31 q-219 0 -219 42 l0 8 q0 10 16 12 Z" /><glyph glyph-name="greater" unicode="&gt;" d="M76 656 q178 -146 326 -236 q114 -51 118 -59 l0 -11 l-12 -16 q-162 -74 -338 -184 q-90 -70 -115 -70 l-16 10 q8 31 24 31 q167 127 382 221 q-113 60 -252 158 q-142 111 -142 139 l0 4 q6 13 25 13 Z" /><glyph glyph-name="question" unicode="?" d="M266 729 q109 0 148 -77 l4 -27 l0 -8 q0 -58 -145 -326 q-27 -70 -50 -148 l-8 -4 q-35 7 -35 31 q0 84 175 404 q16 35 16 67 q0 48 -82 48 l-23 0 q-102 0 -174 -64 q-12 -16 -12 -35 q0 -43 47 -98 q23 -8 23 -15 l0 -8 q0 -6 -7 -6 l-12 0 q-45 0 -90 115 q-2 4 -2 27 l0 4 q0 96 215 120 l12 0 ZM219 47 q25 0 39 -35 q-14 -57 -53 -57 q-47 12 -47 53 q22 39 51 39 l10 0 Z" /><glyph glyph-name="at" unicode="@" d="M385 680 q168 0 224 -192 q8 -56 8 -84 q0 -136 -125 -170 q-4 -4 -31 -4 q-82 0 -113 84 q-75 -76 -100 -76 l-16 0 q-44 0 -60 76 l0 18 q0 119 109 164 l16 0 q47 0 111 -84 l0 -19 q-19 -20 -19 -73 q0 -41 60 -49 q125 26 125 165 q0 128 -94 189 q-37 20 -80 20 l-7 0 q-157 0 -274 -198 q-31 -80 -31 -136 q0 -178 205 -233 q33 -4 55 -4 l41 0 q105 0 201 98 l27 19 l4 -7 l0 -22 q-51 -137 -244 -137 q-199 0 -309 170 q-29 75 -29 129 q0 166 170 297 q94 59 176 59 ZM213 316 q6 -37 16 -37 l3 0 q86 73 129 141 q-25 41 -56 41 q-69 0 -92 -145 Z" /><glyph glyph-name="A" unicode="A" d="M303 740 l11 0 q51 0 147 -574 q12 -131 12 -146 q0 -41 -34 -53 q-68 0 -150 203 q-4 4 -74 152 l-10 0 q-86 -275 -117 -324 l-16 0 q-33 0 -33 33 q0 43 37 86 q84 229 205 590 l22 33 ZM311 658 q-18 -68 -84 -287 q33 0 146 25 q-55 262 -62 262 ZM230 334 q88 -139 176 -303 l8 0 l0 4 q-23 324 -41 324 l-4 0 q-55 -25 -131 -25 l-8 0 Z" /><glyph glyph-name="B" unicode="B" d="M61 736 l3 0 q28 -21 28 -48 l56 0 q131 0 155 -79 l4 -19 q0 -74 -102 -203 q82 15 86 15 q105 -13 105 -93 l0 -12 q0 -149 -203 -295 q-45 -14 -56 -14 q-30 8 -45 18 q0 -31 -16 -37 q-37 8 -37 33 q12 441 12 566 l0 120 l-4 39 l14 9 ZM96 654 q8 -64 8 -177 l0 -116 q154 149 154 237 l0 11 q0 45 -106 45 l-56 0 ZM117 314 l-13 8 l-4 -8 q-4 -209 -4 -273 l13 -8 l12 0 q76 0 193 170 q34 63 34 106 l0 17 q0 35 -37 35 q-36 0 -186 -47 l-8 0 Z" /><glyph glyph-name="C" unicode="C" d="M254 738 q59 0 94 -64 l-12 -10 q-51 41 -74 41 q-74 0 -149 -230 q-21 -106 -21 -237 l0 -15 q13 -194 80 -194 l19 0 q65 0 219 168 l4 -8 q-12 -70 -82 -148 q-72 -61 -133 -61 q-127 0 -156 202 q-4 25 -4 109 q0 229 115 395 q53 52 90 52 l10 0 Z" /><glyph glyph-name="D" unicode="D" d="M107 738 q26 -9 26 -41 q39 8 80 8 l4 0 q179 0 230 -142 l8 -57 q2 -207 -228 -451 q-49 -49 -112 -49 q0 -26 -19 -35 q-26 0 -37 60 q-10 0 -20 32 q4 0 4 3 l16 -7 l0 4 q33 535 33 650 q0 25 15 25 ZM141 664 q0 -51 4 -101 q-26 -452 -26 -504 l4 0 q98 50 201 207 q78 170 78 265 q0 141 -181 141 q-33 0 -80 -8 Z" /><glyph glyph-name="E" unicode="E" d="M47 732 l4 0 q84 -27 152 -27 l31 0 q45 0 137 4 l12 -16 l0 -7 q-18 -24 -98 -24 l-70 0 q-24 0 -78 8 q23 -51 23 -125 l0 -160 l4 0 q145 19 180 19 q21 0 27 -15 l0 -8 q0 -18 -160 -35 l-31 0 q-12 0 -24 8 q-11 -141 -31 -325 q170 55 281 55 l12 0 q21 0 31 -20 l0 -7 q0 -20 -152 -32 q-96 -23 -180 -54 l-8 0 q-39 15 -39 43 q43 418 43 539 q0 140 -47 140 q-27 12 -27 36 l8 3 Z" /><glyph glyph-name="F" unicode="F" d="M422 734 q19 -5 19 -27 q0 -27 -230 -47 q8 -33 12 -129 q-4 -82 -4 -133 l4 0 q123 28 187 28 l24 0 q21 0 35 -24 l0 -4 q0 -13 -196 -31 q0 -6 -58 -12 q-24 -386 -37 -386 q-8 -4 -12 -4 q-35 12 -35 39 q41 375 41 621 l0 35 q-133 14 -133 67 l8 3 l12 0 q37 -27 109 -27 q62 0 254 31 Z" /><glyph glyph-name="G" unicode="G" d="M297 736 q94 -25 94 -86 q-8 -19 -16 -21 l-10 0 q-6 0 -19 53 q-18 17 -41 17 l-4 0 q-104 0 -188 -258 q-15 -95 -17 -171 l6 -22 l0 -37 q21 -141 80 -141 l4 0 q72 -13 179 155 q18 0 26 138 l-4 0 q-65 -8 -112 -8 q-35 10 -35 22 l0 4 q6 19 166 19 q33 -11 33 -48 q-19 -305 -19 -375 l-14 -8 l-11 0 q-30 11 -30 35 l0 70 q0 20 6 61 q-92 -127 -168 -127 l-21 0 q-102 0 -135 187 q-4 16 -4 45 l-4 63 q0 258 172 408 q51 25 86 25 Z" /><glyph glyph-name="H" unicode="H" d="M342 734 l10 0 q31 0 31 -226 l0 -463 q0 -78 -24 -78 q-45 0 -60 70 q4 27 12 27 l15 -11 l0 4 q4 213 4 312 l0 51 l-4 0 q-187 -47 -232 -47 l0 -31 q0 -100 -4 -301 q-6 -20 -12 -20 l-15 0 q-24 12 -24 40 q8 435 8 539 l0 117 q0 8 8 8 l4 0 q39 0 39 -313 l4 0 q156 41 224 41 l4 0 l0 59 q0 80 4 217 l8 5 Z" /><glyph glyph-name="I" unicode="I" d="M55 736 q35 -7 136 -11 q22 4 36 4 q15 -6 15 -12 l0 -8 q-10 -23 -74 -23 l-4 0 q8 -28 12 -250 q0 -106 -8 -418 q61 11 74 11 l8 0 q6 0 12 -11 l0 -16 q-32 -35 -141 -35 l-16 0 q-66 0 -66 35 l12 8 l58 0 q8 0 8 8 q8 574 8 671 q-82 10 -82 32 l0 4 q0 4 12 11 Z" /><glyph glyph-name="J" unicode="J" d="M348 734 q4 0 11 -11 l0 -4 q0 -18 -70 -39 l0 -8 q27 -65 27 -213 l0 -59 q-3 -332 -82 -416 q-13 -11 -35 -15 q-72 0 -136 117 q-16 21 -24 66 l8 4 q90 -136 133 -136 q45 0 82 322 q4 105 4 168 q0 66 -12 162 l-20 0 q-86 0 -86 43 q0 8 8 8 q2 0 32 -8 l23 0 q14 0 125 19 l12 0 Z" /><glyph glyph-name="K" unicode="K" d="M78 734 q39 0 39 -171 l0 -32 q4 -70 0 -166 q-4 -8 -4 -11 l4 0 q184 142 246 253 l8 0 q6 0 16 -15 l0 -16 q0 -58 -211 -230 l0 -4 q54 -45 191 -238 q51 -73 51 -98 l-20 -12 q-25 6 -101 125 q-131 190 -152 207 l-8 0 q-16 -12 -24 -12 q-15 -341 -27 -341 l-8 -4 q-21 0 -39 39 q27 396 31 625 q-4 70 -11 94 q0 7 7 7 l12 0 Z" /><glyph glyph-name="L" unicode="L" d="M72 730 q43 0 51 -164 l-29 -539 q45 8 125 8 q179 0 179 -31 l0 -12 q-7 -2 -7 -8 q-98 4 -157 4 l-62 0 q-63 0 -82 -19 l-12 0 q-39 8 -39 35 l33 625 q0 60 -15 94 q9 7 15 7 Z" /><glyph glyph-name="M" unicode="M" d="M424 740 q31 0 39 -211 l53 -550 l0 -4 q0 -8 -8 -8 l-6 0 q-53 0 -53 140 q-21 137 -39 430 q-10 0 -66 -258 q-49 -181 -49 -261 l-14 -8 q-52 0 -52 115 q-28 236 -59 451 l-4 0 q0 -156 -70 -588 l-18 -13 l-4 0 q-35 5 -35 25 q74 467 74 697 q-4 30 -4 33 l8 4 l14 0 q14 0 35 -64 q55 0 102 -441 l5 0 q137 500 137 505 q8 6 14 6 Z" /><glyph glyph-name="N" unicode="N" d="M156 734 q20 0 30 -76 q23 0 142 -498 q6 0 27 -90 q10 0 43 284 q34 209 32 337 l0 8 q0 8 8 8 q35 0 37 -57 q2 -132 -71 -656 q-9 -21 -23 -23 q-74 0 -158 410 q-41 182 -47 182 q-55 -594 -84 -594 l-4 0 q-43 0 -49 76 l6 51 l4 0 q10 0 10 -16 l7 0 q71 543 71 611 l-4 16 q8 27 15 27 l8 0 Z" /><glyph glyph-name="O" unicode="O" d="M250 744 q98 -21 133 -56 q127 -143 117 -333 l-4 -46 q-25 -280 -191 -336 l-32 -4 q-166 10 -228 281 q-6 49 -4 104 l2 31 q51 330 207 359 ZM100 332 q-12 -199 119 -297 q8 0 25 -10 q102 -5 176 198 q16 56 25 138 q16 264 -152 346 l-4 0 l-19 -8 q-14 4 -14 10 q-59 2 -133 -211 q-18 -70 -21 -115 l-2 -51 Z" /><glyph glyph-name="P" unicode="P" d="M86 738 q27 -13 27 -39 l63 12 q226 -35 226 -176 q0 -140 -195 -262 q-61 -27 -98 -27 q-7 -242 -7 -269 l-16 -12 l-4 0 q-43 0 -43 98 l0 31 q4 0 12 11 q4 112 4 145 l4 8 q-8 12 -8 19 q8 0 8 8 q15 297 15 418 l-4 27 q8 8 16 8 ZM121 645 l0 -28 q0 -107 -8 -328 q106 31 203 178 q32 51 32 84 l0 15 q0 63 -90 98 q-47 12 -74 12 l-8 0 q-28 0 -59 -12 l4 -19 Z" /><glyph glyph-name="Q" unicode="Q" d="M236 744 q98 -21 131 -56 q121 -124 112 -364 q-4 -117 -45 -232 q86 -67 86 -98 q0 -6 -14 -12 q-16 0 -96 73 q-74 -88 -144 -86 q-116 6 -196 187 q-31 98 -27 231 q6 152 102 301 q54 58 91 56 ZM98 371 q6 -293 138 -344 q6 -2 14 -6 q45 -1 105 79 l0 4 q0 5 -107 103 l0 8 q2 8 10 8 l8 0 q27 0 113 -77 l4 -1 q39 97 41 214 l2 53 q8 225 -153 297 l-17 -8 q-12 4 -12 8 q-109 -37 -146 -338 Z" /><glyph glyph-name="R" unicode="R" d="M66 736 l8 0 l16 -13 l94 0 q150 0 226 -121 q0 -24 4 -28 q0 -125 -230 -246 q125 -131 250 -328 l0 -16 q0 -5 -12 -11 q-37 0 -125 134 q-135 202 -158 213 l-35 0 q-10 -199 -10 -310 q-2 -35 -12 -35 l-16 0 q-27 13 -27 52 q24 602 24 668 l-4 35 l7 6 ZM104 688 q7 -45 7 -94 l0 -35 q0 -75 -4 -204 q-3 0 -3 -3 l3 0 q108 33 206 138 q39 53 44 88 l0 31 q-58 82 -189 82 l-64 -3 Z" /><glyph glyph-name="S" unicode="S" d="M275 730 q77 0 120 -97 l0 -4 l-10 -4 l-12 0 q-57 72 -94 72 q-109 -27 -109 -144 l0 -26 q0 -140 199 -234 q84 -57 84 -113 l0 -18 q0 -99 -160 -185 l-43 -4 l-8 0 q-138 0 -199 201 q0 25 -4 29 q8 41 8 51 l14 0 q56 -233 156 -233 l12 0 q84 0 162 133 q7 26 7 41 q0 45 -164 123 q-119 102 -119 219 l0 26 q0 119 119 167 l41 0 Z" /><glyph glyph-name="T" unicode="T" d="M484 734 q6 0 16 -15 l0 -12 q-8 -23 -187 -35 q11 -68 11 -106 q-4 -525 -4 -593 l-7 -4 l-8 0 q-35 0 -39 51 l0 3 q0 184 11 645 l-47 -4 l-62 0 q-105 0 -129 43 l0 12 q0 4 12 11 l12 0 q11 -23 54 -23 l43 0 q76 0 324 27 Z" /><glyph glyph-name="U" unicode="U" d="M445 736 q35 -52 35 -146 l0 -53 q4 -349 -138 -529 q-41 -39 -90 -39 q-172 0 -209 383 q0 52 -4 99 q2 123 2 246 l0 26 q2 7 10 7 q37 0 37 -76 l0 -52 q4 -504 113 -573 q14 -8 26 -8 l3 0 q116 0 188 360 q23 180 23 269 q-3 41 -3 80 l7 6 Z" /><glyph glyph-name="V" unicode="V" d="M428 736 q6 -37 10 -47 q0 -140 -157 -619 q-39 -93 -62 -103 l-16 0 q-68 0 -82 248 q-47 367 -82 490 l12 8 q64 0 138 -635 q6 -29 14 -29 q110 285 184 582 q23 105 33 105 l8 0 Z" /><glyph glyph-name="W" unicode="W" d="M523 734 q26 -17 26 -64 q-63 -701 -119 -701 l-14 0 q-70 0 -96 281 q-17 121 -23 244 l-8 0 q-78 -447 -107 -514 q-14 -3 -16 -3 q-57 0 -68 179 q0 158 -59 565 l8 6 l8 0 q54 0 101 -618 l6 0 q0 8 123 557 l8 4 l14 0 q29 0 45 -295 q23 -178 52 -316 l4 0 q57 265 100 640 q6 35 15 35 Z" /><glyph glyph-name="X" unicode="X" d="M396 736 q12 0 22 -21 q-35 -117 -135 -324 q201 -391 201 -405 q0 -7 -13 -13 q-49 2 -129 189 l-86 162 l-4 0 q-152 -344 -164 -357 l-10 0 q-39 10 -37 31 q18 129 37 129 q4 -8 4 -18 q10 4 137 291 q-160 303 -160 311 l13 8 q45 -33 158 -225 q10 -37 20 -37 q121 275 146 279 Z" /><glyph glyph-name="Y" unicode="Y" d="M432 734 q6 0 15 -15 l0 -8 q-6 -63 -183 -258 q15 -60 15 -201 l-2 -189 q0 -96 -15 -96 q-41 10 -41 41 q6 258 6 375 q-39 12 -57 82 q-63 123 -131 224 l0 8 q0 8 12 8 q76 -59 168 -232 q131 152 195 261 l18 0 Z" /><glyph glyph-name="Z" unicode="Z" d="M115 734 q57 -39 192 -39 l70 0 q78 0 78 -49 q0 -66 -203 -404 q-131 -199 -131 -215 l4 0 q102 22 207 26 q145 -6 145 -33 l0 -12 q0 -8 -22 -14 q-41 10 -82 10 l-45 0 q-86 0 -248 -37 l-4 0 q-37 4 -37 37 q43 86 262 432 q70 123 99 214 l-19 0 q-225 0 -281 59 l-4 8 l0 8 q0 9 8 9 l11 0 Z" /><glyph glyph-name="bracketleft" unicode="[" d="M51 805 q47 -28 113 -28 q92 4 129 4 q16 -6 23 -19 l0 -8 q0 -20 -121 -24 q-21 4 -47 4 l0 -4 q8 -48 8 -93 q-11 -598 -11 -688 l140 0 q31 0 31 -31 q-3 -12 -23 -12 l-98 0 q-13 0 -66 -8 q-39 12 -39 59 q0 139 19 781 q-70 28 -70 59 q2 0 12 8 Z" /><glyph glyph-name="backslash" unicode="\" d="M68 734 q16 -2 32 -58 q273 -660 269 -696 q-12 -23 -35 -21 l-10 2 q-23 41 -72 180 q-213 513 -207 568 l2 12 q2 8 21 13 Z" /><glyph glyph-name="bracketright" unicode="]" d="M309 805 q0 -2 7 -12 l0 -8 q-9 -27 -66 -43 l0 -8 q16 -638 16 -718 q0 -18 4 -51 q-8 -67 -47 -67 q-43 8 -63 8 l-105 0 q-6 0 -16 16 q12 27 35 27 l141 0 q-4 61 -4 90 q0 27 -8 606 l0 23 q0 20 4 66 l-4 0 q-21 0 -43 -4 q-117 4 -117 24 l0 8 q12 19 27 19 l125 -4 q63 0 114 28 Z" /><glyph glyph-name="asciicircum" unicode="^" d="M199 799 q20 -2 86 -94 l86 -78 l0 -12 q0 -8 -8 -8 l-4 0 q-54 0 -148 137 l-4 0 q-125 -148 -141 -148 l-3 0 q-12 0 -24 23 q113 149 152 180 l8 0 Z" /><glyph glyph-name="underscore" unicode="_" d="M744 66 l6 4 q31 -11 31 -23 l0 -12 q0 -10 -33 -15 q-703 5 -703 39 l-6 11 q6 10 6 12 l699 -16 Z" /><glyph glyph-name="grave" unicode="`" d="M51 811 q58 0 152 -207 l0 -12 q0 -6 -12 -12 l-3 0 q-30 0 -67 98 q-39 68 -82 117 l0 4 q0 4 12 12 Z" /><glyph glyph-name="a" unicode="a" d="M225 438 q86 0 132 -102 q26 0 26 -29 l0 -4 l-35 -131 l4 -10 l0 -21 q0 -82 43 -114 l7 4 l32 0 q7 -2 7 -8 q-5 -39 -39 -39 l-7 0 q-59 0 -88 112 q-88 -127 -149 -127 l-10 0 q-85 0 -109 146 l0 26 q0 170 109 271 q36 26 77 26 ZM94 115 q0 -76 39 -101 q62 0 160 187 q18 100 33 123 l0 4 q-41 72 -80 72 l-8 0 q-113 0 -144 -267 l0 -18 Z" /><glyph glyph-name="b" unicode="b" d="M109 676 q18 0 20 -90 l0 -23 q0 -147 -20 -290 l4 0 q88 110 145 110 l12 0 q74 0 93 -125 l0 -4 q0 -174 -172 -274 q-25 -7 -35 -7 l-27 0 q-18 0 -31 7 q-16 -3 -28 -3 q-17 5 -27 23 q0 21 -4 63 q10 0 47 531 q0 82 12 82 l11 0 ZM105 16 l4 0 q112 0 196 195 q8 35 8 59 l0 3 q0 53 -28 71 l-8 0 q-72 0 -148 -149 q-31 -93 -31 -175 l7 -4 Z" /><glyph glyph-name="c" unicode="c" d="M215 441 q82 0 119 -60 l0 -14 q0 -8 -8 -8 l-10 0 q-41 43 -80 43 l-9 0 q-133 -33 -133 -250 q0 -132 78 -132 q60 5 205 126 l12 0 l6 -7 q0 -84 -168 -166 q-30 -4 -51 -4 q-108 0 -137 162 l0 47 q0 207 150 263 l26 0 Z" /><glyph glyph-name="d" unicode="d" d="M393 688 q27 -14 27 -34 q-43 -238 -88 -410 l0 -8 q0 -136 53 -215 q4 0 33 8 l4 0 q8 -2 8 -8 l0 -11 q-6 -37 -37 -37 q-67 0 -106 162 l-4 0 q-72 -162 -142 -162 l-4 0 q-82 0 -98 154 l0 19 q0 165 113 245 q32 7 37 7 q41 0 108 -41 q41 168 96 331 ZM88 139 q10 -112 33 -118 q65 0 158 256 l0 16 q0 51 -78 70 q-74 0 -109 -187 q0 -16 -4 -37 Z" /><glyph glyph-name="e" unicode="e" d="M268 438 q78 -8 86 -127 q-10 -106 -206 -125 l-29 2 l-21 5 q-8 -125 86 -168 l25 -2 q43 -3 184 57 l15 -2 q-8 -80 -166 -107 l-47 4 q-49 4 -107 68 q-49 70 -45 152 l2 26 q14 142 164 209 q21 11 55 8 l4 0 ZM105 230 q4 0 4 -3 q194 21 202 105 l0 8 q3 37 -26 56 l-15 2 q-92 8 -163 -150 l-2 -18 Z" /><glyph glyph-name="f" unicode="f" d="M299 682 q66 0 97 -114 l-9 -4 l-12 0 q-12 2 -31 61 l-26 20 l-7 0 q-32 0 -49 -247 q4 0 4 -3 q62 7 134 11 l12 -15 l0 -12 q-21 -33 -150 -33 l-4 -65 q0 -158 6 -308 l-20 -14 q-37 0 -45 74 l2 309 q0 8 -8 8 l-9 0 q-121 0 -145 45 l0 7 q0 6 12 12 q0 -10 154 -19 l0 3 q18 284 94 284 Z" /><glyph glyph-name="g" unicode="g" d="M232 441 q71 0 166 -109 l0 -12 q-31 -86 -33 -287 q0 -187 -94 -187 q-132 0 -228 175 l-4 20 l8 0 q111 -146 203 -146 q66 0 68 230 l0 37 q-58 -49 -93 -49 l-30 0 q-90 0 -109 133 l0 22 q0 115 98 166 q15 7 33 7 l15 0 ZM135 250 q0 -94 53 -94 q83 0 146 143 q8 31 8 37 q-41 68 -90 68 l-20 0 q-84 0 -97 -150 l0 -4 Z" /><glyph glyph-name="h" unicode="h" d="M107 678 l4 0 q34 -12 34 -94 l0 -29 q0 -96 -16 -260 q94 131 148 131 q63 0 63 -155 q0 -179 31 -296 l-16 -12 q-46 0 -64 162 l0 215 q0 41 -8 41 q-76 -31 -154 -199 q-18 -57 -33 -209 q-14 -8 -22 -8 q-35 14 -35 41 l0 4 q20 129 35 303 q26 203 26 320 l0 15 l-4 22 l11 8 Z" /><glyph glyph-name="i" unicode="i" d="M57 602 q80 -51 93 -69 l0 -10 q0 -5 -13 -11 l-8 0 q-37 0 -90 70 l0 8 q0 10 18 12 ZM80 439 q41 0 41 -113 l0 -322 q0 -29 -12 -31 l-21 0 q-27 13 -27 39 q0 181 7 412 q6 15 12 15 Z" /><glyph glyph-name="j" unicode="j" d="M178 584 q68 -33 78 -33 q41 -12 41 -24 l0 -9 q0 -6 -14 -12 l-8 0 q-72 0 -109 60 l0 4 q0 6 12 14 ZM227 438 q48 0 48 -293 q2 -297 -62 -297 l-16 0 q-74 0 -154 158 l-4 23 q0 8 8 8 q94 -137 133 -137 q29 0 39 237 l0 236 q0 20 -4 61 q8 4 12 4 Z" /><glyph glyph-name="k" unicode="k" d="M76 684 q45 0 47 -143 l0 -12 q0 -47 -6 -236 q-4 0 -4 -4 l8 0 q108 100 149 162 q23 0 29 -17 l0 -4 q0 -55 -149 -182 q196 -207 221 -207 q20 -12 20 -33 q0 -6 -12 -12 l-12 0 q-80 22 -240 234 l-4 0 q-10 0 -21 -250 q0 -5 -14 -13 l-8 0 q-35 0 -41 53 l0 78 q0 7 12 7 q15 346 21 551 l-4 24 l8 4 Z" /><glyph glyph-name="l" unicode="l" d="M68 680 l8 0 q29 0 29 -106 q-9 -322 -9 -412 l0 -98 l4 -29 q37 37 48 37 l6 -8 l0 -15 q0 -47 -41 -82 l-13 0 q-61 0 -61 150 l0 4 q0 113 22 531 q-4 6 -4 20 l11 8 Z" /><glyph glyph-name="m" unicode="m" d="M72 475 q39 0 47 -198 q-4 -17 -4 -35 l8 0 q35 88 123 162 q51 0 51 -136 l0 -45 l8 0 q68 134 123 201 l4 0 q39 -4 39 -37 l0 -199 q0 -174 45 -174 l9 -16 q0 -12 -21 -21 q-82 0 -94 220 q4 43 4 96 l0 25 l-4 0 q-101 -162 -101 -283 l0 -33 q0 -10 -22 -14 q-17 0 -37 35 q-4 131 -4 207 l0 94 q0 8 -10 8 q-142 -209 -142 -352 l-8 -3 l-10 0 q-23 0 -37 29 q25 168 25 318 l0 8 q0 35 -3 113 q-8 0 -14 14 l0 8 q2 8 8 8 l17 0 Z" /><glyph glyph-name="n" unicode="n" d="M78 441 q49 0 49 -160 l8 0 q54 71 136 131 q26 14 32 14 l10 0 q33 0 41 -51 q-14 -135 -14 -201 l2 -51 q0 -94 66 -139 q0 -5 -12 -13 l-25 0 q-82 37 -84 199 q-4 0 -4 4 l20 197 l-4 0 q-184 -144 -182 -264 q-13 -136 -33 -136 q-39 0 -45 58 q0 26 29 182 q4 19 10 129 q-6 49 -6 72 q-8 0 -8 10 l0 8 q0 6 14 11 Z" /><glyph glyph-name="o" unicode="o" d="M221 451 q33 -31 60 -31 q106 -66 106 -170 l4 -64 q0 -155 -141 -211 q-8 -6 -21 -6 l-36 0 q-88 0 -144 146 l-6 53 l0 18 q-4 166 146 261 q18 4 32 4 ZM193 402 q-101 -103 -97 -234 q15 -150 93 -150 l4 0 q145 45 141 226 q0 106 -66 141 q-53 17 -75 17 Z" /><glyph glyph-name="p" unicode="p" d="M55 441 q23 0 33 -23 q16 8 84 12 q123 0 183 -106 q8 -27 8 -37 l0 -19 q0 -116 -195 -198 l-68 0 l0 -27 q0 -74 -4 -178 q-6 -17 -12 -17 l-21 0 q-6 0 -24 25 q8 244 8 418 l0 143 q2 7 8 7 ZM96 385 q8 -117 8 -209 l0 -72 l3 0 q84 0 180 115 q24 43 24 60 l0 20 q-14 90 -125 90 l-4 0 q-16 0 -86 -4 Z" /><glyph glyph-name="q" unicode="q" d="M215 439 q76 0 137 -105 l21 4 q23 -10 23 -31 q-72 -182 -76 -358 l8 0 q0 16 76 102 q10 0 10 -8 q-51 -168 -90 -195 l-25 0 q-35 19 -35 74 q0 113 31 228 q-72 -52 -133 -52 q-119 21 -119 119 l0 4 q-4 99 86 191 q31 27 86 27 ZM96 195 q4 -49 41 -49 l15 0 q67 0 155 90 q29 47 29 71 q-53 101 -106 101 l-23 0 q-82 0 -111 -183 l0 -30 Z" /><glyph glyph-name="r" unicode="r" d="M268 443 q29 2 119 -93 l0 -14 q0 -6 -12 -14 q-23 -2 -96 74 l-6 2 q-64 -85 -130 -296 l-16 -135 l-8 -6 l-6 0 q-25 0 -43 33 q8 125 4 260 q-6 127 -35 156 l0 6 q0 10 10 10 l4 0 q70 4 80 -211 q2 0 47 123 q47 103 88 105 Z" /><glyph glyph-name="s" unicode="s" d="M240 443 q73 0 102 -86 l0 -11 q0 -10 -14 -10 q-19 0 -43 55 q-21 13 -33 13 q-123 -27 -123 -91 q0 -38 174 -116 q70 -29 70 -95 q0 -79 -100 -127 q-3 -4 -41 -8 q-107 0 -189 142 q-4 28 -4 32 q4 31 16 31 l39 -68 q51 -83 107 -83 l24 0 q74 12 91 92 l0 12 q-37 45 -148 94 q-88 51 -88 105 l0 4 q0 80 152 115 l8 0 Z" /><glyph glyph-name="t" unicode="t" d="M201 619 l14 0 q31 -10 31 -139 l0 -27 l139 8 q19 -6 19 -29 q0 -22 -150 -28 l0 4 q-8 -4 -12 -4 q-12 -179 -12 -269 q0 -47 8 -106 l4 0 q113 137 127 137 l4 0 l0 -8 q0 -78 -98 -183 l-29 -8 q-62 0 -72 150 l0 26 l15 261 q-3 0 -3 4 q-4 0 -4 -4 q-143 4 -143 28 l0 9 q0 8 8 8 q70 4 127 4 l19 0 q4 47 4 68 l0 65 l-4 29 l8 4 Z" /><glyph glyph-name="u" unicode="u" d="M61 445 q35 0 35 -91 q-4 -137 -4 -198 q0 -74 21 -136 l4 0 q67 0 160 210 q32 182 51 202 l4 0 q22 0 35 -22 q-31 -152 -31 -207 l0 -72 q0 -41 14 -96 q7 0 50 10 l6 -10 l0 -8 q-6 -43 -43 -43 q-64 0 -82 118 q-82 -135 -142 -135 l-4 0 q-84 0 -96 156 l0 55 q0 99 10 258 l12 9 Z" /><glyph glyph-name="v" unicode="v" d="M47 439 q60 0 127 -339 q15 -51 21 -51 q96 205 147 383 l10 4 q35 0 35 -43 q0 -86 -153 -411 q-15 -13 -31 -13 q-70 0 -103 236 q-45 176 -61 231 l8 3 Z" /><glyph glyph-name="w" unicode="w" d="M47 441 l4 0 q43 0 84 -378 l6 0 l95 345 l10 4 l12 0 q29 0 33 -168 q18 -107 43 -195 l4 0 q98 308 98 392 l7 0 q34 -13 34 -54 q-75 -408 -118 -408 l-7 0 q-77 0 -102 265 l-4 0 q-60 -279 -105 -279 q-61 17 -61 119 q0 57 -41 354 l8 3 Z" /><glyph glyph-name="x" unicode="x" d="M330 441 q6 0 16 -15 q-35 -86 -110 -217 l0 -4 l174 -223 l0 -7 l-14 -10 l-7 0 q-45 0 -174 199 l-4 0 q-92 -156 -117 -189 l-22 0 q-8 0 -17 15 q0 37 119 229 q-135 191 -135 197 l8 4 l8 0 q50 -37 144 -154 q86 138 117 175 l14 0 Z" /><glyph glyph-name="y" unicode="y" d="M74 439 l8 0 q59 0 66 -293 l0 -7 l6 0 q114 88 160 228 q10 72 24 72 l14 0 q13 -7 19 -23 q-12 -113 -31 -432 q-16 -89 -49 -121 l-43 -17 q-105 0 -209 207 l0 10 l6 0 q121 -139 141 -151 q21 -14 33 -14 l8 0 q66 0 80 293 l0 45 l-4 0 q-94 -150 -155 -150 q-52 0 -52 121 q0 147 -30 229 l8 3 Z" /><glyph glyph-name="z" unicode="z" d="M84 439 q0 -13 277 -27 q30 -14 30 -35 l0 -4 q0 -43 -250 -338 q84 14 183 14 l18 0 q94 0 94 -39 q-6 0 -12 -12 q-65 4 -100 4 l-31 0 q-127 0 -217 -31 q-23 0 -37 23 l0 12 q252 277 291 367 q-215 0 -254 51 l0 8 q2 7 8 7 Z" /><glyph glyph-name="braceleft" unicode="{" d="M293 797 q39 -12 39 -24 l0 -7 q0 -8 -8 -8 l-8 0 l-11 8 l-16 0 q-64 0 -94 -90 q-4 -16 -4 -31 l0 -4 q0 -57 67 -118 q23 -31 23 -50 q0 -55 -93 -94 l0 -4 q54 -45 54 -113 l0 -24 q0 -17 -12 -222 q4 -28 4 -43 l12 0 q45 52 102 93 l4 -7 q-69 -153 -114 -153 q-47 0 -58 110 l0 15 q0 30 11 223 l0 35 q0 74 -93 74 q-59 6 -59 39 q14 12 20 12 q15 0 70 -4 q105 28 105 78 q0 10 -62 82 q-22 26 -27 78 q21 149 148 149 Z" /><glyph glyph-name="bar" unicode="|" d="M66 799 l8 0 q26 0 31 -168 q-3 -182 -7 -629 q4 -53 4 -90 l-12 -8 l-4 0 q-43 0 -43 82 q0 45 -4 75 q16 601 16 730 l11 8 Z" /><glyph glyph-name="braceright" unicode="}" d="M105 797 q118 0 141 -149 q0 -60 -82 -144 q-4 -8 -4 -16 l0 -4 q0 -48 106 -74 q47 4 70 4 q16 -6 16 -12 l0 -7 q0 -32 -110 -36 q-43 -23 -43 -82 l0 -15 q12 -194 12 -223 l0 -12 q0 -121 -66 -121 q-22 0 -82 102 q-24 45 -24 55 q4 0 4 3 q6 0 109 -93 l4 0 q0 2 4 50 q-12 200 -12 219 l0 12 q0 84 55 117 l0 4 q-70 35 -86 70 l-8 28 q0 29 79 113 q11 29 11 43 l0 16 q0 82 -74 117 l-23 4 l-16 0 l-12 -8 l-8 0 q-7 0 -7 8 l0 7 q13 24 46 24 Z" /><glyph glyph-name="asciitilde" unicode="~" d="M205 443 q68 0 137 -144 q12 -12 23 -12 q33 0 129 102 q18 11 26 11 l3 -7 l0 -8 q0 -69 -109 -137 q-12 -8 -27 -8 l-18 0 q-53 0 -111 137 q-18 27 -49 27 q-53 0 -143 -136 l-13 0 q-14 7 -14 23 q78 152 166 152 Z" /><glyph glyph-name="emdash" unicode="&#x2014;" d="M783 379 q18 0 37 -24 l0 -11 q0 -20 -425 -20 l-63 0 q-105 0 -123 28 l0 11 l4 8 q8 0 66 -4 q354 8 485 8 l19 4 Z" /><glyph glyph-name="quoteleft" unicode="&#x2018;" d="M836 859 q0 -4 4 -4 q-84 -89 -84 -146 q37 -20 37 -47 q-14 -35 -33 -35 q-65 18 -65 61 q0 103 119 167 l22 4 Z" /><glyph glyph-name="quoteright" unicode="&#x2019;" d="M113 627 q0 2 -4 2 q84 90 84 146 q-37 20 -37 47 q14 37 33 37 q65 -19 65 -62 q0 -104 -119 -168 l-22 -2 Z" /><glyph glyph-name="quotedblleft" unicode="&#x201c;" d="M738 838 q0 -6 -39 -53 q-41 -53 -41 -101 q33 -12 33 -38 l0 -3 q-5 -39 -33 -39 q-62 19 -62 60 l0 8 q0 92 109 162 q18 8 33 8 l0 -4 ZM879 842 l2 -8 q-80 -80 -80 -150 q33 -12 33 -38 l0 -3 q0 -34 -33 -39 q-63 19 -63 58 l0 14 q0 88 114 162 l27 4 Z" /><glyph glyph-name="quotedblright" unicode="&#x201d;" d="M254 607 q0 6 39 53 q39 55 37 106 q-33 9 -35 35 l0 4 q4 39 31 41 q65 -18 65 -61 l0 -8 q4 -89 -104 -164 q-16 -8 -33 -8 l0 2 ZM115 600 l-4 7 q78 82 77 153 q-34 10 -36 35 l0 4 q-2 33 32 41 q62 -20 64 -57 l0 -13 q4 -88 -107 -166 l-26 -4 Z" /><glyph glyph-name="ellipsis" unicode="&#x2026;" d="M254 100 q39 -12 39 -39 l0 -8 q-10 -47 -43 -47 q-41 0 -47 51 q0 31 51 43 ZM508 100 q33 0 43 -47 q0 -32 -47 -47 q-47 10 -47 47 q0 35 51 47 ZM758 100 q43 -16 43 -43 q0 -36 -47 -51 q-47 10 -47 47 q0 35 51 47 Z" /><glyph glyph-name="uni3001" unicode="&#x3001;" d="M229 191 q58 0 144 -183 l0 -16 q-6 -15 -12 -15 l-4 0 q-27 0 -58 89 q-31 51 -86 114 l0 4 q2 7 8 7 l8 0 Z" /><glyph glyph-name="uni3002" unicode="&#x3002;" d="M283 141 q96 -20 96 -69 l0 -17 q-33 -86 -96 -86 l-8 0 q-58 0 -68 70 q0 76 72 102 l4 0 ZM279 107 q-29 -39 -29 -82 q2 -17 12 -17 q70 23 70 68 l0 10 q0 14 -53 21 Z" /><glyph glyph-name="uni300A" unicode="&#x300a;" d="M674 797 q23 -16 23 -39 q-21 -127 -246 -403 q-17 -7 -31 -29 q101 -115 289 -392 l0 -16 q0 -8 -8 -8 l-8 0 q-25 0 -101 119 q-184 256 -215 289 q-18 6 -31 28 l0 4 q0 11 39 17 q172 190 246 346 q29 78 39 84 l4 0 ZM896 797 q24 -16 24 -39 q-18 -121 -246 -403 q-28 -21 -31 -21 l0 -4 q289 -377 289 -404 l0 -8 q0 -8 -8 -8 l-8 0 q-27 0 -102 119 q-183 256 -214 289 q-22 8 -32 28 l0 4 q0 11 39 17 q206 231 274 408 q2 22 12 22 l3 0 Z" /><glyph glyph-name="uni300B" unicode="&#x300b;" d="M119 795 q6 0 67 -137 q87 -146 207 -277 q13 -18 46 -22 l4 -7 l0 -4 q-2 -12 -50 -45 q-250 -358 -286 -389 l-19 0 q-8 0 -8 8 l0 8 q0 27 289 400 l0 6 q-47 25 -148 168 q-129 199 -129 262 q6 17 23 29 l4 0 ZM342 795 q6 -2 66 -137 q84 -142 207 -277 q14 -18 47 -22 l4 -7 l0 -4 q-2 -12 -51 -45 q-8 -16 -277 -385 l-20 -4 l-7 0 q-8 0 -8 8 l0 8 q0 27 289 400 l0 6 q-51 29 -149 168 q-129 199 -129 262 q6 17 24 29 l4 0 Z" /><glyph glyph-name="uni300C" unicode="&#x300c;" d="M549 795 q53 -12 97 -12 q145 8 153 8 q27 -6 27 -27 q0 -18 -144 -20 l-24 0 l4 -55 q-8 -324 -23 -324 l-4 0 q-35 4 -35 35 q0 57 15 344 q-74 20 -74 39 l0 4 q2 8 8 8 Z" /><glyph glyph-name="uni300D" unicode="&#x300d;" d="M375 305 q31 -10 31 -63 l-15 -285 q29 -8 39 -27 l0 -4 q0 -6 -12 -12 l-8 0 q-201 8 -211 8 q-27 0 -43 23 l0 4 q0 4 12 12 l62 0 q10 0 16 4 q8 -4 16 -4 l54 0 l20 -4 q21 348 31 348 l8 0 Z" /><glyph glyph-name="uni3010" unicode="&#x3010;" d="M584 795 q25 0 203 -6 l4 -8 q-86 -195 -86 -412 l0 -21 q0 -219 90 -430 l-8 -4 l-207 0 q-8 0 -8 8 l0 863 q0 10 12 10 Z" /><glyph glyph-name="uni3011" unicode="&#x3011;" d="M406 785 l0 -865 q0 -8 -8 -8 l-210 0 l-8 4 q93 209 93 447 q0 196 -85 422 l7 4 q4 0 207 6 l4 -10 Z" /><glyph glyph-name="uni4E00" unicode="&#x4e00;" d="M750 400 q63 -5 63 -27 l0 -4 q0 -8 -8 -8 q-41 0 -63 4 q-105 -11 -418 -62 l-58 0 q-57 0 -78 31 l0 12 q1 8 7 8 q26 -20 75 -20 l421 66 l59 0 Z" /><glyph glyph-name="uni4E03" unicode="&#x4e03;" d="M424 764 q25 0 25 -88 l0 -156 l268 29 q-29 31 -137 88 l0 4 l6 0 q184 -65 184 -108 l0 -4 q0 -23 -194 -33 q-131 -16 -131 -21 l0 -4 q-13 -266 -13 -350 l0 -12 q0 -52 29 -52 q86 0 305 101 q25 20 25 33 q0 16 -88 164 q-12 32 -12 34 l8 4 q141 -170 141 -209 l0 -12 q0 -63 -309 -152 q-35 -4 -45 -6 q-107 0 -107 121 q0 35 21 340 l-4 0 q-107 -16 -222 -28 l-12 0 q-47 0 -62 24 l0 8 l4 5 q25 -4 29 -4 q271 26 271 40 q4 23 8 240 q8 4 12 4 Z" /><glyph glyph-name="uni4E07" unicode="&#x4e07;" d="M730 742 q16 -6 16 -12 l0 -11 q0 -20 -244 -61 l-12 0 q8 -12 8 -23 q0 -49 -39 -207 l4 0 l60 -8 q163 12 198 12 q49 -12 49 -45 l0 -20 q-38 -162 -172 -383 q-24 -15 -35 -15 q-53 0 -69 95 q-15 51 -15 120 l0 19 q0 8 -4 16 q4 6 4 10 l7 0 q32 -88 61 -206 q66 67 162 291 q18 61 18 84 l-4 0 l-188 -11 q-37 0 -88 19 l0 -4 q-8 -72 -133 -322 q-48 -76 -82 -76 q-44 0 -52 64 q0 43 23 69 l4 0 q8 -47 12 -88 l4 0 q74 82 160 291 q49 137 88 314 q-10 0 -76 -4 q-165 0 -196 73 l8 4 l8 0 q49 -38 129 -38 l51 0 q60 0 328 53 l7 0 Z" /><glyph glyph-name="uni4E08" unicode="&#x4e08;" d="M598 773 q19 -9 19 -29 q-12 -94 -27 -142 q51 7 131 29 q8 -12 8 -18 q0 -31 -149 -56 q-45 -168 -101 -321 l3 0 q231 -170 348 -289 l4 -13 l-12 -8 l-4 0 q-19 0 -111 90 l-240 187 l-8 0 q-98 -244 -164 -244 q-55 14 -55 102 l0 3 q0 82 26 124 l4 -8 l0 -22 q0 -90 13 -150 l8 0 q80 101 127 228 l0 8 q-129 88 -137 100 q0 8 6 8 l4 0 q31 -4 139 -79 l8 0 q33 81 93 272 l-4 0 q-191 -33 -250 -33 q-95 6 -101 49 q6 15 12 15 l7 0 q10 -27 47 -27 l8 0 q115 0 291 45 l49 179 l8 0 Z" /><glyph glyph-name="uni4E09" unicode="&#x4e09;" d="M338 684 q47 -38 236 -47 l43 -4 q35 -10 35 -22 l-2 -11 q-158 -123 -209 -168 l-52 -55 l-2 -8 q8 4 13 2 q190 10 219 8 q14 -18 14 -20 l0 -11 q-16 -14 -129 -53 q-25 -18 -43 -16 l98 65 l-4 0 q-131 -8 -180 -6 q-39 8 -37 37 q8 31 238 215 l4 -2 l0 8 l-8 2 q-207 11 -246 68 l0 12 q0 8 12 6 ZM445 271 l8 0 l0 -3 l-8 0 l0 3 ZM428 256 q-139 -100 -209 -168 l0 -4 l4 0 q230 66 402 57 l4 0 q230 -30 228 -53 q8 -2 14 -29 q-12 -10 -19 -10 q-79 25 -225 53 q-147 7 -445 -59 l-8 2 q-20 16 -18 27 q211 162 272 184 Z" /><glyph glyph-name="uni4E0A" unicode="&#x4e0a;" d="M480 727 q36 0 36 -227 l0 -39 q0 -12 199 -23 q15 -18 15 -20 l0 -12 q-44 -45 -218 -144 q-4 -78 -4 -117 l0 -32 q189 8 301 8 q54 -8 54 -19 l0 -8 q0 -8 -27 -16 q-106 0 -625 -23 q-35 8 -35 19 l0 4 q0 4 51 24 q70 35 230 152 q8 144 12 309 q-4 41 -4 152 l0 4 q2 8 8 8 l7 0 ZM516 426 q-4 -110 -4 -137 l4 0 q125 76 172 121 l-4 0 q-106 4 -168 16 ZM242 94 l8 0 l207 15 l0 118 q-74 -57 -215 -129 l0 -4 Z" /><glyph glyph-name="uni4E0B" unicode="&#x4e0b;" d="M736 721 l0 -8 q0 -27 -269 -57 q37 -37 37 -265 l0 -274 q0 -39 -4 -62 q2 -16 2 -69 l0 -45 q0 -48 -12 -48 l-4 0 q-37 0 -37 86 l2 230 q0 43 4 109 q0 4 -4 4 l4 20 l0 72 q0 14 -4 33 q0 4 4 4 q-4 172 -14 201 q-66 -7 -107 -7 l-25 0 q-100 0 -100 44 l0 4 q2 8 8 8 l4 0 q15 -19 76 -19 q96 0 432 50 l7 -11 ZM561 459 q70 -18 181 -166 l0 -12 q0 -11 -15 -11 q-26 0 -110 91 l0 2 l20 0 q0 8 -90 88 q0 8 6 8 l8 0 Z" /><glyph glyph-name="uni4E0D" unicode="&#x4e0d;" d="M320 775 q47 -15 248 -48 q61 -24 61 -57 l0 -20 q0 -45 -137 -236 q35 -41 35 -182 q0 -95 -6 -283 l-19 -10 q-39 12 -39 73 q0 15 14 35 q7 60 7 205 q0 49 -7 137 l-4 0 q-108 -147 -225 -266 q-14 -10 -25 -10 l-8 0 q-47 8 -47 65 l0 4 q0 70 25 113 l4 0 q10 -135 18 -135 q306 332 375 498 l4 26 q0 17 -240 50 q-38 14 -43 30 q0 6 9 11 ZM586 385 q129 -45 244 -149 q29 -31 29 -47 l0 -3 q0 -6 -15 -12 q-51 19 -69 45 q6 4 18 4 q-59 60 -219 148 l0 4 q0 4 12 10 Z" /><glyph glyph-name="uni4E0E" unicode="&#x4e0e;" d="M377 793 q25 0 31 -70 l0 -22 l4 -8 q6 4 10 4 q58 0 135 4 q152 0 152 -27 l0 -8 q0 -6 -12 -12 q-150 4 -224 4 l-28 0 q-17 0 -37 12 l-47 -256 q4 0 4 -4 q209 31 313 31 q99 -7 99 -50 l0 -14 q0 -55 -209 -439 q-13 -8 -23 -8 q-59 0 -111 224 l7 4 q39 -58 88 -168 q78 119 153 280 q50 93 50 128 q-9 4 -43 8 q-146 -11 -304 -33 l-12 0 q-57 0 -57 61 q53 257 53 300 l0 16 l-4 39 q8 4 12 4 ZM557 281 q15 -6 15 -11 q-41 -40 -226 -84 q-84 -16 -98 -16 q-23 0 -39 19 l0 8 q0 12 96 24 q222 60 252 60 Z" /><glyph glyph-name="uni4E11" unicode="&#x4e11;" d="M301 717 q15 -24 70 -24 l16 0 q62 0 316 24 q39 -12 39 -39 l0 -12 q-70 -320 -105 -590 q0 -10 -4 -15 q94 0 203 27 l8 0 q6 0 15 -16 l0 -8 q0 -46 -273 -46 l-203 0 q-215 0 -215 35 l0 4 l4 7 q47 -3 66 -3 l133 0 l0 7 q0 69 20 274 l-4 0 q-24 -8 -102 -12 q-51 0 -51 35 q4 12 24 12 q13 -12 19 -12 q108 4 121 24 q10 136 32 136 l15 0 q69 -52 149 -101 l4 -20 q-18 -23 -160 -54 l-28 -289 l172 0 q-62 64 -86 148 l8 4 q74 -98 86 -109 q43 289 113 574 q-236 -20 -293 -20 l-19 0 q-110 0 -110 47 l0 4 q2 8 8 8 l12 0 ZM445 494 l0 -23 q0 -26 -4 -78 q20 0 110 27 q-6 10 -98 74 l-8 0 Z" /><glyph glyph-name="uni4E13" unicode="&#x4e13;" d="M488 811 l4 0 q31 -18 31 -82 l0 -59 l-3 -8 l3 0 q61 4 90 4 q32 -10 32 -31 l-145 -110 l-12 -97 q116 35 219 35 l51 0 q6 0 19 -20 l0 -7 q0 -6 -11 -12 l-90 0 q-74 0 -196 -39 q-19 -117 -19 -156 l4 0 q158 46 242 46 q43 -9 43 -39 l0 -4 q-23 -97 -195 -238 l-4 0 l0 -4 q86 -66 86 -90 q0 -7 -8 -7 l-4 0 q-18 0 -137 93 q-78 43 -121 59 l0 12 q0 4 12 11 q41 0 125 -50 l4 0 q162 134 199 218 l-8 4 q-103 -15 -238 -54 q-47 11 -47 46 l0 12 q0 20 12 125 l-4 0 q-151 -39 -199 -66 q-18 6 -20 15 l0 8 q203 139 250 195 q4 14 16 94 q-59 -4 -86 -4 q-80 0 -106 43 l0 16 q2 8 8 8 l12 0 q12 -28 58 -28 l20 0 q102 0 102 12 l7 94 q-4 25 -4 51 l8 4 ZM512 568 q6 0 54 55 l-31 0 q-27 0 -27 -55 l4 0 ZM301 373 q131 41 137 47 q7 62 7 66 q-95 -78 -152 -113 l8 0 Z" /><glyph glyph-name="uni4E14" unicode="&#x4e14;" d="M320 732 q26 -11 51 -60 q205 45 231 45 q58 -2 58 -143 l4 -35 q-4 -51 -4 -109 l0 -102 q0 -15 -4 -43 l4 -8 q-8 -64 -8 -199 l0 -8 l47 4 l184 -6 q33 0 51 -29 l0 -4 l-8 -10 q-20 0 -90 6 q-180 0 -207 -8 l-20 6 l-449 -27 l-23 0 q-22 0 -32 21 l0 4 l8 10 l16 -4 l187 20 l12 0 l0 4 q-15 19 -15 54 q27 338 27 459 l0 4 q0 117 -31 147 l0 4 q0 7 11 7 ZM379 637 q8 -82 8 -133 l0 -4 l35 -2 q88 10 113 10 q12 0 28 -29 l-90 -98 q0 -16 -75 -119 l0 -4 q94 43 207 41 l8 0 q8 140 8 301 q0 82 -16 82 l-226 -45 ZM410 463 l-27 6 l0 -4 q0 -65 -12 -192 q145 170 145 196 l-4 0 q-59 -6 -98 -6 l-4 0 ZM367 223 q-8 -168 -19 -168 l4 0 q37 8 226 13 l0 4 q-90 112 -90 127 l4 0 q41 -31 110 -99 l3 0 l0 160 q-5 4 -15 4 l-4 0 q-80 2 -219 -41 Z" /><glyph glyph-name="uni4E16" unicode="&#x4e16;" d="M641 754 q35 0 35 -168 l0 -23 l4 0 l113 19 q0 -2 8 -12 l0 -11 q0 -16 -125 -41 q-4 -8 -4 -12 q0 -340 -24 -340 l-7 0 q-34 0 -61 86 l-70 -37 q-8 -39 -16 -39 q-31 0 -31 43 q8 222 8 269 l-4 0 l-137 -19 l0 -121 q0 -330 88 -330 l20 -4 q95 0 394 144 l10 0 l8 -4 q0 -49 -250 -152 q-84 -29 -153 -29 q-162 0 -162 298 l0 194 l-72 0 q-104 0 -125 37 l0 4 q2 8 8 8 q27 -16 93 -16 q100 6 100 12 q0 4 -4 4 l4 19 q-4 76 -4 133 l0 12 q2 8 8 8 l8 0 q29 0 29 -176 q141 13 141 27 l0 49 q0 80 -12 113 l8 4 l12 0 q31 -2 37 -166 q115 16 115 22 l0 183 q0 4 10 12 ZM516 494 l-6 -238 l2 0 q78 41 107 41 l12 213 q-4 0 -4 4 l-111 -20 ZM600 264 q9 -20 15 -20 q4 33 4 39 q-6 0 -19 -19 Z" /><glyph glyph-name="uni4E18" unicode="&#x4e18;" d="M523 721 q26 -8 26 -28 q0 -15 -217 -62 q18 -31 33 -184 q41 -27 98 -27 q82 0 252 49 l4 0 q10 0 17 -18 q0 -23 -144 -56 q17 -28 17 -106 q0 -60 -11 -221 l84 0 q175 0 175 -33 q0 -6 -15 -15 q-78 7 -139 7 l-4 0 q-207 0 -554 -33 q-26 0 -38 18 l0 8 q0 7 94 15 q0 2 110 14 l-8 15 q17 331 17 391 q0 63 -9 172 l-41 0 q-114 12 -114 64 q6 14 12 14 q25 -37 53 -37 q4 -4 29 -4 q86 0 273 57 ZM363 416 q0 -156 -19 -363 q189 11 205 15 q19 180 19 278 l0 45 q-31 -8 -82 -8 l-19 0 q-65 0 -104 37 l0 -4 Z" /><glyph glyph-name="uni4E1A" unicode="&#x4e1a;" d="M559 797 q31 0 31 -207 l0 -88 q17 0 137 55 q33 -8 33 -32 q0 -43 -166 -216 l0 -180 q2 -8 8 -8 q224 43 259 43 q6 0 16 -16 q0 -33 -369 -85 q-108 -6 -135 -6 q-232 13 -256 48 l0 4 q2 8 8 8 q133 -15 170 -15 q14 0 105 82 q-15 5 -23 19 l0 4 q0 20 12 104 l0 58 l-4 0 q-57 -39 -129 -99 l-12 0 q-37 0 -37 87 q0 94 -59 157 q0 7 8 7 q37 0 71 -70 q25 -70 25 -125 l4 0 q53 41 137 94 l0 4 q0 228 -20 310 l8 4 q55 0 55 -299 l3 0 q102 40 108 51 l0 299 q2 8 8 8 l4 0 ZM590 373 l4 0 q94 96 117 145 l-8 0 q-113 -30 -113 -43 l0 -102 ZM436 400 q0 -87 -8 -193 q115 102 115 119 q0 12 4 12 q0 4 -4 4 l4 27 l0 82 q0 8 -8 8 q-86 -45 -103 -59 ZM334 98 q193 6 193 19 q-15 33 -15 90 l8 0 q0 -4 19 -43 l8 4 q0 4 -4 4 q4 35 4 43 q-4 39 -4 47 q-113 -104 -213 -164 l4 0 Z" /><glyph glyph-name="uni4E1B" unicode="&#x4e1b;" d="M670 738 l12 0 q17 0 19 -52 l0 -8 q0 -100 -47 -291 q59 -26 205 -221 q20 -21 20 -37 l0 -4 q0 -6 -12 -12 q-29 12 -174 201 q-13 22 -43 45 l-4 0 q-76 -289 -138 -289 l-12 0 q-35 6 -35 32 l8 3 l19 -3 q51 50 131 328 q51 224 51 304 l0 4 ZM369 730 q16 0 20 -60 q0 -104 -55 -264 l4 0 q94 -78 154 -209 l0 -4 q-10 -7 -15 -7 q-26 0 -123 169 q-20 12 -20 24 l-12 0 q-95 -281 -150 -281 l-4 0 q-55 0 -55 84 q8 54 20 54 l4 -7 l0 -28 q0 -19 11 -60 l8 0 q129 185 194 509 q4 80 15 80 l4 0 ZM740 23 q53 0 69 -27 q-2 -8 -20 -16 q-2 0 -49 4 q-56 0 -351 -29 l-55 0 q-51 0 -70 25 l0 12 q0 8 11 8 q22 -12 51 -12 q344 35 414 35 Z" /><glyph glyph-name="uni4E1C" unicode="&#x4e1c;" d="M447 863 q20 -6 20 -27 l0 -20 q-2 -17 -22 -97 l166 15 q8 -2 8 -7 q-2 -36 -172 -47 l-19 0 q-115 -332 -115 -356 q39 0 191 82 l4 8 l0 12 q4 135 37 135 l4 0 q101 -22 99 -86 q0 -36 -99 -92 l0 -31 q-2 -106 -2 -414 l-16 -12 l-8 0 q-50 0 -156 217 q-15 31 -15 43 l0 7 l3 0 q125 -183 143 -197 q-2 98 0 143 l4 213 l-4 0 q-129 -71 -180 -71 l-7 0 q-49 14 -49 51 q2 37 119 348 q-59 0 -100 39 l2 11 q0 8 8 8 l12 0 q17 -19 92 -19 q15 33 44 140 l8 4 ZM561 537 q-8 -19 -10 -82 l0 -21 q66 35 66 68 l0 8 q-25 27 -56 27 ZM668 305 q23 0 96 -198 q43 -72 49 -95 q-10 -8 -12 -8 l-4 0 q-61 0 -141 293 q0 8 12 8 ZM326 262 l4 0 q16 -6 16 -26 q-75 -236 -125 -236 q-28 0 -35 41 q3 51 17 51 l8 0 l0 -16 l2 -27 q51 72 105 209 l8 4 Z" /><glyph glyph-name="uni4E1D" unicode="&#x4e1d;" d="M354 746 q39 0 93 -88 q4 -8 4 -19 q-2 -43 -195 -237 l0 -4 l160 26 q39 -12 39 -39 q-2 -28 -111 -172 q66 39 123 60 l4 -7 q-112 -116 -182 -135 l-4 0 q-23 2 -29 29 q0 6 139 195 l17 30 q-137 -22 -150 -22 l-16 0 q-47 8 -45 37 q0 16 133 149 q74 76 74 101 l0 4 q2 22 -62 82 l0 4 q0 8 8 6 ZM645 697 q31 0 29 -31 l0 -4 q0 -51 -121 -238 q0 -4 -12 -31 l4 0 q121 31 144 31 q24 -2 36 -29 q0 -18 -123 -145 l3 0 l143 43 q20 -20 20 -25 q-86 -94 -217 -137 l0 4 q23 25 121 94 l0 3 l-4 0 q-68 -29 -96 -27 q-25 8 -25 31 l0 8 q17 26 117 133 l2 4 q-119 -27 -131 -27 q-39 11 -37 41 q23 68 121 218 q20 47 22 63 l-4 19 l8 2 ZM740 63 q141 -16 139 -61 q-10 -8 -16 -8 q-95 24 -117 24 q-211 -8 -451 -43 q-31 -6 -66 -6 l-12 2 q-59 2 -80 33 l0 8 q2 8 8 8 q27 -10 46 -10 q45 -2 338 39 q47 6 211 14 Z" /><glyph glyph-name="uni4E22" unicode="&#x4e22;" d="M361 791 q63 -51 149 -51 q129 12 183 12 l10 -12 l0 -10 q0 -21 -148 -29 l-16 0 q18 0 37 -146 l113 25 l10 0 q8 -2 8 -8 l0 -13 q-31 -32 -131 -51 q-10 0 -15 -151 l3 0 q53 22 67 22 l8 0 q6 0 21 -22 q0 -25 -269 -345 l0 -4 l320 178 q-6 46 -25 84 l7 3 l14 0 q51 0 76 -324 q-13 -11 -21 -11 q-55 15 -55 117 l8 0 l8 -4 q-6 117 -16 117 q-264 -219 -342 -219 l-8 0 q-29 0 -41 37 q0 22 252 317 l4 8 l-8 0 q-285 -118 -349 -118 q-55 10 -55 37 l18 14 l4 0 l15 -14 l14 0 q105 24 295 102 l15 164 l-58 -4 q-88 6 -102 37 l0 8 q2 10 10 10 q45 -14 67 -14 q87 0 87 26 l0 7 q0 135 -15 135 l-18 0 q-103 0 -142 76 l0 4 q2 10 7 10 l4 0 Z" /><glyph glyph-name="uni4E24" unicode="&#x4e24;" d="M348 742 q103 -33 213 -33 q46 4 76 4 q4 -8 4 -12 q0 -23 -77 -29 q-222 17 -222 57 q-4 0 -4 1 l0 4 q0 8 10 8 ZM582 658 q22 -13 22 -45 q0 -21 -14 -142 l4 0 q103 8 185 8 q75 0 96 -40 l0 -19 q0 -76 -180 -410 q-17 -14 -29 -14 q-55 0 -109 219 l4 0 q35 -31 91 -160 l0 -4 l4 0 q80 123 164 330 q8 12 14 58 q0 2 -59 6 q-76 0 -193 -13 q-10 -39 -10 -55 q92 -53 139 -162 q4 -6 4 -18 l0 -4 q0 -5 -16 -13 l-8 0 q-3 0 -50 88 q-24 35 -73 80 l-4 0 q-37 -217 -62 -217 l-4 0 q-33 0 -37 45 l0 29 q0 39 12 39 q7 -51 13 -51 q49 211 49 235 l-4 0 q-135 -12 -135 -22 l-7 -33 q11 0 105 -96 l0 -7 q0 -6 -8 -6 q-23 0 -101 80 l-4 0 q-24 -164 -59 -164 q-15 6 -17 13 l47 213 l-51 -4 q-47 0 -47 34 l10 5 l15 0 q6 0 6 -5 q78 0 78 25 l26 193 l7 0 q20 0 22 -62 q0 -59 -16 -143 q143 16 143 22 q27 177 33 187 l4 0 ZM166 504 q45 0 76 -406 q26 29 29 29 l8 0 q-9 -119 -29 -119 l-8 0 q-39 0 -47 88 q-27 322 -41 404 q8 4 12 4 Z" /><glyph glyph-name="uni4E25" unicode="&#x4e25;" d="M691 777 q26 -6 26 -25 q0 -20 -156 -37 q17 -57 17 -135 l4 0 q98 53 106 53 l13 0 q6 0 16 -16 l0 -8 q0 -33 -139 -136 q-4 -22 -4 -35 l0 -34 l117 0 q71 0 71 -37 l-16 -8 q-33 8 -70 8 l-37 0 q-57 0 -233 -37 l4 -8 l0 -49 q0 -127 -107 -388 l-16 -12 l-4 0 q-41 4 -41 39 l0 18 q0 15 8 52 l8 0 q10 -31 10 -37 q41 69 93 284 q12 62 12 85 l0 12 q-19 -8 -82 -15 q-41 7 -41 19 l0 8 q8 12 8 14 l21 -4 q139 21 139 39 l0 13 l4 49 l-4 0 q-23 -21 -41 -29 q-41 0 -61 119 q-15 31 -33 53 q2 8 8 8 l4 0 q47 0 82 -131 l4 0 q53 23 53 58 q5 39 5 86 q0 55 -9 90 l-35 0 q-114 0 -133 57 l0 4 l13 7 q32 -31 110 -31 q135 12 306 37 ZM463 703 q21 -58 21 -135 q0 -5 -4 -41 l4 0 q53 26 53 41 l0 73 q0 21 -4 70 q-49 -4 -70 -4 l0 -4 ZM578 527 l4 0 q39 26 61 53 l-4 0 q-61 -29 -61 -45 l0 -8 ZM467 434 q66 37 66 80 l0 6 l-8 0 q-54 -24 -54 -59 l-4 -27 ZM467 387 q45 0 45 13 q0 20 -8 20 q-45 -27 -45 -33 l8 0 Z" /><glyph glyph-name="uni4E2A" unicode="&#x4e2a;" d="M516 781 q5 0 15 -15 q0 -14 -39 -84 l4 0 q119 -45 313 -231 q0 -6 7 -13 l0 -12 q0 -6 -11 -12 q-41 0 -104 68 q8 4 12 4 q-166 157 -240 168 l-4 0 q-180 -259 -276 -283 q-47 8 -47 43 q6 25 40 53 l7 0 q-15 -47 -15 -57 l4 0 q91 55 228 233 q88 132 98 138 l8 0 ZM492 529 q35 0 31 -250 q0 -41 -2 -353 l4 -47 q-7 -18 -19 -18 q-35 0 -33 110 q-4 21 -2 152 l6 398 q2 8 7 8 l8 0 Z" /><glyph glyph-name="uni4E2D" unicode="&#x4e2d;" d="M498 814 q31 0 29 -214 q4 0 4 -4 q102 15 196 23 q43 -12 43 -43 q-51 -74 -188 -176 q-4 0 -47 -27 q-2 -189 0 -379 q0 -105 -23 -105 q-39 0 -39 101 l0 8 q0 8 11 8 l2 332 l-4 0 q-82 -47 -132 -55 l0 -39 q0 -8 -8 -8 l-8 0 q-43 0 -43 106 q-29 275 -53 320 l8 4 l8 0 q21 -4 51 -94 l8 4 q13 -8 19 -8 q102 8 152 20 q-2 103 -2 164 l0 55 q2 7 8 7 l8 0 ZM531 557 l0 -129 l4 0 q106 76 176 152 l0 4 l-180 -27 ZM355 533 q-11 0 -46 12 l0 -4 q11 -59 33 -238 l8 0 q89 47 138 90 l0 19 q0 43 -4 137 q-109 -16 -129 -16 Z" /><glyph glyph-name="uni4E30" unicode="&#x4e30;" d="M473 814 q23 0 27 -140 l8 -4 l17 0 q39 0 94 4 q16 0 31 -24 l0 -11 q-2 -8 -144 -84 l0 -67 q31 8 74 8 l8 0 q6 0 16 -16 q-14 -23 -96 -70 l2 -76 l4 0 q129 14 177 14 q114 0 114 -30 l0 -7 q0 -6 -12 -12 q-23 0 -102 12 q-140 -12 -181 -20 l2 -20 q0 -50 -2 -109 q0 -8 4 -8 l-4 -39 l2 -107 q4 -151 -16 -151 q-47 0 -49 96 q2 55 14 55 q0 203 4 271 l-8 4 l-256 -58 q-15 5 -15 11 l0 12 q138 74 230 131 q45 31 45 35 l0 35 q-45 -8 -63 -8 l-11 0 q-22 0 -35 24 l0 12 q19 29 107 82 l-2 76 q-182 25 -184 90 l12 7 l8 0 q33 -54 164 -54 q2 27 2 43 l-2 86 q2 7 8 7 l8 0 ZM504 631 l0 -47 q64 43 70 43 l0 4 l-70 0 ZM406 477 q55 2 55 11 l-2 32 q-53 -40 -53 -43 ZM508 457 l0 -19 q27 19 35 19 l-2 4 l-6 0 l-27 -4 ZM316 295 l8 0 q61 16 139 31 l0 53 l-4 0 q-135 -80 -143 -80 l0 -4 Z" /><glyph glyph-name="uni4E32" unicode="&#x4e32;" d="M508 830 q27 0 27 -113 l0 -33 l6 -8 l27 4 l108 0 q39 -6 39 -35 q-55 -71 -174 -131 l0 -4 q6 -115 6 -147 l4 0 l185 32 q41 -10 41 -40 l0 -3 q-74 -90 -216 -172 q-6 0 -14 -4 q4 -328 -22 -328 q-39 0 -39 90 l0 31 q8 47 10 176 q-135 -53 -162 -53 l0 -20 q0 -29 -16 -35 l-7 0 q-32 0 -34 184 q-21 138 -52 138 l0 8 q0 6 11 12 q28 0 61 -53 l23 -4 q174 22 174 37 q4 0 4 4 q-4 67 -4 104 l0 23 l-4 0 q-51 -23 -135 -49 l4 -7 l0 -4 q0 -24 -15 -24 q-12 0 -35 35 l-10 0 l0 4 q0 6 12 12 q-18 240 -65 260 q0 4 12 12 q23 0 60 -53 q47 -8 67 -8 q13 0 107 8 l0 146 q0 8 8 8 l8 0 ZM541 568 l4 0 q76 45 111 80 l-33 0 q-82 0 -82 -11 l0 -69 ZM326 641 q16 -32 29 -162 q110 39 139 66 l-2 92 q-72 -4 -90 -4 q-23 0 -76 8 ZM547 229 l4 0 q78 44 154 115 l4 8 l-4 0 q-43 0 -158 -30 l0 -93 ZM313 291 l-8 4 l0 -4 q11 -37 25 -166 l4 0 q100 31 162 74 l0 22 q0 27 4 86 l-10 4 q-82 -20 -135 -20 l-42 0 Z" /><glyph glyph-name="uni4E34" unicode="&#x4e34;" d="M326 789 q43 0 43 -340 l0 -511 q0 -22 -12 -24 l-3 0 q-43 0 -43 98 l0 51 q11 13 11 35 l0 449 q0 201 -11 211 q3 31 15 31 ZM521 785 q32 -12 32 -66 l0 -24 q0 -58 -4 -156 q15 0 234 117 q16 -6 24 -19 l0 -12 q-45 -43 -215 -121 l0 -4 q31 0 117 -117 l0 -8 q0 -12 -16 -12 q-7 0 -117 117 q-15 0 -15 16 l-12 0 q-41 0 -47 55 q0 21 12 191 q0 6 -8 35 q10 8 15 8 ZM143 520 q54 0 54 -161 l0 -27 q2 0 24 23 l4 0 l0 -7 q0 -88 -43 -118 q-8 0 -36 24 q4 98 4 156 l0 35 q0 45 -15 63 l0 4 q2 8 8 8 ZM842 348 q33 0 43 -51 q-74 -301 -102 -301 l-8 0 q-37 0 -70 86 q-119 -55 -168 -55 q-8 4 -12 4 l0 -19 q0 -32 -15 -35 l-12 0 q-6 0 -19 19 l0 113 q0 153 -36 223 l0 4 q2 8 8 8 l8 0 q8 0 39 -43 l23 -4 l16 0 q96 0 305 51 ZM674 273 q4 -39 4 -58 l0 -102 l11 0 l0 4 l-3 20 l3 0 q18 -16 20 -16 q31 8 51 8 l0 -4 q-16 -23 -28 -23 q0 -20 28 -47 q58 162 82 254 q-4 0 -4 4 q-141 -40 -164 -40 ZM506 266 q19 -84 19 -161 l0 -35 l4 -7 l110 35 l-4 19 l0 47 q0 31 4 98 q-4 0 -4 4 q-20 -4 -78 -8 q-10 0 -51 8 Z" /><glyph glyph-name="uni4E38" unicode="&#x4e38;" d="M395 758 q11 0 19 -35 q-4 -65 -19 -157 q119 24 156 24 q76 0 86 -67 l0 -7 q0 -16 -71 -311 q-3 -23 -3 -55 l0 -15 q0 -35 39 -35 q275 50 275 86 q0 15 -152 269 l0 8 l4 0 q68 -57 136 -168 q67 -96 67 -125 q0 -53 -291 -107 q-6 -4 -28 -4 q-97 15 -97 87 l0 24 q0 64 78 350 l0 19 q0 6 -12 12 l-4 0 q-88 0 -195 -31 q-12 -59 -55 -209 l0 -4 q70 -78 70 -98 q0 -6 -11 -12 q-35 0 -74 47 l7 12 q0 8 -7 8 l-2 0 q-88 -256 -145 -256 q-62 10 -62 86 l0 10 l7 0 q6 -26 35 -57 l4 0 q43 39 125 267 q-25 26 -82 67 l0 8 q0 7 8 7 l4 0 q24 0 86 -46 q41 136 41 160 l-4 0 q-105 -31 -193 -43 q-20 0 -31 19 l0 4 q5 8 152 37 q92 24 92 39 q31 168 39 192 l8 0 Z" /><glyph glyph-name="uni4E39" unicode="&#x4e39;" d="M660 764 q33 -14 33 -80 l-2 -321 l16 0 q143 0 160 -37 l0 -8 q0 -5 -15 -11 q-59 15 -149 15 l-12 0 q4 -203 10 -363 q0 -20 -23 -33 l-4 0 q-80 0 -192 262 l4 0 q20 -20 129 -180 q31 -33 33 -33 q0 11 4 11 l-4 14 q-2 254 -2 318 l-3 0 q-51 0 -288 -23 l0 -2 q-1 -326 -23 -326 l-4 0 q-27 12 -27 29 q6 254 10 297 q-4 0 -4 2 l-18 -2 l-8 0 q-183 0 -183 45 l7 2 l4 0 q37 -6 90 -10 q35 4 71 4 l33 0 l8 4 q3 94 5 148 l0 49 q0 172 -29 172 l0 12 q0 6 8 6 l14 0 q25 0 41 -79 q117 63 296 118 l14 0 ZM373 625 q-14 8 -19 8 l0 -4 q7 -53 7 -117 l-2 -96 q0 -25 -4 -76 q4 0 4 -2 q75 10 287 21 q6 293 6 370 l-4 0 q-146 -51 -275 -104 ZM439 576 q61 0 153 -131 l0 -7 q0 -6 -12 -12 l-4 0 q-23 0 -62 45 l0 4 q7 0 7 4 q-35 54 -101 78 l0 7 q0 6 12 12 l7 0 Z" /><glyph glyph-name="uni4E3A" unicode="&#x4e3a;" d="M547 738 q8 0 12 -29 q-12 -61 -53 -219 q189 37 273 37 q65 -13 65 -52 q-49 -174 -166 -385 q-59 -100 -92 -100 l-4 0 q-59 0 -84 184 q-4 0 -19 66 l0 12 l3 0 q34 -27 81 -158 q5 -47 15 -47 q143 183 219 435 l0 8 l-4 0 q-307 -27 -307 -54 q-95 -311 -166 -413 q0 -7 -17 -17 l-20 0 q-31 17 -31 45 q6 47 16 47 l3 0 q8 -30 8 -39 q41 46 139 312 q21 53 21 68 q-138 -31 -234 -39 q-59 0 -76 32 l0 7 q2 8 8 8 l8 0 l15 -11 l33 0 q51 0 262 46 q70 256 86 256 l6 0 ZM264 654 q54 0 142 -111 q4 -8 4 -16 l-12 -7 l-3 0 q-30 0 -55 23 q0 8 15 8 q-62 72 -111 84 l0 11 q2 8 8 8 l12 0 ZM537 412 q88 -31 149 -107 l0 -16 q0 -6 -16 -12 q-45 0 -65 63 q-50 27 -80 64 q2 8 8 8 l4 0 Z" /><glyph glyph-name="uni4E3B" unicode="&#x4e3b;" d="M316 775 q67 -54 198 -74 q21 -10 21 -31 q-4 -18 -88 -41 l-4 8 q6 0 36 33 l0 4 q-88 8 -170 74 l-4 20 q2 7 8 7 l3 0 ZM492 582 q41 0 45 -53 l0 -4 q0 -52 -8 -162 l28 0 q84 -4 84 -52 q0 -55 -120 -186 q-1 -55 -1 -61 q1 0 1 -3 q59 3 86 3 l84 0 q16 0 43 4 q61 -7 61 -43 q-12 -4 -12 -7 l-27 3 l-129 0 q-186 0 -373 -48 q-18 6 -20 13 l0 8 q4 12 96 43 q88 43 96 61 q-20 50 -137 170 q-8 11 -8 23 l0 4 q0 31 203 68 q12 90 12 184 l-4 0 q-111 -18 -166 -18 l-27 0 q-33 8 -33 18 l0 4 q0 8 7 8 l41 0 q40 0 178 23 ZM525 324 q0 -43 -4 -140 q83 89 83 136 q-4 12 -24 12 l-47 0 q-8 0 -8 -8 ZM314 275 q61 -84 139 -162 q20 10 20 16 q7 135 7 185 q4 6 4 10 l-4 0 q-166 -23 -166 -45 l0 -4 ZM422 49 l4 0 q15 4 27 4 l0 4 q0 6 -12 11 l-19 -19 Z" /><glyph glyph-name="uni4E3D" unicode="&#x4e3d;" d="M209 756 q39 -51 170 -51 l60 0 q84 0 307 24 q27 -8 27 -16 l0 -12 q0 -21 -306 -41 l-78 0 q-198 22 -196 84 q0 6 12 12 l4 0 ZM201 545 q33 0 59 -80 q133 60 154 60 l16 0 q41 -17 39 -82 l6 -451 q-6 -19 -30 -19 q-39 9 -115 125 q-17 35 -31 80 l10 4 q41 -67 113 -145 l6 402 q2 53 -10 53 q-119 -53 -139 -53 l-19 14 q8 -55 6 -105 l0 -12 q-10 -283 -34 -315 l-3 0 q-26 0 -32 28 l4 23 l20 276 q-4 172 -30 185 l0 4 q2 8 10 8 ZM738 563 q45 0 43 -96 q2 -178 18 -488 q-6 -28 -18 -28 l-15 0 q-51 0 -139 176 l8 0 l111 -121 l0 4 q-8 211 -6 332 l2 113 q0 20 -4 68 q-17 0 -138 -52 l-12 0 q0 -43 2 -114 q-6 -201 -8 -326 q-4 -29 -21 -29 q-28 16 -28 33 q8 262 10 406 l2 57 l-4 49 q8 4 12 4 q15 0 31 -49 q125 61 154 61 ZM311 371 q46 0 103 -103 l0 -10 q0 -6 -12 -12 q-52 14 -52 53 q-8 14 -55 60 l0 4 q0 8 8 8 l8 0 ZM615 381 q33 0 100 -92 l0 -12 q0 -7 -8 -7 l-4 0 q-25 0 -76 60 q8 0 8 8 q-35 23 -35 31 l0 4 q0 8 7 8 l8 0 Z" /><glyph glyph-name="uni4E3E" unicode="&#x4e3e;" d="M574 834 q24 -14 24 -43 q-8 -33 -82 -109 l4 0 q41 19 50 19 q16 -6 24 -19 q0 -18 -133 -188 q-170 -246 -246 -250 q-51 0 -59 82 q0 45 24 74 l4 0 l0 -4 q2 -113 19 -113 l8 0 q100 76 191 199 q0 2 125 164 l-7 0 q-174 -70 -243 -70 q-35 4 -35 28 q8 0 8 7 q2 0 16 -4 q11 0 82 16 l0 8 q-18 0 -51 101 q-18 22 -43 43 l0 4 q0 4 12 12 q39 0 78 -78 l4 0 q47 74 62 74 q31 -31 31 -43 l4 0 q94 90 129 90 ZM441 678 q-25 0 -31 82 l0 11 l-4 0 q-39 -35 -39 -109 l0 -31 l4 0 q78 15 125 82 q43 41 67 86 l0 8 l-4 0 q-28 0 -94 -90 q-6 -39 -16 -39 l-8 0 ZM547 576 q62 -31 246 -224 q51 -59 51 -79 l-12 -7 l-4 0 q-29 0 -133 119 q4 6 4 11 q-51 53 -168 165 l0 7 q2 8 8 8 l8 0 ZM531 482 l8 0 q20 0 27 -78 q36 8 67 8 q15 -6 23 -19 l0 -12 q0 -6 -86 -74 l0 -67 l82 8 q94 0 94 -39 l-8 -4 q-19 0 -93 8 q-38 -4 -71 -4 q0 -4 -4 -4 l-7 -328 q-10 -8 -12 -8 l-12 0 q-31 0 -39 113 l4 0 l16 -11 l0 8 q0 52 3 218 l-3 0 q-59 -11 -176 -47 l-8 0 q-6 0 -16 16 l0 4 q186 111 207 141 l0 50 l-47 0 q-64 0 -78 43 l12 8 l4 0 q21 -16 43 -16 l39 0 l27 4 l0 32 l-4 47 l8 3 ZM570 373 l0 -27 q6 0 28 27 l-28 0 ZM445 217 q82 13 82 23 l0 35 l-4 0 q-78 -56 -78 -58 Z" /><glyph glyph-name="uni4E43" unicode="&#x4e43;" d="M234 738 q22 -31 82 -31 q71 0 293 31 q43 -9 43 -35 q-7 -33 -125 -195 l-23 -39 l0 -8 l4 0 q158 16 187 16 l28 0 q74 -14 74 -71 l0 -23 q0 -121 -125 -399 q-24 -19 -35 -19 q-73 0 -149 223 q0 11 -4 19 l8 4 l121 -195 l4 0 q78 117 137 351 l0 51 q0 23 -24 23 q-33 0 -214 -19 q-51 0 -59 47 q27 62 145 230 l-4 0 l-196 -27 q0 -20 4 -39 q0 -186 -105 -617 q-12 -24 -31 -24 q-49 0 -67 149 l0 27 l8 0 q0 -8 39 -121 q12 0 74 297 q31 166 43 328 l-35 0 q-100 0 -113 58 q2 8 8 8 l7 0 Z" /><glyph glyph-name="uni4E45" unicode="&#x4e45;" d="M355 811 q20 0 28 -59 q0 -35 -47 -254 l0 -12 l8 0 q33 0 261 121 q8 4 12 4 q31 -11 31 -35 q-33 -111 -246 -414 q-99 -141 -140 -141 l-16 0 q-78 24 -78 133 l0 24 q0 33 12 62 l8 0 q21 -179 54 -179 q92 78 188 230 q91 121 164 266 l-4 0 q-184 -110 -242 -110 q-55 12 -55 51 q0 31 51 250 l0 55 q0 8 11 8 ZM531 326 q106 -55 262 -269 q39 -57 39 -71 l0 -4 q0 -5 -16 -11 q-25 2 -101 125 q-53 74 -195 215 l0 7 q0 8 11 8 Z" /><glyph glyph-name="uni4E48" unicode="&#x4e48;" d="M480 744 q6 0 12 -12 l0 -15 q-35 -145 -211 -375 q-31 -43 -66 -43 q-31 10 -31 35 l0 4 q0 19 23 43 l4 0 l0 -35 l4 0 q107 109 207 293 q49 105 58 105 ZM574 584 q20 -12 20 -31 q0 -61 -180 -379 q176 133 324 226 q0 12 -15 75 l7 4 l8 0 q59 0 78 -450 q-5 -31 -27 -31 q-43 18 -43 51 l0 23 q2 8 8 8 q8 0 8 -12 l4 0 l0 12 q0 100 -24 297 l-4 0 q-134 -123 -418 -340 q-35 8 -35 20 l0 15 q231 334 285 512 l4 0 Z" /><glyph glyph-name="uni4E49" unicode="&#x4e49;" d="M668 756 q16 -6 16 -27 q0 -104 -170 -463 l0 -4 q80 -51 238 -186 l4 0 l0 4 q-4 8 -4 12 l4 0 q31 0 84 -84 q4 -8 4 -12 q-6 -16 -12 -16 l-12 0 q-25 0 -172 139 q-144 111 -154 111 q-115 -232 -160 -257 q-8 0 -16 -2 q-54 0 -72 125 l0 92 l4 19 l8 0 q31 -164 49 -187 q45 44 142 234 q4 8 4 12 q-183 129 -230 175 l0 4 q2 8 7 8 q22 0 239 -154 l4 0 q95 185 164 392 q13 65 23 65 l8 0 ZM314 676 q53 0 159 -135 l0 -16 q0 -5 -16 -11 q-21 0 -47 50 q-33 38 -111 100 q0 6 12 12 l3 0 Z" /><glyph glyph-name="uni4E4B" unicode="&#x4e4b;" d="M381 762 q6 0 51 -51 q52 -35 129 -35 q19 -18 19 -20 l0 -8 q-4 -11 -23 -11 l-36 0 q-70 0 -148 86 q0 6 -8 23 q4 16 16 16 ZM264 477 q267 -36 316 -79 q20 -25 20 -46 l0 -8 q0 -69 -204 -289 l-11 -16 l4 0 q261 111 472 211 l0 -8 q-76 -92 -191 -133 q-258 -129 -305 -129 l-23 0 q-31 16 -31 40 q0 27 171 214 q71 98 71 137 q0 20 -258 67 q-35 13 -39 27 l0 4 q2 8 8 8 Z" /><glyph glyph-name="uni4E4C" unicode="&#x4e4c;" d="M338 836 q31 -22 31 -72 q-8 -69 -19 -110 l7 0 q170 47 225 47 l8 0 q35 0 47 -55 q-12 -93 -51 -277 q162 43 176 43 q43 -16 43 -47 l0 -4 q-12 -132 -141 -408 q-33 -51 -59 -51 q-68 0 -101 239 l0 4 l-4 0 q-211 -59 -271 -59 q-51 0 -71 31 l0 8 q2 8 8 8 q14 -6 39 -12 q39 0 412 100 l16 0 q23 -4 23 -12 l0 -12 q0 -13 -144 -49 l0 -7 q78 -180 78 -184 l8 0 q138 250 160 416 q-164 -39 -199 -66 q-20 0 -151 -43 l-8 0 q-39 11 -39 39 q24 119 24 172 q-6 74 -20 74 q0 10 16 12 q43 -20 43 -102 l0 -35 q0 -35 -16 -117 l4 0 q96 31 96 43 q-47 95 -57 125 l8 4 l76 -90 q55 207 55 273 l0 4 l-240 -55 q-43 14 -43 43 q19 102 19 121 l0 36 q4 25 12 25 Z" /><glyph glyph-name="uni4E4E" unicode="&#x4e4e;" d="M611 791 q6 0 20 -21 l0 -4 q-65 -45 -233 -75 q0 -3 -85 -7 q-84 0 -102 35 q4 0 4 4 q39 -4 58 -4 q106 0 331 72 l7 0 ZM643 637 q19 -12 19 -28 q-16 -68 -137 -199 l0 -88 l4 -8 q141 30 242 30 l8 0 q6 0 16 -18 l0 -4 q0 -15 -188 -31 q-64 -12 -82 -20 q4 -134 4 -195 l0 -94 q0 -105 -43 -105 l-7 0 q-73 12 -163 172 q-19 53 -19 66 l4 0 q43 -76 125 -164 q21 -23 41 -23 q8 17 8 51 l0 125 q0 23 4 62 q-4 6 -4 23 q0 4 4 4 l-4 20 l0 51 q-168 -43 -225 -82 l-8 0 q-35 6 -35 31 q111 66 268 213 l0 78 l-4 0 q-45 -76 -135 -168 l-16 0 q-31 10 -31 62 q0 88 -12 207 l8 4 l4 0 q43 -33 43 -214 q117 113 143 113 l0 117 q0 8 7 8 l12 0 q26 0 31 -153 q90 98 106 157 l12 0 ZM402 291 q8 0 73 16 l0 52 q-77 -64 -77 -68 l4 0 Z" /><glyph glyph-name="uni4E50" unicode="&#x4e50;" d="M322 828 q65 -76 221 -76 l20 4 q29 -10 33 -24 l0 -7 q0 -24 -106 -24 l-15 0 q-8 0 -8 8 q15 6 15 12 q-86 0 -160 72 q-11 14 -11 27 q2 8 7 8 l4 0 ZM277 668 q41 0 41 -76 l0 -31 q0 -41 -25 -170 q186 68 186 84 q3 132 29 132 l4 0 q140 -66 140 -87 q0 -20 -132 -81 l0 -474 q0 -26 -26 -26 q-41 0 -119 182 q-6 24 -6 29 l6 4 q53 -86 96 -144 l4 0 l0 410 q-155 -74 -182 -74 l-8 0 q-33 0 -43 37 q39 137 39 232 q0 26 -15 41 q0 6 11 12 ZM523 572 l0 -84 q8 0 88 39 q0 10 -84 53 l-4 -8 ZM672 303 q33 0 109 -221 q4 -19 4 -33 l-10 -8 l-11 0 q-20 0 -61 148 q-31 61 -43 106 q0 8 12 8 ZM307 291 l4 0 q5 0 15 -14 l0 -4 q0 -62 -84 -220 l-8 -4 l-9 0 q-22 0 -28 15 l0 30 q2 8 8 8 l12 -8 q60 131 84 193 l6 4 Z" /><glyph glyph-name="uni4E54" unicode="&#x4e54;" d="M369 801 q33 -49 170 -74 q39 0 51 -24 l0 -8 q-2 -11 -88 -47 q-2 -35 -35 -117 q183 47 213 47 q4 0 17 -19 l0 -4 q0 -22 -220 -59 q-43 0 -77 -78 q-152 -246 -209 -246 q-48 12 -48 51 l0 11 q5 51 17 51 q8 0 18 -70 q92 74 197 254 l-4 0 q-133 -31 -150 -31 q-24 7 -24 15 l2 12 l272 187 q50 37 52 43 q-95 0 -166 82 q-3 6 -3 16 q1 8 7 8 l8 0 ZM270 484 q134 32 142 43 l45 94 l0 4 l-4 0 q-101 -66 -187 -141 l4 0 ZM555 496 q58 -2 254 -242 q33 -35 33 -51 l-16 -12 l-4 0 q-54 14 -103 63 l4 8 q27 -12 31 -12 l0 4 q-78 109 -211 230 q0 4 12 12 ZM617 379 q51 0 33 -500 q-5 -16 -11 -16 l-8 0 q-24 0 -33 32 l4 46 l2 24 q7 269 1 410 q8 4 12 4 ZM379 359 l4 0 q31 0 25 -132 q-4 -43 -6 -90 l-2 -47 q12 0 12 -8 l-2 -23 q0 -47 -15 -47 l-16 0 q-27 13 -27 39 q11 119 15 207 l2 47 l-2 47 l12 7 Z" /><glyph glyph-name="uni4E58" unicode="&#x4e58;" d="M377 818 q29 -35 105 -35 q24 0 102 4 q18 -6 25 -23 l0 -8 q-17 -31 -160 -76 l0 4 q10 15 78 64 l-27 0 q-137 6 -135 59 l0 4 q2 7 8 7 l4 0 ZM512 668 q17 0 49 -31 l-4 0 q-30 8 -32 8 l-4 -38 l0 -15 q0 -8 8 -8 q61 23 78 23 q0 4 -35 26 l8 0 q49 0 70 -29 l0 -12 q0 -18 -127 -51 l-2 -113 q-1 -106 0 -291 q-1 -22 69 -35 q125 -53 250 -77 q14 -15 14 -31 l-12 -8 l-12 0 q-139 30 -307 96 l0 -4 q4 -160 4 -203 l-15 -10 q-51 0 -65 133 l0 20 q10 0 24 -36 l4 0 l2 108 q-43 23 -43 31 q0 6 13 12 l28 0 l0 49 q-98 -131 -192 -207 q0 -8 -19 -8 q-26 0 -39 27 l0 8 q4 31 41 64 l4 0 l0 -3 l-4 -38 l4 0 q146 137 146 161 l-4 0 q-19 0 -35 23 l6 45 l0 27 l-4 0 q-123 -76 -135 -76 q-17 8 -19 16 l0 4 q111 111 129 140 l0 8 l-40 0 q-74 6 -74 35 q8 4 12 4 q45 -8 62 -8 l51 0 l20 -4 l0 16 q0 33 -6 64 l12 8 l4 0 q39 0 35 -230 l-2 -61 q4 0 49 65 l-4 19 l2 123 q0 39 5 123 q-3 0 -3 4 q-127 -39 -207 -39 q-28 0 -40 20 l0 4 q0 7 106 17 q146 35 146 47 q6 86 26 88 l4 0 ZM594 500 l8 0 q17 0 25 -62 q76 42 96 42 q17 -7 19 -15 l0 -4 q-21 -23 -41 -23 l0 -2 q82 -71 96 -100 l0 -20 q0 -23 -145 -54 l-15 0 q-51 13 -51 51 l2 76 q-39 -16 -47 -16 l-4 0 l0 4 q41 35 51 35 l2 57 l-4 27 l8 4 ZM627 346 l2 -45 q121 23 121 41 q-61 74 -61 86 q-60 -18 -62 -32 l0 -50 ZM293 266 q94 48 94 54 l2 37 l-4 0 q-92 -64 -92 -91 Z" /><glyph glyph-name="uni4E5D" unicode="&#x4e5d;" d="M363 762 q16 -8 16 -28 q0 -41 -39 -230 q86 19 191 31 l8 0 q51 -8 51 -43 q-27 -90 -123 -353 q-12 -32 -12 -57 l0 -8 l24 0 q54 0 339 108 q0 7 4 7 q-9 30 -140 239 l0 4 l4 0 q140 -129 187 -250 l0 -8 q0 -37 -127 -65 q-203 -78 -260 -78 l-19 0 q-63 18 -63 63 q28 107 123 347 q12 28 16 55 l-4 0 q-211 -25 -211 -43 q-92 -418 -107 -418 l-8 -4 l-8 0 q-41 0 -41 71 l0 33 l4 0 q8 0 18 -49 q9 0 91 367 l-2 0 q-48 -8 -82 -8 l-23 0 q-57 4 -57 24 l0 8 l4 7 l47 -4 q129 0 129 32 q49 250 66 250 l4 0 Z" /><glyph glyph-name="uni4E5F" unicode="&#x4e5f;" d="M395 764 q31 0 43 -188 q185 55 222 55 l4 0 q25 0 39 -27 l0 -16 q0 -49 -152 -320 l-12 -8 l-12 0 q-45 0 -78 133 q-6 0 -8 19 l-7 0 l0 -156 q0 -6 -16 -12 q-25 10 -31 27 q4 120 4 192 l0 55 q-98 -28 -98 -36 l0 -3 q0 -51 4 -51 q-4 -43 -4 -74 l0 -215 q0 -63 55 -63 q134 0 472 129 q41 24 47 43 q-8 25 -113 180 l0 8 l8 0 q156 -147 156 -196 l0 -11 q0 -73 -465 -184 q-45 -8 -62 -8 l-51 0 q-72 0 -94 98 l0 23 q0 20 8 309 q-4 0 -4 4 q-92 -28 -129 -32 q-43 8 -43 24 l0 12 q2 7 8 7 l8 0 q10 -7 15 -7 q37 0 141 43 q0 39 -8 117 q8 4 12 4 q35 -12 35 -106 l0 -4 l4 0 q90 28 98 35 q-4 84 -4 125 l0 20 l-4 47 q2 0 12 8 ZM434 459 q0 -10 50 -78 q32 -59 36 -59 q132 215 132 270 q-218 -51 -218 -67 l0 -66 Z" /><glyph glyph-name="uni4E60" unicode="&#x4e60;" d="M691 746 q47 -10 49 -47 l0 -8 q2 -748 -43 -748 l-8 0 q-64 0 -158 202 q28 -22 133 -149 q39 397 31 707 l0 4 q-205 -39 -326 -39 q-135 0 -137 55 l12 7 l8 0 q21 -23 76 -23 l70 0 q47 0 293 39 ZM299 549 q78 -63 195 -76 q22 -14 22 -32 q-24 -29 -75 -62 l-3 8 q9 0 27 54 q-78 0 -164 77 q-12 13 -14 23 q2 0 12 8 ZM580 395 l0 -4 q-66 -98 -201 -190 q-72 -53 -86 -53 l-12 0 q-19 12 -21 26 q8 23 39 47 l4 0 q8 0 8 -16 q175 119 261 190 l8 0 Z" /><glyph glyph-name="uni4E61" unicode="&#x4e61;" d="M443 830 q34 0 39 -41 l0 -19 q0 -98 -142 -278 l0 -4 q191 73 217 73 q25 -8 25 -32 q-14 -50 -180 -269 l0 -4 l4 0 q151 82 283 209 l12 0 q22 -8 22 -24 q-106 -257 -237 -474 q-45 -71 -88 -71 q-62 0 -91 131 l4 0 l46 -80 q16 -11 30 -11 q56 44 215 335 q35 77 46 94 l0 8 l-5 0 q-192 -160 -293 -201 l-18 0 q-29 16 -29 31 q17 33 203 274 q0 7 21 35 l0 4 q-191 -80 -224 -80 q-37 15 -37 37 q140 189 140 209 q37 70 37 123 q-7 0 -7 8 l0 7 q2 10 7 10 Z" /><glyph glyph-name="uni4E66" unicode="&#x4e66;" d="M445 801 q35 0 35 -168 l0 -8 q2 -8 8 -8 l71 0 q58 -10 58 -47 q0 -39 -109 -136 l4 0 q177 35 246 35 q51 -14 51 -51 q-12 -102 -145 -270 q-29 -27 -51 -27 q-54 0 -101 176 l8 4 q33 -45 85 -133 q143 158 157 258 l0 4 q-4 0 -4 4 q-51 0 -270 -47 l0 -371 q0 -61 -4 -184 l-11 -8 l-12 0 q-25 0 -39 94 q-6 0 -12 43 l8 4 q10 -24 16 -24 q4 163 4 243 l0 191 q-155 -39 -239 -51 q-33 0 -47 24 l0 7 q0 2 12 12 l27 -4 q43 0 247 55 l0 117 l-4 47 l-47 0 q-98 0 -98 43 q2 0 12 8 q21 -16 54 -16 l79 0 l0 172 q0 4 11 12 ZM652 777 q55 0 114 -172 l-12 -7 l-4 0 q-31 0 -70 70 q11 4 11 8 q-13 51 -50 90 l0 4 q2 7 7 7 l4 0 ZM484 582 l0 -105 q77 70 86 101 l-7 4 l-79 0 Z" /><glyph glyph-name="uni4E70" unicode="&#x4e70;" d="M256 773 q35 -39 172 -39 l250 12 l8 4 q29 0 50 -31 l0 -8 q0 -59 -191 -148 q19 -22 19 -32 q-11 -111 -39 -218 l4 0 q176 64 184 82 l0 3 q-20 0 -63 32 l8 4 q92 0 106 -55 q0 -24 -219 -109 q-51 -8 -51 -71 q-84 -265 -125 -265 l-4 0 q-39 13 -39 43 l0 31 l4 19 l8 0 q12 -43 19 -43 q49 104 94 250 q-178 -70 -289 -93 l-16 0 q-5 0 -15 15 q0 10 269 102 q79 27 79 55 q50 216 50 242 l-11 0 q11 15 144 133 l20 23 l-4 0 q-141 -12 -199 -12 l-75 0 q-129 4 -164 55 l0 12 q2 7 8 7 l8 0 ZM291 625 q82 -82 148 -86 q24 -14 24 -35 q-41 -31 -63 -31 l0 4 q16 21 16 31 q-137 47 -137 101 l0 4 q0 4 12 12 ZM314 371 q45 4 145 24 l0 -4 q-68 -51 -156 -51 l-4 0 q-22 0 -31 19 l0 8 q78 67 93 67 l-47 -63 ZM604 246 q66 0 187 -297 l0 -8 q-14 -11 -20 -11 q-37 0 -85 86 l0 15 l3 0 q4 0 24 -15 l4 0 l0 4 q-55 130 -125 218 q2 8 8 8 l4 0 Z" /><glyph glyph-name="uni4E71" unicode="&#x4e71;" d="M252 766 q37 -24 170 -41 q16 -12 16 -16 l0 -16 q0 -9 -79 -31 l0 12 q16 17 16 27 l-4 0 q-100 0 -135 47 l0 8 q2 10 8 10 l8 0 ZM332 650 l12 0 q25 0 31 -113 l0 -23 l4 -8 q59 23 59 31 l-8 12 l0 4 l15 0 q22 0 35 -24 l0 -11 q-3 -18 -101 -59 l0 -20 q0 -56 -4 -177 l4 0 q74 23 98 23 q39 -15 39 -43 q-73 -152 -248 -246 l3 -23 q-5 -16 -11 -16 q-43 0 -43 117 q-8 192 -39 192 l0 7 q2 8 8 8 l3 0 q34 0 51 -58 q92 13 92 31 q0 33 -4 51 q4 39 4 76 l0 51 l-4 7 q-170 -62 -240 -62 q-25 0 -39 23 l0 4 q0 6 12 12 l27 -4 q244 59 244 82 q0 82 -8 152 l8 4 ZM609 619 l8 0 q24 0 28 -62 l0 -63 q0 -62 -24 -314 q0 -43 31 -43 l20 0 q228 39 228 82 q0 13 -82 135 l-11 23 l7 4 q137 -121 137 -186 q0 -54 -263 -101 l-12 0 q-72 0 -98 62 l-4 35 q31 291 31 377 q-3 41 -3 47 l7 4 ZM277 191 q-25 8 -29 8 l0 -4 q16 -80 16 -175 l4 0 q177 169 193 226 l-4 0 q-166 -55 -180 -55 Z" /><glyph glyph-name="uni4E86" unicode="&#x4e86;" d="M299 713 q31 -31 105 -31 l188 15 q17 -8 27 -23 l0 -12 q-2 -29 -158 -215 l12 0 q88 8 93 8 q55 0 65 -70 l0 -12 q-6 -146 -106 -367 q-17 -16 -19 -16 l-16 0 q-43 0 -86 160 q-39 84 -39 102 l0 4 l4 0 q88 -104 115 -203 l4 0 q96 217 100 343 q0 20 -8 20 q-17 0 -121 -8 q-51 10 -49 43 q18 35 154 199 l0 8 q-27 -8 -154 -12 q-111 0 -127 55 l0 4 q2 0 12 8 l4 0 Z" /><glyph glyph-name="uni4E88" unicode="&#x4e88;" d="M322 779 q35 -47 67 -47 q179 -11 179 -43 l0 -11 q0 -26 -132 -129 l0 -4 l3 0 l110 16 l4 0 q19 -12 19 -24 q-21 -41 -125 -105 l4 0 q233 47 313 47 q54 -10 54 -40 q0 -33 -187 -97 l-4 8 l121 89 l-8 0 q-35 0 -222 -35 q15 -54 15 -152 l0 -47 q0 -230 -39 -277 l-8 -4 l-15 0 q-59 0 -153 203 l-4 23 l4 0 l133 -179 l8 0 q31 115 31 281 q-4 107 -4 141 l-7 3 q-200 -50 -293 -66 q-43 8 -43 24 l0 7 q0 4 11 12 l8 0 q10 -8 16 -8 q234 45 234 78 q4 0 90 75 l0 3 q-27 -11 -78 -11 l-8 0 q-23 0 -39 31 q0 12 133 129 l8 12 l0 4 q-204 9 -204 62 q-3 0 -3 12 l0 8 q0 3 11 11 Z" /><glyph glyph-name="uni4E89" unicode="&#x4e89;" d="M348 846 l7 0 q28 -16 28 -67 l0 -15 q-8 -94 -8 -104 l0 -4 l-4 -8 l8 -3 q23 0 205 58 q23 0 35 -27 q-41 -78 -154 -151 l0 -4 l4 0 q119 36 220 57 q45 -15 45 -45 l0 -4 q0 -47 -11 -82 l4 0 q41 12 50 12 l4 0 q6 0 20 -20 l0 -7 q0 -4 -90 -47 q-49 -194 -76 -194 q-26 0 -59 47 q-39 -13 -39 -19 l0 -76 q0 -245 -27 -245 q-6 -3 -14 -3 q-74 9 -176 177 l0 8 q8 -2 125 -125 l28 -17 l4 0 q11 41 11 162 l0 103 q-158 -57 -191 -57 q-18 6 -18 14 l0 8 q14 18 209 133 l0 19 l-4 37 q-129 -21 -224 -29 q-67 6 -67 26 l0 3 q0 8 12 8 q12 -8 24 -8 q91 0 255 43 q0 51 -7 82 q-98 -27 -141 -27 l-20 0 q-84 6 -84 27 l0 8 l4 8 q32 -8 61 -8 q98 0 133 39 l115 119 l-4 0 q-103 -39 -143 -39 l-11 0 q-55 8 -55 47 q12 115 12 155 q-4 27 -4 31 l8 4 ZM529 404 q149 26 149 39 q11 36 11 98 q-85 -20 -179 -51 l19 -86 ZM533 332 q80 43 94 57 q-82 -16 -98 -24 l4 -33 ZM561 305 q0 -6 31 -28 q47 0 47 39 q11 28 11 38 l-4 0 q-85 -43 -85 -49 ZM533 262 l20 4 l0 4 q0 5 -20 19 l0 -27 ZM422 219 q58 23 66 23 l0 20 l-4 0 q-66 -39 -66 -43 l4 0 ZM611 258 l0 -8 l8 0 l0 8 l-8 0 Z" /><glyph glyph-name="uni4E8B" unicode="&#x4e8b;" d="M482 828 q45 0 45 -121 l4 0 q92 6 106 6 l8 -10 l0 -12 q-6 -17 -114 -23 l0 -57 l4 0 q26 0 86 16 q31 -12 31 -31 q-27 -41 -121 -90 l0 -90 q157 25 186 25 q33 -5 33 -33 l0 -15 l-4 -8 l4 0 q29 11 41 11 q25 -7 27 -19 l0 -12 q0 -10 -93 -29 q-82 -154 -114 -154 q-15 0 -39 21 q-41 -10 -41 -17 q4 -159 4 -243 q0 -80 -35 -80 q-88 22 -180 198 l-4 17 l4 0 q108 -137 159 -170 q7 20 7 88 l0 57 l-4 21 q4 8 4 12 q-4 8 -4 12 q0 4 4 4 l-4 19 l0 25 l4 20 q-4 0 -4 4 q-169 -68 -214 -68 q-30 9 -36 23 l0 10 q30 43 254 144 l0 4 q-4 0 -4 4 q-228 -53 -306 -53 l-12 0 q-29 0 -41 22 l0 4 q0 6 12 11 q10 0 21 -7 q61 0 330 64 l0 45 q-142 -21 -209 -21 q-60 5 -60 25 l0 4 q0 6 12 12 l7 0 q14 -12 28 -12 q62 0 218 27 l4 8 l0 66 l-4 0 q-39 -15 -44 -21 q5 -12 5 -20 q-7 -7 -9 -7 q-14 0 -32 15 q-48 -15 -60 -15 l0 4 q0 3 49 35 l-78 154 l7 4 q22 0 61 -57 q19 12 105 26 l0 68 l-4 0 q-152 0 -152 53 q2 8 8 8 l8 0 q25 -22 129 -22 l7 -4 l4 8 l0 86 l-15 16 l0 3 q0 4 11 12 ZM531 555 q45 23 49 35 q-49 -4 -49 -16 l0 -19 ZM391 547 q5 -20 31 -61 q51 30 64 43 l0 45 q-56 -11 -95 -27 ZM531 344 l4 -8 q162 31 162 41 q12 27 12 35 q-178 -25 -178 -35 l0 -33 ZM535 295 q0 -4 49 -49 l0 -4 l12 0 q23 0 64 74 q4 0 4 4 l0 4 q-47 -8 -129 -29 ZM297 146 l8 0 q174 55 181 69 l0 37 l-4 8 q-74 -39 -185 -110 l0 -4 ZM531 260 l0 -33 l16 0 q8 0 8 7 q-16 22 -16 26 l-8 0 Z" /><glyph glyph-name="uni4E8C" unicode="&#x4e8c;" d="M367 607 q135 -35 293 -35 q20 -17 20 -19 l0 -8 q0 -10 -94 -43 l-4 8 q6 0 23 23 l0 4 l-11 0 q-213 16 -235 63 q2 7 8 7 ZM820 252 q6 0 12 -12 l0 -11 q0 -38 -418 -90 q-66 -4 -78 -4 q-168 10 -168 35 l0 8 q0 8 12 8 q35 -8 50 -8 l141 0 q90 0 449 74 Z" /><glyph glyph-name="uni4E8E" unicode="&#x4e8e;" d="M369 758 q57 -53 90 -57 q37 -19 180 -37 l19 -23 l0 -4 l-109 -86 l12 -119 q156 58 156 82 l8 4 l4 0 q37 -8 37 -34 q-2 -13 -205 -93 q3 -116 3 -153 q0 -330 -27 -330 q-6 -2 -14 -2 q-41 4 -127 141 q-64 76 -85 135 l5 4 q73 -92 172 -206 q8 -9 8 -15 l8 0 q8 92 12 344 q-4 39 -4 64 q-219 -96 -274 -109 q-13 0 -29 23 l0 10 q62 70 209 176 q76 70 90 86 l-4 7 l0 12 l-4 45 q8 4 12 4 q25 -12 25 -35 l4 0 q49 41 49 45 q-96 0 -205 68 l-24 29 l0 16 q2 8 8 8 ZM279 313 l233 97 l0 22 q0 27 -4 82 q-154 -123 -235 -201 l6 0 Z" /><glyph glyph-name="uni4E8F" unicode="&#x4e8f;" d="M412 773 q67 -64 164 -64 q33 -16 33 -37 l0 -4 q0 -12 -130 -70 l0 7 q72 67 72 71 q-84 0 -151 74 l0 16 q0 7 8 7 l4 0 ZM813 553 q25 0 27 -33 q-184 -41 -371 -77 l0 -29 q0 -51 -16 -152 q113 49 184 49 q58 -16 58 -57 l0 -8 q0 -100 -111 -324 q-20 -27 -41 -27 l-16 0 q-64 0 -148 273 l4 0 q27 -14 127 -221 l13 -8 q49 61 106 221 q21 69 21 102 l0 13 l-17 0 q-49 0 -184 -62 l-8 0 q-37 6 -37 37 q30 156 30 184 l0 4 q-43 -12 -174 -24 l-28 0 q-54 0 -74 33 l0 8 q2 8 8 8 q43 -12 49 -12 q41 0 560 102 l38 0 Z" /><glyph glyph-name="uni4E91" unicode="&#x4e91;" d="M279 697 q129 -70 211 -70 q94 -14 94 -31 l0 -4 q0 -8 -23 -16 q-204 28 -258 74 q-10 0 -35 32 l0 7 q0 8 11 8 ZM510 436 q35 -20 35 -43 q-20 -77 -149 -282 l4 0 q151 106 258 168 q-10 55 -31 110 l0 4 l8 0 q74 0 97 -372 l0 -19 q-2 -10 -19 -16 q-37 0 -67 86 q-3 6 -3 20 l7 4 l32 -28 q-14 200 -28 200 q-82 -106 -230 -207 q-70 -51 -86 -51 q-14 0 -35 27 l0 4 q0 14 164 285 q25 45 31 74 l-4 0 q-125 -27 -176 -27 l-23 0 q-53 0 -66 47 l7 4 l12 0 q16 -16 31 -16 l43 0 q155 28 188 28 Z" /><glyph glyph-name="uni4E92" unicode="&#x4e92;" d="M629 729 q29 -12 33 -26 l0 -8 q0 -11 -45 -17 q-8 0 -45 6 q-62 -6 -140 -18 l4 -20 l0 -5 q0 -36 -26 -207 l8 -4 q113 0 236 8 q34 0 51 -42 q-35 -125 -236 -339 q-18 -2 -18 -12 l0 -4 q4 0 4 4 q150 4 229 4 l21 0 q108 0 137 -22 q12 -13 12 -29 q0 -8 -8 -8 l-8 0 q-31 8 -33 8 l-276 0 q-95 0 -340 -31 q-15 6 -15 12 l0 7 q0 22 181 45 q55 0 71 47 q125 137 146 186 q-119 -53 -179 -53 q-57 16 -57 62 q0 22 57 389 q-4 0 -4 4 l-20 -4 l-14 0 q-115 0 -115 49 l16 14 l6 0 q21 -22 37 -22 l29 0 l301 26 ZM402 400 q-17 -129 -17 -144 q220 45 220 55 q45 68 45 85 l0 4 q-109 -4 -173 -4 l-45 0 l-30 4 Z" /><glyph glyph-name="uni4E94" unicode="&#x4e94;" d="M266 717 q64 -51 150 -51 q41 0 207 27 l16 0 q6 0 15 -15 l0 -4 q0 -22 -209 -47 q8 -27 8 -49 l0 -99 q0 -28 -4 -86 l82 0 q176 0 176 -77 l0 -7 q-8 -94 -127 -246 l0 -4 l4 0 q285 0 285 -20 l8 -12 l0 -7 l-8 -12 l-215 12 q-39 0 -492 -24 q-27 10 -27 27 q0 8 258 28 l0 4 q-4 15 -4 27 q0 92 7 270 l-87 0 q-43 5 -43 21 l0 8 q2 8 7 8 l127 4 l0 3 q8 129 8 206 l0 21 q0 8 -66 16 q-71 27 -88 62 l0 4 q0 6 12 12 ZM449 355 q0 -3 -4 -3 q-6 -125 -6 -186 l0 -115 l22 4 l66 0 q8 2 36 76 q91 137 91 201 l0 4 q-56 19 -205 19 Z" /><glyph glyph-name="uni4E9A" unicode="&#x4e9a;" d="M672 740 q19 0 29 -17 l0 -8 q0 -16 -146 -35 q33 -125 33 -381 l4 0 q78 78 125 166 l4 0 q9 0 19 -20 q-8 -49 -144 -207 l0 -8 q0 -58 4 -177 q-4 0 -4 -4 l8 -4 l177 0 q45 -10 45 -33 q-8 -2 -8 -8 l-37 4 l-31 0 q-480 0 -547 -33 l-4 0 q-8 0 -8 5 l0 12 q0 14 94 41 q84 55 110 80 l0 106 l-2 0 l-65 -53 l-4 0 q-45 0 -53 113 q-11 80 -42 137 l0 4 q1 8 7 8 l8 0 q35 0 76 -201 l0 -12 l4 0 q65 51 71 60 q-2 8 -2 12 q0 190 -8 307 q4 29 10 29 l3 0 q36 0 36 -324 l4 0 q62 37 74 37 l0 -4 q0 -4 -74 -70 l0 -76 q7 0 17 44 l8 0 l0 -60 l4 0 q6 0 80 80 l0 8 q0 158 -20 418 q-74 -10 -134 -10 l-36 0 q-87 0 -113 33 l0 12 l4 0 q47 -12 65 -12 l68 0 q176 12 291 41 ZM438 49 q-28 0 -32 19 l-4 0 q-37 -27 -45 -27 l0 -4 l4 0 q186 8 186 12 q-22 43 -24 80 l4 0 q4 0 24 -24 l0 57 l-4 27 q-92 -80 -92 -91 q-4 -49 -17 -49 Z" /><glyph glyph-name="uni4E9B" unicode="&#x4e9b;" d="M291 758 q39 0 39 -211 l8 0 q31 0 127 37 l12 -16 l0 -7 q-63 -47 -118 -47 l-21 0 l-8 4 l0 -131 l-2 -18 l6 -4 q78 78 96 84 q2 -8 2 -11 q-12 -49 -200 -233 q-11 -8 -17 -8 q-47 0 -47 121 q0 211 -37 229 l0 4 q2 8 8 8 l13 0 q30 0 51 -129 l12 -174 q4 0 76 68 l-4 20 l0 279 q0 80 -8 127 l12 8 ZM498 736 q39 -23 39 -76 q8 0 12 -127 l8 -4 q0 4 160 86 q29 -2 29 -29 q-43 -27 -55 -27 q163 -112 163 -151 l0 -13 q-43 -49 -131 -84 q-118 -65 -160 -65 q-51 0 -51 111 q-2 22 -2 122 l-4 17 q4 8 4 12 q-6 213 -30 213 l0 8 q0 7 6 7 l12 0 ZM553 482 q0 -111 8 -193 q41 0 246 123 l0 12 q0 4 -135 123 q-47 -26 -119 -47 l0 -18 ZM371 234 l8 0 q33 -29 82 -29 q64 4 105 4 l16 -18 l0 -3 q-16 -22 -84 -42 l0 4 l14 18 l0 4 q-14 0 -28 -4 q-99 0 -121 62 l8 4 ZM764 49 l0 -10 q-24 -33 -325 -51 l-46 0 q-147 0 -168 30 l0 5 q2 8 7 8 q98 -8 168 -8 q59 0 352 41 l12 -15 Z" /><glyph glyph-name="uni4EA1" unicode="&#x4ea1;" d="M377 754 q143 -41 199 -123 l0 -12 q0 -6 -12 -12 l-3 0 q-36 0 -59 28 l0 8 l16 0 q-14 27 -153 91 l0 8 q0 6 12 12 ZM820 475 q20 -6 20 -28 q0 -13 -223 -31 q-54 -14 -236 -33 q25 -47 25 -112 l-8 -191 q0 -35 16 -35 q68 0 322 115 q0 4 12 8 q18 0 31 -27 q0 -37 -318 -135 q-4 -4 -27 -4 l-8 0 q-61 0 -76 82 l11 215 q-2 80 -15 80 l-35 0 q-176 0 -176 64 q0 6 11 12 l4 0 q28 -35 100 -35 l41 0 l514 55 l15 0 Z" /><glyph glyph-name="uni4EA4" unicode="&#x4ea4;" d="M367 820 q162 -64 160 -117 l-2 -4 q-4 -11 -23 -11 l-8 0 q-66 1 -64 19 q0 8 47 16 q-43 37 -122 82 l0 8 q0 7 12 7 ZM553 660 q17 -8 25 -23 l0 -4 q-43 -112 -305 -403 l-7 -3 l-8 0 q-22 0 -35 23 q2 51 35 70 q8 0 6 -23 l7 0 q254 299 256 320 l-4 0 q-199 -62 -259 -62 l-4 0 q-22 0 -31 19 l0 4 q1 8 7 8 l12 0 q37 0 305 74 ZM578 516 q47 0 184 -172 l0 -12 l-16 -8 q-14 0 -105 106 q-2 -35 -102 -211 q125 -104 268 -231 q19 -25 17 -39 l0 -4 q0 -6 -15 -11 q-16 0 -110 101 q-176 149 -178 149 q-132 -200 -183 -200 l-12 0 q-47 0 -51 75 q4 35 16 35 q12 -71 25 -71 q49 26 114 118 q45 64 47 78 q-45 27 -104 58 l0 8 q2 8 8 8 l4 0 q25 0 111 -47 l4 0 q102 192 119 211 q-55 43 -53 47 l0 4 q0 8 8 8 l4 0 Z" /><glyph glyph-name="uni4EA7" unicode="&#x4ea7;" d="M422 857 q47 0 135 -115 l0 -8 q0 -9 -8 -9 l-10 0 q-64 13 -64 25 l15 16 q-39 47 -82 74 l0 4 q0 6 14 13 ZM662 660 q26 -10 26 -17 l0 -12 q0 -8 -49 -16 l0 -4 q6 0 11 -13 l0 -41 q-9 -69 -93 -184 l0 -4 q129 27 175 27 q18 0 30 -19 q0 -18 -205 -49 l-86 -25 l-22 0 q0 -8 4 -8 q-8 -111 -131 -399 q-25 -35 -41 -35 q-43 0 -52 65 l0 37 l3 19 l8 0 q24 -68 30 -68 q76 143 142 381 l-4 0 q-88 -16 -138 -16 q-63 0 -82 28 l0 7 q1 10 7 10 q28 -10 37 -10 l8 0 q276 24 276 71 q105 148 115 230 l-4 0 l-197 -21 q29 -59 29 -168 q16 0 16 -8 q-10 -53 -22 -53 l-4 0 q-37 0 -37 49 l0 4 q-2 172 -19 172 l-16 0 q-119 0 -119 33 l0 4 q0 8 8 8 q39 -8 60 -8 q47 0 336 33 Z" /><glyph glyph-name="uni4EAB" unicode="&#x4eab;" d="M412 813 q63 -53 160 -86 q8 -12 6 -24 q-14 -21 -70 -19 l-4 7 l17 20 l0 4 q-95 35 -121 82 l0 8 q0 8 12 8 ZM762 691 q15 -5 21 -21 l0 -8 q-2 -33 -365 -57 l0 -3 q8 -47 6 -106 l8 -6 q99 82 148 80 l4 0 q23 -2 33 -29 l0 -27 q-8 -61 -76 -129 q-16 -12 -29 -10 l-4 0 q-33 0 -59 57 l-8 0 q-15 -49 -23 -49 l-16 0 q-21 2 -17 115 q4 90 -2 106 q-51 -10 -139 -6 l-31 2 q-45 2 -61 37 q12 23 37 21 q4 -6 2 -23 l20 0 q467 15 551 56 ZM461 459 q25 -41 37 -41 q82 66 84 125 q-4 0 -4 4 q-39 -6 -117 -80 l0 -8 ZM602 361 q21 0 35 -23 l-2 -4 q0 -27 -90 -113 l0 -4 l16 -2 q31 0 41 -45 l-2 -16 q64 2 97 0 l59 -2 q21 -2 35 -25 l0 -8 q-2 -6 -18 -12 q-52 12 -80 12 q-95 0 -95 -8 q-45 -224 -65 -222 l-19 0 q-127 131 -151 132 l-134 53 q-10 16 -10 28 q25 9 172 19 q7 4 170 27 l2 32 l-4 0 l-36 -2 q-21 2 -35 25 l0 4 q2 18 92 113 l0 4 q-135 -33 -185 -31 q-59 4 -57 43 q8 2 12 2 q19 -12 31 -12 q90 6 221 35 ZM271 76 q110 -17 208 -107 q0 -4 29 -30 q47 141 47 166 q-4 0 -4 4 q-201 -33 -280 -29 l0 -4 Z" /><glyph glyph-name="uni4EAC" unicode="&#x4eac;" d="M357 816 q55 -60 176 -87 q16 -18 16 -20 l0 -8 q0 -19 -96 -31 l0 8 l27 31 q-136 51 -136 100 q0 7 8 7 l5 0 ZM684 678 q4 0 19 -20 q-2 -19 -182 -45 q0 -2 -132 -27 q29 -94 29 -168 l8 0 q39 61 127 92 q0 6 27 8 l8 0 q37 -8 37 -39 l0 -8 q0 -69 -84 -188 l-16 -10 q8 -25 10 -169 q0 -198 -35 -198 l-4 0 q-58 0 -156 213 l2 16 l2 0 q6 0 127 -176 l8 0 q11 61 11 180 l0 52 q0 96 -19 96 q-22 14 -33 55 l-4 0 q0 -51 -12 -51 l-12 0 q-35 0 -33 184 q-14 103 -23 103 q-28 0 -116 -12 q-68 8 -68 24 l0 8 l4 7 q4 0 23 -3 q86 0 487 76 ZM445 371 q24 -41 45 -57 l8 0 q70 82 84 161 l0 7 q-103 -37 -137 -111 ZM670 277 q23 -2 111 -207 q26 -31 37 -70 l-15 -10 q-51 0 -145 276 l0 4 q2 7 8 7 l4 0 ZM338 270 q6 0 16 -16 l0 -4 q-2 -92 -86 -219 q-12 -8 -24 -8 l-17 0 q-28 12 -28 40 l8 3 l12 -7 l8 0 q23 0 103 207 l8 4 Z" /><glyph glyph-name="uni4EAD" unicode="&#x4ead;" d="M400 828 q114 -37 112 -64 q-47 -24 -76 -22 l0 4 q17 18 17 20 l0 5 q-31 0 -64 45 l0 4 q0 8 11 8 ZM670 740 q6 -2 19 -23 l0 -4 q-1 -31 -257 -51 l-8 -125 l10 -2 q2 41 142 74 l4 0 q27 -2 39 -39 q-4 -72 -103 -152 q-8 -4 -18 -2 l-8 0 q-19 0 -49 31 q6 -31 6 -37 q-4 -10 -4 -14 q180 30 309 38 q49 -20 49 -45 q-4 -43 -156 -98 l-6 0 l2 4 q0 8 95 96 q-173 -12 -443 -63 l-29 2 l0 -4 q4 -111 9 -111 q10 4 14 4 l4 -8 l-2 -25 q0 -6 -14 -12 l-7 0 q-63 2 -51 234 q-6 0 -6 67 l10 4 l8 0 q25 -2 31 -116 l166 26 l0 9 q-51 2 -41 170 q0 30 8 92 q-77 -2 -102 0 q-103 8 -102 35 l0 8 q0 8 12 8 q28 -10 39 -10 q192 -10 430 39 ZM480 459 q90 66 94 121 q-51 2 -125 -53 q0 -7 -10 -21 l41 -47 ZM682 277 q7 -2 7 -9 l0 -4 q-1 -35 -146 -65 q14 -68 8 -174 l-2 -41 q-8 -138 -45 -136 l-14 0 q-49 2 -154 209 l-8 29 l0 6 q2 8 10 8 q19 -47 133 -178 l9 0 q18 51 20 90 l6 129 l-2 50 q-94 -11 -123 -9 q-39 2 -57 31 l0 4 q0 8 28 15 q11 -7 23 -9 q88 -4 307 54 Z" /><glyph glyph-name="uni4EAE" unicode="&#x4eae;" d="M336 816 q184 -37 184 -62 l0 -16 q0 -31 -153 -78 q-6 -4 -15 -4 l0 4 q0 6 109 90 q-115 25 -133 51 l0 8 q2 7 8 7 ZM555 688 q6 0 15 -16 l0 -8 q0 -29 -203 -74 q20 -45 20 -78 q103 43 164 43 l8 0 q43 -8 43 -39 q-36 -88 -204 -168 l-19 -28 l-12 0 q-4 0 -23 20 q4 45 4 66 l0 32 q0 70 -8 148 q-6 0 -55 -4 q-74 10 -74 27 q0 4 12 12 l47 0 q89 0 285 67 ZM395 445 l0 -74 q97 84 148 141 l0 8 q-145 -28 -145 -51 l-3 -24 ZM184 398 l11 0 q18 0 32 -89 l11 -8 l8 0 q33 0 465 58 l35 0 q24 0 39 -31 q-41 -72 -203 -133 q12 -15 12 -27 l0 -4 l-59 -180 l0 -11 q2 -8 8 -8 q76 0 289 74 q20 16 20 20 q0 5 -79 129 l0 11 l4 0 q94 -64 125 -148 l0 -12 q0 -57 -324 -113 l-31 0 q-59 15 -59 51 l0 11 q0 32 59 180 l0 4 q-111 -12 -137 -24 q-10 -199 -31 -199 l-4 0 q-35 6 -35 31 q19 75 27 184 q0 4 -4 4 l4 20 l0 46 q2 8 8 8 q35 0 35 -51 l4 0 q74 16 129 16 l8 0 l27 -4 q29 33 129 117 l-418 -54 l-19 0 q-4 0 -40 4 l12 -125 l8 3 q8 0 8 -11 q-4 -59 -20 -59 q-43 0 -43 82 q0 10 -19 235 l8 3 Z" /><glyph glyph-name="uni4EB2" unicode="&#x4eb2;" d="M436 844 q48 0 113 -94 q4 -8 4 -16 l0 -7 q0 -10 -10 -10 l-12 0 q-21 0 -31 17 l4 20 q-25 35 -86 76 l0 4 q2 10 10 10 l8 0 ZM615 717 q6 0 12 -12 l0 -4 q-39 -37 -262 -70 l-51 0 q-33 0 -48 23 l0 8 q2 8 7 8 q4 0 34 -8 l7 0 q73 0 297 55 l4 0 ZM576 662 q24 -12 24 -43 q0 -70 -108 -142 l0 -4 l8 0 q80 23 96 23 q25 -12 27 -19 l0 -8 q0 -26 -84 -92 l0 -4 q8 -64 14 -64 q162 41 181 41 l16 0 q6 0 16 -16 l0 -4 q0 -14 -135 -37 q-78 -22 -78 -27 l0 -104 q0 -236 -41 -236 l-8 0 q-51 0 -108 193 l8 0 l84 -131 l4 0 l0 4 q12 76 20 186 q-4 23 -4 33 q4 14 4 16 q-4 15 -4 31 l-4 0 q-195 -72 -234 -72 l-8 0 q-6 0 -16 17 l0 8 q20 19 127 82 q121 84 123 100 q-2 35 -12 35 q-93 -28 -130 -28 q-28 6 -28 16 l0 12 q154 19 154 64 q81 96 81 135 q-116 -84 -116 -147 l-11 -7 l-8 0 q-26 0 -26 78 q4 72 22 72 q12 0 16 -88 l3 0 q41 51 123 127 l12 0 ZM520 439 q3 -23 11 -23 q33 29 33 31 l0 4 l-44 -12 ZM361 250 q141 43 147 51 l-4 8 l0 41 l-4 0 q-143 -98 -143 -100 l4 0 ZM635 215 q49 0 199 -219 l0 -12 q0 -7 -8 -7 l-8 0 q-31 0 -107 127 q-41 56 -88 99 l0 4 q2 8 8 8 l4 0 ZM393 189 q11 -3 11 -23 q-84 -184 -150 -197 q-27 0 -39 35 q0 19 19 39 q8 0 8 -8 l0 -19 l8 0 q72 74 135 173 l8 0 Z" /><glyph glyph-name="uni4EBA" unicode="&#x4eba;" d="M557 746 q7 0 15 -25 q-19 -235 -220 -588 q-88 -145 -131 -145 q-35 14 -35 39 l0 8 q5 47 15 47 q12 -35 12 -47 l4 0 q101 121 189 303 q71 133 127 355 q6 53 20 53 l4 0 ZM521 330 q86 -21 399 -318 l4 -16 l-16 -10 q-21 0 -150 131 l-240 197 q-4 8 -4 12 l7 4 Z" /><glyph glyph-name="uni4EC0" unicode="&#x4ec0;" d="M664 752 q18 0 20 -63 l0 -19 q0 -59 4 -176 q72 16 148 39 l-51 51 l0 4 l4 0 q90 -35 90 -67 l0 -3 q0 -18 -191 -67 q0 -90 11 -605 l-15 -12 q-36 0 -36 98 q-3 173 -3 339 l0 165 l-4 7 q-125 -35 -172 -35 l-16 0 q-21 0 -27 16 q0 12 101 27 q114 29 114 35 l0 4 q0 63 4 239 q3 23 11 23 l8 0 ZM389 705 q19 -6 19 -27 l-2 -12 q0 -31 -80 -133 q47 0 39 -258 q0 -127 -2 -187 q-6 -16 -11 -16 l-4 0 q-32 0 -30 55 q-4 33 -2 86 q0 23 6 70 q-4 33 -2 43 q6 94 8 149 q-10 43 -19 43 q-129 -129 -192 -129 l-23 0 l2 4 q134 95 228 211 q26 31 61 101 l4 0 Z" /><glyph glyph-name="uni4EC5" unicode="&#x4ec5;" d="M391 770 q15 -8 15 -24 q-13 -62 -129 -199 q43 0 51 -223 q0 -390 -23 -390 l-4 0 q-31 11 -31 35 q7 336 7 402 q-4 156 -19 156 q-108 -125 -156 -125 q-43 8 -43 39 q5 20 11 20 q12 0 12 -20 l12 0 q156 133 238 250 q39 73 51 79 l8 0 ZM746 598 q31 0 31 -32 l0 -3 q0 -45 -140 -297 l0 -4 q133 -94 304 -254 l0 -8 q0 -12 -15 -12 q-26 0 -196 157 l-113 85 l-8 0 q-107 -171 -156 -171 l-12 0 q-48 0 -58 89 q8 41 8 55 l7 0 q22 -101 36 -101 q99 86 136 164 l0 4 q-103 70 -113 85 q2 8 8 8 l8 0 q47 -17 125 -66 l0 4 q72 101 136 258 l-7 0 q-223 -79 -266 -79 q-27 8 -27 28 q43 8 308 90 l4 0 Z" /><glyph glyph-name="uni4EC6" unicode="&#x4ec6;" d="M566 775 q43 0 43 -91 q8 0 8 -135 q0 -350 -8 -617 q-9 -22 -23 -22 q-35 8 -35 57 l0 27 q0 8 12 8 q7 502 7 654 q-4 61 -4 88 q-7 0 -7 8 l0 16 q2 7 7 7 ZM287 756 q27 -12 27 -45 q0 -61 -123 -238 l0 -4 q24 8 38 8 q35 0 39 -81 q0 -119 -8 -226 q23 35 27 35 l4 0 q-25 -162 -43 -162 l-4 0 q-23 0 -37 31 q25 240 25 322 q-3 45 -7 49 q-57 -19 -133 -88 l-8 0 q-6 0 -23 24 q218 258 218 375 l8 0 ZM658 500 q67 0 227 -191 l0 -12 q0 -6 -12 -12 q-43 0 -100 69 q8 3 16 3 q-101 118 -135 120 l-8 11 l0 4 q2 8 8 8 l4 0 Z" /><glyph glyph-name="uni4EC7" unicode="&#x4ec7;" d="M523 738 l4 0 q16 -6 16 -35 q0 -74 -20 -164 l12 0 q37 0 67 4 q101 0 101 -70 l0 -4 q0 -35 -70 -262 q-12 -35 -16 -86 q10 -8 16 -8 q88 2 277 78 l8 12 l0 4 q0 10 -86 207 q-16 37 -16 55 l4 0 q65 -82 153 -266 l0 -12 q0 -46 -141 -78 q-103 -39 -180 -39 l-11 0 q-71 10 -71 67 q0 45 90 324 l0 27 q-4 12 -23 12 l-24 0 q-97 0 -97 -20 q-78 -453 -106 -453 l-12 0 q-31 10 -31 39 q2 24 12 24 q2 -8 8 -8 q58 242 82 406 l-4 0 q-90 -23 -125 -23 l-8 0 q-27 0 -27 23 q13 8 172 39 l39 203 l7 4 ZM250 727 q31 0 31 -36 l0 -3 q0 -75 -125 -250 l4 0 q26 7 31 7 q47 0 47 -101 q-8 -176 -11 -211 q7 0 23 35 l8 0 q-22 -164 -43 -164 l-16 0 q-6 0 -23 23 q23 252 23 352 q-4 27 -4 31 q-62 -17 -136 -86 l-8 0 q-24 0 -24 28 q196 226 215 343 q0 32 8 32 Z" /><glyph glyph-name="uni4ECA" unicode="&#x4eca;" d="M508 816 q12 -3 12 -23 q0 -12 -30 -88 l4 0 q121 -49 276 -203 q66 -86 66 -106 l0 -11 q-2 -8 -20 -14 q-39 0 -121 84 l8 2 q6 0 68 -27 l0 4 q-136 181 -296 246 q-86 -164 -194 -323 q-70 -109 -111 -130 l-20 0 q-31 0 -41 46 l0 20 q2 61 51 117 q0 -4 4 -4 q-14 -84 -16 -115 l0 -18 q84 92 219 309 q123 229 131 234 l10 0 ZM473 479 q58 -18 125 -110 l-2 -8 q-10 -7 -12 -7 l-8 0 q-17 0 -78 78 q-10 2 -33 33 l0 8 q2 7 8 6 ZM707 320 q29 -2 41 -41 q-10 -70 -191 -302 q-16 -12 -24 -12 q-27 2 -43 41 q16 49 30 53 l15 -24 q137 160 166 246 q-219 -41 -285 -39 q-55 2 -64 41 l11 6 l4 0 q16 -12 35 -12 l8 0 q53 -2 297 43 Z" /><glyph glyph-name="uni4ECB" unicode="&#x4ecb;" d="M502 807 l8 0 q6 0 11 -12 l0 -12 q0 -19 -39 -97 l4 0 q75 -10 332 -264 l4 -20 q-9 -7 -11 -7 l-8 0 q-30 0 -86 62 l0 4 l4 8 q-147 136 -244 201 q-206 -303 -286 -303 l-3 0 q-51 12 -51 51 q0 27 11 31 l8 0 q4 -47 20 -47 q74 37 207 213 q55 78 111 188 l8 4 ZM611 504 l4 0 q39 0 39 -172 l0 -125 q0 -314 -35 -314 l-12 0 q-35 0 -43 60 l0 31 q2 8 8 8 q16 -25 16 -31 l4 0 q15 162 15 324 l0 110 q0 33 -3 105 l7 4 ZM344 453 q43 0 43 -281 q8 -12 8 -24 l0 -43 q0 -5 -16 -15 q-35 0 -39 47 l0 62 q0 168 -8 239 q6 15 12 15 Z" /><glyph glyph-name="uni4ECD" unicode="&#x4ecd;" d="M313 754 q27 -12 27 -37 l0 -8 q0 -72 -127 -254 l4 0 q13 8 23 8 q57 0 57 -94 q-4 -154 -14 -223 l30 36 l3 0 l0 -4 q-21 -162 -48 -162 q-36 5 -36 35 q24 232 24 345 l0 4 q0 18 -8 32 q-80 -34 -135 -90 q-21 0 -31 19 l0 8 q201 236 219 352 l0 23 q0 10 12 10 ZM729 705 q21 0 39 -27 l0 -12 q0 -37 -108 -182 l8 0 q158 28 199 28 q43 -22 43 -49 l0 -8 q0 -53 -139 -412 q-21 -47 -46 -47 q-51 0 -69 108 q-11 72 -19 162 l8 0 q27 -57 68 -202 l4 0 q146 342 146 403 l0 4 l-4 0 q-160 -28 -187 -28 l-20 0 q-23 0 -43 28 l0 13 q0 14 112 170 l4 20 l-4 0 q-133 -16 -180 -28 q8 0 12 -99 q-39 -547 -51 -547 l-8 -4 q-35 0 -35 31 l0 45 q16 41 59 574 l-20 -3 q-39 0 -55 27 l0 8 q0 8 12 8 q12 -8 24 -8 l3 0 q200 27 235 27 l12 0 Z" /><glyph glyph-name="uni4ECE" unicode="&#x4ece;" d="M656 703 l4 0 q16 -8 18 -27 q10 -197 -139 -613 q-21 -24 -27 -24 l-2 0 q-51 0 -63 66 l0 4 q0 8 6 8 q20 -31 29 -35 q28 22 104 301 q37 150 62 316 l8 4 ZM334 695 q20 -11 21 -31 q-13 -234 -203 -570 q-23 -12 -31 -12 l-2 0 q-51 0 -56 86 q-2 43 9 43 q30 -82 35 -82 l4 0 q116 191 192 449 q19 117 31 117 ZM658 402 q71 -19 227 -234 q76 -109 78 -121 q0 -8 -8 -8 l-8 0 q-33 0 -142 172 q-73 98 -155 184 q2 7 8 7 ZM297 395 l4 0 q39 0 181 -176 q34 -37 36 -51 l-12 -8 q-35 0 -145 153 l-62 66 l-2 16 Z" /><glyph glyph-name="uni4ED3" unicode="&#x4ed3;" d="M484 818 l8 0 q6 0 12 -11 l0 -8 q-35 -166 -285 -473 q-33 -27 -51 -27 l-8 0 q-21 0 -39 27 l0 24 q2 7 8 7 q10 -23 16 -23 l3 0 q94 82 207 258 q63 107 122 222 l7 4 ZM508 670 q111 -22 316 -281 q4 -8 4 -16 l0 -4 q0 -6 -15 -12 q-22 0 -71 59 q4 6 4 12 q-117 140 -207 207 q-47 17 -47 27 q2 8 8 8 l8 0 ZM609 451 q22 0 39 -31 q-50 -250 -93 -250 q-51 0 -90 148 l8 0 q33 -29 62 -89 q26 27 70 187 q-87 -8 -195 -31 q12 -20 12 -59 l0 -8 q0 -64 -8 -277 q4 -39 16 -39 l8 0 q70 0 316 125 q16 16 16 23 l-98 129 q-8 12 -8 20 l8 4 q148 -121 148 -168 q0 -49 -246 -141 q-66 -31 -109 -31 l-24 0 q-66 0 -74 98 l16 296 l0 24 l-28 0 q-42 6 -42 19 q0 10 296 51 Z" /><glyph glyph-name="uni4ED4" unicode="&#x4ed4;" d="M275 750 l4 0 q28 -18 28 -43 q-12 -88 -127 -246 l4 0 q23 8 31 8 q45 0 45 -84 q0 -96 -8 -219 l0 -4 l4 0 q0 16 23 35 l4 0 q-25 -162 -47 -162 q-19 0 -37 28 q28 265 28 322 q-4 49 -8 54 q-63 -25 -135 -89 l-8 0 q-23 7 -23 31 q103 105 174 230 q41 84 41 119 q-4 8 -4 12 l11 8 ZM713 734 q31 -9 31 -35 q-123 -168 -142 -230 l0 -8 l19 0 q96 0 96 -33 q12 -6 12 -39 q7 0 177 15 q18 -6 28 -23 l0 -8 q0 -18 -86 -23 l-8 0 q-8 0 -8 11 q-107 0 -107 -27 q-55 -355 -104 -355 q-39 0 -92 160 l-84 170 l-95 -20 q-18 8 -20 16 q0 29 361 80 l0 11 q0 32 -23 32 l-35 0 q-72 4 -72 52 q3 43 123 209 l-8 0 q-55 -11 -115 -11 l-40 0 q-74 0 -103 41 q0 8 12 8 q45 -16 68 -16 l63 0 q27 0 152 23 ZM465 316 l0 -7 q109 -157 140 -262 l8 0 q55 170 75 295 l-8 4 l-215 -30 Z" /><glyph glyph-name="uni4ED6" unicode="&#x4ed6;" d="M322 781 q6 0 16 -15 l0 -4 q0 -35 -98 -102 q12 -41 16 -164 q-4 -142 -4 -238 l0 -274 q0 -19 -16 -25 q-35 0 -35 41 q0 4 4 4 l-4 19 q0 248 8 614 l-4 0 q-90 -59 -152 -59 l-12 0 q-8 0 -8 8 l196 121 q58 47 85 74 l8 0 ZM566 703 l4 0 q35 0 35 -137 l0 -19 l4 0 q149 27 164 27 l8 0 q35 -6 35 -35 l0 -4 q0 -49 -105 -301 l-20 -4 q-45 0 -86 176 l8 4 q45 -60 67 -117 l4 0 q89 219 89 250 l-3 0 q-139 -25 -168 -43 q-12 -227 -24 -227 l-4 0 q-31 4 -31 28 q12 164 12 191 l-4 0 q-78 -12 -78 -27 q0 -59 -4 -285 q0 -71 47 -71 l4 0 q101 0 324 75 q70 37 70 66 q0 25 -78 133 l-4 15 q4 0 4 4 q100 -60 129 -172 q0 -89 -414 -164 l-8 0 q-119 0 -119 125 l0 32 q0 66 8 242 q-47 -4 -67 -4 q-31 8 -31 16 l0 11 l4 0 q94 10 94 20 l0 109 q0 8 7 8 l4 0 q22 0 30 -113 q86 15 86 31 q4 16 4 31 l0 98 l-4 27 l7 4 Z" /><glyph glyph-name="uni4ED8" unicode="&#x4ed8;" d="M717 807 q35 0 37 -196 l2 -15 q12 0 123 23 q0 -2 8 -12 q2 -35 -92 -50 q-39 -4 -39 -12 l10 -551 q-4 -58 -24 -58 l-12 0 q-44 0 -119 117 q-72 144 -72 172 l0 4 q6 -6 92 -153 l72 -90 l8 0 q2 84 2 125 q-4 159 -4 430 q-117 -12 -164 -12 l-39 0 q-51 0 -63 24 l0 4 q0 7 12 7 q244 8 254 28 l-4 207 q0 8 12 8 ZM314 760 q28 -12 28 -35 l0 -4 q2 -76 -121 -254 l4 0 q15 8 31 8 q47 0 49 -98 q0 -35 -8 -215 l27 35 l4 0 l0 -4 q-17 -160 -45 -160 q-35 8 -35 28 q20 242 18 347 q0 16 -8 35 q-70 -29 -133 -89 q-20 0 -31 19 l0 8 q113 131 176 250 q37 82 37 129 l7 0 ZM500 404 q53 -8 166 -101 l4 -16 l-16 -8 q-154 94 -170 114 l0 3 q2 8 8 8 l8 0 Z" /><glyph glyph-name="uni4ED9" unicode="&#x4ed9;" d="M570 723 q73 0 94 -110 q4 -21 4 -35 l0 -383 q168 73 168 90 q-4 74 -12 129 q8 4 12 4 q51 0 51 -293 q-2 -98 -24 -98 q-43 6 -43 43 l0 75 q2 7 8 7 l4 0 l0 -7 l4 0 l0 82 q-240 -123 -340 -149 l-19 0 q-41 0 -51 55 q12 105 12 152 q0 22 -8 121 l8 4 q33 0 42 -133 l0 -31 q0 -21 -7 -129 l4 0 q136 41 136 67 q4 13 4 31 q0 178 8 379 q0 105 -55 105 l-7 12 l0 4 q1 8 7 8 ZM305 707 q23 -14 23 -35 l0 -12 q0 -62 -125 -242 l0 -4 q27 12 31 12 q51 0 51 -98 q0 -29 -12 -219 q24 36 28 36 l4 0 q-20 -165 -51 -165 q-31 10 -31 36 q23 250 23 336 q0 39 -8 39 q-58 -20 -133 -86 l-15 0 q-6 0 -16 15 l0 12 q174 193 211 328 q4 47 12 47 l8 0 Z" /><glyph glyph-name="uni4EE3" unicode="&#x4ee3;" d="M627 779 q74 -9 152 -129 q4 -5 4 -15 l-12 -8 l-11 0 q-26 0 -63 43 q6 4 20 4 l0 4 q-16 29 -98 90 l0 3 q2 8 8 8 ZM500 752 q53 -25 146 -256 q98 37 133 70 q-6 0 -19 18 q0 8 8 8 l7 0 q47 -12 47 -37 q0 -28 -160 -98 l0 -4 q125 -308 178 -426 l4 0 l0 12 q0 37 -12 166 l8 4 q51 -129 51 -221 l0 -4 q0 -21 -24 -29 q-60 0 -142 238 q-12 20 -102 245 l-4 0 q-180 -81 -223 -81 q-15 0 -23 14 l0 4 q12 10 178 74 q0 2 58 28 q-68 175 -125 263 l0 4 q2 8 8 8 l8 0 ZM334 744 q10 -2 23 -35 q0 -74 -125 -248 l0 -4 q30 8 36 8 q43 0 43 -82 q0 -92 -8 -227 q23 33 27 33 l4 0 q-20 -138 -43 -162 l-8 0 q-35 6 -35 32 q27 234 27 328 q-2 43 -11 43 q-53 -14 -127 -84 l-4 0 q-22 0 -31 19 l0 2 q220 262 220 377 l12 0 Z" /><glyph glyph-name="uni4EE4" unicode="&#x4ee4;" d="M492 834 q8 0 16 -23 q-37 -129 -135 -313 q-146 -277 -197 -277 l-4 0 q-63 19 -61 86 q8 54 18 54 l4 0 q0 -43 23 -101 q53 19 244 394 q71 166 84 180 l8 0 ZM500 646 q125 -41 336 -210 l12 -16 l-2 -12 q0 -6 -16 -12 q-14 0 -158 122 q-184 109 -184 117 q0 4 12 11 ZM479 490 q46 -31 138 -51 l12 -15 l-2 -16 q-35 -39 -213 -160 l24 0 q29 0 224 39 q43 -16 41 -31 l0 -12 q-51 -117 -195 -199 l0 -4 q117 -96 115 -125 l-12 -8 l-11 0 q-37 0 -65 67 q-111 89 -162 125 l0 7 q0 8 12 8 q19 -2 99 -58 l4 0 q137 134 168 191 l-4 0 q-179 -35 -209 -35 q-23 0 -56 23 l0 4 q117 88 158 129 q0 4 37 47 q-117 29 -115 70 q8 4 12 4 Z" /><glyph glyph-name="uni4EE5" unicode="&#x4ee5;" d="M631 682 l8 0 q23 -12 23 -34 l0 -35 q0 -107 -94 -371 q-64 -142 -140 -144 q-82 17 -82 41 l8 4 q27 -16 54 -14 q100 2 199 400 l20 94 l-8 0 q-189 -293 -199 -295 q-6 -4 -16 -4 l-4 0 q-29 -2 -39 104 q-113 -133 -168 -285 l-11 -10 l-16 0 q-27 13 -27 39 q0 57 7 297 q0 99 -23 144 l8 4 l12 0 q50 -27 50 -197 q-4 -113 -4 -160 l0 -4 l4 0 q36 88 145 211 l16 8 q54 -8 54 -96 l223 303 ZM678 391 q66 -51 172 -209 q66 -104 66 -119 q0 -6 -12 -14 q-29 0 -148 199 l-90 127 l0 8 q2 8 8 8 l4 0 Z" /><glyph glyph-name="uni4EEA" unicode="&#x4eea;" d="M277 750 l4 0 q24 -14 24 -35 l0 -12 q0 -74 -125 -246 l4 0 q23 8 39 8 q39 -14 39 -86 q0 -74 -8 -223 l0 -4 l4 0 q0 16 23 36 l4 0 q-27 -165 -43 -165 l-8 0 q-23 0 -35 28 q28 277 28 328 q-4 33 -4 51 l-4 0 q-47 -8 -137 -86 l-8 0 q-11 0 -23 23 q205 242 219 363 q-4 6 -4 12 l11 8 ZM793 688 l8 0 q6 0 12 -12 l0 -4 q-53 -170 -176 -371 l0 -4 l234 -215 q0 27 8 27 q66 -68 66 -101 l0 -8 q0 -8 -7 -8 l-12 0 q-30 0 -196 172 l-113 98 l-4 0 q-109 -196 -156 -196 q-66 0 -78 149 l-4 27 l12 0 q43 -121 54 -129 l4 0 q98 110 129 188 q-66 51 -187 129 l0 8 q2 7 8 7 q54 -9 199 -117 q64 90 187 352 l12 8 ZM480 680 q57 0 133 -121 l0 -8 q-9 -8 -11 -8 l-4 0 q-37 0 -63 66 q-14 16 -70 63 q2 8 8 8 l7 0 Z" /><glyph glyph-name="uni4EEC" unicode="&#x4eec;" d="M779 760 q43 0 53 -71 q-4 -251 -4 -337 q0 -192 8 -356 q-8 -72 -27 -72 l-18 0 q-68 0 -180 271 l0 4 l4 0 q37 -45 114 -172 q42 -52 46 -52 q4 7 8 37 l-8 320 q4 6 4 16 q0 7 -4 7 l4 45 l0 20 q8 277 8 301 q-4 0 -4 4 q-224 -61 -252 -61 q-29 0 -41 22 l0 7 q0 8 6 8 l27 -4 q227 63 252 63 l4 0 ZM334 756 q4 0 10 -12 l0 -4 q0 -25 -73 -127 l0 -4 q16 0 24 -121 l-12 -457 l-12 -8 l-13 0 q-28 18 -28 40 l0 41 q16 255 16 472 q-96 -107 -131 -107 q-49 11 -49 47 q0 29 20 37 l8 0 l0 -37 q0 -8 8 -8 q68 39 166 174 q31 52 58 74 l8 0 ZM367 648 q65 -35 92 -35 l31 0 q6 0 14 -13 l0 -8 q-6 -16 -25 -16 l-8 0 q-116 20 -116 65 q0 7 12 7 ZM406 520 q41 0 41 -223 l0 -90 l8 4 l8 0 q0 -16 4 -16 q-8 -86 -24 -91 l-19 0 q-26 15 -26 44 l0 303 q0 20 -3 65 q7 4 11 4 Z" /><glyph glyph-name="uni4EF0" unicode="&#x4ef0;" d="M283 770 q26 -12 26 -45 q-16 -92 -131 -254 l0 -4 q29 12 33 12 q49 0 49 -88 q0 -123 -8 -235 l0 -4 l4 0 l19 39 l8 0 q-23 -168 -45 -168 l-8 0 q-25 0 -35 32 q28 226 28 343 q-4 36 -4 45 q-59 -13 -141 -89 l-17 0 q-4 0 -20 19 l0 6 q230 266 230 391 l12 0 ZM381 713 l4 0 q39 -27 84 -27 q66 7 109 19 l12 -16 l0 -3 q0 -24 -110 -38 q-107 16 -107 61 l8 4 ZM828 645 q35 0 41 -65 q0 -371 -23 -371 q-6 0 -14 -4 q-43 0 -125 152 q2 8 8 8 q90 -99 94 -99 l4 7 q15 209 15 327 l0 7 q-140 -35 -178 -35 q22 -68 22 -170 l0 -548 q0 -8 -8 -8 l-18 0 q-31 0 -44 148 l9 4 q6 -16 12 -16 l0 508 l-4 0 q0 -31 -170 -246 l-19 -4 q-34 10 -34 33 q12 168 12 206 q0 60 -15 121 q7 4 11 4 q39 0 45 -149 l0 -4 q-4 -96 -4 -129 q88 106 178 190 q4 49 4 52 q-45 14 -45 24 l0 8 q2 8 8 8 l17 0 q55 0 221 41 Z" /><glyph glyph-name="uni4EF6" unicode="&#x4ef6;" d="M631 811 q25 0 31 -192 l4 0 q57 24 74 24 l4 0 q6 0 20 -20 l0 -12 q0 -9 -98 -101 l0 -117 q152 41 180 70 l4 0 q27 0 27 -27 l0 -4 q0 -24 -203 -82 l-4 0 l0 -313 q0 -16 4 -35 q-4 -6 -4 -27 l0 -71 q0 -6 -12 -11 l-4 0 q-39 0 -39 89 l0 39 q0 16 8 32 q-4 135 -4 211 l0 70 q-144 -43 -203 -43 q-33 0 -51 27 l0 4 l4 8 l35 -4 q43 0 215 51 l0 90 l-4 0 q-4 0 -27 -20 l-8 0 q39 49 39 55 q-4 25 -4 43 l0 16 q-56 -24 -86 -24 l-4 0 q-45 0 -50 59 q0 33 4 117 l-4 23 l7 4 l8 0 q28 -13 28 -74 l0 -90 l3 0 q22 0 94 28 l0 164 l-4 23 q4 6 4 20 l16 0 ZM303 768 q21 0 27 -43 l0 -4 q-12 -88 -123 -246 l4 0 q14 7 23 7 l8 0 q47 0 49 -89 q0 -41 -10 -223 l28 35 l4 0 q-20 -164 -42 -164 l-3 0 q-36 4 -36 35 q20 242 20 332 q-4 33 -6 43 l-4 0 q-68 -29 -127 -86 q-8 -4 -11 -4 q-16 4 -24 20 l0 8 q215 256 215 379 l8 0 ZM666 557 q6 0 27 31 l-7 0 q-12 -8 -20 -8 l0 -23 Z" /><glyph glyph-name="uni4EF7" unicode="&#x4ef7;" d="M615 787 l12 -16 l0 -19 q-10 -96 -195 -328 q-16 -8 -24 -8 q-23 0 -35 35 l12 35 l4 0 q7 0 7 -23 l4 0 q166 205 200 320 l15 4 ZM318 736 q32 -13 32 -43 q0 -70 -129 -250 l4 0 q25 8 31 8 q47 0 47 -86 q0 -90 -8 -222 l0 -4 l4 0 q15 35 23 35 l4 0 q-23 -164 -47 -164 q-29 0 -39 31 q28 256 28 328 q0 47 -16 47 q-68 -27 -125 -86 l-4 0 q-31 0 -31 31 q68 61 156 200 q63 111 63 156 q-4 6 -4 12 l11 7 ZM611 635 q73 -12 215 -117 q63 -49 63 -55 l0 -12 q0 -8 -8 -8 l-8 0 q-10 0 -90 43 l0 12 l8 0 q-102 82 -191 117 l-4 8 q0 6 15 12 ZM721 490 l4 0 q39 0 39 -222 q0 -387 -24 -387 l-8 -4 q-43 0 -43 94 l0 11 l16 0 q8 110 8 231 l0 31 q0 14 4 35 q-4 6 -4 16 q0 8 4 8 l-4 27 l0 125 l-4 27 l12 8 ZM506 451 l4 0 q21 0 23 -70 q0 -86 -4 -195 q4 -32 4 -67 l-12 -8 q-33 0 -39 43 q16 284 16 293 l8 4 Z" /><glyph glyph-name="uni4EFB" unicode="&#x4efb;" d="M324 752 q31 0 31 -31 l0 -12 q0 -72 -121 -242 l0 -4 q12 0 32 8 q47 0 47 -90 q0 -110 -12 -227 l31 39 q0 -4 4 -4 q-27 -160 -43 -160 l-20 0 q-23 16 -23 32 q23 205 23 332 l0 23 l-3 20 q-55 -14 -133 -86 l-16 0 q-19 9 -19 23 q201 236 218 359 q-4 6 -4 16 l8 4 ZM801 725 l0 -12 q-49 -43 -94 -43 q4 -59 4 -86 l0 -78 q0 -26 -4 -78 l8 -4 l58 0 q75 0 75 -51 q0 -59 -141 -207 l0 -82 q2 -8 8 -8 q98 8 109 8 q55 -6 55 -35 l-12 -8 l-113 0 q-68 0 -258 -31 q-16 8 -16 23 l122 94 l0 4 q-157 197 -157 242 q0 41 215 51 q0 58 8 238 q-4 0 -4 4 l-27 -4 l-8 0 q-145 0 -172 47 l0 4 q2 8 8 8 q53 -20 148 -20 q45 0 184 31 l4 -7 ZM707 236 l-4 -7 l4 0 q94 97 102 152 l0 12 l-39 3 l-55 0 q-8 -1 -8 -7 l0 -153 ZM477 361 q21 -62 144 -211 l0 -4 l4 0 q31 16 31 40 l0 183 l4 20 l-8 4 q-175 -12 -175 -32 ZM652 119 l0 -8 l4 0 l0 8 l-4 0 ZM570 57 l4 0 l71 11 q-16 20 -16 28 l-4 0 q-49 -35 -55 -35 l0 -4 Z" /><glyph glyph-name="uni4EFD" unicode="&#x4efd;" d="M299 748 q31 0 31 -37 l0 -16 q-6 -72 -125 -240 l0 -4 q24 12 35 12 q41 0 47 -90 l0 -4 q-4 -154 -12 -224 q28 39 32 39 l4 0 q-28 -170 -51 -170 q-35 11 -35 31 q23 238 23 355 q0 28 -8 28 q-60 -22 -135 -86 l-7 0 q-24 0 -24 27 q139 154 201 287 q16 51 20 92 l4 0 ZM604 734 q123 -29 287 -236 q4 -6 4 -16 l0 -3 q0 -8 -8 -8 l-12 0 q-78 29 -78 62 l16 0 q-122 137 -190 170 q-35 12 -35 20 l0 4 q0 7 8 7 l8 0 ZM516 645 q5 0 15 -16 q0 -80 -117 -209 q-10 0 -16 -4 q-33 6 -33 31 q33 16 53 47 q45 63 94 151 l4 0 ZM820 396 q41 0 51 -54 q-14 -98 -142 -344 q-26 -31 -40 -31 q-58 0 -93 197 l4 0 q45 -51 74 -135 l4 0 q129 200 150 336 l-57 0 q-33 0 -152 -11 l0 -4 q4 -16 4 -30 q-25 -115 -139 -299 q-17 -15 -19 -15 q-43 0 -43 35 q8 23 16 23 q3 -5 3 -15 q77 94 147 293 l0 8 q-33 -8 -68 -8 l-32 0 q-43 0 -43 27 l8 4 l39 0 q223 23 328 23 Z" /><glyph glyph-name="uni4EFF" unicode="&#x4eff;" d="M500 785 q29 -25 168 -51 q20 -17 20 -19 l0 -16 q-32 -27 -86 -27 l0 4 l27 31 q-139 27 -139 70 q2 0 10 8 ZM303 738 q23 -13 23 -35 l0 -12 q-12 -86 -125 -242 l0 -4 q20 12 39 12 q35 0 43 -94 q0 -47 -12 -222 q6 0 24 39 l8 0 q-22 -164 -43 -164 l-16 0 q-23 15 -23 27 q23 248 23 340 q-4 33 -4 39 q-47 -8 -136 -86 l-8 0 q-24 0 -24 27 q219 252 219 375 l12 0 ZM813 633 q17 -8 19 -16 l0 -4 q0 -15 -187 -62 q7 -16 7 -31 q0 -36 -43 -153 l4 0 l71 -8 q37 4 70 4 l70 0 q33 0 43 -47 q-35 -158 -179 -355 q-16 -22 -36 -22 q-62 0 -62 163 q-4 0 -4 50 l0 36 l8 0 q23 -63 51 -188 l3 0 q172 236 172 332 q-35 0 -136 -4 l-86 12 q-106 -272 -155 -336 q-7 -4 -15 -4 q-16 0 -32 23 l0 4 q6 43 16 43 q0 -7 8 -7 l4 0 q189 416 189 476 l-4 0 q-105 -23 -134 -23 l-36 0 q-52 0 -70 31 l0 4 q0 8 8 8 q14 -8 31 -8 l8 0 q96 0 369 78 q6 4 28 4 Z" /><glyph glyph-name="uni4F01" unicode="&#x4f01;" d="M494 818 q6 0 12 -11 q0 -55 -207 -465 q-57 -108 -113 -153 l-20 0 q-35 0 -43 51 l0 12 q0 39 39 82 l4 0 q-4 -66 -4 -98 l0 -4 q78 86 211 360 q92 201 117 226 l4 0 ZM486 643 q71 0 340 -219 q12 -16 12 -28 l0 -3 q0 -8 -8 -8 l-12 0 q-5 0 -156 74 l0 12 l12 0 l39 -4 q-149 121 -238 160 l0 8 q0 8 11 8 ZM482 502 q43 0 43 -176 l0 -55 l28 0 q41 0 140 24 q24 -10 24 -16 l0 -4 q-16 -31 -168 -39 q-20 4 -24 4 l0 -195 l32 0 q119 0 254 27 l3 0 q6 0 12 -11 l0 -8 q-43 -51 -246 -51 l-211 0 q-160 0 -160 16 l0 7 q0 12 156 20 q-8 12 -8 23 l0 4 q0 57 4 102 q-4 62 -15 105 l8 4 l7 0 q39 -21 39 -125 l0 -15 q0 -82 -11 -98 l93 0 l-3 8 l0 62 q0 100 3 160 q-3 176 -11 223 q8 4 11 4 Z" /><glyph glyph-name="uni4F0A" unicode="&#x4f0a;" d="M320 746 q24 -14 24 -35 l0 -16 q0 -60 -125 -242 l4 0 q13 8 23 8 l8 0 q47 0 47 -90 q-4 -162 -12 -223 l31 40 q0 -4 4 -4 q-27 -164 -51 -164 l-3 0 q-32 11 -32 31 q24 228 24 347 l0 4 q0 28 -8 28 q-65 -28 -137 -90 q-23 8 -27 19 l0 8 q219 254 219 379 l11 0 ZM789 703 q43 -19 43 -55 q0 -17 -4 -70 q37 12 39 12 q24 -10 24 -16 l0 -11 l-71 -40 q-11 -27 -50 -207 l-12 -11 l-12 0 q-21 0 -66 58 q-75 -21 -75 -54 q-50 -270 -117 -430 q-11 -20 -31 -20 q-51 0 -51 110 l0 58 l8 0 q25 -113 35 -113 q106 334 106 395 q-78 -34 -98 -36 q-18 6 -19 16 l0 12 q29 33 136 109 q0 10 12 82 q-121 -23 -188 -23 q-54 6 -54 23 q2 8 8 8 l15 0 q100 0 223 31 q8 32 8 86 l4 8 l-8 4 q-47 -8 -74 -8 q-79 4 -79 47 l8 4 l4 0 q20 -16 51 -16 q29 0 281 47 l4 0 ZM633 637 q8 -32 8 -67 l0 -19 l-4 -8 q4 0 4 -4 q136 20 136 39 q12 45 12 86 q-4 0 -4 4 q-86 -16 -152 -31 ZM629 445 q103 63 125 82 l-4 0 q-20 -7 -117 -27 q-4 -49 -4 -55 ZM652 430 q0 -6 36 -32 q54 12 54 32 l16 62 l-4 0 q-96 -58 -102 -58 l0 -4 ZM625 414 q-8 -29 -8 -43 l39 16 l0 4 q0 4 -23 23 l-8 0 ZM715 379 q6 -16 12 -16 l3 8 l0 12 l-3 0 q-8 -4 -12 -4 ZM523 332 q43 12 43 35 l-3 0 q-43 -31 -43 -35 l3 0 Z" /><glyph glyph-name="uni4F0D" unicode="&#x4f0d;" d="M303 766 q29 -12 29 -37 l0 -22 q-6 -78 -133 -254 q30 8 45 8 q37 0 43 -92 q0 -139 -14 -244 q4 0 36 43 q0 -4 4 -4 q-30 -176 -51 -176 l-4 0 q-39 6 -39 33 q25 219 25 356 l0 21 l-4 30 q-78 -33 -146 -98 q-24 0 -33 22 l0 7 q199 227 234 373 l0 8 q-4 8 -4 18 l12 8 ZM441 703 q71 -25 164 -25 q30 0 192 17 q6 0 14 -13 l0 -4 q0 -32 -206 -41 l0 -4 q12 -61 12 -164 l0 -26 l-4 -21 q4 0 4 -4 l18 4 q129 6 176 6 q25 -20 25 -39 l0 -8 q0 -72 -182 -281 l260 21 l14 0 q23 0 33 -21 l0 -4 q0 -24 -406 -45 l-100 0 q-113 0 -113 37 q4 0 4 4 q56 -4 80 -4 l133 4 q0 8 -8 25 q0 14 12 260 l-20 0 q-123 0 -123 51 l10 4 q39 -14 62 -14 l74 0 l0 215 q0 8 -82 19 q-50 20 -50 47 l7 4 ZM613 377 q-8 -129 -11 -281 l15 0 q6 0 80 134 q84 118 88 159 l-4 0 q-144 -8 -168 -8 l0 -4 Z" /><glyph glyph-name="uni4F0F" unicode="&#x4f0f;" d="M758 793 q70 0 162 -176 l0 -12 q0 -7 -20 -15 q-31 0 -68 53 l0 3 q0 8 8 8 q2 0 12 -8 l3 0 l0 4 q-41 90 -117 127 l0 8 q0 8 8 8 l12 0 ZM375 748 l4 0 q16 -8 16 -19 q0 -59 -86 -196 q54 -33 54 -131 q-9 -293 -9 -412 q0 -21 -20 -27 q-33 16 -33 35 q12 424 12 449 l0 8 q0 49 -16 49 l-4 0 q-166 -217 -225 -217 q-48 0 -56 63 l0 15 q2 8 8 8 q17 -45 25 -45 l12 0 q115 94 191 205 q78 112 119 211 l8 4 ZM680 646 q17 0 111 -82 q64 -39 64 -68 q0 -25 -199 -90 q-60 -371 -111 -371 q0 -10 -24 -10 q-41 12 -41 26 l4 8 l8 -4 q45 0 78 179 q34 120 34 159 q-114 -32 -147 -32 q-33 10 -37 24 l0 4 q0 6 12 13 l4 0 q9 0 15 -6 q168 36 168 59 q29 191 57 191 l4 0 ZM664 459 q4 0 4 -4 q119 35 150 57 q-43 62 -125 109 l-29 -162 ZM725 365 q62 0 224 -367 l0 -4 q-10 -8 -11 -8 q-42 0 -94 133 q-80 174 -131 233 l0 5 q2 8 8 8 l4 0 Z" /><glyph glyph-name="uni4F11" unicode="&#x4f11;" d="M600 791 q31 0 35 -223 l4 0 l101 16 l0 4 q-43 29 -43 35 l0 4 l4 0 q90 -25 90 -59 q0 -19 -152 -39 l0 -31 q0 -60 4 -164 q187 -84 308 -145 q8 -13 8 -23 q0 -8 -8 -8 l-12 0 q-289 137 -296 137 q3 -143 3 -215 l0 -62 q0 -106 -23 -106 l-8 0 q-54 0 -86 215 l4 0 q8 0 55 -125 l4 0 q4 37 4 59 l0 246 q0 25 -51 39 q-27 21 -27 23 l0 8 q2 8 7 8 l67 -28 l0 118 l-4 46 q-37 -7 -47 -7 l0 -8 q0 -100 -137 -371 q-19 -12 -31 -12 q-27 10 -27 35 l0 24 l4 0 l15 -24 q69 108 141 352 q-70 -12 -110 -12 q-42 10 -42 23 l0 8 l3 8 q4 0 24 -4 q113 8 207 28 l0 3 q-4 135 -4 211 l0 8 q2 8 8 8 l8 0 ZM311 736 q23 -13 23 -35 l0 -15 q-12 -84 -125 -243 l4 0 q14 8 31 8 q47 0 47 -97 q0 -49 -12 -215 l32 39 q0 -4 3 -4 q-29 -164 -46 -164 q-39 4 -39 35 q23 211 23 344 q0 31 -8 31 q-70 -29 -129 -86 q-8 -4 -11 -4 q-16 4 -24 20 l0 7 q199 235 215 348 l0 24 q2 7 8 7 l8 0 Z" /><glyph glyph-name="uni4F17" unicode="&#x4f17;" d="M477 814 q15 -5 15 -37 q-29 -175 -199 -408 q-12 -8 -20 -8 q-31 12 -31 37 q4 28 16 30 q0 -6 12 -12 q168 258 191 398 l16 0 ZM461 643 q55 -10 262 -223 q7 -12 7 -20 q-13 -11 -19 -11 q-55 21 -121 119 l-141 123 l0 4 q0 8 12 8 ZM414 469 q12 -4 12 -24 q-16 -84 -59 -185 q102 -92 117 -155 l0 -3 q0 -8 -7 -6 l-12 0 q-16 9 -78 105 q-28 31 -32 31 q-113 -263 -160 -261 q-35 0 -39 49 l0 3 q0 4 12 10 q8 -15 8 -23 l8 0 q89 127 187 371 q25 88 39 88 l4 0 ZM621 416 q10 0 16 -31 l0 -4 q0 -137 -149 -393 q-15 -13 -31 -13 l-19 0 q-24 15 -24 37 l0 8 q0 5 12 11 q8 -13 8 -21 l4 0 q46 39 132 261 q39 147 51 145 ZM648 260 q71 -28 157 -196 q39 -72 39 -93 l0 -4 q0 -10 -20 -12 q-43 2 -70 125 q-41 88 -117 168 l0 4 q0 8 11 8 Z" /><glyph glyph-name="uni4F18" unicode="&#x4f18;" d="M273 754 q22 0 28 -45 l0 -4 q0 -62 -125 -252 l4 0 q13 8 23 8 l8 0 q43 0 43 -72 l0 -4 q0 -155 -8 -244 l27 37 l4 0 q-23 -168 -43 -168 l-4 0 q-21 0 -35 23 l0 12 q24 252 24 344 q0 41 -8 41 q-70 -30 -129 -88 q-8 -6 -12 -6 q-15 6 -23 21 l0 8 q219 264 219 389 l7 0 ZM680 744 q33 0 101 -135 q8 0 8 -29 q0 -6 -12 -12 l-4 0 q-50 14 -50 49 q7 10 7 12 q-25 55 -62 100 l0 7 q0 8 12 8 ZM523 678 q6 0 16 -18 l0 -12 q0 -41 -27 -199 q164 49 164 72 l0 4 l12 0 q5 0 19 -19 l0 -18 q0 -23 -207 -88 l-78 -379 l-8 -3 l-8 0 q-15 0 -27 15 q27 149 70 352 l-4 0 q-70 -16 -97 -16 l-4 0 q-59 4 -59 24 l0 3 q2 8 8 8 l23 0 q149 16 149 41 q41 233 58 233 ZM582 408 q35 -19 35 -95 q-4 -180 -4 -229 q8 -18 16 -20 l8 0 q74 0 238 88 q27 22 27 45 q-29 53 -105 172 l-12 24 l8 3 q160 -167 160 -224 q0 -72 -281 -151 l-24 0 q-74 0 -82 96 q8 176 8 215 l0 29 q0 20 -11 35 q0 6 11 12 l8 0 Z" /><glyph glyph-name="uni4F19" unicode="&#x4f19;" d="M619 781 l4 0 q29 -13 31 -80 l0 -23 q4 -106 -23 -266 l4 0 q144 133 170 199 l9 4 l4 0 q8 -2 16 -21 q-20 -98 -219 -246 l-4 -30 l2 -7 q63 -12 311 -295 l0 -12 q0 -8 -8 -8 l-14 0 q-43 0 -105 86 q4 8 4 14 q-172 183 -196 189 q-54 -256 -107 -256 l-4 0 q-47 18 -47 49 l-2 4 l6 0 q18 -16 29 -16 q24 28 75 248 l-12 0 l0 4 q43 39 70 387 l-4 70 l10 6 ZM322 748 q26 -16 26 -37 l0 -18 q-10 -88 -123 -255 l4 0 q13 7 23 7 l10 0 q49 0 52 -103 q-3 -176 -1 -205 l-4 -22 q29 41 31 41 q0 -4 4 -4 q-24 -173 -47 -173 q-39 5 -39 37 q17 228 13 363 q-1 33 -9 33 q-73 -29 -133 -90 q-8 -4 -14 -4 q-15 6 -25 20 l0 10 q205 248 217 367 l-2 23 q2 10 8 10 l9 0 ZM434 590 q41 0 107 -235 q-10 -7 -12 -7 q-43 0 -66 131 q-24 70 -45 99 l0 4 q2 8 8 8 l8 0 Z" /><glyph glyph-name="uni4F1A" unicode="&#x4f1a;" d="M486 818 l8 0 q4 0 10 -11 l0 -4 q-37 -170 -250 -539 q-74 -121 -113 -121 q-41 13 -41 43 l0 21 l4 39 l3 0 q8 0 20 -60 l4 0 q41 41 162 242 q66 119 182 383 l11 7 ZM479 674 q72 0 343 -281 q16 -16 16 -30 q0 -6 -12 -11 q-37 0 -125 80 l8 4 q23 -8 31 -8 q-185 191 -265 222 l-8 12 l0 4 q2 8 8 8 l4 0 ZM418 447 q82 -11 146 -11 l20 0 q41 -6 41 -20 l0 -8 q-2 -12 -21 -12 l-36 0 q-162 12 -162 43 q0 8 12 8 ZM615 314 q26 -7 26 -31 q0 -10 -102 -129 l-64 -82 l0 -4 l4 0 q144 84 214 110 l4 -8 q-56 -72 -271 -182 l-12 0 q-21 0 -31 20 l0 13 q39 59 193 243 l0 4 q-162 -45 -199 -45 l-8 0 q-43 6 -43 19 l0 4 q2 8 8 8 l8 0 q8 0 15 -4 l258 64 ZM686 250 l11 0 q63 -33 80 -289 q0 -4 -11 -10 q-45 0 -45 70 l0 4 l8 12 q0 82 -49 209 l6 4 Z" /><glyph glyph-name="uni4F1F" unicode="&#x4f1f;" d="M588 842 q39 0 39 -196 l4 0 l68 12 q20 0 31 -19 l0 -12 q0 -6 -103 -80 l0 -59 q2 -8 8 -8 q49 12 84 12 q11 -13 11 -19 q0 -16 -87 -69 q-6 0 -12 -11 l0 -55 q168 43 211 43 q58 -16 58 -51 l0 -16 q0 -50 -87 -148 q-26 -27 -55 -27 q-72 39 -72 84 q-14 27 -24 74 l8 4 q76 -113 80 -113 q107 87 107 154 l-7 4 l-12 0 q-102 -12 -207 -45 l0 -371 q-8 -16 -20 -16 q-43 0 -60 170 l0 8 l10 0 q15 -53 23 -53 l0 246 l-191 -47 q-16 18 -16 20 l0 4 q19 21 207 138 l0 36 l-64 -4 q-18 7 -28 25 l0 16 q0 7 92 90 l0 41 q0 5 -84 19 q-43 23 -43 47 q0 8 8 8 q39 -32 96 -32 l19 0 l0 170 l-4 20 q8 6 12 6 ZM322 762 q28 -12 28 -35 l0 -22 q-6 -70 -127 -240 l4 0 q13 8 31 8 q49 0 49 -88 q0 -131 -12 -231 q2 0 31 41 q0 -4 4 -4 q-27 -168 -49 -168 l-4 0 q-35 8 -35 34 q24 211 24 324 l0 35 l-4 20 q-55 -10 -139 -86 q-21 0 -31 19 l0 8 q117 129 181 254 q41 76 41 111 q-3 8 -3 12 l11 8 ZM627 600 l4 0 q6 0 12 11 l0 4 l-8 0 q-8 -2 -8 -8 l0 -7 ZM535 465 q12 0 49 8 l0 35 l-4 0 q-37 -35 -45 -35 l0 -8 ZM627 432 l4 0 q31 17 31 25 q-35 -8 -35 -18 l0 -7 ZM480 293 q104 29 104 37 l0 31 l-4 0 q-90 -52 -103 -68 l3 0 Z" /><glyph glyph-name="uni4F20" unicode="&#x4f20;" d="M637 822 q19 0 23 -58 l0 -28 q0 -21 -4 -66 q57 8 67 8 q17 0 31 -28 q0 -11 -121 -132 q-12 -61 -12 -75 l4 0 q111 43 227 71 q31 -6 31 -28 q-12 -11 -113 -31 q-127 -45 -157 -59 l-11 -125 q7 -3 11 -3 q33 0 227 31 q15 -6 23 -20 l0 -4 q-17 -56 -222 -230 q-10 -8 -16 -8 l0 -4 q92 -70 105 -90 l0 -11 q0 -6 -11 -12 q-28 0 -90 70 q-129 82 -129 90 l0 4 q0 8 12 8 q15 0 66 -31 q39 5 215 191 l-4 0 q-141 -23 -172 -23 q-58 9 -58 58 q0 43 7 94 q-111 -39 -121 -39 l-7 0 q-6 0 -16 15 l0 8 q168 151 168 176 l15 90 q-91 0 -117 39 l0 4 q2 8 8 8 q51 -16 109 -16 q16 41 16 129 l0 19 q2 8 8 8 l8 0 ZM344 740 q17 -8 27 -23 l0 -24 q0 -74 -125 -246 l4 0 q25 8 31 8 q47 0 47 -86 q0 -74 -8 -223 l0 -3 l4 0 q0 15 24 35 l4 0 q-28 -164 -47 -164 l-12 0 q-27 13 -27 31 q19 176 27 328 q0 47 -16 47 q-50 -18 -129 -86 l-7 0 q-16 4 -24 20 l0 7 q194 219 219 348 l0 12 q-4 6 -4 11 l12 8 ZM645 584 q5 0 46 51 l0 4 q-43 0 -43 -20 l-3 -35 ZM527 408 q47 12 47 35 l0 16 q-6 0 -51 -51 l4 0 Z" /><glyph glyph-name="uni4F24" unicode="&#x4f24;" d="M516 803 l7 0 q36 0 36 -199 q7 -4 11 -4 q41 0 184 54 l12 0 q5 0 15 -15 l0 -8 q-4 -18 -121 -55 q-47 -15 -74 -15 q-74 0 -74 121 l0 11 q0 16 4 32 l-8 74 l8 4 ZM324 729 q24 -14 24 -36 l0 -7 q0 -73 -125 -250 l4 0 q13 7 31 7 q47 0 47 -93 q-4 -139 -12 -219 l27 35 l4 0 l0 -4 q-23 -160 -43 -160 l-4 0 q-35 6 -35 27 q24 244 24 360 q0 6 -8 23 q-70 -29 -129 -86 q-8 -4 -12 -4 q-15 4 -23 20 l0 8 q199 232 215 347 l0 24 q2 8 7 8 l8 0 ZM637 521 q19 -11 19 -35 q-4 -23 -11 -97 l3 0 q82 15 165 15 l27 0 q66 -8 66 -62 q0 -78 -148 -371 l-16 -12 l-19 0 q-59 0 -90 199 l0 4 l8 0 q43 -84 70 -152 l8 0 q144 287 144 347 q-4 6 -4 12 l-54 0 q-172 -12 -172 -23 q-67 -307 -113 -367 l-12 0 q-35 3 -35 35 l0 7 q2 8 7 8 q0 -6 12 -11 q67 170 98 328 q-65 -12 -137 -12 q-29 0 -39 20 q0 11 137 19 q58 4 58 51 q14 97 28 97 Z" /><glyph glyph-name="uni4F26" unicode="&#x4f26;" d="M547 785 l8 0 q11 -4 11 -27 q-25 -174 -211 -404 q-21 -16 -35 -16 l-4 0 q-39 8 -39 39 l0 25 l4 0 q10 0 16 -29 l8 0 q41 31 134 176 q61 105 100 232 l8 4 ZM285 730 l8 0 q23 -13 23 -35 l0 -19 q0 -57 -123 -235 l4 0 q14 8 32 8 q44 0 44 -88 q0 -56 -5 -216 l0 -4 l2 0 q0 19 23 35 l4 0 q-27 -162 -45 -162 q-25 0 -39 27 q23 217 23 320 l0 49 l-4 8 q-58 -18 -134 -88 q-22 0 -32 20 l0 7 q202 233 215 350 l-4 20 l8 3 ZM566 684 q63 0 289 -219 q28 -35 28 -51 l-16 -12 l-4 0 q-41 0 -103 67 q4 0 4 4 l45 -16 q-182 186 -254 207 l0 12 q0 8 11 8 ZM514 445 q41 0 41 -91 l0 -43 l154 50 q23 -7 27 -19 l0 -4 q0 -14 -185 -63 q-16 -136 -16 -191 l0 -35 q0 -28 20 -28 q179 38 304 143 q6 0 16 24 q0 25 -92 138 l0 8 l8 0 q131 -94 131 -158 l0 -4 q0 -67 -305 -186 q-27 -2 -43 -2 l-19 0 q-57 0 -65 100 l28 285 l0 49 q-16 0 -16 8 l0 8 q0 5 12 11 Z" /><glyph glyph-name="uni4F2A" unicode="&#x4f2a;" d="M279 734 q32 0 32 -31 l0 -23 q0 -57 -125 -239 l3 0 q14 8 32 8 q47 0 47 -82 q0 -60 -8 -226 l27 35 l4 -8 q-27 -160 -51 -160 q-19 0 -35 31 q20 186 27 332 q-3 47 -11 47 q-71 -29 -133 -90 l-4 0 q-27 8 -27 31 q109 116 175 239 q26 41 43 109 l-4 23 l8 4 ZM619 703 q16 -6 16 -35 l0 -12 q0 -56 -20 -160 q127 20 246 27 q82 -7 82 -62 q0 -68 -191 -418 q-27 -27 -43 -27 q-66 0 -117 250 q-4 5 -4 23 l4 0 q29 -41 101 -223 l4 0 q84 116 188 352 q11 41 11 62 l-7 4 l-28 0 q-78 0 -257 -31 q-96 -449 -129 -449 q-55 0 -55 74 l0 4 q0 18 8 63 l8 0 l15 -82 l8 0 q51 175 98 386 q-139 -11 -161 -11 q-42 3 -42 19 l0 4 q1 8 7 8 q207 11 207 27 l39 207 l12 0 ZM432 629 q41 0 113 -102 l0 -7 q0 -8 -8 -8 l-8 0 q-25 0 -62 62 q-55 39 -55 43 l0 4 q2 8 8 8 l12 0 ZM662 395 q59 0 133 -94 q4 -8 4 -16 l-16 -12 q-29 0 -66 43 l0 8 l4 8 q-22 18 -82 47 l0 8 q2 8 7 8 l16 0 Z" /><glyph glyph-name="uni4F2F" unicode="&#x4f2f;" d="M305 717 q23 -12 23 -47 q0 -63 -125 -244 l4 0 q14 8 23 8 l8 0 q43 0 43 -71 l0 -15 q0 -133 -8 -225 l28 35 l4 0 q-24 -164 -43 -164 l-4 0 q-22 0 -35 24 l0 3 q23 252 23 346 q0 35 -8 35 q-68 -27 -127 -86 q-7 -3 -11 -3 q-16 5 -24 19 l0 8 q217 256 217 377 l12 0 ZM711 701 l0 -8 q0 -41 -236 -74 q-92 8 -92 35 l0 8 q0 6 12 12 q23 -16 35 -16 l21 0 q90 0 252 55 l8 -12 ZM486 604 l4 0 q24 0 43 -106 l260 86 q39 0 47 -70 q0 -16 -8 -209 q0 -59 8 -264 q-8 -68 -27 -68 l-8 0 q-49 0 -106 127 q-135 -20 -174 -43 q0 4 -4 4 q-7 -32 -15 -32 q-27 0 -27 28 q0 39 11 314 l0 111 q0 53 -11 118 l7 4 ZM533 471 l0 -108 q0 -27 31 -27 l43 0 l135 19 q24 -9 24 -31 q-75 -78 -186 -213 l0 -4 l106 24 q-12 25 -12 31 l8 4 l21 -31 q33 8 63 8 q19 -4 19 -12 l0 -8 q0 -12 -58 -16 l0 -3 q48 -77 58 -83 l4 20 l0 164 q0 104 8 340 q-33 -6 -229 -74 l-35 0 ZM533 316 q-8 -138 -8 -201 l-4 -19 l4 0 q75 78 178 217 q-49 -12 -107 -12 l-16 0 q-23 0 -47 15 Z" /><glyph glyph-name="uni4F34" unicode="&#x4f34;" d="M633 811 q27 0 27 -165 l0 -39 q61 59 74 118 l12 0 q10 0 16 -32 q-4 -47 -102 -148 l0 -31 q63 15 86 15 q16 -6 24 -19 l0 -12 q-18 -27 -114 -102 l0 -70 q106 20 192 20 l27 0 q31 -4 31 -28 q-13 -11 -27 -11 l-86 0 q-53 0 -137 -16 q0 -51 -4 -78 q4 -113 4 -215 l0 -98 q0 -23 -19 -27 q-43 0 -43 121 l0 8 l15 19 l-4 8 l0 250 q-7 0 -222 -70 l-4 0 q-16 6 -16 12 l0 4 q0 4 176 113 q70 57 70 62 l0 71 l-46 -4 l-36 0 q-58 4 -58 23 l0 8 q2 8 8 8 q13 -8 31 -8 l47 0 q29 0 58 66 l0 51 q-56 -74 -62 -74 q-37 0 -55 105 q-14 28 -27 43 l0 4 q0 8 11 8 q34 0 67 -109 l0 -4 q66 37 66 62 q4 161 16 161 l4 0 ZM301 744 q27 -12 27 -39 l0 -12 q0 -62 -125 -242 q29 8 39 8 q39 0 43 -98 q-8 -177 -12 -215 q8 0 24 36 l12 0 q-30 -164 -47 -164 l-16 0 q-6 0 -23 23 q23 250 23 363 l-4 20 q-62 -18 -137 -86 l-11 0 q-6 0 -20 19 l0 8 q219 254 219 375 l8 4 ZM656 439 q6 0 47 47 l-4 0 q-43 -4 -43 -15 l0 -32 ZM602 361 q-77 -66 -94 -66 l0 -4 l8 0 q93 23 93 31 l0 32 q0 7 -7 7 Z" /><glyph glyph-name="uni4F38" unicode="&#x4f38;" d="M645 775 q35 0 35 -212 q119 19 133 19 l15 0 q31 -18 31 -39 q0 -51 -78 -334 q-11 -8 -23 -8 q-24 0 -59 59 q-17 -6 -19 -16 q11 -232 11 -396 q-3 -20 -11 -20 l-8 0 q-35 0 -39 51 l0 35 q8 10 8 16 q0 62 -4 299 l-8 3 q-113 -50 -131 -50 q-47 9 -47 86 q-8 314 -43 314 q-15 0 -15 8 q2 8 19 15 q51 0 78 -189 q18 -16 20 -16 l27 0 q96 18 96 28 l0 92 q-55 -8 -84 -8 q-78 6 -78 43 q8 4 11 4 q22 -12 55 -12 q35 0 96 8 q4 140 4 195 q-8 0 -8 8 l0 8 q0 9 8 9 l8 0 ZM307 734 q31 0 31 -35 l0 -4 q0 -74 -127 -252 l0 -4 q25 12 37 12 q47 0 47 -101 q0 -36 -12 -217 q6 0 24 41 l11 0 q-29 -166 -47 -166 l-15 0 q-26 15 -26 27 q26 235 26 350 q-4 29 -4 31 q-35 0 -139 -86 l-8 0 q-23 0 -23 27 q176 200 213 331 q4 46 12 46 ZM680 436 q37 7 58 7 q16 -15 16 -23 q0 -10 -74 -70 l0 -12 q0 -2 35 -39 q55 0 55 51 q46 156 46 193 l0 8 q-50 -12 -136 -24 l0 -91 ZM680 400 l0 -7 l8 0 l0 7 l-8 0 ZM518 369 l-28 8 l0 -4 l8 -141 l4 0 l131 118 l0 35 l-4 0 q-68 -16 -88 -16 l-23 0 ZM541 229 q80 31 92 42 l0 43 q-55 -41 -96 -85 l4 0 ZM680 287 l8 0 l0 4 q0 8 -8 8 l0 -12 ZM734 271 q0 -5 12 -11 l4 23 l-4 0 q-8 -4 -12 -4 l0 -8 Z" /><glyph glyph-name="uni4F3C" unicode="&#x4f3c;" d="M248 752 l12 0 q23 -12 23 -47 q-8 -86 -133 -258 l4 0 q14 8 35 8 q47 0 47 -98 q0 -105 -11 -230 l7 0 q14 39 24 39 l4 0 q-22 -176 -55 -176 q-35 14 -35 35 q27 237 27 352 q-4 33 -4 43 l-4 0 q-54 -12 -136 -90 l-20 0 q-6 0 -19 20 l0 7 q168 186 218 329 q8 15 12 46 q-4 6 -4 16 l8 4 ZM803 607 q15 -7 15 -27 q0 -62 -54 -215 l11 0 q79 -11 184 -199 q27 -61 27 -70 l-15 -12 q-41 0 -86 102 q11 0 11 3 q-50 110 -136 165 q-94 -254 -156 -254 l-16 0 q-31 0 -51 43 q4 0 4 3 q22 -11 35 -11 q65 47 110 160 q46 98 93 269 q-86 -103 -156 -218 l-16 -12 l-7 0 q-34 0 -47 74 l-8 4 q-47 -8 -164 -172 l-12 0 q-27 4 -27 28 q15 121 15 148 l0 47 q0 51 -27 62 l0 4 q0 4 12 12 l12 0 q46 -23 46 -117 l0 -28 q0 -21 -4 -58 q94 109 145 109 q59 -29 59 -70 q121 121 191 230 l12 0 Z" /><glyph glyph-name="uni4F3D" unicode="&#x4f3d;" d="M484 764 q12 -4 12 -24 l0 -23 q0 -33 -23 -192 l4 0 q115 12 134 16 q47 -12 47 -47 q-25 -137 -109 -418 l-16 -12 l-8 0 q-45 0 -103 190 l0 4 l-8 0 q-55 -276 -78 -276 l-8 0 q-29 0 -35 39 l4 47 l4 0 q8 0 8 -15 l7 0 q59 215 102 433 l-43 0 q-70 0 -70 35 q8 4 11 4 q26 -7 36 -7 l66 0 q10 0 43 199 q12 47 19 47 l4 0 ZM242 740 q24 0 28 -43 l0 -4 q0 -62 -124 -242 l0 -4 q14 8 32 8 l10 0 q27 0 39 -76 l0 -16 l-12 -218 q23 35 27 35 l4 0 q-21 -162 -47 -162 q-25 0 -37 35 q18 125 26 322 q-4 47 -8 51 q-51 -16 -135 -90 l-4 0 q-16 6 -23 19 l0 12 q187 213 212 342 q0 31 12 31 ZM697 510 l8 0 q31 -28 31 -55 q8 4 12 4 q129 8 154 8 l28 0 q31 0 47 -26 l0 -11 q0 -45 -198 -203 q-17 0 -27 -39 q-8 -4 -12 -4 q-31 0 -35 199 q0 68 -16 123 l8 4 ZM422 273 q21 -29 88 -144 q105 328 105 381 l-4 0 q-146 -16 -146 -24 q-43 -189 -43 -213 ZM771 430 q-25 8 -31 8 q16 -83 16 -176 l4 0 q174 154 174 179 l-4 0 q-12 0 -159 -11 Z" /><glyph glyph-name="uni4F46" unicode="&#x4f46;" d="M336 799 l4 0 q23 -12 23 -31 l0 -8 q0 -47 -90 -156 l0 -4 q55 0 55 -270 q0 -387 -27 -387 q-22 0 -35 24 l0 31 q11 301 11 379 l0 8 q0 191 -15 191 l-12 0 q-137 -137 -207 -137 q-23 4 -23 12 q113 59 253 235 q55 74 55 109 l8 4 ZM766 689 q43 0 43 -74 l0 -43 q0 -394 -32 -394 l-4 0 q-39 0 -109 101 l-8 4 l-4 0 q-76 -51 -101 -51 q-2 -46 -16 -46 q-19 0 -35 23 q4 189 4 254 q0 176 -51 176 l-4 7 l0 4 q0 4 12 12 l4 0 q39 0 62 -62 l24 0 q45 0 207 89 l8 0 ZM539 568 l0 -4 q0 -74 35 -74 q14 0 117 20 q22 0 32 -20 l0 -8 q0 -15 -90 -136 q17 -16 19 -16 q69 35 75 35 q0 -4 3 -4 q0 -11 -46 -58 q0 -6 58 -59 l4 0 q24 256 24 406 q-4 0 -4 4 q-159 -90 -203 -90 l-24 4 ZM551 463 l0 -156 l8 0 l105 148 q4 6 4 16 q-37 -16 -90 -16 l-27 8 ZM594 299 l0 -4 l4 0 l31 19 q-6 16 -12 16 l-23 -31 ZM914 146 q8 -1 8 -7 q0 -55 -344 -110 l-74 0 q-53 0 -66 28 l0 4 q0 2 11 11 q35 -4 43 -4 q108 0 414 78 l8 0 Z" /><glyph glyph-name="uni4F4D" unicode="&#x4f4d;" d="M330 775 q24 -9 24 -31 q-2 -51 -94 -156 q37 0 47 -121 q-12 -440 -12 -504 q-10 -8 -12 -8 q-43 0 -43 66 q10 71 24 504 q0 34 -20 51 q-90 -94 -156 -94 l0 12 q137 106 211 215 q23 64 31 66 ZM561 736 l7 0 q90 -66 168 -66 q12 -16 12 -27 q-12 -8 -19 -8 l-36 4 q-62 -16 -66 -16 l0 4 q0 2 27 27 q-101 39 -101 78 l8 4 ZM510 557 q-31 -36 -31 -47 l11 0 q12 0 12 -4 l23 4 q57 0 278 31 q15 -6 23 -20 l0 -3 q0 -26 -308 -43 q-63 0 -71 39 q0 17 63 47 l0 -4 ZM764 451 q6 0 19 -19 l0 -20 q-10 -107 -152 -285 q76 8 195 8 l8 0 q105 0 117 -28 l0 -7 l-8 -12 q-58 4 -86 4 l-35 0 q-51 0 -410 -16 l-27 0 q-22 0 -31 20 q0 9 15 11 q96 0 172 12 q-10 0 -16 266 q-4 0 -11 31 l11 8 l4 0 q37 0 43 -160 q0 -35 4 -78 l4 0 q0 13 31 50 l0 -7 q-21 -57 -35 -106 l31 0 q123 234 137 277 l4 24 l0 4 q-12 0 -12 8 q0 5 16 15 l12 0 Z" /><glyph glyph-name="uni4F4E" unicode="&#x4f4e;" d="M293 756 q31 0 31 -31 l0 -20 q0 -62 -125 -238 l0 -4 q22 12 35 12 q47 0 47 -90 q0 -102 -11 -223 l7 0 q0 16 24 35 l4 0 q-28 -164 -43 -164 l-8 0 q-35 6 -35 28 q23 212 23 343 l0 8 l-4 27 q-56 -11 -133 -85 l-15 0 q-6 0 -20 19 l0 8 q151 166 207 308 q12 38 12 47 q-4 6 -4 16 l8 4 ZM664 717 q8 -10 8 -16 q0 -49 -211 -62 l-8 0 q-57 0 -82 31 l0 12 q0 4 12 11 q15 -15 31 -15 l39 0 q102 0 211 39 ZM633 611 q19 0 55 -101 l93 43 l12 -16 l0 -8 q-8 -17 -90 -62 q92 -264 172 -399 l4 0 q10 200 19 200 q32 -92 32 -157 l0 -66 q0 -59 -28 -59 q-76 0 -226 438 q-10 31 -16 31 q-111 -43 -199 -59 q-8 -203 -8 -234 q80 100 106 121 l7 0 l0 -4 q-5 -66 -97 -191 l-8 -4 l-8 0 q-47 0 -47 98 q0 31 12 226 q-8 12 -8 20 q12 0 12 15 q10 157 19 157 l4 0 q20 0 24 -79 q-4 -58 -4 -85 l4 0 q41 7 179 58 q0 12 -31 110 q2 7 8 7 l8 0 ZM605 225 q38 0 106 -118 l0 -7 q0 -8 -8 -8 l-8 0 q-35 0 -58 70 l-43 51 l0 4 q2 8 8 8 l3 0 Z" /><glyph glyph-name="uni4F4F" unicode="&#x4f4f;" d="M480 813 q194 -59 194 -118 l0 -7 q0 -8 -28 -16 q-39 0 -80 35 q0 8 8 8 l41 0 q-6 15 -135 74 l-7 12 l7 12 ZM295 742 q23 -13 23 -35 l0 -12 q0 -70 -129 -256 l4 0 q26 8 36 8 q42 -9 42 -80 l0 -4 q0 -121 -7 -240 q27 39 31 39 l4 0 q-31 -176 -51 -176 q-39 6 -39 35 q23 243 23 334 l0 30 q0 27 -7 27 q-65 -21 -139 -92 l-4 0 q-25 10 -27 20 l0 12 q191 218 224 355 q0 35 8 35 l8 0 ZM631 596 l12 0 q31 -14 31 -47 l0 -8 q0 -45 -12 -166 l27 4 q94 -8 94 -51 l0 -4 q0 -35 -137 -209 q0 -33 -3 -35 l7 0 q186 108 284 154 l4 -7 q-155 -137 -395 -264 l-23 -6 q-36 6 -36 33 q67 84 79 102 q-30 60 -125 178 l0 27 q0 33 177 74 l20 190 q-4 0 -4 3 q-129 -35 -166 -35 l-27 0 q-24 0 -40 24 l0 4 q2 7 8 7 l28 -3 l197 35 ZM650 199 q77 86 90 137 l-11 8 l-63 0 q-12 0 -16 -145 ZM465 277 q0 -19 121 -158 q14 6 14 27 q0 57 11 186 q-146 -29 -146 -55 Z" /><glyph glyph-name="uni4F51" unicode="&#x4f51;" d="M680 783 q45 -45 125 -78 l11 -16 q0 -44 -164 -66 q-7 -19 -70 -227 l4 0 q12 0 27 -42 l8 3 q27 -7 47 -7 l12 0 q78 0 199 39 l4 0 q23 -12 23 -32 q0 -80 -66 -324 q-12 -15 -24 -15 q-31 0 -74 78 q-84 -32 -94 -32 q-7 4 -11 4 l0 -62 q0 -8 -8 -8 l-12 0 q-31 0 -31 188 q0 78 -12 179 q-8 -10 -82 -207 q-49 -121 -105 -121 q-63 16 -63 94 l4 0 l43 -55 l4 0 q41 0 184 403 q27 78 39 132 q-69 -7 -125 -11 q-65 0 -82 27 l0 16 q2 7 7 7 l4 0 l24 -15 l12 0 q175 4 175 27 q33 121 51 121 l16 0 ZM328 748 q24 -14 24 -43 q-14 -90 -129 -250 l4 0 q21 12 35 12 q43 -12 43 -78 q0 -125 -8 -235 l27 35 l4 0 q-23 -164 -43 -164 l-8 0 q-35 6 -35 32 q28 242 28 328 q-2 47 -12 47 q-61 -22 -129 -86 l-4 0 q-31 2 -31 27 q84 80 168 223 q54 101 54 152 l12 0 ZM680 756 q-20 -92 -20 -94 q117 22 117 35 q-80 59 -97 59 ZM680 318 q-39 0 -63 20 l0 -4 q16 -109 16 -207 l4 -27 q93 27 93 43 q4 0 12 -4 q28 4 43 4 l12 0 l0 -12 q0 -10 -27 -20 q3 -11 27 -35 l4 0 q66 233 66 274 q-92 -32 -140 -32 l-47 0 Z" /><glyph glyph-name="uni4F53" unicode="&#x4f53;" d="M604 781 q19 0 50 -66 q-35 31 -39 31 l-4 0 q2 -164 8 -164 q57 8 94 31 q-4 24 -16 43 l8 4 q47 -47 47 -62 q0 -32 -133 -55 l0 -117 q41 -37 242 -102 q82 -19 82 -35 l0 -4 q0 -6 -11 -12 l-8 0 q-69 0 -301 106 l0 -102 q76 24 121 32 l0 -12 q0 -12 -121 -63 l4 -19 q0 -293 -23 -293 l-20 0 q-37 0 -129 320 l-8 0 q-31 -86 -66 -86 q-35 4 -35 35 l0 8 q0 20 15 28 q8 -22 8 -28 l4 0 q70 131 129 313 l-4 0 q-37 -8 -59 -8 l-23 0 q-21 0 -31 19 l0 4 q2 8 8 8 l3 0 q59 0 176 35 l0 157 q2 54 20 54 l12 0 ZM361 715 q16 -8 16 -27 q-18 -65 -82 -133 q23 -47 23 -157 l0 -15 q0 -285 -27 -285 l-4 0 q-27 7 -27 31 q11 238 11 297 q0 17 -3 90 q-125 -129 -176 -129 q-20 0 -35 23 l0 12 q2 8 7 8 q6 0 12 -12 q127 76 254 262 q12 35 20 35 l11 0 ZM533 500 q-17 -98 -74 -242 q105 -233 105 -238 l4 0 q8 148 8 199 l-4 0 q-39 -12 -58 -12 q-16 4 -24 20 l0 3 q0 4 86 32 l0 140 l-43 43 q2 8 8 8 l4 0 q14 0 27 -12 l4 0 l0 67 q0 19 -8 19 q-43 -7 -43 -11 l8 -16 Z" /><glyph glyph-name="uni4F55" unicode="&#x4f55;" d="M332 764 q27 -12 27 -39 q0 -75 -125 -254 l4 0 q14 8 35 8 q38 0 43 -98 l-11 -215 l27 35 l4 0 q-23 -164 -43 -164 l-4 0 q-35 6 -35 27 q23 268 23 344 q0 16 -7 39 q-71 -29 -133 -90 l-12 0 q-6 0 -20 20 l0 8 q118 135 180 250 q37 78 39 129 l8 0 ZM867 721 q28 -6 28 -16 l0 -4 q0 -15 -98 -27 l0 -4 q43 0 43 -438 q0 -273 -59 -273 q-51 0 -168 195 l0 8 l4 0 q14 -10 137 -148 l12 0 q27 62 27 250 q-4 86 -4 164 l0 101 q0 102 -8 129 l8 16 q-172 -24 -246 -24 q-133 4 -133 51 l8 4 q53 -19 105 -19 q40 0 344 35 ZM496 490 q125 8 168 8 q22 0 39 -39 q-25 -78 -191 -188 q0 -31 -12 -31 q-31 4 -31 31 q-6 250 -31 250 q0 4 11 12 l47 -43 ZM645 467 q-114 -4 -145 -4 q0 4 -4 4 l0 -4 q12 -67 12 -137 l0 -8 q2 -7 8 -7 q140 136 140 156 q-4 0 -4 4 l-7 -4 Z" /><glyph glyph-name="uni4F59" unicode="&#x4f59;" d="M482 846 q6 0 16 -16 l0 -16 q0 -19 -19 -62 q41 0 296 -236 q16 -16 16 -32 l0 -4 q-4 -9 -23 -9 l-8 0 q-28 0 -55 33 q6 4 27 4 q-193 183 -261 226 q-57 -127 -192 -275 q-52 -66 -97 -66 q-51 13 -51 46 l8 4 q9 -19 31 -19 q70 49 148 156 q98 131 141 234 q10 32 20 32 l3 0 ZM424 568 q17 -25 62 -25 l20 4 l15 0 q40 0 94 4 q28 -8 28 -31 q-53 -53 -106 -77 l0 -11 q0 -26 4 -77 q72 4 105 4 l20 0 q98 0 98 -27 l0 -8 l-12 -8 q-94 8 -125 8 q-20 0 -86 -8 l0 -367 q0 -29 -16 -33 l-11 0 q-55 0 -137 236 l-8 0 q-43 -131 -74 -131 q-39 10 -39 40 l0 11 q2 8 8 8 q9 -19 15 -19 q75 132 75 179 l7 4 l8 0 q16 -6 16 -27 l0 -12 q-8 -37 -8 -41 q12 -8 109 -180 l8 -4 l0 329 l-4 0 l-191 -41 q-20 5 -20 21 q205 131 219 154 l0 69 l-4 0 q-66 0 -86 35 l0 12 q0 4 12 9 l4 0 ZM541 512 l-23 0 l0 -4 q13 -14 15 -37 q47 35 47 41 l0 4 l-39 -4 ZM369 316 q10 8 125 32 l0 64 l-4 0 q-80 -49 -129 -96 l8 0 ZM670 240 q37 0 117 -199 l0 -12 q0 -8 -8 -8 l-11 0 q-18 0 -110 215 q8 4 12 4 Z" /><glyph glyph-name="uni4F5B" unicode="&#x4f5b;" d="M525 836 q22 0 28 -137 q62 0 62 12 l0 43 q0 70 12 70 q31 -15 31 -113 q49 4 51 4 q35 -8 35 -31 q0 -14 -82 -79 q4 -87 4 -140 l0 -16 l4 0 q131 31 176 31 q58 0 74 -82 q-31 -199 -94 -289 l-19 -4 q-63 0 -133 153 l-4 0 l0 -168 q0 -215 -31 -215 l-4 0 q-22 8 -31 27 l0 43 l3 0 l8 -4 q4 39 8 200 q-4 154 -4 257 l-82 -23 q-27 -336 -58 -336 l-4 0 q-55 0 -55 125 l8 0 q17 -70 27 -70 q27 172 35 269 q-52 -19 -82 -19 q-6 0 -19 19 q0 14 109 145 l-4 0 q-25 -8 -35 -8 l-12 0 q-9 0 -11 20 q70 23 70 43 q4 44 4 85 l0 8 l-39 0 q-53 0 -71 32 l0 3 q2 8 8 8 q41 -11 63 -11 l39 3 l4 20 l0 105 q0 4 4 4 l-4 8 q2 8 7 8 l4 0 ZM295 766 q27 -12 27 -39 l0 -8 q-11 -88 -125 -242 l0 -4 l4 0 q14 7 24 7 l4 0 q50 0 50 -93 l-11 -219 l27 35 l4 0 q-22 -164 -47 -164 q-35 8 -35 27 q23 268 23 344 q0 16 -8 39 q-58 -21 -128 -86 q-8 -4 -12 -4 q-16 4 -24 20 l0 8 q219 258 219 379 l8 0 ZM662 676 l0 -16 l4 0 q6 0 16 16 l-20 0 ZM553 582 q60 35 62 43 l0 43 l-4 0 q-15 0 -58 -8 l0 -78 ZM541 414 q8 0 78 20 l0 43 q0 19 -4 66 q-66 -12 -66 -31 l-8 -98 ZM494 461 q0 -4 -43 -74 q47 8 47 31 l0 43 l-4 0 ZM666 402 q0 -107 23 -125 q69 -99 98 -125 q55 78 86 235 q4 19 4 35 q0 19 -20 27 q-146 -15 -191 -43 l0 -4 Z" /><glyph glyph-name="uni4F5C" unicode="&#x4f5c;" d="M467 818 q43 0 45 -148 l-2 -24 q33 0 228 75 l16 0 q16 -6 16 -12 l0 -12 q-2 -13 -135 -58 q11 -53 10 -137 q35 -20 93 -20 l55 0 q31 -3 31 -27 q-119 -101 -160 -168 l0 -4 q92 31 201 59 q16 -6 22 -20 l0 -8 q-2 -9 -129 -35 q-94 -39 -113 -39 l-4 -199 q-2 -59 0 -160 q0 -16 -20 -24 q-51 0 -49 122 l0 11 l4 0 q8 0 8 -11 l8 0 l0 7 q2 37 -2 94 l4 8 q0 4 -4 4 l4 27 l10 508 l-4 0 q-43 -20 -63 -20 l-23 0 q-34 0 -47 51 l2 71 q2 44 -14 85 q8 4 12 4 ZM326 789 l8 0 q23 -14 23 -35 l0 -20 q0 -62 -125 -238 l4 0 q14 8 32 8 q46 0 46 -82 q0 -158 -11 -231 l8 0 q0 18 23 36 l4 0 q-25 -164 -47 -164 q-23 0 -39 31 q23 209 23 316 l0 43 l-4 20 q-62 -22 -136 -90 q-31 0 -31 31 q117 121 171 234 q39 61 47 122 q-4 5 -4 15 l8 4 ZM648 467 q0 -4 -3 -4 l3 -8 l-3 -144 q93 91 115 128 l0 4 l-4 0 q-57 0 -108 24 Z" /><glyph glyph-name="uni4F60" unicode="&#x4f60;" d="M447 830 l8 0 q29 0 35 -201 q2 -6 2 -10 l242 86 q26 -10 28 -19 l0 -14 q-26 -33 -92 -68 l-4 0 l0 7 l16 26 l0 4 l-90 -30 l0 -4 q37 0 45 -117 q8 -363 8 -537 q0 -29 -20 -37 l-12 0 q-62 0 -158 305 l8 0 l125 -231 l8 0 q0 24 -4 24 q4 56 4 78 q0 103 -4 488 q-8 0 -8 8 l0 12 l4 7 l-4 0 q-57 -27 -88 -27 q-53 12 -53 96 q-4 117 -4 150 l8 4 ZM277 629 l4 0 q6 0 16 -14 l0 -15 q0 -43 -100 -141 q61 0 61 -49 q-2 -115 -2 -146 l0 -4 l2 0 q12 37 19 37 l4 0 l0 -16 q-10 -150 -37 -150 q-19 0 -39 25 q8 88 16 266 q-32 0 -141 -61 l-2 0 q-15 0 -27 20 l0 10 q219 179 219 234 l7 4 ZM467 441 q15 -5 15 -31 q-70 -287 -109 -287 q-35 14 -35 37 q6 43 19 43 q4 -8 4 -15 q8 0 75 189 q19 64 27 64 l4 0 ZM730 430 q47 0 118 -227 q6 -2 35 -80 l-16 -12 q-47 0 -125 274 l-17 33 l0 4 q0 8 5 8 Z" /><glyph glyph-name="uni4F69" unicode="&#x4f69;" d="M230 760 q34 0 34 -31 l0 -12 q-8 -92 -129 -254 l0 -4 q25 12 35 12 q45 0 49 -88 q0 -65 -8 -229 q-4 0 -4 -4 l8 0 q0 16 23 36 l4 0 q-17 -133 -43 -168 l-19 0 q-18 9 -26 27 q26 228 26 338 l0 23 q0 30 -10 30 q-68 -24 -131 -88 l-18 0 q-3 0 -19 19 l0 4 q205 242 221 358 l0 23 q2 8 7 8 ZM686 725 q80 0 80 -178 q0 -35 -12 -336 q4 -68 16 -68 l7 0 q145 23 153 76 q-8 19 -80 111 q0 6 -8 18 l0 4 q51 -14 140 -129 q0 -4 4 -26 q0 -62 -189 -103 l-12 0 q-72 0 -80 95 l0 18 q0 86 8 207 l0 10 l-4 0 q-39 -141 -61 -141 l-7 0 q-20 0 -49 35 l0 -4 q4 -171 4 -201 q0 -17 -4 -175 l-16 -12 q-43 0 -43 88 l0 19 l12 16 l0 361 q-47 -8 -65 -8 q20 -84 20 -156 l-12 -8 q-35 0 -41 145 q-17 56 -23 56 l0 -3 q-12 -342 -37 -342 l-16 0 q-6 0 -23 23 l0 4 q27 238 27 387 q0 131 -20 187 l8 6 q61 0 61 -219 l0 -15 q19 0 45 -31 l4 0 q72 7 72 19 q0 96 -22 96 q-60 0 -76 29 l0 8 q2 8 8 8 q20 -12 53 -12 l19 0 q30 0 137 20 q10 0 14 -20 q-61 -33 -110 -33 q12 -39 20 -84 q78 21 94 21 q13 0 35 -25 l0 88 q0 4 4 4 l-4 9 l0 55 q0 72 -31 72 q-217 -31 -250 -31 q-16 6 -16 12 l0 8 q0 15 125 29 q76 16 103 16 l38 0 ZM588 428 q0 -73 37 -98 l4 0 q33 74 45 121 q-14 0 -86 -23 Z" /><glyph glyph-name="uni4F6C" unicode="&#x4f6c;" d="M574 783 q43 -15 43 -117 l0 -6 l102 14 l4 -8 l0 -10 q0 -15 -106 -39 l0 -8 q0 -33 -4 -113 q26 0 106 108 l29 9 q63 -23 68 -41 l0 -4 q0 -35 -132 -86 q-75 -93 -75 -95 q18 -33 18 -78 l0 -24 q195 106 217 106 q25 -8 29 -22 q-72 -64 -238 -103 l-8 0 l-22 -203 l0 -8 q2 -8 8 -8 l10 0 q109 8 273 105 l0 4 q0 16 -87 133 q-4 22 -4 25 l8 0 q136 -126 136 -166 l0 -3 q0 -43 -215 -118 q-46 -25 -99 -25 q-78 12 -78 78 q25 178 25 246 l0 24 q-137 -145 -211 -145 l-23 4 l0 12 q64 19 185 148 q16 18 53 67 l-8 0 q-133 -61 -230 -86 q-26 9 -26 15 l0 10 q4 10 30 20 l7 -4 q207 78 207 88 q4 68 4 105 l0 4 l4 29 q-4 0 -4 4 q-4 0 -4 -4 q-97 6 -97 43 q6 18 11 18 l8 0 q10 -26 78 -26 q8 0 8 8 q0 69 -11 113 q1 0 11 10 ZM291 770 l8 0 q23 -14 23 -36 l0 -7 q0 -79 -129 -260 l4 0 q16 8 33 8 q49 0 49 -88 q0 -51 -8 -231 l0 -4 l4 0 q0 20 24 36 l4 0 q-28 -168 -49 -168 q-22 0 -39 27 q23 224 23 348 l0 27 q0 21 -8 21 q-78 -35 -136 -93 q-33 0 -33 33 q85 84 166 217 q60 109 60 146 l-4 20 l8 4 ZM752 592 q-8 -6 -33 -49 l0 -4 l64 33 l0 4 q0 12 -31 16 Z" /><glyph glyph-name="uni4F7F" unicode="&#x4f7f;" d="M578 816 q22 0 35 -117 q35 0 86 20 q16 -6 16 -12 l0 -12 q0 -15 -106 -35 q-7 -131 -7 -137 q119 24 144 24 l16 0 q21 0 39 -27 l0 -16 q-33 -96 -238 -223 q0 -17 -24 -121 l4 0 q4 0 336 -144 l0 4 q-4 5 -4 15 q4 0 4 4 q39 0 62 -62 l-15 -12 l-12 0 q-16 0 -305 129 q-4 0 -82 35 l0 -4 q-33 -141 -74 -141 q-39 14 -39 43 l0 47 q2 8 8 8 l23 -43 q32 68 32 117 q-59 32 -137 59 l0 8 q2 7 8 7 l11 0 q34 0 133 -42 q12 21 12 66 q-39 -12 -39 -27 q0 -20 -12 -20 q-39 0 -39 113 q-8 188 -31 200 q0 9 15 11 q53 0 63 -269 l4 0 q70 19 70 121 q6 0 16 94 l-4 0 q-57 -16 -82 -16 q-18 6 -20 16 q0 13 110 35 q8 60 11 140 q-3 0 -3 4 q-18 -8 -63 -8 l-59 0 q-43 0 -62 32 l0 4 q0 7 12 7 q19 -11 39 -11 l39 0 q97 4 97 15 q4 6 4 16 l0 78 l-7 12 l0 8 q1 7 7 7 l8 0 ZM281 738 q32 0 32 -35 q0 -76 -125 -254 l3 0 q26 8 32 8 q41 0 47 -98 l-12 -214 l0 -4 l4 0 q0 11 23 39 l4 0 q-23 -164 -43 -164 l-16 0 q-27 19 -27 35 q27 215 27 332 l-3 39 l-4 0 q-55 -14 -133 -86 l-4 0 q-22 0 -27 16 l0 11 q218 256 218 375 l4 0 ZM574 336 q94 64 180 172 l0 8 l-4 0 q-156 -20 -156 -39 q0 -18 -20 -141 Z" /><glyph glyph-name="uni4F8B" unicode="&#x4f8b;" d="M295 766 l14 0 q21 -12 21 -36 l0 -11 q0 -80 -133 -266 l0 -6 l33 10 q45 0 53 -90 q-6 -258 -13 -258 l35 43 q0 -4 4 -4 q-32 -175 -47 -175 l-22 0 q-19 9 -27 29 q27 234 27 355 l0 39 q0 22 -10 22 q-72 -25 -140 -94 l-18 0 q-6 0 -21 22 l0 4 q222 257 240 394 q-4 8 -4 18 l8 4 ZM848 781 l4 0 q56 0 56 -451 l0 -86 q0 -320 -25 -320 q-8 -4 -18 -4 q-49 0 -115 174 l-4 21 l4 0 l94 -123 q13 215 13 313 q0 189 -17 472 l8 4 ZM549 703 q29 -8 29 -33 q0 -18 -133 -225 l0 -4 q110 61 176 82 l22 0 q21 -11 21 -35 q0 -23 -72 -191 q27 -12 37 -27 q0 -6 -12 -12 l-43 0 q-97 -215 -142 -215 q-59 0 -73 189 l0 30 l4 0 q55 -102 61 -155 l8 0 q72 110 95 172 q-138 20 -138 34 l0 5 q0 6 13 12 l26 0 q43 0 115 -17 l6 0 q51 115 72 175 l-4 0 q-197 -105 -215 -105 q-29 6 -29 29 q0 10 115 172 l47 86 q-51 -14 -94 -14 l-25 0 q-23 0 -35 22 q2 8 8 8 l21 0 q45 0 139 17 ZM719 537 q37 0 39 -121 q13 0 13 -8 l0 -13 q-5 -90 -31 -90 q-4 0 -29 21 q4 59 4 86 l0 26 q0 29 -4 93 l8 6 Z" /><glyph glyph-name="uni4F8F" unicode="&#x4f8f;" d="M617 842 l8 0 q33 0 43 -223 q51 20 55 20 l7 0 q6 0 12 -12 l0 -8 q0 -6 -70 -62 l0 -114 q68 12 86 12 l66 0 q31 0 39 -19 l0 -8 q0 -6 -11 -12 q-8 0 -86 4 q-94 -10 -94 -20 l4 -46 l0 -122 q10 -11 152 -50 q131 -47 137 -67 l0 -4 q0 -6 -12 -11 q-12 0 -250 86 l-27 3 l0 -62 q0 -188 -24 -188 l-11 0 q-57 0 -71 176 l8 4 q22 -43 39 -101 l8 0 l0 191 q-16 0 -23 16 l0 4 q2 7 7 7 l20 0 l0 75 q-111 -192 -199 -262 l-8 0 q-39 6 -39 39 q15 49 31 62 q0 -4 4 -4 l-4 -39 l0 -15 q117 125 211 293 l0 4 l-4 0 l-203 -98 q-16 4 -23 20 l0 3 q115 135 218 239 l-4 0 q-46 -20 -66 -20 q-55 12 -55 47 q4 133 4 172 l8 4 l8 0 q23 -14 23 -63 l0 -121 q90 18 90 32 q-4 181 -12 234 l8 4 ZM305 760 q27 -18 27 -43 q0 -69 -125 -246 l0 -4 q23 8 39 8 q35 0 39 -82 q0 -104 -8 -231 q24 35 28 35 l4 0 q-26 -164 -43 -164 l-16 0 q-20 14 -27 31 q27 233 27 336 q-4 38 -8 43 q-66 -27 -137 -89 l-7 0 q-12 0 -24 23 q223 260 223 383 l8 0 ZM465 354 q68 39 160 74 l0 86 l-4 0 q-113 -102 -160 -160 l4 0 Z" /><glyph glyph-name="uni4F9B" unicode="&#x4f9b;" d="M709 770 q35 0 35 -71 q0 -45 -23 -125 l4 0 l72 28 q10 -14 10 -20 q0 -21 -106 -57 q0 -33 -86 -189 l4 0 q133 39 219 68 l12 0 q7 0 7 -8 l0 -11 q0 -33 -339 -119 q-24 0 -24 -8 q24 -16 24 -35 q0 -73 -84 -211 l-8 -4 q-33 0 -33 31 q0 18 64 109 q22 65 22 79 l0 23 l3 8 l-3 0 q-102 -16 -127 -16 l-8 0 q-30 0 -37 20 q0 13 115 25 l72 20 q-10 0 -15 181 q-83 0 -102 57 l16 10 q21 -26 64 -26 l20 0 l0 4 q-10 162 -24 162 q0 6 12 12 q39 0 53 -174 l3 0 q139 14 139 30 q41 101 41 189 l0 12 q2 6 8 6 ZM344 748 q23 -8 23 -31 q-13 -72 -103 -192 q31 -64 31 -246 q0 -304 -20 -320 l-7 -4 q-30 16 -30 39 q8 221 8 313 q0 86 -8 181 q-97 -113 -146 -113 q-22 0 -28 14 l0 7 q40 0 178 182 q57 74 94 166 l8 4 ZM521 488 q0 -9 4 -103 l10 8 l4 0 l0 -4 q0 -10 -4 -75 l4 0 q31 0 43 57 q33 68 61 139 q-61 -16 -122 -22 ZM695 299 q75 0 172 -336 l0 -8 q0 -4 -10 -10 q-39 0 -72 78 l8 4 l18 -11 l0 4 q-81 263 -123 263 l-4 0 l-39 -4 l0 12 q31 8 39 8 l11 0 Z" /><glyph glyph-name="uni4F9D" unicode="&#x4f9d;" d="M541 811 q115 -86 170 -90 l12 -16 l0 -8 q0 -9 -8 -9 l-12 0 q-68 0 -170 101 q-4 8 -4 16 q8 6 12 6 ZM311 748 l3 0 q6 0 26 -23 l0 -24 q0 -72 -131 -256 l4 0 q16 8 33 8 q49 0 49 -84 q0 -74 -8 -234 l0 -4 l4 0 q0 17 23 35 l4 0 q-27 -170 -48 -170 q-26 0 -40 29 q28 291 28 344 q0 10 -8 53 q-59 -18 -141 -94 l-9 0 q-24 10 -24 33 q110 112 182 246 q45 86 45 122 q-4 7 -4 11 l12 8 ZM707 656 q6 0 22 -21 l0 -4 l-184 -231 q21 -97 21 -302 l0 -61 l4 0 q0 4 121 174 l0 4 q-76 43 -76 94 q0 31 178 121 q16 8 27 8 q30 -8 30 -34 q0 -37 -94 -181 l0 -8 q70 -24 193 -53 l6 -8 l0 -4 q0 -7 -10 -7 l-27 0 q-72 0 -182 48 q-146 -216 -166 -230 l-21 0 q-31 14 -31 51 l0 49 q0 85 3 142 l-7 158 q-92 -109 -121 -109 l-10 0 q-29 0 -35 39 q4 41 15 41 l8 0 l4 -37 l8 0 q129 127 267 309 l-4 0 q-117 -49 -177 -49 q-18 6 -24 19 l0 4 q0 10 8 10 l16 0 q29 0 238 68 ZM654 291 q0 -16 57 -53 q82 108 86 151 q-94 -47 -143 -98 Z" /><glyph glyph-name="uni4FA0" unicode="&#x4fa0;" d="M652 803 q28 0 28 -110 l4 0 q7 4 15 4 q24 0 24 -27 q-43 -24 -43 -35 q0 -71 -8 -114 l8 0 q68 47 74 47 q17 -7 19 -15 l0 -8 q-13 -84 -128 -207 l3 0 q204 72 204 109 l15 0 q6 0 16 -15 l0 -20 q-8 -33 -250 -129 q-35 -191 -110 -328 q-2 0 -19 -16 l-24 0 q-5 0 -23 24 l0 58 q2 8 8 8 q12 -27 12 -39 l3 0 q36 33 102 270 l0 4 l-4 0 q-133 -47 -199 -47 q-29 0 -39 19 l0 8 l4 8 l27 -4 q47 0 223 66 l0 4 q-28 0 -35 16 q54 16 54 70 l8 43 l-4 0 q-72 -56 -90 -133 l-7 -3 l-12 0 q-18 7 -24 31 q0 121 133 297 q-41 -12 -109 -16 q-63 0 -70 39 l11 8 l20 -12 l39 0 q133 10 133 31 q0 20 4 110 l7 4 ZM316 721 l12 0 q20 -12 20 -32 l0 -19 q-6 -74 -125 -238 l0 -4 q19 11 39 11 q39 0 43 -89 q0 -102 -12 -223 l8 0 q0 12 23 39 l4 -8 q-27 -160 -47 -160 l-4 0 q-35 6 -35 31 q24 207 24 340 l0 8 l-4 27 q-35 0 -137 -86 l-12 0 q-6 0 -19 20 l0 8 q185 207 219 347 l0 8 q-4 6 -4 16 l7 4 ZM543 396 q0 10 82 86 q12 84 12 114 q-65 -67 -102 -200 l8 0 ZM660 420 q39 33 78 117 l-4 0 q-70 -39 -70 -74 q0 -24 -4 -43 ZM770 287 q56 0 132 -308 q4 -16 4 -32 l-11 -8 l-4 0 q-39 0 -67 94 l8 4 l12 -8 l0 4 q0 53 -86 250 q8 4 12 4 Z" /><glyph glyph-name="uni4FA6" unicode="&#x4fa6;" d="M570 830 q49 -27 49 -121 l0 -14 q4 -11 24 -11 q48 0 146 52 l8 0 q6 0 12 -11 l0 -16 q-63 -61 -147 -61 q-16 0 -39 12 l0 -121 q0 -29 -21 -29 q-18 6 -28 23 q0 49 4 151 q0 109 -29 134 q0 6 14 12 l7 0 ZM326 744 q26 -14 26 -35 l0 -10 q0 -74 -131 -258 l4 0 q15 8 33 8 q49 0 49 -94 q0 -91 -12 -230 l31 41 q0 -4 4 -4 q-29 -170 -49 -170 q-39 6 -39 35 q24 213 24 358 q-4 29 -4 31 l-4 0 q-92 -41 -133 -92 l-4 0 q-23 0 -33 20 l0 8 q201 234 226 365 q-3 6 -3 15 l0 4 q2 8 7 8 l8 0 ZM473 574 q19 0 45 -92 l3 0 q88 0 272 77 l4 0 q35 -6 35 -38 l0 -19 q-29 -332 -53 -332 l-8 0 q-39 0 -87 137 l7 4 q51 -45 53 -65 l8 0 q41 236 41 275 q-158 -76 -252 -76 l-23 4 q7 -64 7 -146 q0 -133 -15 -133 l-18 0 q-8 2 -15 19 q3 108 3 180 q0 82 -23 205 l16 0 ZM662 400 q18 -5 18 -31 q0 -119 -143 -414 l-16 -12 l-7 0 q-41 8 -41 41 l0 20 q0 31 19 49 q10 0 14 -41 q88 164 140 365 q2 23 12 23 l4 0 ZM684 158 q95 -33 238 -215 l0 -7 q0 -6 -16 -12 q-25 0 -109 107 q-45 45 -121 110 l0 9 q0 8 8 8 Z" /><glyph glyph-name="uni4FA7" unicode="&#x4fa7;" d="M311 758 q11 0 23 -41 q0 -69 -131 -264 l4 0 q27 10 33 10 q45 -12 45 -86 l0 -6 q0 -98 -8 -236 l30 37 l4 0 q-26 -176 -53 -176 q-22 0 -37 31 q27 278 27 350 q-2 49 -12 49 q-88 -39 -134 -90 l-18 0 q-4 0 -20 19 l0 4 q198 227 229 366 q0 33 10 33 l8 0 ZM826 793 q67 -18 67 -285 q3 -37 3 -182 l0 -113 q0 -307 -33 -307 l-8 0 q-60 0 -119 240 l8 0 l82 -164 l10 0 q8 127 8 209 l0 180 q0 395 -26 395 q-15 0 -15 7 l0 8 q4 12 23 12 ZM621 650 q37 -13 37 -45 q-21 -250 -49 -250 q-46 0 -66 86 l0 4 l4 8 q8 0 37 -31 q21 96 33 183 q-111 -48 -135 -48 l-33 0 q-21 0 -37 11 q12 -62 12 -197 q0 -60 -16 -60 q-29 0 -29 37 l0 86 q0 132 -20 205 l16 0 q8 0 33 -41 q26 -8 33 -8 q32 0 180 60 ZM510 512 q17 -6 17 -37 l0 -12 q0 -78 -17 -141 q51 -41 156 -117 l0 -10 q0 -7 -8 -7 l-8 0 q-33 0 -144 111 q-47 -205 -94 -205 q-16 6 -23 19 l0 30 q0 7 7 7 l4 0 q0 -11 8 -11 q86 238 86 343 q6 30 12 30 l4 0 ZM684 498 l4 0 q27 -16 27 -80 l0 -18 q2 -7 8 -7 q54 78 54 86 l8 0 l0 -4 q-14 -82 -70 -180 l-16 0 q-6 0 -25 23 l4 59 q-4 72 -4 117 l10 4 Z" /><glyph glyph-name="uni4FB5" unicode="&#x4fb5;" d="M705 789 q41 -12 41 -41 q-33 -228 -49 -228 l-8 0 q-23 0 -46 44 q-82 -37 -125 -41 q-22 0 -30 18 l0 8 q127 99 135 99 l0 4 l-6 0 q-74 -7 -107 -7 q-49 5 -49 19 l0 10 l4 8 l37 -4 q33 0 162 15 q4 0 25 -15 q12 52 12 70 l-4 0 q-82 -25 -146 -25 l-30 0 q-56 0 -56 43 l8 4 q39 -14 48 -14 q57 0 184 33 ZM307 766 q25 -14 25 -47 q-14 -92 -139 -266 l4 0 q24 12 39 12 q45 -14 45 -78 l0 -22 q0 -111 -8 -232 l0 -4 l4 0 q2 19 26 41 l4 0 q-26 -174 -47 -174 l-8 0 q-37 6 -37 33 q29 258 29 354 q-4 45 -14 45 q-68 -26 -136 -92 l-16 0 q-21 14 -21 29 q95 98 183 242 q53 112 53 159 l14 0 ZM564 570 q75 16 75 28 q4 0 29 -20 q8 26 16 86 q-82 -57 -123 -94 l3 0 ZM377 494 q66 0 66 -224 l4 0 l18 13 l4 0 l0 -43 q-8 -49 -22 -49 l-4 0 q-50 0 -50 137 q0 94 -24 162 l8 4 ZM826 494 q26 -10 26 -33 l0 -8 q-39 -57 -118 -80 l0 10 q0 2 51 66 l-6 0 q-207 -47 -285 -58 q-43 7 -43 15 l0 10 q0 10 139 29 q178 49 228 49 l8 0 ZM738 354 q20 0 33 -30 q-7 -39 -121 -183 q116 -61 246 -155 l8 6 q55 -17 55 -51 l0 -3 q0 -6 -12 -12 l-13 0 q-20 0 -274 170 q-10 0 -29 15 l-84 -74 q-27 -25 -53 -25 q-62 19 -62 99 q6 63 15 63 q35 -106 41 -111 q26 5 88 74 q-62 15 -62 29 l0 4 q2 8 7 8 l14 0 q16 0 70 -12 q75 82 108 137 l0 10 q-125 -43 -174 -43 q-33 7 -33 17 l0 8 q0 8 99 21 q8 6 133 38 Z" /><glyph glyph-name="uni4FBF" unicode="&#x4fbf;" d="M475 779 q99 -31 179 -31 l51 0 q6 0 12 -12 l0 -4 q0 -15 -63 -23 q-183 20 -183 55 q-4 0 -4 4 l0 3 q2 8 8 8 ZM314 721 q10 -4 20 -28 q-12 -60 -86 -140 q16 -47 16 -125 l0 -246 l11 7 q0 -3 4 -3 q-4 -67 -19 -122 q-10 -7 -16 -7 q-25 9 -31 23 q4 285 4 438 l-4 0 q-78 -67 -121 -67 l-20 0 q-33 0 -47 24 q0 7 12 7 l16 -7 q78 0 234 203 q10 43 20 43 l7 0 ZM588 689 l4 0 q23 0 27 -70 l0 -55 q72 4 106 4 l50 0 q47 -11 47 -43 q-27 -86 -222 -211 q-26 0 -39 -101 q-4 0 -4 -35 q381 -180 394 -192 l4 -7 l0 -8 q0 -8 -8 -8 l-19 0 q-10 0 -387 180 l-4 0 q-37 -153 -82 -153 q-53 0 -74 129 l4 0 q43 -72 54 -82 q43 70 51 129 l0 4 q-135 47 -136 62 q1 8 7 8 l12 0 q41 0 129 -39 q12 33 19 74 q-42 0 -42 -19 q0 -6 -12 -12 q-35 0 -35 63 l0 23 q0 154 -39 270 l7 4 l4 0 q14 -4 39 -43 q32 0 55 -4 q27 4 70 4 q12 23 12 125 l8 3 ZM615 521 q0 -3 -4 -50 l4 0 q57 19 90 19 l31 0 q4 0 32 39 l0 4 l-39 0 q-114 0 -114 -12 ZM455 529 l0 -4 q12 -62 20 -86 q86 10 86 28 l7 58 l-105 0 l-8 4 ZM592 365 q45 28 117 98 l0 4 l-4 0 q-105 -37 -105 -51 l-8 -51 ZM482 408 l-7 -4 l4 -19 l0 -102 q70 26 70 129 l-4 0 q-33 -4 -55 -4 l-8 0 Z" /><glyph glyph-name="uni4FC3" unicode="&#x4fc3;" d="M422 795 q21 -4 55 -70 l3 0 l225 31 q43 -10 43 -43 l0 -4 q0 -45 -139 -172 q10 0 16 -252 q-4 0 -4 -4 l4 0 q123 174 150 188 l4 -8 q0 -35 -150 -279 q-8 -4 -12 -4 l0 -8 q88 -59 238 -176 l4 0 l0 4 q-7 14 -7 25 l3 8 q73 -49 73 -84 l0 -11 q0 -6 -12 -12 l-4 0 q-41 0 -240 166 q-151 105 -195 123 l0 -4 q-47 -174 -92 -174 l-4 0 q-39 8 -39 39 l0 16 q2 8 8 8 q15 -24 19 -24 l4 0 q61 131 61 164 q-45 24 -108 32 l-4 7 l0 4 q0 10 16 12 q39 0 107 -23 q28 138 39 156 l6 0 q16 -6 16 -37 l0 -12 q-12 -102 -12 -131 q67 -35 82 -49 l4 0 q-4 8 -4 12 q0 39 -4 41 q4 51 4 84 l0 180 q-68 -34 -78 -49 l-4 0 q-37 0 -37 160 q-16 96 -47 166 q8 4 12 4 ZM281 768 q33 -18 33 -39 q-11 -96 -132 -260 l4 0 q25 8 41 8 q39 -14 39 -84 q0 -80 -8 -231 l0 -4 l4 0 q0 16 23 35 l4 0 q-25 -166 -47 -166 q-29 0 -39 32 q24 207 24 318 l0 57 q0 7 -12 7 q-49 -15 -133 -87 l-8 0 q-11 0 -23 23 q209 248 222 371 q-3 8 -3 12 l11 8 ZM484 688 q26 -120 26 -192 q195 188 195 229 q-168 -34 -221 -34 l0 -3 Z" /><glyph glyph-name="uni4FC4" unicode="&#x4fc4;" d="M287 746 q24 -14 24 -35 l0 -12 q0 -64 -127 -248 l0 -4 q29 12 31 12 q53 0 53 -104 l-12 -214 l0 -4 l4 0 q15 37 23 37 l4 0 q-19 -168 -51 -168 q-33 10 -33 37 q26 260 26 342 l-4 39 l-4 0 q-61 -20 -137 -88 l-16 0 q-5 0 -15 16 l0 11 q183 211 215 336 q3 47 11 47 l8 0 ZM725 746 q56 0 148 -142 l0 -8 q-14 -8 -21 -8 q-26 0 -63 78 q-25 25 -76 64 l0 12 q4 0 12 4 ZM391 727 q91 0 160 -84 l0 -8 q-12 -8 -14 -8 l-12 0 q-33 43 -146 80 l-4 8 q0 6 12 12 l4 0 ZM598 727 q35 0 107 -200 l4 0 q16 0 61 28 l11 0 q16 -6 16 -28 q-6 -13 -76 -47 q49 -128 49 -140 q23 19 66 96 l12 0 q6 0 11 -12 q0 -41 -70 -139 q68 -209 88 -230 q6 99 19 99 q28 -99 28 -183 q-6 -39 -24 -39 q-45 0 -91 162 q-51 144 -61 150 q-53 -68 -111 -82 l-16 0 q-43 8 -43 39 l0 8 l4 0 q18 -16 20 -16 l7 0 q36 0 127 104 q-48 166 -58 166 q-164 -47 -164 -55 l0 -35 l4 -41 q7 0 48 16 q0 -4 4 -4 q0 -8 -52 -55 l0 -135 q0 -136 -20 -136 l-8 0 q-19 2 -72 87 q-94 55 -107 77 l0 4 q0 35 160 119 l4 8 q-4 52 -4 83 l0 4 l-4 0 q-86 -15 -123 -15 q-39 0 -53 23 l0 4 q2 8 8 8 l19 -4 q120 16 153 31 q-4 106 -12 145 l8 4 l8 0 q27 0 39 -137 q88 21 152 49 l0 4 q0 25 -76 199 l0 8 q2 8 8 8 ZM352 174 q64 -29 115 -80 l4 0 l0 162 q-73 -33 -119 -78 l0 -4 Z" /><glyph glyph-name="uni4FD8" unicode="&#x4fd8;" d="M711 797 q8 -2 8 -8 q0 -49 -196 -55 q-125 6 -125 39 l0 8 q2 8 8 8 l8 0 q22 -16 66 -16 l59 0 q39 0 172 24 ZM285 746 q24 -14 24 -43 q0 -68 -125 -246 l0 -4 q13 8 23 8 l12 0 q43 0 43 -70 q0 -151 -8 -239 l0 -4 l4 0 q19 36 19 40 l8 0 l0 -4 q-23 -164 -47 -164 q-27 0 -39 35 q28 203 28 336 q0 39 -8 39 q-59 -20 -137 -90 q-23 8 -27 19 l0 12 q168 193 203 305 q10 21 15 70 l12 0 ZM750 711 q31 -14 31 -43 q0 -70 -136 -215 l7 0 q49 12 67 12 q6 0 19 -20 q0 -15 -109 -148 l-4 -8 l51 0 q43 0 54 -62 l122 0 q93 0 93 -28 l0 -4 q0 -6 -11 -11 q-120 4 -176 4 q-35 0 -35 -24 q-47 -185 -82 -219 l-16 0 q-59 0 -145 207 l0 4 l8 4 q80 -117 121 -160 l4 0 q67 146 67 184 l-4 0 q-131 0 -309 -16 q-35 8 -35 20 q2 23 285 35 l63 0 q8 0 8 7 l0 24 l-83 0 q-31 0 -31 31 q0 12 94 129 l0 4 q-94 -18 -125 -31 q0 8 -8 8 l-35 0 q-51 0 -66 27 l0 8 q2 8 7 8 q26 -8 36 -8 l7 0 q106 0 106 31 q135 148 148 211 l-8 0 q-35 0 -101 -98 q-12 -47 -20 -47 l-11 0 q-6 0 -16 16 l0 82 q0 8 -8 8 q-39 -76 -70 -184 l-12 -8 q-37 0 -47 137 q-17 70 -50 70 l-4 8 q0 4 11 12 l8 0 q57 0 82 -141 q65 121 86 137 l8 0 q23 0 23 -78 q110 125 141 125 Z" /><glyph glyph-name="uni4FDD" unicode="&#x4fdd;" d="M453 799 q31 0 53 -61 l23 -4 l76 0 q149 0 149 -27 q4 -8 4 -12 q-28 -49 -145 -132 q32 -4 37 -149 q77 20 121 37 l-9 12 q2 8 9 8 q30 -8 40 -28 l0 -9 q0 -22 -161 -59 l0 -8 q0 -47 -4 -148 q129 -37 301 -76 q12 -16 12 -26 l-16 -12 l-7 0 q-38 0 -290 73 l0 -4 q-11 -274 -33 -274 l-8 0 q-52 0 -80 186 q-5 0 -15 80 l4 0 q21 -27 68 -164 l4 0 l12 191 q-45 10 -80 34 q-49 -104 -100 -157 l-12 -7 l-4 0 q-27 0 -41 27 l0 19 q0 32 16 37 q4 -9 8 -44 q56 52 136 232 l0 4 q-62 -20 -152 -31 q-47 11 -47 23 l0 8 q0 8 8 8 l4 0 q14 0 20 -4 q203 37 248 64 l0 121 q0 20 -12 24 l-72 -41 q0 -8 -8 -8 q-35 0 -35 102 q0 160 -34 187 q2 8 8 8 l4 0 ZM277 775 q32 -13 32 -48 q-18 -100 -131 -252 l4 0 q25 7 31 7 q49 0 49 -87 q0 -92 -8 -229 l0 -4 l4 0 q13 35 23 35 l4 0 q-25 -168 -47 -168 q-25 0 -41 34 q16 113 28 335 q-4 28 -4 49 l-4 0 q-35 0 -141 -90 l-8 0 q-23 10 -23 34 q43 33 121 144 q107 158 107 240 l4 0 ZM514 707 q0 -4 -4 -4 q8 -31 11 -160 q157 127 182 156 l-4 0 q-58 0 -181 4 q0 4 -4 4 ZM598 230 q4 61 4 88 l0 39 l-4 0 q-37 0 -55 -84 q-6 0 -18 -27 l73 -16 Z" /><glyph glyph-name="uni4FE1" unicode="&#x4fe1;" d="M557 789 q9 0 93 -51 q86 -17 86 -31 q-4 -12 -23 -12 q-102 0 -164 82 l0 8 l8 4 ZM363 742 q6 0 16 -15 l0 -4 q2 -22 -65 -86 l0 -4 q30 -57 34 -238 q4 -454 -22 -454 l-4 0 q-31 0 -31 36 q6 382 4 476 q0 37 -6 160 l-4 0 q-94 -70 -156 -70 l-8 0 q-27 0 -31 12 l0 4 q105 21 265 183 l8 0 ZM838 652 q17 -7 19 -15 l0 -8 q0 -29 -222 -39 l-59 0 q-152 10 -160 47 l12 8 q56 -16 148 -16 l20 0 q113 0 242 23 ZM771 504 q16 -6 16 -12 l0 -8 q-33 -23 -129 -39 l-39 0 q-60 0 -82 39 l0 8 q2 8 8 8 l4 0 q23 -20 62 -20 q26 0 160 24 ZM803 410 q8 -2 8 -8 q0 -37 -192 -78 l-55 0 q-39 6 -39 31 q8 0 8 8 l28 -4 l15 0 q22 0 223 51 l4 0 ZM525 285 l8 0 q22 0 35 -70 q69 0 246 66 l4 0 q39 -8 39 -39 q-29 -265 -50 -265 l-8 0 q-31 0 -78 78 q-123 -51 -149 -51 l0 -35 q0 -8 -15 -16 q-24 0 -28 31 q0 69 4 172 q-4 86 -15 125 l7 4 ZM572 184 q4 -53 4 -79 l0 -23 l-4 -39 l4 0 q117 35 117 59 l16 -8 q47 8 55 11 l4 -7 q-24 -26 -24 -28 q0 -6 31 -31 l4 0 l35 203 q-154 -58 -203 -58 l-39 0 Z" /><glyph glyph-name="uni4FE9" unicode="&#x4fe9;" d="M461 764 q53 -35 141 -35 l23 0 q88 7 94 7 l19 0 q6 0 12 -11 l0 -8 q0 -20 -129 -28 q-172 10 -172 67 q2 8 8 8 l4 0 ZM277 756 q24 -14 24 -35 l0 -8 q0 -74 -125 -250 l4 0 q13 8 31 8 q47 0 47 -86 q0 -133 -12 -227 l31 39 q0 -4 4 -4 q-27 -164 -47 -164 q-25 0 -39 28 q24 222 24 339 l0 16 l-4 27 l-4 0 q-66 -27 -133 -89 q-31 0 -31 31 q109 113 180 246 q29 57 39 105 q-4 6 -4 16 q2 8 8 8 l7 0 ZM531 670 q20 -12 20 -31 l0 -4 q0 -80 -12 -149 q117 12 117 35 q8 88 8 133 q8 0 8 8 q23 0 27 -62 l0 -79 l4 0 q108 28 137 28 l19 0 q36 -18 36 -55 l0 -27 q0 -104 -55 -449 q-16 -39 -35 -39 q-67 0 -141 238 l4 0 q20 -16 113 -184 l4 0 q39 164 39 250 q-25 0 -133 106 l-11 0 q-18 -164 -59 -164 q-35 0 -35 58 q2 8 8 8 l4 0 q4 -23 11 -23 q12 41 12 50 l0 4 q-33 0 -98 59 l-3 0 l0 -4 q-16 -152 -43 -152 q-28 7 -28 27 q20 80 35 184 l-4 0 q-5 0 -54 -4 l-28 4 q12 -49 12 -149 l0 -223 q0 -11 -15 -11 q-18 6 -28 23 l0 137 q0 221 -27 312 l4 0 q29 0 51 -58 l7 0 q59 0 90 12 q28 191 39 191 ZM688 416 q27 0 105 -74 q31 -26 31 -35 l8 0 q20 121 20 203 l0 4 l-4 0 q-157 -30 -157 -47 q-3 -49 -3 -51 ZM527 412 q73 -58 102 -58 q12 46 19 113 q-117 -20 -117 -31 q-4 -22 -4 -24 Z" /><glyph glyph-name="uni4FEE" unicode="&#x4fee;" d="M506 852 q31 -14 31 -51 l0 -4 q0 -41 -8 -98 l4 0 q22 0 188 71 l11 0 q14 -8 20 -24 q-18 -68 -113 -195 l0 -4 q281 -76 281 -98 l0 -4 q0 -6 -12 -11 l-8 0 l-289 82 q-82 -106 -125 -106 q-50 8 -50 47 l0 8 l3 0 q4 0 28 -20 q31 8 94 86 l0 4 q-102 28 -102 43 q2 8 8 8 l15 0 q26 0 106 -23 q109 144 109 160 l-4 0 q-129 -67 -168 -67 q-39 10 -39 39 l0 12 q12 84 12 125 l0 12 q2 8 8 8 ZM303 785 l8 0 q23 -14 23 -35 l0 -16 q-12 -84 -125 -242 l4 0 q14 8 23 8 l8 0 q47 0 47 -94 q0 -82 -12 -218 q30 39 32 39 q0 -4 3 -4 q-27 -164 -50 -164 q-14 0 -35 27 q23 221 23 348 l0 7 q0 28 -8 28 q-66 -28 -137 -90 q-27 8 -27 31 q86 86 168 223 q29 55 51 125 l-4 23 l8 4 ZM361 547 l4 0 q35 -18 35 -106 l0 -46 l4 0 l12 7 l4 -7 l0 -12 q-6 -92 -31 -98 q-16 0 -35 20 q3 91 3 136 l0 36 q0 19 -3 66 l7 4 ZM643 480 q5 0 15 -15 l0 -12 q0 -19 -66 -105 l4 0 l140 50 q24 0 32 -23 q0 -20 -55 -98 l4 0 l90 47 q17 -8 27 -23 l0 -4 q-25 -121 -164 -285 q-41 -43 -74 -43 q-47 0 -59 74 q4 35 12 35 l4 0 q19 -62 31 -70 q70 35 152 164 l59 117 l-4 0 q-4 0 -141 -94 l-4 0 q-23 0 -31 24 q63 78 98 133 l-4 0 q-96 -47 -141 -47 q-21 0 -31 19 l0 8 q0 20 90 133 q0 15 8 15 l8 0 Z" /><glyph glyph-name="uni4FEF" unicode="&#x4fef;" d="M512 836 q162 -39 162 -68 l0 -12 q0 -12 -43 -12 l-20 0 q-9 0 -9 8 q7 0 17 16 q-111 37 -127 52 l0 8 q2 8 8 8 l12 0 ZM287 770 q24 -14 24 -36 l0 -15 q-12 -84 -125 -244 l3 0 q12 7 24 7 l8 0 q47 0 47 -95 q-4 -119 -12 -221 q27 41 31 41 l4 -8 q-31 -162 -47 -162 l-4 0 q-35 4 -35 35 q24 231 24 348 q0 31 -8 31 q-73 -29 -131 -88 q-8 -4 -12 -4 q-15 6 -23 20 l0 8 q220 259 220 383 l12 0 ZM764 711 q19 -6 19 -23 q0 -30 -252 -59 l-74 0 l0 -4 q12 -20 12 -80 l0 -39 l11 0 q12 0 151 43 l4 -8 l0 -8 q-43 -39 -69 -39 q12 -51 16 -410 q-6 -20 -19 -20 q-36 0 -36 82 l0 28 q8 39 8 45 l0 260 q-29 -8 -55 -8 q-7 4 -11 4 l-4 -8 q-20 -227 -78 -434 q-14 -23 -33 -23 q-32 0 -32 31 l4 16 l4 0 l8 -4 q45 123 88 461 q0 50 12 123 q-55 0 -55 39 l8 4 q35 -12 66 -12 l20 0 q138 0 287 43 ZM768 592 l7 0 q34 -10 45 -137 l4 0 l78 27 q6 0 12 -11 l0 -4 q0 -16 -90 -55 q4 -137 4 -197 l0 -147 q-2 -93 -25 -93 l-16 0 q-55 0 -137 183 l-4 20 l8 4 q65 -108 114 -153 l3 0 q4 78 4 117 l0 206 l-4 39 q-68 -16 -85 -16 l-32 0 q-47 6 -47 33 q8 0 8 8 l28 -4 q76 0 128 31 l-11 145 l8 4 ZM639 313 q66 -14 129 -67 l0 -16 q0 -5 -12 -11 q-129 74 -129 82 q0 6 12 12 Z" /><glyph glyph-name="uni4FF1" unicode="&#x4ff1;" d="M301 777 q27 -11 27 -45 q-6 -80 -131 -255 l4 0 q12 7 24 7 l7 0 q49 0 49 -84 q0 -115 -8 -232 l0 -4 l4 0 q0 4 20 39 l8 0 q-22 -172 -53 -172 q-20 0 -35 33 q27 260 27 340 q-4 41 -8 49 q-74 -31 -107 -64 q-22 -30 -37 -30 q-18 8 -28 26 l0 4 q174 199 213 316 q14 72 20 72 l4 0 ZM492 781 l4 0 q16 -6 37 -60 q108 23 221 56 q43 0 43 -132 q0 -141 8 -370 q109 38 129 38 l4 -8 l0 -10 q0 -39 -336 -107 q3 -8 3 -12 q0 -59 -76 -168 q-17 -16 -21 -16 l-16 0 q-21 0 -31 20 l0 11 q0 24 35 43 q0 -3 4 -3 l-4 -8 l0 -4 q29 27 68 121 q4 8 4 12 q-86 -16 -111 -16 l-61 0 q-35 0 -52 27 l8 12 l37 -4 q95 0 347 57 l0 4 q-31 52 -58 117 l-141 -37 q0 -108 -23 -108 q-26 8 -30 24 q12 160 16 293 q-4 127 -12 168 l4 8 l-8 48 l8 4 ZM537 684 q2 -67 8 -67 q8 -4 12 -4 l129 16 l7 0 q6 0 12 -12 l0 -10 q-115 -105 -115 -111 l4 0 q66 24 84 24 q19 -6 19 -24 q-58 -23 -144 -111 l0 -4 q105 35 183 35 l14 -16 q0 -15 -57 -19 q0 -4 61 -68 l0 427 q-135 -39 -217 -56 ZM545 588 q0 -4 -4 -4 l4 -8 l0 -80 q25 29 96 92 q-39 -4 -61 -4 l-16 0 l-19 4 ZM564 455 l-19 14 l-4 0 l0 -65 l4 0 q80 63 80 69 l-61 -18 ZM785 215 q45 0 108 -195 l0 -12 q-10 -8 -12 -8 l-8 0 q-39 0 -57 59 q6 0 6 4 l8 -4 l4 0 q0 23 -61 152 q8 4 12 4 Z" /><glyph glyph-name="uni500D" unicode="&#x500d;" d="M510 809 q49 -20 152 -39 q16 -18 16 -32 q-63 -47 -90 -47 q0 4 -4 4 q12 22 35 47 l0 4 q-64 0 -117 47 l0 8 q2 8 8 8 ZM318 754 q32 -16 32 -43 q-10 -88 -125 -246 l0 -4 q25 8 31 8 q47 0 47 -82 q0 -96 -8 -227 l0 -4 l4 0 q15 35 23 35 l4 0 q-25 -164 -43 -164 l-8 0 q-25 0 -35 32 q24 201 24 300 l0 67 q0 8 -12 8 q-51 -20 -129 -86 l-8 0 q-11 0 -23 23 q219 262 219 363 q-4 6 -4 12 l11 8 ZM807 684 l0 -12 q-39 -43 -270 -67 q-98 8 -98 32 l0 4 l4 7 q47 -3 67 -3 q84 0 289 50 l8 -11 ZM709 625 l4 0 q17 0 23 -59 q0 -76 -78 -171 l4 0 q27 0 238 43 q4 -8 4 -12 q0 -61 -422 -90 q-89 8 -89 23 l0 8 q2 8 7 8 l39 0 q34 0 106 4 q0 37 8 70 q-8 71 -24 117 q2 8 8 8 q41 0 51 -129 l0 -15 l12 0 l0 -4 q-12 -39 -12 -43 l4 0 q51 0 51 39 q62 119 62 172 q-4 13 -4 27 l8 4 ZM514 305 q11 0 39 -47 l43 0 q47 0 203 43 q31 0 35 -39 q-29 -278 -43 -278 q-4 0 -12 -4 q-29 0 -90 83 q-37 -20 -132 -40 q-2 -50 -16 -50 q-21 0 -31 19 l0 250 q0 33 -12 47 l0 8 q2 8 8 8 l8 0 ZM588 223 q-18 0 -35 7 q4 -39 4 -58 l0 -109 q103 23 125 35 q4 0 4 -4 l19 4 l27 0 l0 -4 l-15 -20 q0 -6 39 -39 l4 0 q0 39 35 231 l-4 0 q-119 -43 -203 -43 Z" /><glyph glyph-name="uni5012" unicode="&#x5012;" d="M852 764 l9 0 q43 0 43 -559 l0 -195 q0 -35 -23 -49 l-16 0 q-62 0 -144 211 q4 0 123 -158 l4 0 q4 21 4 31 q0 207 -8 689 l-4 20 l12 10 ZM285 738 q29 -11 29 -35 l0 -15 q-13 -86 -128 -249 l3 0 q16 8 34 8 q47 0 47 -99 q0 -49 -12 -219 q4 0 27 35 l10 0 q-31 -168 -49 -168 l-4 0 q-35 6 -35 37 q23 215 23 346 q-1 37 -11 37 l-96 -57 q0 -4 -37 -35 q-22 0 -31 20 l0 8 q218 263 218 355 l0 23 q0 8 12 8 ZM387 734 q103 -39 185 -39 l14 -15 l0 -14 q-63 -72 -137 -178 l0 -4 l4 0 l141 82 q-8 49 -8 53 l8 4 q47 0 58 -199 q-7 -18 -15 -20 l-4 0 q-47 8 -47 80 l4 0 q2 0 12 -9 l3 0 l-3 21 l0 31 q0 8 -8 8 q-20 -19 -65 -51 q8 -103 8 -125 q35 12 61 12 q35 -4 35 -35 q0 -47 -96 -172 l4 0 q76 47 176 88 l4 0 l0 -4 q-114 -113 -260 -172 q-47 -23 -59 -23 q-29 6 -29 27 q65 45 100 80 q-8 35 -100 100 q-4 8 -4 15 q0 20 125 69 l0 111 l-4 0 q-84 -62 -99 -62 q-24 0 -34 19 l0 4 q24 63 172 250 q-152 22 -152 64 l10 4 ZM736 531 l4 0 q30 0 30 -103 l0 -16 q0 -6 11 -12 q-8 -74 -8 -121 q-9 -8 -17 -8 q-16 6 -31 26 q4 39 4 58 l0 120 l-4 48 l11 8 ZM537 240 q47 57 57 100 l-4 0 q-53 -16 -53 -24 l0 -76 ZM406 260 q53 -33 80 -76 q8 0 8 7 l0 114 l-4 0 q-84 -34 -84 -45 Z" /><glyph glyph-name="uni5019" unicode="&#x5019;" d="M523 781 q34 -23 215 -54 q16 -18 16 -32 q0 -27 -145 -144 l4 0 q166 47 188 47 q6 0 12 -12 l0 -4 q0 -27 -200 -74 l-19 -117 q4 0 4 -4 q86 21 172 58 q15 -6 23 -19 l0 -8 q0 -10 -105 -105 l-12 -75 q113 35 215 35 q23 -9 23 -27 q-10 -8 -16 -8 q-127 0 -234 -43 q-41 -152 -101 -238 l-12 -8 l-12 0 q-33 0 -39 43 q4 35 12 35 q11 -27 11 -31 l4 0 q30 31 86 184 l-4 0 q-113 -47 -125 -47 q-17 6 -19 15 l0 8 q187 164 187 172 l8 39 q-19 -12 -51 -12 l-4 0 q-46 10 -46 43 l0 8 q0 14 19 98 l-4 0 q-6 -4 -15 -4 l-32 0 q-70 4 -70 27 l0 4 q0 10 16 12 q11 -8 27 -8 q66 0 78 28 q0 5 125 136 l0 4 q-166 16 -187 63 l0 7 q2 8 7 8 ZM309 719 q23 -14 23 -35 l0 -20 q0 -59 -125 -238 l4 0 q14 8 31 8 q47 0 47 -86 q0 -51 -8 -223 l0 -4 l4 0 q0 18 24 35 l4 0 q-28 -164 -47 -164 q-39 8 -39 31 q23 206 23 332 l0 40 l-4 7 q-58 -19 -137 -89 q-31 0 -31 31 q100 99 176 238 q43 82 43 117 q-4 6 -4 12 q2 0 12 8 l4 0 ZM383 457 q39 0 39 -137 l0 -11 q12 0 12 -8 q-4 -82 -20 -82 l-4 0 q-23 0 -35 27 l4 47 q0 31 -4 145 q-4 5 -4 11 l12 8 ZM684 375 q4 -8 4 -16 l3 0 q6 0 32 32 l-8 0 l-31 -16 ZM555 195 q78 18 78 55 l4 20 q-86 -71 -86 -75 l4 0 ZM781 184 q59 0 160 -246 l0 -8 l-11 -8 l-8 0 q-35 0 -70 74 l7 4 l12 0 q-53 123 -101 168 l0 12 q3 0 11 4 Z" /><glyph glyph-name="uni501F" unicode="&#x501f;" d="M688 830 q27 0 35 -86 l-12 -90 q51 10 70 28 q-8 11 -8 19 l8 4 q35 -14 35 -39 l0 -8 q0 -21 -117 -51 q-35 -103 -62 -152 l4 0 q166 20 257 20 q20 -8 20 -24 q0 -13 -211 -27 q-230 -39 -324 -47 q-29 0 -43 23 l0 4 q2 8 8 8 l11 0 q37 0 149 20 q-12 19 -12 31 l0 105 l-62 0 q-34 0 -51 28 l0 4 q0 9 15 11 l16 -7 q12 0 78 7 l0 16 q0 70 -12 137 l8 4 l8 0 q33 0 39 -145 q4 0 4 -4 q121 16 121 31 q20 63 20 141 l0 31 q2 8 8 8 ZM313 752 q23 -14 23 -35 l0 -8 q0 -70 -125 -250 l4 0 q14 8 23 8 l8 0 q47 0 47 -94 q-4 -158 -12 -219 l32 39 q0 -4 3 -4 q-29 -164 -46 -164 q-40 6 -40 32 q24 232 24 343 l0 8 q0 28 -8 28 q-66 -28 -137 -90 q-23 8 -27 19 l0 8 q199 234 215 348 l0 23 q2 8 8 8 l8 0 ZM539 549 l8 0 q8 15 8 19 l8 0 l0 -4 q0 -21 -16 -125 l4 0 q51 0 51 28 q0 12 43 129 l-4 0 q-102 -16 -102 -24 l0 -23 ZM496 365 q47 0 47 -90 l0 -58 l8 0 q39 0 168 23 q23 -10 27 -23 q0 -14 -148 -172 l4 0 q35 18 74 31 l0 4 l-12 20 l8 4 q21 -14 31 -24 l8 4 l16 0 q7 -2 7 -8 q-5 0 -11 -12 l0 -3 l47 -51 q3 6 3 11 q0 63 4 313 q-168 -35 -183 -35 l-20 0 q-6 0 -15 15 l0 4 q9 10 144 36 q22 9 86 11 q31 -17 31 -109 l0 -274 q0 -21 -19 -31 q-45 0 -106 98 l-4 0 q-127 -59 -152 -59 l-8 4 q-4 -31 -19 -31 q-28 10 -28 39 l16 277 q0 51 -16 67 l0 8 q0 3 12 11 ZM543 186 q-8 -120 -8 -157 q12 6 156 168 l0 4 l-3 0 q-79 -15 -114 -15 l-31 0 Z" /><glyph glyph-name="uni5021" unicode="&#x5021;" d="M754 740 q33 0 43 -47 q-37 -246 -55 -246 l-8 -4 q-23 0 -58 43 l-4 0 q-98 -54 -133 -54 q-16 4 -23 19 l0 8 q0 4 140 133 l-4 0 q-78 -20 -121 -20 l-4 0 q-21 0 -27 16 l0 4 q0 8 137 27 q0 4 54 12 q24 -10 24 -24 q0 -15 -51 -50 l0 -8 l47 -47 q43 174 43 203 q-180 -55 -227 -55 q-33 0 -47 24 l0 4 q2 8 8 8 l12 0 q61 0 254 54 ZM305 732 q27 -11 27 -43 q-8 -85 -129 -250 l4 0 q14 8 31 8 l4 0 q43 0 43 -82 q0 -119 -8 -226 l0 -4 l4 0 q0 15 24 35 l4 0 q-24 -164 -47 -164 q-28 0 -39 35 q27 234 27 332 q-4 37 -8 43 q-58 -20 -137 -90 l-3 0 q-18 6 -28 24 q223 263 223 382 l8 0 ZM418 729 l4 0 q66 0 78 -219 l0 -86 q-8 -16 -20 -16 q-23 8 -23 31 l0 47 q0 168 -47 239 l8 4 ZM598 486 q50 20 62 20 l0 8 q-10 17 -15 19 q-24 -15 -51 -47 l4 0 ZM887 393 q35 0 39 -47 l0 -12 q0 -70 -67 -344 q-13 -27 -35 -27 l-4 0 q-37 0 -93 98 l-4 0 q-159 -71 -200 -71 q-17 6 -19 16 l0 12 q31 35 223 179 l0 8 q-145 -39 -211 -39 q-22 0 -47 16 l4 -47 l0 -137 q0 -6 -16 -12 q-31 0 -31 67 l0 66 q0 158 -28 219 l8 4 l12 0 q27 -20 27 -35 l4 0 q0 15 8 15 l23 0 q69 0 395 71 l12 0 ZM504 287 q-31 0 -55 16 l0 -4 q12 -26 20 -102 l19 4 l16 0 q39 0 289 55 q25 0 27 -31 l-125 -90 q24 -16 43 -39 q18 8 35 8 l4 -8 q-23 -14 -23 -20 q31 -51 51 -62 l4 0 q74 267 74 347 q-309 -74 -379 -74 ZM570 37 l4 0 q131 47 133 55 q-14 39 -23 39 l-114 -94 Z" /><glyph glyph-name="uni5026" unicode="&#x5026;" d="M613 809 q14 0 20 -43 l0 -51 l4 -20 q-10 0 -12 -35 q6 0 55 55 l0 4 l-4 0 q-20 -12 -31 -12 l62 55 l12 0 q13 -8 19 -24 q-17 -52 -121 -136 q-4 0 -12 -16 l0 -8 q69 20 83 20 l7 0 q6 0 16 -16 l0 -8 q-41 -41 -141 -101 q-15 -41 -15 -55 q101 31 250 43 q43 -10 43 -23 l0 -8 q0 -8 -8 -8 l-39 0 q-47 0 -90 -8 q215 -195 215 -238 l-16 -12 q-21 0 -78 82 q-139 154 -160 160 q-27 0 -141 -31 q0 -12 -31 -82 l4 0 q115 20 215 31 q39 -17 39 -43 q-49 -154 -86 -179 l-8 0 q-51 0 -51 109 l0 4 q0 4 12 12 q25 -36 31 -63 l4 0 q33 59 55 125 l-4 0 q-86 -8 -145 -23 q12 -37 12 -67 q-8 -162 -8 -172 q4 -15 20 -15 q160 23 265 78 l4 8 q0 15 -70 113 q-4 6 -4 12 l8 4 q113 -88 113 -141 q0 -63 -304 -113 q-75 11 -75 70 q0 29 12 180 q-4 19 -4 39 l-4 0 l-27 -4 l-20 4 q-74 -160 -125 -160 l-11 0 q-39 7 -39 35 l7 4 q0 -6 16 -12 q45 0 141 230 l-4 0 q-98 -43 -106 -43 l-4 0 q-5 0 -15 16 l0 4 q176 119 176 141 q19 46 19 58 l-8 -4 l-8 0 q-70 0 -70 35 q8 4 12 4 q25 -7 35 -7 q47 0 70 70 l-4 0 q-60 -67 -66 -67 q-29 0 -35 114 q-4 2 -24 50 l8 4 q63 -23 63 -121 l4 0 q70 41 70 90 q18 106 23 106 l4 0 ZM281 730 l4 0 q28 -17 28 -42 q-10 -86 -129 -250 l7 0 q14 7 24 7 l4 0 q47 0 47 -86 q0 -88 -8 -222 l0 -4 l4 0 q0 15 23 35 l4 0 q-25 -164 -47 -164 q-23 0 -39 31 q27 262 27 328 q-3 47 -7 51 q-28 0 -137 -90 l-8 0 q-23 8 -23 31 q107 108 179 243 q39 82 39 113 q-3 6 -3 12 l11 7 ZM590 516 q43 31 43 35 l-4 0 q-43 0 -43 -35 l4 0 ZM461 391 q39 9 39 31 l-4 0 q-43 -27 -43 -31 l8 0 Z" /><glyph glyph-name="uni503A" unicode="&#x503a;" d="M607 840 q32 -16 32 -86 q97 17 97 35 q6 0 16 -16 l0 -11 q0 -28 -109 -43 l0 -51 l39 4 l19 0 q22 0 35 -24 l0 -3 q-4 -30 -90 -98 l0 -16 l4 -19 q112 15 192 15 l35 0 q39 -7 39 -31 q-10 -8 -12 -8 l-35 0 q-187 0 -351 -31 l0 -4 q17 0 39 -51 q88 16 234 47 q31 -11 31 -35 l0 -8 q-23 -195 -62 -222 l-4 0 q-55 0 -55 86 l8 3 l31 -35 q47 139 47 180 l-4 0 q-168 -43 -207 -43 q-6 4 -15 4 q3 -51 3 -59 q0 -164 -19 -164 q-22 0 -31 20 q7 131 7 168 q0 66 -19 105 l0 4 q-104 -27 -113 -27 q-18 6 -20 15 l0 8 q8 10 113 43 l82 43 l0 4 q-50 49 -50 55 l0 8 q0 35 90 58 l0 31 l-4 20 q-36 -8 -94 -8 l-35 0 q-33 0 -51 27 l8 12 q29 -8 35 -8 q88 4 137 16 q-4 45 -4 66 l0 16 q0 8 11 8 ZM311 758 l11 0 q20 -12 20 -31 l0 -12 q-6 -86 -125 -246 l0 -4 q19 12 39 12 q43 -12 43 -82 l0 -4 q0 -73 -8 -223 q-4 0 -4 -4 l8 0 q0 16 23 35 l4 0 q-25 -164 -47 -164 l-4 0 q-23 0 -35 28 q24 216 24 328 l0 43 q0 7 -12 7 q-51 -19 -129 -86 l-8 0 q-23 8 -23 24 q195 228 219 359 q-4 6 -4 16 l8 4 ZM646 613 l0 -15 l4 0 q6 0 43 43 l0 4 q-33 -4 -50 -12 l3 -20 ZM541 598 q0 -12 43 -43 l8 0 q6 0 12 11 l0 59 l-4 0 q-18 -2 -59 -27 ZM596 504 l0 8 l-4 0 q-8 -2 -8 -8 l12 0 ZM646 332 q20 -12 20 -31 l0 -28 q0 -99 -105 -246 q-36 -35 -67 -35 q-19 0 -31 20 l0 11 l4 0 l15 -3 q90 70 141 246 q10 66 20 66 l3 0 ZM682 156 q68 0 246 -168 q0 -2 4 -15 l-16 -12 q-31 0 -117 98 q-59 41 -133 82 l0 7 q2 8 8 8 l8 0 Z" /><glyph glyph-name="uni503C" unicode="&#x503c;" d="M629 820 q156 -52 156 -82 l0 -4 q0 -21 -181 -50 q-20 -65 -47 -118 l0 -3 q134 35 172 35 q46 0 46 -176 q-2 -164 4 -336 l4 0 q51 0 90 4 q113 0 113 -39 l-4 -8 q-52 4 -78 4 l-105 0 q-18 0 -31 -8 q-2 0 -51 4 q-235 -12 -371 -43 l-12 0 q-6 0 -12 12 q0 23 153 51 q-12 11 -12 19 q10 164 10 219 l0 90 q2 140 -22 168 q0 4 12 11 q45 -9 55 -125 l7 0 q34 0 176 24 q16 -18 16 -20 l-96 -74 q-17 -12 -58 -59 l7 0 q43 20 118 36 q15 -6 15 -12 l0 -8 q-8 -14 -109 -86 q-67 -58 -67 -62 l4 0 q98 35 199 50 l0 4 q-1 211 -1 317 l0 8 q-20 0 -200 -40 l-27 8 l0 12 q0 8 35 16 l0 7 q0 38 16 102 l0 4 q-90 -16 -141 -16 l-27 0 q-35 8 -35 20 l0 8 q2 9 17 11 q12 -7 22 -7 q185 15 185 42 q20 90 55 90 ZM613 727 l8 0 q14 0 117 19 q-76 47 -101 47 l-24 -66 ZM275 750 q32 0 32 -35 l0 -4 q0 -76 -125 -250 l0 -4 q21 12 35 12 q41 0 47 -90 l0 -4 q-4 -152 -12 -219 l27 32 l4 0 q-21 -161 -43 -161 l-15 0 q-24 14 -24 28 q24 240 24 347 q-4 28 -4 32 q-47 -8 -137 -86 l-8 0 q-15 0 -23 15 l0 12 q158 174 211 320 q2 55 11 55 ZM527 410 l-6 4 l-1 -101 l111 109 l-4 0 q-47 -12 -96 -12 l-4 0 ZM547 285 q-14 0 -27 12 l0 -82 l-4 -8 l4 0 q121 92 136 113 l-4 0 q-84 -35 -105 -35 ZM512 141 l-2 -43 l-4 -28 l203 12 l0 4 l-45 94 l8 4 q53 -57 53 -67 l4 0 l1 78 l-3 8 q-36 0 -211 -55 l-4 -7 Z" /><glyph glyph-name="uni5047" unicode="&#x5047;" d="M262 754 q27 -12 27 -41 q0 -76 -131 -262 l4 0 q14 8 24 8 l19 0 q37 -12 37 -80 l0 -14 q0 -109 -8 -226 l0 -4 l4 0 q0 17 24 37 l4 0 q-26 -170 -47 -170 q-26 0 -41 33 q27 260 27 344 q-4 41 -8 47 q-58 -20 -138 -92 l-4 0 q-18 6 -28 23 l0 4 q192 227 215 336 q10 57 16 57 l4 0 ZM342 742 q39 -15 181 -15 l4 0 q26 0 45 -30 l0 -19 q-64 -98 -156 -131 l0 -65 q0 -23 41 -23 l63 0 q21 0 27 -16 l0 -4 q-84 -76 -108 -146 l10 0 l117 53 l6 -8 q-76 -72 -136 -86 l-20 0 q-4 -152 -4 -231 l0 -15 q0 -29 -12 -31 l-11 0 q-24 9 -24 31 q0 135 8 469 q0 140 -16 173 l12 8 l8 0 q23 0 35 -84 l8 0 q0 4 100 114 l0 7 l-51 0 q-125 0 -139 37 l0 4 q0 8 12 8 ZM639 734 q0 -13 166 -29 q21 -21 21 -31 q0 -16 -148 -184 l4 0 q109 33 119 33 q25 -9 25 -23 q0 -16 -135 -154 l4 0 q127 41 139 41 l16 0 q5 0 19 -22 l0 -8 q0 -33 -139 -189 l155 -90 l0 4 l-4 10 q4 0 4 4 q103 -55 103 -94 l-11 -8 l-8 0 q-18 0 -262 145 l-4 0 q-101 -104 -140 -104 q-49 0 -59 65 q2 48 12 48 q23 -70 35 -70 q45 22 107 86 q-19 22 -123 53 l0 8 q2 7 8 7 l29 0 q22 0 119 -41 q127 141 127 155 l-4 0 q-144 -53 -179 -53 l-4 0 q-22 0 -27 16 l0 4 q39 21 62 60 q10 4 104 106 l0 3 q-81 -31 -104 -31 l-16 0 q-5 0 -23 24 l0 4 q0 25 150 191 l4 8 q-158 10 -158 39 l0 10 q2 7 8 7 l8 0 ZM420 338 l-4 -8 l8 -4 l72 92 l0 4 l-4 0 q-31 0 -72 8 l0 -92 Z" /><glyph glyph-name="uni504F" unicode="&#x504f;" d="M533 850 q108 -71 115 -71 l10 4 l8 0 q16 -8 16 -29 l0 -4 q0 -6 -12 -12 l-4 0 q-59 0 -145 90 l0 8 q0 6 12 14 ZM311 758 q25 -14 25 -37 l0 -16 q-14 -90 -131 -256 l4 0 q14 8 33 8 q49 0 49 -103 q0 -49 -12 -227 l28 37 l9 0 q-29 -172 -54 -172 q-37 8 -37 33 q25 233 25 366 q0 33 -8 33 q-74 -29 -137 -90 q-7 -4 -11 -4 q-18 6 -26 20 l0 9 q227 272 227 366 l0 25 q2 8 8 8 l8 0 ZM455 705 q92 -14 297 -21 q62 -14 62 -49 q-44 -72 -152 -119 q-57 -36 -137 -55 q-15 -74 -15 -90 q23 -12 23 -141 q14 0 30 -3 q21 3 41 3 q3 41 3 63 l0 37 q0 6 -70 16 l-12 17 q0 6 12 12 l6 0 q35 0 324 37 l18 0 q53 -14 53 -53 l0 -17 q0 -76 -96 -313 q-18 -11 -28 -11 q-41 0 -58 78 l-4 0 q-6 -194 -29 -194 l-8 0 q-22 0 -26 12 q14 53 22 301 l-4 0 q-62 -16 -62 -26 q-12 -115 -24 -115 l-14 0 q-19 12 -19 26 q8 72 8 89 l-4 0 q-28 0 -59 8 l0 -56 q0 -24 4 -67 q-6 -19 -19 -19 q-34 15 -34 41 l0 189 l-4 0 q-70 -285 -115 -285 q-33 0 -33 37 l8 4 q2 -8 8 -8 l6 0 q91 260 156 598 q0 8 8 8 l3 0 q16 0 22 -45 q0 -16 -14 -115 l4 0 q151 93 223 164 q-8 3 -12 3 q-297 12 -297 42 l0 9 q8 0 8 8 ZM732 354 q16 -18 24 -83 q51 22 78 22 l4 -8 q-12 -19 -82 -58 l0 -41 l45 -100 q62 109 92 289 q-4 0 -4 4 q-6 0 -157 -20 l0 -5 ZM641 342 q7 -39 7 -61 l0 -37 l4 0 q59 10 59 20 l0 90 q-37 -8 -70 -8 l0 -4 Z" /><glyph glyph-name="uni505A" unicode="&#x505a;" d="M320 785 q6 0 16 -15 l0 -4 q-2 -37 -109 -137 q46 -37 46 -106 l0 -3 l28 -4 q125 23 125 43 q0 115 31 125 q10 0 55 -51 q60 -31 70 -47 l0 -12 q-6 -19 -117 -54 l-12 -129 l4 0 l109 23 q36 -14 36 -43 q-8 -82 -106 -195 q-6 0 -23 -8 q-22 6 -35 20 l-4 0 l0 -24 q0 -12 -16 -12 q-27 10 -27 43 q0 32 27 309 q-98 -24 -121 -24 q-16 8 -24 8 l0 -4 q-3 -213 -3 -316 l0 -59 q0 -148 -16 -148 l-8 -4 q-19 4 -35 27 l4 28 l0 15 q0 233 15 532 q0 39 -27 54 q-96 -82 -168 -82 q-19 2 -19 12 q113 41 273 215 q20 27 24 27 l7 0 ZM648 719 l8 0 q32 0 32 -141 l0 -47 q11 0 167 82 q8 4 16 4 q16 -6 24 -19 l0 -4 q-4 -14 -168 -98 q-20 -12 -32 -12 l-7 0 q-38 0 -43 55 l0 137 l-4 39 l7 4 ZM473 641 l0 -47 l-4 -28 q11 0 70 20 l0 4 l-62 51 l-4 0 ZM832 547 q14 0 23 -31 q0 -75 -85 -254 q214 -205 214 -211 l0 -12 q0 -8 -7 -8 l-4 0 q-30 0 -227 199 q-84 -132 -133 -132 q-47 9 -47 47 q0 33 20 50 q10 -45 16 -58 q87 68 109 136 l-90 79 l0 3 q2 8 8 8 q31 0 105 -62 q90 178 90 242 l8 4 ZM441 285 q4 -15 4 -31 l-4 -39 q10 -8 16 -8 q43 14 106 164 l0 12 l-114 -31 l-8 -67 Z" /><glyph glyph-name="uni505C" unicode="&#x505c;" d="M537 848 q94 -24 125 -39 l4 -20 l0 -4 q0 -19 -70 -43 l0 4 q0 8 23 47 q-70 12 -94 35 l0 12 q0 8 12 8 ZM297 766 l12 0 q19 -12 19 -32 l0 -11 q0 -75 -121 -243 l0 -3 l31 7 q43 0 47 -82 q0 -80 -8 -226 l0 -4 l4 0 q16 35 24 35 l4 0 q-26 -164 -43 -164 l-20 0 q-17 8 -23 27 q23 213 23 325 l0 35 q0 19 -8 19 q-66 -23 -129 -86 l-15 0 q-6 0 -20 20 l0 4 q201 234 219 359 q-4 6 -4 16 l8 4 ZM738 750 q18 -8 20 -16 l0 -4 q0 -11 -86 -35 q-51 -56 -67 -109 q71 55 94 55 l8 0 q31 0 39 -43 q-31 -125 -94 -125 l-4 0 q-33 0 -66 31 q0 -22 -12 -24 l-11 0 q-6 0 -16 16 l0 4 q21 115 78 184 q4 0 4 4 l0 3 q-35 -11 -156 -23 q-51 6 -51 23 l0 4 l4 8 q21 -4 31 -4 q80 0 285 51 ZM594 520 q2 -12 31 -12 l8 0 q29 0 70 70 q8 26 8 35 q-53 -11 -117 -93 ZM398 469 l4 0 q22 0 43 -82 q252 70 414 70 l8 0 q22 0 39 -27 l0 -8 q0 -53 -172 -129 l0 -4 l4 0 q30 8 55 8 l4 -8 l0 -4 q-49 -47 -102 -47 q24 -70 24 -160 q0 -152 -39 -152 l-4 0 q-51 0 -172 144 l0 8 l4 0 q12 0 144 -105 l4 0 q16 48 16 136 q-4 108 -12 121 q-56 -15 -90 -15 l-23 0 q-22 0 -35 23 q0 4 11 12 l20 -4 q180 25 180 59 q68 50 129 117 l-4 0 q-92 0 -399 -67 q12 -93 20 -93 q2 8 8 8 q7 -14 7 -24 q0 -45 -19 -51 q-47 0 -59 180 q0 8 -15 90 l7 4 ZM723 289 l0 -4 l7 0 l0 4 l-7 0 Z" /><glyph glyph-name="uni5065" unicode="&#x5065;" d="M684 861 q19 0 33 -127 q17 10 66 10 l8 0 q25 0 41 -29 l0 -53 q61 16 76 16 q26 -4 26 -26 q-10 -11 -116 -31 q-27 -172 -56 -172 q-32 16 -37 20 l0 -41 l4 -28 l7 0 q10 0 18 4 q25 -9 29 -21 l0 -8 l-54 -45 l0 -45 q113 26 152 26 q19 -4 19 -14 l0 -8 q0 -12 -134 -33 q-37 -10 -37 -16 l0 -37 q0 -12 3 -12 l-3 -21 l0 -61 q0 -15 -8 -52 q228 -53 254 -71 q0 -2 4 -15 q-16 -12 -26 -12 q-248 57 -517 143 l-10 0 q-55 -67 -98 -67 l-4 8 q4 0 53 74 q-53 12 -53 26 q0 5 12 11 q57 -4 70 -4 q71 96 82 127 l-62 0 q-35 0 -53 49 l70 151 l0 5 l-62 0 q-29 0 -45 20 l0 4 l8 12 l21 -4 l82 0 q28 0 41 -37 q-70 -151 -70 -159 l0 -4 q4 0 12 -3 q33 7 70 7 l12 0 q6 0 25 -25 l0 -8 q0 -23 -25 -64 l9 0 q86 39 159 113 l0 18 q-32 -10 -82 -10 q-39 0 -57 25 l0 8 q2 8 8 8 l37 -8 q47 4 94 12 l0 41 q0 21 -4 62 l-4 0 q-108 -41 -164 -54 q-18 9 -20 17 l0 4 q51 55 184 127 l4 8 q-4 0 -4 4 q-129 -30 -197 -30 q-30 0 -45 22 l0 8 q2 8 9 8 l20 -4 q51 4 213 33 l0 53 l-4 7 q-31 -7 -57 -7 l-37 0 q-56 0 -74 33 q2 8 8 8 q49 -8 62 -8 q98 6 98 15 l0 116 q0 5 12 11 l4 0 ZM295 764 q33 0 33 -37 l0 -4 q0 -82 -131 -262 l0 -4 q26 12 37 12 q49 0 49 -106 q0 -50 -12 -224 q8 0 24 41 l14 0 q-30 -172 -49 -172 l-18 0 q-23 15 -23 27 q23 236 23 365 q-4 30 -4 32 q-37 0 -142 -90 l-14 0 q-4 0 -19 21 l0 8 q111 121 187 258 q41 86 41 135 l4 0 ZM717 693 q0 -2 4 -52 q62 5 62 29 q4 6 8 37 q-4 0 -4 4 q-70 -8 -70 -18 ZM725 555 l0 -12 l4 0 q37 0 37 64 q-30 -11 -45 -23 l4 -29 ZM578 494 l98 33 l0 32 l-4 0 q-47 -24 -98 -65 l4 0 ZM732 506 l10 0 l0 12 q-10 0 -10 -8 l0 -4 ZM615 252 q65 18 65 25 l0 24 q-59 -41 -65 -41 l0 -8 ZM533 191 q-21 6 -21 20 q-6 0 -57 -76 q12 0 205 -59 l0 4 q-4 29 -8 37 q4 37 12 37 q8 -9 8 -15 l8 0 l0 93 l-147 -41 Z" /><glyph glyph-name="uni5076" unicode="&#x5076;" d="M414 777 l8 0 q17 -7 47 -60 l4 0 q129 0 273 33 q43 -14 45 -45 l0 -12 q-37 -265 -61 -265 l-15 0 q-22 0 -47 64 l0 4 q-2 0 -39 -12 l0 -25 q2 -33 0 -100 q4 0 4 -4 q103 20 244 32 q68 -8 70 -47 l0 -18 q2 -78 -123 -328 q-13 -8 -23 -8 l-8 0 q-49 0 -94 153 q-11 27 -17 27 q-116 -72 -182 -72 q-41 8 -41 33 l96 23 q27 0 25 73 l-2 52 l4 28 q-4 0 -4 4 q-92 -20 -133 -20 l-4 0 q-21 0 -23 12 l-2 8 q4 9 164 41 q4 47 2 68 l-2 53 q-41 -18 -62 -18 q-20 8 -22 18 l0 8 l82 68 l0 27 l-53 0 q-17 0 -41 20 l4 -20 l6 -164 q0 -13 -15 -13 q-30 13 -30 37 l-2 48 q-6 192 -41 293 l8 4 ZM279 750 q28 -14 30 -41 q2 -76 -121 -262 l3 0 q14 8 36 8 q39 0 48 -100 q-4 -181 -5 -220 l27 35 l4 0 q-20 -168 -39 -168 l-4 0 q-37 6 -37 27 q15 276 13 354 q-4 37 -9 37 q-65 -18 -135 -88 l-12 0 q-6 0 -21 20 l0 7 q115 137 177 258 q37 84 37 133 l8 0 ZM590 686 q21 -30 27 -69 q49 8 69 8 l11 -16 q0 -7 -66 -48 q-4 -12 -8 -12 l4 -8 l0 -21 l4 0 q84 11 84 25 q33 113 31 164 q-2 0 -156 -23 ZM475 686 q9 -63 9 -90 q2 0 12 9 l53 0 q27 0 27 8 q0 39 -10 73 q-21 -4 -23 -4 q-66 4 -70 7 l2 -3 ZM561 496 l19 4 l0 16 l-4 0 q-6 0 -19 -20 l4 0 ZM691 504 q6 -8 6 -12 l8 0 l0 16 l-4 0 l-10 -4 ZM627 275 l2 -60 l-4 -29 l4 0 q109 56 115 56 q-10 55 -10 72 l8 4 l8 0 q31 0 55 -183 q-6 -18 -12 -18 l-8 0 q-35 0 -43 53 l8 12 l0 29 l-4 0 q-41 -23 -39 -37 q72 -129 76 -129 l4 0 q117 238 115 307 l-4 0 q-93 0 -269 -38 l-2 -39 ZM367 340 l4 0 q41 0 61 -270 l15 0 l2 -64 q2 -6 -11 -12 l-16 0 q-31 0 -39 108 q-2 52 -24 234 l8 4 Z" /><glyph glyph-name="uni5077" unicode="&#x5077;" d="M600 838 q5 0 15 -16 l0 -15 q-11 -69 -11 -75 q115 -44 343 -211 q12 -15 12 -27 q0 -8 -8 -8 l-8 0 q-19 0 -218 149 q-104 62 -137 74 q-33 -100 -152 -254 q-30 -31 -47 -31 l-8 0 q-22 0 -39 27 l0 16 l8 0 l11 -8 l8 0 q125 133 192 285 q29 84 39 94 ZM326 729 q28 -12 28 -36 l0 -11 q0 -75 -122 -243 l0 -3 q30 7 36 7 q43 0 43 -82 q0 -170 -12 -234 l31 39 q0 -4 4 -4 q-27 -160 -43 -160 l-8 0 q-25 0 -35 31 q16 113 27 328 q0 47 -15 47 q-61 -23 -125 -86 l-4 0 q-22 0 -31 20 l0 4 q218 258 218 363 q-4 6 -4 12 l12 8 ZM713 564 q8 -1 8 -7 q0 -34 -133 -51 l-31 0 q-43 8 -43 31 l7 4 l43 0 q30 0 125 23 l24 0 ZM838 514 q58 0 58 -250 q0 -356 -23 -356 l-8 -4 l-11 0 q-63 0 -110 196 l4 0 q4 0 86 -137 q12 139 12 320 q0 190 -16 227 l8 4 ZM459 432 l8 0 q8 -2 27 -36 q102 32 121 32 q39 0 39 -102 l0 -324 q0 -23 -19 -27 q-45 0 -110 175 l0 4 l4 0 l78 -109 l0 8 q0 105 8 238 l-8 4 q0 -8 -82 -82 l0 -4 l4 0 q22 12 67 23 q8 -2 8 -7 q-53 -51 -106 -55 l-8 0 q-10 -125 -23 -125 q-16 0 -35 19 q23 192 23 290 q0 11 -4 74 l8 4 ZM494 365 l4 -19 l0 -39 l4 0 q23 0 94 19 l19 -12 l0 82 l-4 0 l-117 -31 ZM725 369 q19 0 23 -86 q8 0 8 12 l8 0 l0 -4 q-8 -121 -24 -121 l-11 0 q-6 0 -20 19 l0 168 q0 4 12 12 l4 0 ZM498 275 l-4 -62 q4 0 63 66 l0 4 q-30 -8 -55 -8 l-4 0 Z" /><glyph glyph-name="uni507F" unicode="&#x507f;" d="M572 873 q43 0 43 -164 q0 -10 -4 -63 l4 0 q114 100 114 161 l13 0 q6 0 16 -18 l0 -25 q0 -57 -151 -176 l0 -4 l4 0 q121 20 227 29 q51 -8 51 -43 q0 -50 -172 -127 l-4 10 q117 111 117 117 l0 4 q-342 -43 -342 -62 q-8 0 -8 4 l0 13 l-17 0 q10 -74 14 -181 q-10 -26 -18 -26 q-37 0 -37 168 q-14 114 -29 114 l0 5 q0 8 7 8 q34 0 55 -58 q78 0 106 37 q0 4 -8 33 l4 10 l0 4 l-4 0 q-16 -47 -47 -73 l-4 0 q-43 0 -43 98 q0 68 -16 121 l8 4 l8 0 q39 0 47 -164 l4 0 q11 10 51 29 q7 33 7 119 q0 20 -4 92 l8 4 ZM324 777 q26 -15 26 -39 l0 -11 q0 -67 -135 -262 l0 -4 q15 8 33 8 l6 0 q49 0 49 -100 l-12 -236 q8 0 25 41 l8 0 q-21 -176 -45 -176 l-9 0 q-34 0 -34 33 q26 272 26 354 l-4 51 q-39 0 -153 -96 q-25 8 -29 19 l0 14 q182 201 227 354 q6 50 13 50 l8 0 ZM561 465 q50 -41 105 -41 l25 4 q24 0 34 -22 l0 -4 q-14 -13 -80 -39 l-4 10 q5 0 11 12 l0 4 q-103 21 -103 68 q0 8 8 8 l4 0 ZM729 334 q21 -12 21 -25 q-160 -174 -193 -227 l4 0 q195 121 269 143 l0 -4 q-119 -123 -320 -219 l-8 0 q-23 0 -33 21 l0 16 q25 53 183 225 l0 4 q-134 -43 -183 -43 q-28 0 -47 21 l0 4 q0 6 12 14 l25 0 q45 0 262 70 l8 0 ZM834 301 q61 0 72 -346 q-8 -19 -17 -19 l-4 0 q-41 0 -41 87 l11 0 q-7 151 -29 274 l8 4 Z" /><glyph glyph-name="uni5080" unicode="&#x5080;" d="M574 785 l0 -8 q-31 -45 -146 -45 l-26 0 l0 -9 q30 -41 30 -104 l4 0 q250 47 273 47 q33 0 41 -55 q0 -90 -53 -334 q-9 -7 -11 -7 l-8 0 q-41 0 -78 89 l-8 0 q-74 -31 -74 -48 q-67 -360 -120 -360 l-3 0 q-18 6 -30 24 l0 37 l14 0 q0 -12 8 -12 q37 84 78 307 l-22 0 l-15 11 q-2 -33 -12 -33 l-14 0 q-19 10 -19 33 q0 108 8 241 q-8 173 -34 173 q-44 12 -44 24 l0 10 l3 7 l41 -3 l45 0 q114 11 164 29 l8 -14 ZM248 777 q23 0 27 -45 q0 -78 -130 -265 q31 8 41 8 q39 0 44 -94 q-3 -151 -11 -236 q10 0 23 37 l14 0 q-31 -174 -49 -174 l-4 0 q-37 8 -37 29 q23 262 23 363 l-3 38 q-59 -12 -143 -90 q-23 0 -33 19 l0 10 q228 269 228 396 l10 4 ZM543 604 q4 -71 12 -71 q50 12 78 12 l12 0 q5 0 15 -16 l0 -11 q0 -8 -78 -84 q27 -38 33 -38 l26 4 l0 -4 l-18 -15 q29 -41 29 -51 q12 0 57 285 l0 18 q-10 0 -166 -29 ZM436 588 l0 -70 l37 0 q41 0 41 52 q0 26 -4 26 q-37 -8 -55 -8 l-19 0 ZM543 447 l4 0 q6 0 53 53 l0 4 q-53 -6 -53 -25 q-4 -4 -4 -28 l0 -4 ZM436 484 q-4 -68 -4 -103 l0 -10 l-4 -27 l4 0 q60 35 60 115 q4 6 4 25 l-12 0 l-23 -5 q-8 5 -22 5 l-3 0 ZM529 367 q53 20 59 26 q-14 21 -14 29 l-4 0 q-37 -31 -41 -41 l0 -14 ZM846 326 q150 -140 150 -189 q0 -57 -322 -145 l-55 0 q-58 0 -76 78 q12 106 12 174 l0 20 l-4 21 l8 4 l7 0 q30 -12 30 -96 q0 -45 -4 -140 q0 -20 31 -24 q68 0 309 108 l11 15 q0 14 -93 145 l-14 25 l10 4 ZM750 307 q10 -2 18 -22 q0 -23 -34 -111 l4 0 q71 37 82 37 l0 53 q0 6 12 13 q27 0 33 -140 q-8 -26 -15 -26 l-4 0 q-18 0 -22 71 q-62 -55 -105 -67 q-41 12 -41 41 q37 67 60 151 l12 0 Z" /><glyph glyph-name="uni50A8" unicode="&#x50a8;" d="M678 809 l10 0 q23 0 31 -106 q10 0 74 20 l4 -8 l0 -8 q0 -18 -78 -45 q4 -121 8 -121 q48 16 48 49 q55 113 86 113 q10 0 65 -72 l0 -22 q-2 -17 -129 -80 q-12 -39 -82 -174 q142 43 150 43 q41 0 41 -91 l0 -53 q0 -102 12 -301 q0 -25 -33 -27 q-30 2 -98 99 l-4 0 l-35 -15 q-8 0 -25 8 q0 -41 -12 -41 q-37 0 -37 44 q8 225 8 268 l-96 -137 q-53 -52 -90 -52 q-31 0 -37 15 l0 4 q92 0 271 381 q-152 -64 -197 -64 q-21 0 -29 15 l0 14 q33 0 174 56 l-4 40 l0 89 l-28 0 q-37 0 -56 30 l8 11 q35 -3 45 -3 q29 3 31 3 l0 32 q0 27 -4 82 l8 4 ZM305 760 q29 -14 29 -45 q-8 -86 -135 -260 l10 0 q12 10 23 10 l4 0 q49 0 49 -78 l0 -12 q0 -105 -8 -230 l0 -4 l4 0 q0 15 24 35 l6 0 q-26 -170 -49 -170 q-26 0 -41 33 q27 264 27 344 q-4 41 -8 49 q-56 -18 -140 -94 l-10 0 q-20 12 -24 25 q221 262 227 377 q-4 8 -4 12 q2 0 12 8 l4 0 ZM367 711 q35 -27 141 -61 l4 -7 l0 -4 q0 -8 -20 -12 q-76 0 -142 68 l0 8 q2 8 7 8 l10 0 ZM865 680 q-41 -92 -41 -94 l4 0 q59 25 68 45 q0 19 -31 49 ZM459 504 q37 -4 37 -35 q0 -59 -33 -229 l4 0 q58 65 82 78 q0 -4 4 -4 q-61 -162 -106 -162 l-15 0 q-26 16 -26 32 l53 289 q-119 -41 -133 -41 l-4 0 q-6 0 -21 19 q0 14 150 53 l8 0 ZM723 322 q4 -47 4 -68 l0 -41 q50 8 105 27 q25 -4 25 -19 l4 0 l0 11 q0 43 4 131 l-4 0 q-119 -41 -138 -41 ZM760 55 q8 4 11 4 l-3 19 l3 0 q10 -8 16 -8 q20 14 74 37 l0 110 q-74 -49 -101 -151 q-4 0 -4 -11 l4 0 ZM727 156 q0 -27 -4 -82 l7 0 q0 16 79 114 l0 3 l-4 0 q-57 -11 -78 -11 l0 -24 ZM813 43 q0 -10 52 -61 l0 47 l-4 49 q-45 -27 -48 -35 Z" /><glyph glyph-name="uni50AC" unicode="&#x50ac;" d="M592 863 l8 0 q39 -17 37 -154 l-2 -55 q43 8 109 59 l2 39 q0 18 -8 62 q8 4 14 4 q39 -11 37 -113 l-2 -100 q-2 -29 -17 -35 l-8 0 q-41 0 -39 55 q6 20 11 20 q0 -4 4 -4 l6 21 l0 8 l-4 0 l-119 -84 q-78 -25 -78 -35 q0 -14 -55 -96 l0 -4 q33 0 22 -500 q-4 -23 -12 -23 l-8 0 q-41 0 -39 90 l0 31 q14 15 14 27 l0 4 q0 18 -4 45 q0 4 4 4 l-2 27 l6 276 q-112 -125 -156 -125 q-8 4 -16 4 l-12 -151 l0 -4 l4 0 q0 16 25 35 l4 0 q-27 -166 -56 -166 q-22 0 -35 36 q33 234 35 335 q-2 43 -12 43 q-39 -7 -139 -89 l-4 0 q-17 5 -27 23 l0 4 q170 182 225 320 q11 63 17 63 l4 0 q22 0 28 -43 q-14 -92 -139 -254 l4 0 q15 10 33 10 q49 0 47 -80 l-2 -51 l4 -8 q95 72 181 186 l26 31 l0 8 q-28 0 -39 46 l2 139 l-2 27 q8 4 11 4 q36 0 32 -177 q4 0 4 -4 q43 11 74 35 l0 49 q4 142 -8 181 l10 4 ZM637 570 l11 0 q63 -49 120 -62 l0 -8 q0 -6 -16 -16 l-8 0 q-55 0 -111 71 q-4 8 -4 11 l8 4 ZM813 492 q17 -8 19 -15 l0 -4 q0 -6 -90 -80 l0 -20 q0 -27 6 -27 l82 15 q20 -6 20 -11 l0 -4 q0 -14 -106 -35 l-2 -61 q43 8 67 8 q17 0 35 -31 q-2 -32 -100 -120 l0 -19 q123 17 186 17 q13 0 31 -19 l0 -8 q0 -4 -12 -14 l-15 4 q-207 -11 -207 -23 q-4 0 -12 4 q-65 -8 -139 -28 q-17 8 -19 16 l0 4 l127 66 l0 4 q-12 34 -67 84 l-4 8 q0 20 86 39 q4 8 4 12 q-2 45 -8 43 q-21 -12 -80 -24 q-19 8 -21 16 l0 4 q2 21 107 107 l0 20 l-2 8 q-6 -4 -66 -8 q-37 0 -55 23 l0 12 l65 0 q35 0 170 37 ZM734 441 l0 -19 q18 6 53 39 l-53 -20 ZM664 322 q37 8 37 16 l0 19 q-2 0 -41 -35 l4 0 ZM742 215 q4 -35 2 -59 q55 45 55 71 q-33 0 -57 -12 ZM648 195 l0 -4 q45 -45 43 -54 l10 0 l0 62 q0 8 -8 8 l-45 -12 Z" /><glyph glyph-name="uni50B2" unicode="&#x50b2;" d="M463 842 q25 0 35 -127 l4 0 q47 17 61 17 l3 0 q6 0 12 -13 q0 -20 -80 -53 l0 -53 q0 -6 47 -17 q18 -18 18 -35 q-8 -26 -65 -82 l0 -24 l102 14 q35 -6 35 -35 q-194 -26 -194 -39 q0 -4 4 -14 q-7 -57 -7 -74 q78 13 115 13 q31 0 39 -45 q0 -21 -35 -103 q11 -27 17 -27 l4 0 q76 68 100 144 l-86 80 q10 8 17 8 q22 0 86 -53 q41 67 80 225 l0 4 q-62 -35 -107 -35 q-43 7 -43 35 q0 197 18 197 l3 0 q28 0 28 -62 l0 -114 l-6 -8 q6 0 6 -5 q94 37 187 84 l14 0 q8 -2 8 -10 l0 -12 q-35 -41 -72 -53 l0 -39 q0 -66 -75 -250 q125 -117 155 -140 q0 4 5 13 q86 -68 98 -123 l0 -6 q0 -7 -8 -7 l-6 0 q-37 0 -119 91 q-37 30 -140 137 q-80 -141 -125 -141 q-28 0 -51 40 q-63 -141 -86 -141 q-57 0 -72 123 l0 31 l-4 0 q-24 -92 -53 -92 q-17 6 -25 22 q0 25 47 109 q44 117 60 198 q-45 -8 -94 -43 l-5 0 q-22 0 -26 11 l0 10 q0 6 125 88 l4 8 q-55 92 -55 105 l0 10 q0 16 90 21 l0 43 l-60 -13 l-26 0 q-23 0 -39 27 l8 14 l31 -6 q86 18 86 31 l0 131 q0 10 8 10 l4 0 ZM258 807 l8 0 q31 -24 31 -49 q-16 -100 -143 -279 l6 0 q16 7 33 7 q51 0 51 -95 q0 -80 -8 -250 l0 -4 l4 0 q2 19 26 43 q0 -4 5 -4 q-29 -184 -52 -184 q-31 0 -43 33 q25 237 25 356 l0 49 l-4 21 q-66 -23 -148 -99 q-35 0 -35 35 q127 134 205 289 q35 80 35 109 q-4 8 -4 18 l8 4 ZM424 570 l-33 0 q0 -23 50 -84 l4 0 l6 22 l0 58 l-6 8 l-21 -4 ZM498 574 l0 -35 q22 12 22 35 l-22 0 ZM434 271 q0 4 -4 4 q-32 -72 -32 -95 q43 -110 47 -110 q88 149 100 215 l-4 0 q-98 -14 -107 -14 Z" /><glyph glyph-name="uni50BB" unicode="&#x50bb;" d="M625 791 l0 -4 q-57 -55 -137 -55 q-8 4 -11 4 q41 -21 54 -291 q-4 0 -4 -4 l4 0 q80 20 160 63 l0 12 l12 -8 l27 0 l0 -12 q0 -8 -7 -8 q4 -11 23 -31 q55 188 55 244 l-4 0 q-45 -15 -63 -15 q4 -22 4 -32 q0 -17 -47 -88 l0 -3 q53 -18 59 -36 l0 -4 q0 -7 -8 -7 l-8 0 q-4 0 -62 23 q-59 -62 -86 -62 q-22 0 -31 19 q33 18 74 59 l4 8 q-59 29 -74 44 l0 4 l4 8 q87 -35 93 -35 l0 4 q55 74 55 90 l-4 0 l-59 -8 q-46 6 -46 19 l0 4 q0 8 117 20 q70 19 90 19 q25 0 31 -35 q-35 -291 -67 -291 l-23 0 q-27 12 -47 67 q-15 -12 -94 -47 q4 -8 4 -12 q-13 -76 -140 -221 l-16 -11 l-23 0 q-6 0 -16 15 l0 12 q143 139 160 209 q-14 -8 -31 -8 l-16 0 q-2 -31 -11 -31 l-4 0 q-32 0 -32 31 q0 334 -46 334 q-24 0 -32 35 q0 8 12 8 q21 -16 55 -16 l7 0 q32 0 137 32 l8 -12 ZM320 736 q24 -13 24 -35 l0 -15 q-12 -84 -125 -243 l4 0 q13 8 31 8 q47 0 47 -97 q0 -49 -12 -215 q4 0 27 35 l8 0 q-27 -164 -51 -164 q-35 6 -35 31 q24 221 24 348 q0 31 -8 31 q-70 -29 -133 -90 q-21 0 -31 20 l0 7 q199 233 215 348 l0 24 q2 7 8 7 l7 0 ZM691 391 q79 0 219 -104 q8 -14 8 -23 q0 -6 -12 -12 q-13 0 -86 59 q-52 33 -140 64 l0 8 q2 8 8 8 l3 0 ZM617 367 q6 0 20 -17 q0 -20 -24 -75 q57 28 129 47 q22 0 35 -35 q0 -19 -74 -166 q65 -33 203 -152 q24 -8 24 -31 l-12 -6 l-4 0 q-21 0 -172 123 q-47 35 -58 35 q-71 -121 -110 -121 q-62 0 -62 176 l0 9 q2 8 8 8 q23 -62 43 -142 l3 0 q45 39 79 97 q-34 26 -122 72 l0 4 q0 6 12 12 q24 0 129 -57 q63 110 63 135 l-137 -58 q-22 0 -31 19 l0 8 q46 111 58 115 Z" /><glyph glyph-name="uni50CF" unicode="&#x50cf;" d="M445 846 q30 0 35 -45 l-15 -90 l4 0 l133 37 l3 0 q16 -6 24 -19 l0 -8 q0 -30 -125 -145 l4 0 q150 29 203 29 l12 0 q19 -7 27 -29 q0 -35 -160 -135 q0 -3 -59 -41 q153 -25 153 -123 l0 -21 q64 41 125 119 l7 0 q16 -8 16 -20 q0 -41 -152 -148 l0 -19 q195 -59 281 -75 l8 -11 q-6 -18 -28 -18 l-15 0 q-43 0 -254 74 q-41 -238 -67 -238 l-23 0 q-31 0 -66 119 q0 6 -8 6 q-37 -43 -67 -43 l-11 0 q-20 0 -24 10 q57 35 121 123 q75 101 75 127 q-65 -33 -161 -100 l-3 0 q-18 6 -20 14 l0 8 q121 130 121 187 l0 4 l-23 8 q-102 -154 -168 -162 q-16 6 -16 11 q78 75 113 131 l-7 0 q-2 0 -20 -19 l-4 0 q-29 0 -35 195 q0 24 -16 63 l8 3 q31 0 43 -52 q39 0 78 68 q6 0 63 70 l-4 0 q-59 -17 -82 -17 q-47 12 -47 41 q0 14 16 92 l0 31 q1 8 7 8 ZM254 738 q31 0 31 -29 l0 -23 q0 -57 -125 -237 l4 0 q14 8 24 8 l7 0 q47 0 47 -80 q0 -70 -8 -223 l28 34 q0 -4 4 -4 q-26 -161 -51 -161 q-24 0 -35 34 q19 181 27 308 q-2 63 -12 63 q-50 -18 -136 -90 q-28 8 -28 31 q88 86 160 209 q59 102 59 137 l-4 19 l8 4 ZM574 516 q0 -10 -11 -45 q52 27 136 105 l-4 0 q-49 -4 -121 -19 l0 -41 ZM422 523 q8 -82 8 -127 l8 0 q62 24 85 94 l20 57 l-8 4 q-31 -12 -113 -28 ZM570 363 q-9 -58 -54 -119 l0 -4 q103 53 121 53 l0 14 q0 41 -67 56 ZM629 225 q0 -4 -4 -12 l0 -2 l4 0 q0 4 4 10 l0 4 l-4 0 ZM535 68 q28 -72 43 -86 l4 0 q23 82 43 202 l-12 0 q-8 -2 -78 -116 Z" /><glyph glyph-name="uni50F5" unicode="&#x50f5;" d="M504 809 l2 0 q60 -12 133 -16 q86 4 123 12 q23 -6 23 -12 q-19 -35 -131 -35 q-150 4 -150 39 l0 12 ZM303 732 q23 -7 23 -31 l0 -15 q0 -69 -121 -239 l0 -4 q14 8 31 8 q47 0 47 -82 q0 -166 -12 -228 l8 0 q0 19 24 35 l4 0 q-26 -162 -47 -162 q-24 0 -39 31 q23 199 23 297 l0 70 q0 8 -8 8 q-68 -29 -131 -90 l-3 0 q-28 8 -28 31 q119 123 182 252 q39 78 39 119 l8 0 ZM785 717 q47 -10 47 -47 q-39 -238 -62 -238 l-4 0 q-32 0 -55 64 q-47 -27 -193 -76 q0 -6 -12 -12 l-6 0 q-31 0 -31 213 q-14 76 -28 76 q0 10 16 12 q43 0 57 -146 l4 0 q89 0 89 27 q4 14 4 35 l0 18 l-47 -4 l-15 0 q-33 0 -45 23 q0 8 6 8 l11 0 q53 0 264 47 ZM643 650 l3 -37 l0 -23 q36 12 73 19 l4 -7 l0 -4 q0 -18 -77 -47 l-3 -20 l0 -27 q64 16 80 16 q7 -18 23 -28 q39 131 51 190 q-4 0 -4 4 l-150 -36 ZM514 547 q4 -39 4 -59 l0 -25 q82 16 82 37 q0 6 4 39 q-40 -8 -47 -8 q-20 0 -39 16 l-4 0 ZM885 428 q11 0 11 -16 q0 -55 -427 -82 q-86 4 -94 27 l0 4 l4 8 l47 -4 l15 0 q190 0 440 63 l4 0 ZM793 307 q23 0 39 -34 q-21 -209 -43 -209 l-4 0 q-17 0 -43 24 q-74 -31 -193 -55 l-8 0 l-20 4 q0 -12 -15 -12 q-22 0 -22 55 q0 164 -23 209 l8 4 q17 0 37 -27 l287 41 ZM658 254 q8 -10 12 -43 l76 23 q8 -2 8 -7 l0 -8 q0 -12 -84 -43 q-4 -53 -4 -72 l4 0 q57 11 57 17 q-4 0 -24 35 q4 0 4 4 q23 -8 55 -39 q19 68 31 152 q-4 0 -4 4 l-131 -23 ZM510 242 l0 -4 q8 -19 8 -58 l3 0 l8 4 l16 -4 q14 0 90 19 q0 2 4 51 l-4 0 q-37 -12 -98 -16 l-27 8 ZM521 160 l0 -96 l110 28 l0 68 l-4 0 l-66 -12 q-22 4 -36 12 l-4 0 ZM885 25 q6 0 11 -15 q0 -47 -289 -61 q-142 0 -169 37 l0 4 q1 8 7 8 q129 -12 139 -12 q98 0 297 39 l4 0 Z" /><glyph glyph-name="uni5121" unicode="&#x5121;" d="M752 748 q25 0 35 -43 q-33 -289 -62 -289 l-16 0 q-25 0 -55 51 q-58 -31 -148 -59 q-22 8 -22 20 l-4 0 q0 -35 -11 -35 l-12 0 q-19 5 -19 50 l0 36 q0 203 -36 238 l0 4 q0 8 8 8 l12 0 q35 0 58 -172 q88 15 88 27 l0 90 l-72 0 q-21 0 -31 15 l0 4 q0 8 12 8 q86 0 275 47 ZM285 721 q14 0 24 -39 q0 -73 -127 -254 l4 0 q27 11 29 11 q47 0 47 -85 q0 -81 -8 -227 l0 -4 l4 0 q2 18 23 39 q0 -4 4 -4 q-25 -164 -47 -164 q-23 0 -37 31 q22 204 22 313 l0 58 q0 8 -8 8 q-82 -39 -127 -86 l-16 0 q-6 0 -19 20 l0 4 q148 168 205 308 q15 71 19 71 l8 0 ZM600 682 q11 -65 11 -86 q71 23 82 23 l0 -4 q0 -29 -82 -62 l4 -20 l0 -43 q31 8 31 16 q-3 0 -3 4 l7 4 l4 0 l16 -12 l19 4 l4 -8 q-5 0 -11 -12 l15 -15 q51 168 51 246 q-117 -35 -148 -35 ZM480 525 l0 -89 q10 7 92 39 l-4 46 l0 20 q-54 -16 -76 -16 l-12 0 ZM914 334 q27 -8 27 -31 q-11 -305 -46 -305 l-8 0 q-28 0 -78 59 q-32 -28 -88 -47 q-12 0 -24 8 q0 -12 -15 -12 q-20 0 -28 43 q4 146 4 211 q0 15 -12 58 l8 4 l8 0 q22 -8 35 -47 l217 59 ZM328 318 q20 0 39 -62 l225 58 q25 0 35 -58 q-18 -250 -35 -250 l-12 0 q-29 0 -66 66 l-12 0 q-18 -23 -25 -23 l-8 4 l-94 -43 l-12 0 q-23 8 -23 54 l0 36 q0 146 -24 214 q8 4 12 4 ZM793 268 q20 -24 20 -47 l0 -8 l3 0 l36 4 l3 -8 q-39 -27 -39 -35 l0 -70 q6 0 39 11 l4 -8 q0 -5 -27 -35 q18 -11 35 -27 l4 0 l35 250 q-4 0 -4 4 q-23 -12 -109 -28 l0 -3 ZM506 205 q37 12 43 12 l8 -12 l0 -4 q0 -8 -55 -39 l0 -27 q0 -10 -4 -16 q4 -8 4 -12 l27 0 l8 4 l4 -7 l-12 -16 q26 -24 28 -24 l4 0 l27 219 l-4 0 q-64 -15 -92 -27 l14 -51 ZM701 193 l4 -7 q12 0 70 15 l0 35 l-4 28 q-25 -8 -70 -16 l0 -55 ZM371 225 q4 -4 8 -63 l4 0 q82 20 82 31 l0 51 l-4 0 l-90 -19 ZM701 158 l0 -51 q0 -21 -4 -66 l4 0 q65 35 70 35 l0 24 l-3 23 q7 12 7 23 l0 20 q-35 -8 -50 -8 l-24 0 ZM383 53 l4 0 l78 39 l-4 19 l4 35 l-4 0 q-66 -19 -78 -19 l0 -74 Z" /><glyph glyph-name="uni513F" unicode="&#x513f;" d="M506 686 q43 0 43 -127 l-12 -416 q4 -32 12 -32 q60 0 271 108 l34 33 l0 4 q0 23 -125 123 q-36 39 -47 68 l7 4 q163 -121 211 -180 q8 -25 8 -33 q0 -58 -318 -168 l-33 0 q-63 0 -69 84 l0 4 q0 63 14 453 q0 35 -10 51 l0 12 q0 10 14 12 ZM250 646 l4 0 q21 0 23 -130 q0 -92 -7 -420 q-8 -24 -20 -26 q-47 0 -57 88 l0 22 l4 0 q20 -16 20 -30 q8 0 8 8 q0 2 -4 2 q0 4 4 24 q0 99 13 455 l12 7 Z" /><glyph glyph-name="uni5141" unicode="&#x5141;" d="M381 770 q45 0 57 -81 q0 -78 -151 -314 q162 78 293 184 l16 4 l0 3 q-12 49 -12 53 l0 6 l12 0 q23 0 56 -111 q26 -129 26 -184 l0 -12 q0 -5 -12 -11 q-49 0 -49 82 l0 11 l8 12 q0 12 -18 123 l-3 0 q-100 -101 -215 -160 l0 -4 q11 -23 11 -72 l0 -14 q-15 -283 -56 -283 q-37 14 -37 53 q4 76 17 76 l4 0 l0 -20 q2 -7 8 -7 q27 146 27 255 q-101 -56 -121 -56 q-29 0 -41 23 l0 8 q0 14 110 168 q85 143 85 215 q0 23 -23 45 q2 8 8 8 ZM516 400 q48 0 48 -127 q-9 -185 -9 -218 q0 -8 17 -14 q225 37 285 104 q20 9 20 35 q0 8 -109 172 l-14 37 l6 4 q166 -182 166 -237 q0 -74 -305 -154 l-49 0 q-52 0 -66 84 q14 156 14 221 q0 52 -10 89 l6 4 Z" /><glyph glyph-name="uni5143" unicode="&#x5143;" d="M234 754 q98 -63 250 -63 q32 -9 43 -29 l0 -4 q0 -37 -156 -125 l-4 8 q67 63 106 113 l0 4 l-4 0 q-242 22 -242 88 q2 8 7 8 ZM477 473 q21 -8 31 -26 l0 -8 q-16 -56 -186 -349 q-56 -80 -103 -80 q-31 0 -49 43 l8 4 q11 -20 25 -20 q33 0 127 149 q117 216 125 242 q-154 -61 -201 -61 l-31 0 q-32 0 -45 22 l0 7 q0 8 8 8 q23 -8 33 -8 q37 0 258 77 ZM686 416 q201 -195 201 -266 q0 -66 -285 -152 q-32 -8 -61 -8 q-82 0 -82 119 q0 32 4 102 q-4 53 -16 88 l8 4 q45 0 45 -145 q0 -129 23 -129 l6 0 q188 34 301 121 l8 16 q0 29 -141 213 q-15 25 -15 37 l4 0 Z" /><glyph glyph-name="uni5144" unicode="&#x5144;" d="M271 756 q40 0 57 -106 q166 26 236 26 q57 -4 57 -41 l0 -4 q0 -33 -129 -178 l20 4 l11 0 q14 -8 18 -23 q-14 -55 -49 -121 q37 0 37 -125 l0 -141 q0 -8 12 -8 q141 24 297 137 q21 23 21 37 l0 4 q0 27 -146 193 l-20 28 l0 7 l4 0 q201 -160 217 -246 q-16 -72 -269 -179 q-55 -18 -69 -18 l-27 0 q-65 10 -65 64 q4 133 4 186 q0 4 -4 37 q-80 -148 -185 -266 l-16 -11 l-19 0 q-35 0 -41 54 q0 57 11 57 l4 0 q16 -64 22 -64 q90 86 176 230 q52 100 64 133 l-4 0 q-109 -55 -125 -68 l4 -8 l0 -14 q0 -12 -16 -12 q-41 0 -48 166 q-32 262 -47 262 q2 8 7 8 ZM336 615 q23 -203 31 -209 q139 102 209 221 q8 0 8 19 l-27 0 q-67 0 -221 -27 l0 -4 Z" /><glyph glyph-name="uni5145" unicode="&#x5145;" d="M340 813 q10 0 82 -51 q103 -30 113 -51 q0 -6 -15 -12 q-81 0 -172 74 q-16 16 -16 32 q2 8 8 8 ZM207 605 q14 -27 74 -27 q139 8 246 27 q39 -13 39 -35 q-27 -58 -187 -246 l4 0 q117 55 222 117 l0 4 q0 2 -3 51 l7 4 l8 0 q35 0 35 -227 q0 -31 -15 -35 l-4 0 q-35 6 -35 32 q7 46 7 74 l0 66 l-3 0 l-153 -105 q-10 -125 -152 -328 q-6 0 -16 -8 q-39 4 -39 35 q0 19 20 31 q4 -8 4 -12 q54 61 129 215 q15 47 15 51 q-37 -19 -70 -19 l-4 0 q-23 0 -39 31 q0 8 141 156 q78 92 78 109 l-4 0 q-141 -23 -207 -23 l-24 0 q-70 0 -93 39 l0 8 q0 6 15 15 l4 0 ZM684 348 q158 -112 207 -235 l0 -11 q0 -63 -297 -114 l-31 0 q-71 12 -71 59 q16 127 16 164 l0 12 q0 19 -4 58 l8 4 l8 0 q31 0 31 -113 q0 -47 -12 -137 q10 -8 16 -8 q230 36 285 90 l0 4 q0 33 -164 219 q2 8 8 8 Z" /><glyph glyph-name="uni5148" unicode="&#x5148;" d="M434 795 q9 0 62 -82 q98 -65 98 -94 q0 -33 -141 -94 l0 -70 q0 -33 -8 -70 q104 43 114 43 l15 0 q24 -14 24 -35 q-41 -98 -231 -336 q-54 -63 -78 -63 l-12 0 q-54 0 -54 94 l7 4 q32 -59 36 -59 l4 0 q91 84 207 246 q48 67 62 102 q-273 -117 -336 -117 l-4 0 q-47 0 -47 35 l8 4 l12 0 l12 -8 q121 23 238 82 l0 4 q-12 23 -12 74 l0 55 q-49 -12 -66 -12 l-12 0 q-62 0 -70 86 q4 88 4 109 l-4 55 l8 4 q35 0 35 -94 l0 -74 q0 -47 15 -47 q30 0 90 20 l0 121 q0 117 24 117 ZM453 576 q47 8 98 59 q-35 31 -98 105 l0 -164 ZM703 377 l4 0 q180 -176 180 -254 q0 -45 -254 -129 q-28 -8 -43 -8 q-74 8 -74 63 q35 150 35 203 q0 4 12 12 q23 -14 23 -43 l0 -28 q0 -23 -23 -160 l0 -4 l15 0 q121 14 250 102 l8 12 q0 37 -133 226 l0 8 Z" /><glyph glyph-name="uni5149" unicode="&#x5149;" d="M432 801 q21 0 27 -102 l0 -33 q0 -68 -16 -232 q172 189 172 236 q-8 0 -8 8 q16 17 32 17 q23 -13 23 -29 q0 -62 -170 -240 l4 0 q14 8 24 8 q27 -8 27 -30 q-51 -146 -227 -371 q-29 -23 -47 -23 q-39 11 -39 43 l0 4 q0 29 12 31 q14 -35 20 -35 q146 160 218 316 l0 4 l-4 0 q-261 -123 -322 -123 l-4 0 q-21 0 -31 16 l0 4 q0 7 92 29 l193 82 q-27 25 -27 49 q4 43 12 43 q0 -4 3 -4 l4 8 l0 23 q-60 -66 -87 -123 l-16 -8 q-39 0 -39 88 q0 125 -55 193 q0 6 12 12 q70 -25 82 -189 q4 -20 4 -39 l8 0 q0 15 95 89 q12 96 12 180 l0 90 q0 8 8 8 l8 0 ZM766 422 q177 -164 177 -234 l0 -12 q0 -61 -304 -174 q-26 -2 -41 -2 l-20 0 q-51 0 -66 76 q8 192 8 215 l0 4 q1 8 7 8 l4 0 q26 0 28 -84 l0 -28 q0 -46 -4 -115 q0 -39 27 -39 q131 24 293 131 q18 21 18 35 q-10 39 -135 215 l8 4 Z" /><glyph glyph-name="uni514B" unicode="&#x514b;" d="M510 826 q19 0 23 -58 l0 -59 l12 0 q148 18 148 39 q24 0 36 -27 q0 -32 -204 -59 q-7 -64 -31 -158 l4 0 q51 12 109 12 l8 0 q35 -4 35 -36 q0 -25 -109 -123 l0 -3 q16 0 16 -24 q-30 -113 -254 -363 q-14 -2 -16 -2 q-23 0 -39 29 q8 110 20 110 q15 -38 19 -83 l4 0 q180 208 215 290 q-67 -34 -82 -34 l-12 0 l-8 4 q0 -27 -8 -27 l-11 0 q-24 12 -24 43 l0 68 q0 90 -15 119 l4 8 q0 10 -28 86 l8 4 l4 0 q35 -25 55 -90 l15 0 q39 0 39 12 q20 62 36 158 l-102 0 q-164 0 -164 59 l0 4 q2 7 8 7 l4 0 q27 -35 168 -35 q60 4 89 4 q12 125 20 125 l8 0 ZM396 455 q6 -39 12 -121 q-4 -6 -4 -16 l8 0 q117 75 195 166 q-187 -25 -211 -25 l0 -4 ZM678 393 q105 -61 211 -225 l15 -45 q0 -66 -285 -141 l-23 0 q-67 12 -67 51 l0 8 q28 160 28 193 q0 4 -4 32 l8 4 l7 0 q22 0 28 -63 l0 -16 q0 -29 -24 -166 l8 -4 q170 30 262 98 l12 16 q-18 72 -180 254 q4 0 4 4 Z" /><glyph glyph-name="uni514D" unicode="&#x514d;" d="M387 846 q27 -14 27 -39 q0 -28 -35 -159 q70 0 226 32 q32 -10 32 -20 l0 -15 q-94 -104 -262 -147 l0 -4 l12 0 q238 31 289 31 q47 -5 47 -39 q-20 -80 -246 -222 q-79 -305 -122 -342 l-19 0 q-18 8 -23 25 q7 35 15 35 l8 -3 q86 224 86 265 q-31 -15 -67 -15 l-3 7 q89 55 89 78 q24 124 36 157 l-4 0 q-45 -8 -106 -12 q-37 8 -43 8 q10 0 20 -250 l0 -33 q0 -8 -8 -8 l-4 0 q-35 0 -35 80 q0 254 -39 285 q0 6 12 12 q31 0 50 -59 l39 0 q49 45 168 115 q24 16 24 20 l-4 0 q-102 -20 -141 -20 l-11 0 q-40 0 -59 36 l0 11 q39 190 47 190 l4 0 ZM492 467 q12 -2 12 -29 q0 -30 -12 -110 l4 0 q80 49 160 135 q20 23 20 27 l-8 0 q-168 -10 -176 -23 ZM695 348 l4 0 q145 -78 199 -211 l0 -16 q0 -66 -257 -150 q-16 -4 -32 -4 l-23 0 q-70 13 -70 58 l0 4 q15 127 15 157 l0 11 q0 22 -8 59 l8 4 l8 0 q27 0 35 -88 q0 -24 -15 -158 l11 -8 q100 0 254 96 l24 31 l0 8 q0 56 -149 191 l-4 8 l0 8 Z" /><glyph glyph-name="uni5154" unicode="&#x5154;" d="M338 854 l8 0 q21 0 31 -59 q0 -8 -20 -121 l188 58 q31 -11 31 -31 q-17 -39 -195 -191 q-16 -6 -16 -12 l8 0 q111 31 293 66 q14 0 35 -27 l0 -4 q0 -62 -226 -207 q-26 0 -59 -125 q-98 -248 -125 -262 l-12 0 q-25 0 -31 36 q4 58 16 58 l4 0 l3 -19 l0 -12 l4 0 q63 111 121 285 l-3 0 q-36 -12 -59 -12 l0 -4 q4 -35 4 -39 q-6 -15 -12 -15 l-8 0 q-35 0 -35 172 q-17 144 -35 144 q-16 0 -16 8 l0 4 q0 6 16 16 l4 0 q35 0 55 -71 l4 0 q187 180 187 184 l0 4 q-119 -43 -141 -43 q-43 8 -43 39 q24 119 24 152 q-8 12 -8 24 l8 4 ZM471 490 l0 -4 q11 0 19 -23 q-4 -31 -19 -90 q82 43 175 152 l0 4 l-175 -39 ZM314 455 q8 -25 20 -172 q90 47 90 86 q31 90 31 117 q-90 -27 -141 -27 l0 -4 ZM721 338 l8 0 q160 -145 183 -215 l0 -16 q0 -70 -320 -136 l-47 0 q-66 9 -66 66 l27 242 l-8 28 l12 7 l8 0 q31 -17 31 -66 q-24 -197 -24 -234 l8 -4 l20 0 q88 0 281 82 q31 23 31 39 q0 8 -133 183 l-11 20 l0 4 ZM600 314 q62 0 117 -152 l0 -12 q0 -7 -8 -7 l-8 0 q-35 0 -58 70 q7 0 7 8 q-4 31 -66 78 l0 4 q0 6 16 11 Z" /><glyph glyph-name="uni5165" unicode="&#x5165;" d="M297 666 q121 -31 394 -311 q164 -201 188 -310 q0 -12 -24 -22 q-46 0 -80 81 l0 3 q16 0 43 -23 l0 4 q-48 109 -130 215 q-100 119 -188 187 q-76 -162 -254 -363 q-35 -27 -49 -27 q-51 7 -51 45 l0 7 q10 43 24 43 q10 0 12 -50 l7 0 q122 117 200 238 q84 127 84 135 q-116 93 -188 132 l0 12 q4 0 12 4 Z" /><glyph glyph-name="uni5168" unicode="&#x5168;" d="M484 807 q14 -8 20 -24 q-2 -35 -24 -90 l16 0 q143 -52 348 -281 q0 -6 2 -12 q-6 -15 -12 -15 l-12 0 q-37 0 -99 101 q-121 118 -239 196 q0 7 -7 7 q-51 -121 -217 -332 q-55 -66 -80 -66 q-26 0 -37 27 l0 8 q0 29 25 94 l8 0 q2 -39 2 -59 l0 -15 q193 218 252 351 q21 30 50 110 l4 0 ZM631 514 q-2 -30 -72 -51 q15 -47 13 -125 l0 -20 l4 -7 l8 3 l39 0 q63 0 80 -35 l0 -15 q0 -39 -137 -160 l0 -67 q135 8 200 8 q23 -10 23 -31 q-2 -10 -29 -12 q-283 0 -446 -39 q-23 8 -27 19 l0 4 q6 8 104 47 l89 59 q-50 66 -130 113 q-22 24 -22 39 l0 8 q0 35 197 59 l2 109 l-4 39 q-46 -6 -54 -8 q-86 4 -86 39 l8 4 l50 -8 q61 0 186 35 l4 -7 ZM570 275 l-2 -117 q96 86 96 121 l-74 0 l-20 -4 ZM367 232 l141 -125 l10 12 q5 96 5 152 q-146 -13 -156 -35 l0 -4 ZM492 29 l24 0 l0 4 q-10 24 -16 24 q-47 -28 -47 -32 l39 4 Z" /><glyph glyph-name="uni516B" unicode="&#x516b;" d="M512 643 q88 0 304 -332 q98 -163 98 -200 q-14 -11 -19 -11 q-40 0 -79 78 l-7 19 l7 4 l20 -15 l0 3 q-80 159 -215 332 q-86 96 -125 102 l0 8 q0 10 16 12 ZM391 623 q19 -12 19 -31 q-27 -154 -215 -461 q-19 -12 -31 -12 q-39 16 -39 43 l0 31 l4 39 l4 0 q8 0 19 -58 l4 0 q84 113 168 305 l59 144 l8 0 Z" /><glyph glyph-name="uni516C" unicode="&#x516c;" d="M393 732 q15 -5 15 -27 q-33 -189 -193 -422 q-12 -8 -22 -8 q-39 14 -39 47 l8 33 l12 0 q8 -23 8 -29 l4 0 q80 112 148 268 q47 138 55 138 l4 0 ZM547 729 q74 0 260 -254 q27 -45 27 -57 l0 -8 q-2 -8 -20 -15 q-43 0 -87 84 q3 0 3 3 l36 -19 l0 4 q-51 92 -194 222 q-35 22 -37 32 q0 8 8 8 l4 0 ZM512 467 q19 -8 19 -37 q0 -114 -131 -338 l4 0 q182 117 264 152 l4 -8 q-59 -70 -160 -129 q-155 -111 -192 -111 q-27 6 -27 29 q18 32 100 143 q107 211 107 299 l12 0 ZM664 363 q66 -35 113 -234 q18 -92 18 -127 l-8 -4 l-8 0 q-41 0 -56 106 q7 3 11 3 q-33 182 -80 241 l0 7 q0 8 10 8 Z" /><glyph glyph-name="uni516D" unicode="&#x516d;" d="M428 686 q66 -36 152 -67 l12 -15 l0 -12 q0 -12 -67 -12 q-15 6 -15 12 q6 0 11 12 q-179 74 -179 125 l0 3 q2 8 8 8 l78 -54 ZM693 486 q18 -7 20 -15 l0 -8 q0 -18 -352 -70 q-25 -4 -66 -4 l-12 0 q-60 0 -82 39 l0 11 q0 4 12 12 l4 0 q15 -27 43 -27 l35 0 q47 0 398 62 ZM443 342 q6 0 16 -16 l0 -8 q-18 -127 -168 -308 q-6 -4 -16 -4 q-46 8 -46 47 l0 15 q3 28 15 32 q8 0 16 -47 l8 0 q128 183 168 285 l7 4 ZM623 326 q53 -35 90 -97 q113 -182 113 -219 l0 -8 q0 -10 -19 -12 q-55 20 -55 86 q-72 158 -145 238 l0 4 q2 8 8 8 l8 0 Z" /><glyph glyph-name="uni5170" unicode="&#x5170;" d="M607 770 q28 0 28 -28 l0 -15 q0 -73 -117 -207 q-18 -20 -47 -20 q0 16 93 156 q16 28 36 86 q-4 6 -4 16 q0 4 11 12 ZM311 738 q72 0 93 -203 l4 0 q26 24 28 24 l0 -4 q-24 -78 -36 -78 l-11 0 q-30 0 -35 144 q-18 78 -51 106 l0 3 q2 8 8 8 ZM279 488 q32 -25 67 -27 l300 19 l24 0 q21 0 31 -19 l0 -8 q0 -4 -176 -121 q-97 -74 -97 -78 l4 0 q187 47 222 47 q20 0 32 -20 l0 -4 q0 -15 -114 -50 q-136 -84 -285 -200 l0 -4 l8 0 q240 55 387 55 l15 0 q133 -6 133 -35 l0 -4 q0 -6 -12 -12 q-91 12 -129 12 q-193 0 -457 -66 q-15 4 -23 19 l0 8 q96 80 187 133 q61 41 208 121 l0 4 l-8 0 q-164 -43 -200 -43 l-3 0 q-24 12 -28 27 q65 74 223 168 q0 8 47 31 l0 4 q-180 -19 -262 -19 q-105 8 -105 47 q5 15 11 15 Z" /><glyph glyph-name="uni5171" unicode="&#x5171;" d="M602 828 q31 0 31 -86 l0 -70 l-4 -8 l4 0 q72 27 82 27 q8 -2 8 -7 l0 -4 q-6 -22 -98 -63 q0 -76 -66 -258 l4 0 q70 36 78 36 q13 0 27 -28 q-63 -119 -215 -297 q-74 -86 -101 -86 l-8 0 q-33 0 -39 43 q13 67 27 67 q8 -18 8 -51 l0 -12 l12 0 q0 4 89 98 q104 119 153 199 l-4 0 q-279 -137 -360 -137 l-7 0 q-22 0 -32 20 l0 4 q4 6 90 23 q198 76 235 102 q58 226 58 262 l-4 0 q-43 -16 -136 -36 l0 -156 l7 0 q28 55 36 55 l3 0 q-25 -151 -50 -152 l-4 0 q-35 3 -35 35 l0 211 q-61 -12 -82 -12 l-43 0 q-59 8 -59 35 q2 0 12 8 q13 -8 35 -8 q60 0 137 16 q-4 117 -20 183 l8 4 l4 0 q39 0 47 -168 l0 -4 q2 -8 8 -8 q144 34 144 51 q12 92 12 133 l-4 35 q8 4 12 4 ZM703 238 q43 0 133 -265 q0 -6 12 -39 q-8 -20 -16 -20 l-4 0 q-45 0 -70 94 q4 0 4 4 l15 -8 l0 4 q-50 148 -86 226 q8 4 12 4 Z" /><glyph glyph-name="uni5173" unicode="&#x5173;" d="M594 795 q23 -10 23 -31 q-27 -100 -207 -235 l4 0 q78 12 188 35 q15 -5 23 -19 l0 -8 q-156 -152 -156 -156 l-12 -70 l4 0 q146 43 223 43 q52 0 70 -32 l0 -4 q0 -5 -16 -11 q-31 11 -66 11 q-231 -33 -231 -66 q-82 -313 -128 -313 l-20 0 q-59 16 -59 102 l8 4 q33 -66 43 -66 q43 60 106 261 l0 8 q-75 -27 -188 -78 q-19 6 -19 19 q9 20 211 176 q43 26 43 133 q-81 0 -118 -19 l0 3 l16 16 q-20 0 -35 23 l0 4 q2 8 8 8 q25 -8 35 -8 l19 0 q32 0 200 204 q0 3 19 35 l-8 0 q-70 -35 -152 -121 q-41 -63 -59 -67 q-33 0 -58 129 q-14 31 -35 55 l0 4 q1 7 7 7 q47 0 90 -136 q82 53 188 148 l39 12 ZM477 459 l0 -12 l3 0 q6 0 71 71 l0 3 q-20 -7 -78 -15 l4 -47 ZM313 256 l3 0 q90 29 90 51 q4 13 4 27 q-56 -51 -97 -74 l0 -4 ZM555 252 q50 0 211 -238 q50 -78 50 -94 l0 -4 q0 -8 -7 -8 q-39 0 -71 71 q-107 171 -195 261 l0 4 q2 8 8 8 l4 0 Z" /><glyph glyph-name="uni5174" unicode="&#x5174;" d="M705 756 q25 0 31 -39 l0 -12 q0 -129 -136 -289 q-34 -31 -43 -31 l0 -4 l4 0 q46 0 238 90 q6 0 15 -16 q0 -74 -527 -176 q-33 -4 -58 -4 l-43 0 q-51 0 -59 39 l8 4 q39 -7 43 -7 q97 0 351 62 q18 43 117 191 q38 77 51 153 l-4 0 q-70 -33 -125 -199 q-11 -75 -19 -75 l-4 0 q-39 0 -39 110 q-12 103 -24 148 q-78 -144 -78 -312 l-11 -8 l-8 0 q-37 0 -43 94 q0 93 -82 199 q-31 12 -31 19 l0 4 q1 8 7 8 l4 0 q74 0 133 -172 q8 -25 8 -39 q8 8 55 152 q29 81 39 86 q50 0 70 -183 q23 29 90 152 q49 55 70 55 ZM697 307 q30 -6 82 -133 q55 -149 55 -172 q-10 -8 -12 -8 l-8 0 q-41 0 -82 121 l8 0 l24 -23 l0 4 q-45 144 -78 207 q7 4 11 4 ZM424 283 l4 0 q11 -4 19 -27 q-35 -133 -144 -266 l-20 -4 q-15 0 -31 24 l0 11 q0 38 43 71 l4 -8 l-4 -23 q105 144 121 218 l8 4 Z" /><glyph glyph-name="uni5176" unicode="&#x5176;" d="M578 844 q45 0 59 -127 l0 -4 l4 0 q41 10 62 10 q18 0 24 -18 q0 -17 -86 -37 l0 -4 q7 -385 11 -385 q149 63 161 63 l11 0 q24 -2 24 -12 l0 -8 q-22 -29 -379 -146 q-8 -2 -8 -8 q6 0 12 -12 l0 -17 q0 -78 -71 -180 l-15 -10 q-35 0 -35 30 q48 50 74 119 q15 54 15 70 q-181 -53 -246 -53 l-43 0 q-19 0 -39 20 l0 11 l39 0 q47 0 200 38 l-12 21 q35 231 35 352 l0 13 l4 37 q-53 -3 -78 -3 q-92 7 -98 44 l0 8 q2 8 8 8 l4 0 q25 -25 70 -25 q12 0 90 9 l0 12 q0 67 -20 78 q0 6 16 12 q27 0 47 -90 l4 0 q172 35 172 45 q-4 119 -28 119 l0 8 q0 6 12 12 ZM422 559 l23 -2 q28 0 133 29 l20 -8 l0 61 q0 17 -8 17 q-158 -37 -168 -37 l0 -60 ZM469 426 q94 29 105 29 l8 0 q6 0 16 -16 q-10 -19 -118 -87 q-42 -38 -42 -41 l0 -4 q11 7 164 50 l0 94 q0 31 -4 94 q-32 -14 -133 -119 l4 0 ZM449 525 l-27 4 q0 -13 -20 -215 l118 96 l-4 0 q-41 -14 -71 -17 q-15 3 -23 17 q33 43 109 123 l0 4 q-25 -12 -62 -12 l-20 0 ZM398 279 q-7 -45 -7 -78 l0 -6 q195 57 207 71 q-16 35 -16 48 q-143 -41 -168 -41 l-16 6 ZM668 209 q53 0 82 -275 l0 -16 q-10 -6 -12 -6 l-4 0 q-41 0 -50 78 l15 0 q0 73 -43 215 q8 4 12 4 Z" /><glyph glyph-name="uni5177" unicode="&#x5177;" d="M604 795 q19 -6 33 -31 q-4 -168 -4 -248 l0 -223 q125 23 191 51 l8 0 q6 0 12 -12 l0 -4 q0 -47 -199 -76 q-416 -100 -508 -100 q-39 0 -61 32 l8 11 l37 -4 q219 22 219 45 q4 34 4 53 q0 96 4 272 q0 210 -43 210 l0 8 q0 4 11 12 q30 0 59 -51 q0 8 10 8 q13 -8 23 -8 q31 0 196 55 ZM420 707 q-24 2 -45 22 q14 -110 25 -110 l20 0 q25 0 119 18 q25 -8 25 -30 l-95 -119 l0 -4 q60 28 70 28 q22 -10 22 -24 q-22 -31 -73 -88 q8 -15 24 -15 q43 23 56 23 l4 -8 l-37 -41 q41 -35 41 -46 l8 0 l16 443 q-133 -49 -180 -49 ZM420 584 q-18 0 -31 8 l0 -252 q107 113 107 117 l-4 0 q-19 -10 -56 -21 q-26 9 -28 17 l0 16 q37 54 96 127 l-4 0 q-23 -12 -80 -12 ZM451 352 q37 19 37 25 q-9 8 -11 8 q-4 0 -30 -33 l4 0 ZM389 240 l175 35 l0 4 q-46 63 -52 65 q-96 -65 -123 -65 l0 -39 ZM672 205 q35 0 72 -266 l0 -7 q0 -6 -12 -12 l-7 0 q-32 0 -41 49 q5 4 15 4 q-35 199 -35 228 l8 4 ZM385 168 q23 -8 23 -31 l0 -20 q0 -13 -8 -49 q26 20 36 20 q-47 -35 -77 -135 q-15 -21 -19 -21 q-22 0 -31 17 l0 4 q68 170 68 211 l8 4 Z" /><glyph glyph-name="uni5178" unicode="&#x5178;" d="M574 854 q45 0 45 -163 q0 -2 -4 -23 q4 0 4 -4 q49 4 59 4 q127 0 127 -59 l0 -7 q0 -61 -100 -268 q-12 -25 -31 -25 q-51 0 -74 130 l7 4 l55 -74 q98 199 98 256 l-8 4 l-137 0 l-8 -86 l4 0 q65 23 71 23 l4 -7 q0 -34 -82 -69 q-26 -201 -69 -201 l-4 0 l-11 16 q23 95 31 166 l-4 0 q-82 -28 -94 -28 q0 -15 8 -82 l16 12 l3 0 q4 -21 4 -31 q-5 -49 -19 -49 q-55 0 -55 135 l-4 0 q-52 -12 -88 -12 l-15 0 q-20 10 -20 16 l0 4 q0 11 104 27 q0 8 23 8 q-4 39 -4 58 l0 49 l-4 20 q-45 -16 -99 -16 q-26 10 -28 20 l0 3 q0 6 123 28 q0 4 4 4 l-7 123 q1 0 11 8 q26 0 35 -123 l4 0 q125 9 125 27 q4 45 4 80 l0 16 q0 33 -8 82 l8 4 ZM205 703 l4 0 q27 0 74 -357 q16 -76 24 -76 q0 5 23 23 q8 -12 8 -23 l0 -20 l-4 -8 l4 0 q420 82 514 82 q19 0 31 -19 l0 -4 q0 -16 -151 -28 q-447 -89 -580 -89 q-66 5 -66 27 l0 4 l4 8 l35 -4 q45 0 143 11 l3 0 q-27 49 -74 442 l0 27 l8 4 ZM449 563 l0 -77 l4 0 q106 26 106 49 q7 61 7 90 q-84 -12 -121 -23 l4 -39 ZM674 258 q68 -10 97 -303 q-3 -19 -11 -19 l-4 0 q-33 0 -43 46 q0 10 4 59 q0 55 -51 213 l8 4 ZM377 191 q8 0 18 -15 l0 -8 q-30 -182 -57 -182 q-24 10 -24 24 q49 179 55 181 l8 0 Z" /></font>
</defs>
</svg>
