<?xml version="1.0" standalone="no"?><!DOCTYPE svg PUBLIC "-//W3C//DTD SVG 1.1//EN" "http://www.w3.org/Graphics/SVG/1.1/DTD/svg11.dtd" ><svg xmlns="http://www.w3.org/2000/svg"><metadata></metadata><defs><font id="1.000;YE  ;YEFONTManHuaTi-Regylar" horiz-adv-x="1000"><font-face font-family="YEFONTManHuaTi 標準" font-weight="400" font-stretch="normal" units-per-em="1000" panose-1="2 0 6 3 6 0 0 0 0 0" ascent="1000" descent="-400" x-height="0" bbox="16 -227 986 871" underline-thickness="50" underline-position="-100" unicode-range="U+0020-ff5e" /><missing-glyph horiz-adv-x="498"  /><glyph glyph-name="nonbreakingspace" unicode="  " d="" /><glyph glyph-name="exclam" unicode="!" d="M78 670 l8 0 q23 0 23 -141 l0 -308 q0 -47 -23 -53 l-16 0 q-11 0 -23 25 l0 18 q0 137 8 441 l23 18 ZM63 88 q39 -12 39 -61 q0 -13 -32 -27 q-31 14 -31 27 l0 36 q0 11 24 25 Z" /><glyph glyph-name="quotedbl" unicode="&quot;" d="M203 674 q24 -8 24 -47 q0 -80 -55 -117 l-8 0 q-16 0 -16 15 l0 8 q28 141 40 141 l15 0 ZM94 666 q11 0 23 -23 l0 -39 q-12 -86 -39 -86 l-23 0 q-16 0 -16 15 q37 133 47 133 l8 0 Z" /><glyph glyph-name="numbersign" unicode="#" d="M313 670 q23 0 23 -113 l0 -41 q78 -14 78 -41 l0 -12 q0 -22 -70 -29 l0 -94 l70 0 q16 -4 16 -20 l0 -11 q0 -34 -86 -41 q0 -268 -31 -268 l-8 0 q-24 10 -24 63 l0 195 l-39 0 l-54 -10 l0 -53 q0 -144 -32 -144 q-11 0 -23 31 l0 154 l-78 0 q-16 0 -16 22 l0 10 q0 31 102 41 l0 125 q-86 9 -86 41 q13 41 54 41 l32 0 l0 9 q0 114 23 114 l8 0 q16 -2 16 -20 l0 -103 l93 0 q6 154 24 154 l8 0 ZM188 320 l54 10 l39 0 l0 113 l-70 0 q-12 0 -23 -31 l0 -92 Z" /><glyph glyph-name="dollar" unicode="$" d="M188 689 q17 0 31 -78 l8 0 q31 16 46 16 l8 -16 l0 -7 q-6 -36 -62 -61 l8 -55 l0 -47 q113 -56 113 -70 l0 -49 q-2 -19 -106 -86 l0 -150 q0 -41 -23 -47 l-8 0 q-31 10 -31 70 l0 120 l-31 0 q-65 0 -121 105 l15 8 q90 -59 113 -59 l24 0 l0 112 q-141 19 -156 97 l0 8 q15 29 148 88 q0 101 24 101 ZM78 484 q6 0 94 -35 l0 82 q-94 -25 -94 -39 l0 -8 ZM234 314 q12 0 51 34 q0 11 -51 23 l0 -57 Z" /><glyph glyph-name="percent" unicode="%" d="M383 670 q15 -2 15 -18 q0 -74 -312 -644 l-16 -8 l-15 0 l-16 8 q0 55 203 410 q100 232 133 252 l8 0 ZM172 611 l0 -17 l39 0 q12 0 31 -33 l0 -16 q0 -86 -86 -143 l-47 0 q-23 0 -31 67 q39 142 70 142 l24 0 ZM148 553 q-15 -67 -15 -84 l8 0 q39 19 39 76 q-18 0 -32 8 ZM375 293 q55 -53 55 -125 q-22 -102 -94 -102 l-47 0 q-12 0 -31 34 l0 35 q0 64 117 158 ZM313 125 q42 0 62 43 l0 59 l-8 0 q-54 -63 -54 -102 Z" /><glyph glyph-name="ampersand" unicode="&amp;" d="M266 670 q82 0 93 -111 l0 -10 q0 -102 -132 -240 q62 -82 62 -94 l16 0 q39 162 54 162 q16 -2 16 -16 l0 -52 q0 -51 -31 -155 q62 -101 62 -129 l-15 0 l-86 79 q-67 -104 -141 -104 q-125 25 -125 129 l0 25 q0 71 109 172 q-31 72 -31 137 l0 43 q18 164 149 164 ZM164 490 q0 -21 24 -113 l7 0 q110 98 110 164 l0 43 q-16 35 -47 35 q-80 0 -94 -129 ZM172 266 q-78 -86 -78 -137 q0 -49 86 -61 q70 37 86 86 l-94 112 Z" /><glyph glyph-name="quotesingle" unicode="&#39;" d="M133 682 q31 -12 31 -55 q-39 -125 -117 -125 q0 8 -8 8 q78 142 78 172 l16 0 Z" /><glyph glyph-name="parenleft" unicode="(" d="M188 670 q15 -2 15 -14 q-101 -99 -101 -271 l0 -43 q0 -151 132 -307 l0 -14 q0 -11 -31 -21 q-142 64 -164 342 l0 13 q0 209 133 315 l16 0 Z" /><glyph glyph-name="parenright" unicode=")" d="M102 670 q132 -106 132 -315 l0 -13 q-23 -281 -164 -342 q-31 10 -31 21 l0 14 q133 156 133 307 l0 56 q0 153 -102 258 q2 14 16 14 l16 0 Z" /><glyph glyph-name="asterisk" unicode="*" d="M176 754 q39 0 19 -152 l8 0 q12 2 59 43 l23 0 q16 0 16 -24 q0 -21 -74 -74 q43 -35 43 -78 l0 -24 q0 -15 -16 -15 l-16 0 q-58 80 -58 93 l-16 0 q10 -29 -78 -82 l-16 0 q-15 0 -15 16 l0 16 q68 41 78 90 l-94 50 l0 8 q2 16 16 16 l23 0 q29 0 63 -12 l11 113 l24 16 Z" /><glyph glyph-name="plus" unicode="+" d="M219 539 q31 0 39 -125 q62 16 148 16 l8 -16 l0 -8 q0 -35 -156 -47 l8 -54 l0 -78 q0 -94 -32 -94 q-31 10 -31 70 l0 149 l-94 -8 l-46 0 q-12 0 -24 23 q0 33 164 39 l0 117 q2 16 16 16 Z" /><glyph glyph-name="comma" unicode="," d="M78 74 q47 -8 47 -23 l0 -55 q-18 -94 -78 -94 l-8 16 l31 94 l-23 31 l0 8 q0 19 31 23 Z" /><glyph glyph-name="hyphen" unicode="-" d="M258 371 q47 -8 47 -23 l0 -16 q0 -16 -16 -16 l-16 0 q-44 0 -226 -15 l-8 15 l0 8 q37 47 219 47 Z" /><glyph glyph-name="period" unicode="." d="M109 109 q12 0 39 -46 l0 -24 q-23 -39 -62 -39 q-31 12 -47 39 l0 31 q20 39 63 39 l7 0 Z" /><glyph glyph-name="slash" unicode="/" d="M64 0 q-25 14 -25 33 q0 31 8 88 q123 461 215 549 l17 0 q10 0 14 -14 l-123 -394 q-65 -223 -90 -260 l-16 -2 Z" /><glyph glyph-name="zero" unicode="0" d="M164 670 q18 -24 78 -45 q78 -94 78 -230 l0 -82 q-37 -313 -164 -313 l-31 0 q-72 0 -86 137 l0 74 q0 178 63 377 q-8 17 -8 27 q10 0 62 55 l8 0 ZM148 588 q-54 -233 -54 -359 l0 -45 q0 -110 62 -110 q110 115 110 266 l0 64 q0 135 -71 184 l-47 0 Z" /><glyph glyph-name="one" unicode="1" d="M176 670 q15 0 15 -27 q0 -643 -62 -643 l-8 0 q-12 0 -23 27 l0 8 q37 635 70 635 l8 0 Z" /><glyph glyph-name="two" unicode="2" d="M250 670 q105 0 117 -158 q0 -188 -156 -405 l78 0 q149 0 149 -48 l0 -20 l-8 -19 q-117 9 -172 9 l-8 0 q-84 0 -187 -29 q-12 0 -24 29 l0 20 q0 12 117 99 q157 202 157 364 l0 9 q-10 90 -71 90 l-15 0 q-53 0 -149 -48 l-8 19 l0 20 q47 68 149 68 l31 0 Z" /><glyph glyph-name="three" unicode="3" d="M47 670 l39 -10 l39 0 q43 0 109 10 q39 -16 39 -45 q-5 -68 -148 -271 l164 0 q78 -14 78 -81 l0 -27 q0 -148 -203 -246 l-23 0 q-61 0 -102 70 l0 45 q2 18 16 18 l8 0 q46 -53 78 -53 q93 0 172 149 l0 44 q0 20 -40 26 q-140 -8 -187 -8 l-23 35 l0 28 q128 179 156 263 l-47 0 q-27 0 -70 -10 q-63 16 -63 36 l0 9 l8 18 Z" /><glyph glyph-name="four" unicode="4" d="M201 678 q20 0 28 -45 q0 -94 -122 -410 l10 0 l149 54 l0 303 q7 53 27 53 l10 0 q27 0 27 -186 l0 -125 q4 -19 20 -19 q60 27 107 27 l10 -16 l0 -29 q-4 -19 -127 -62 q-10 -61 -10 -96 l0 -96 q0 -47 -27 -52 l-18 0 q-8 0 -29 25 l10 68 l0 133 q-114 -53 -168 -53 q-37 12 -55 45 l0 26 q0 31 111 304 q22 114 28 114 l-10 19 q4 18 19 18 l10 0 Z" /><glyph glyph-name="five" unicode="5" d="M96 666 l8 0 q11 0 23 -25 l0 -82 q127 27 189 27 q65 -10 65 -37 q0 -26 -31 -26 q-110 0 -223 -29 l0 -98 q0 -134 178 -134 q56 0 56 -65 q0 -121 -242 -224 q-53 0 -80 54 l0 37 q2 16 16 16 l15 0 l34 -25 l15 0 q70 0 170 134 q-226 0 -226 217 q15 117 15 252 l18 8 Z" /><glyph glyph-name="six" unicode="6" d="M166 678 q16 -2 16 -18 q0 -64 -55 -305 l55 8 l89 0 q102 0 120 -134 l0 -10 q-57 -219 -248 -219 q-94 0 -104 119 l0 26 q88 533 127 533 ZM94 137 q11 -61 33 -61 l16 0 q140 0 185 143 l0 10 q0 85 -195 74 q-22 -45 -39 -166 Z" /><glyph glyph-name="seven" unicode="7" d="M309 670 q54 -8 54 -63 l0 -9 q-70 -545 -93 -588 l-16 -10 q-39 16 -39 55 q0 29 94 552 l-8 0 q-180 -27 -235 -27 q-31 0 -46 35 q1 18 15 18 l16 0 q80 0 258 37 Z" /><glyph glyph-name="eight" unicode="8" d="M236 674 q133 -63 100 -211 q0 -37 -55 -154 q33 0 100 -131 l2 -57 q-12 -90 -180 -121 l-31 0 q-111 0 -133 154 q12 90 125 172 q-101 98 -101 190 l0 50 q0 61 93 106 l80 2 ZM109 523 q0 -60 94 -162 l47 0 q31 80 31 112 l0 17 q33 84 -68 133 l-8 0 q-96 -4 -96 -100 ZM109 146 q16 -78 79 -78 q128 26 123 96 q-45 98 -108 102 q-94 -59 -94 -120 Z" /><glyph glyph-name="nine" unicode="9" d="M209 666 q100 0 168 -184 q8 0 8 -9 q-112 -496 -143 -496 l-25 0 l-16 25 q0 45 96 387 l-8 0 q-101 -84 -189 -84 q-73 0 -73 117 q34 244 143 244 l39 0 ZM82 422 q10 -49 25 -49 q118 39 207 115 q-58 129 -121 129 l-7 0 q-104 -25 -104 -195 Z" /><glyph glyph-name="colon" unicode=":" d="M102 434 q31 -12 31 -24 l0 -47 q-8 -23 -47 -23 l-8 0 q-12 0 -31 31 l0 8 q0 55 55 55 ZM100 199 q23 -6 39 -54 q-14 -36 -32 -40 l-39 0 q-15 0 -31 47 q16 47 31 47 l32 0 Z" /><glyph glyph-name="semicolon" unicode=";" d="M141 449 q15 -2 15 -15 l0 -63 q-8 -23 -47 -23 q-31 0 -54 39 l0 8 q0 43 31 54 l55 0 ZM94 223 q47 0 70 -71 q-51 -132 -117 -132 l-8 15 q0 31 55 102 q-31 45 -31 70 q19 16 31 16 Z" /><glyph glyph-name="less" unicode="&lt;" d="M266 570 q11 0 23 -23 l0 -8 q0 -8 -187 -187 q211 -192 211 -219 l0 -16 q0 -15 -16 -15 q-47 0 -250 211 q-8 13 -8 31 l0 8 q0 46 219 218 l8 0 Z" /><glyph glyph-name="equal" unicode="=" d="M313 465 q11 0 31 -31 q0 -12 -24 -24 l-54 0 q-67 0 -211 -8 l-16 24 q0 39 172 39 l102 0 ZM297 293 q43 0 55 -31 l0 -8 q0 -12 -24 -24 l-47 0 q-52 0 -226 -23 l-8 16 l0 23 q19 39 203 47 l47 0 Z" /><glyph glyph-name="greater" unicode="&gt;" d="M102 547 q234 -172 242 -188 l0 -7 q0 -71 -258 -227 l-31 0 q-16 0 -16 16 l0 7 q229 186 234 204 q-56 17 -203 171 q0 12 24 24 l8 0 Z" /><glyph glyph-name="question" unicode="?" d="M195 670 q84 0 102 -145 q-4 -113 -109 -371 l-24 0 q-12 0 -23 28 l101 351 q-12 82 -70 82 q-72 0 -86 -117 l0 -64 q0 -18 -16 -18 q-11 0 -31 37 l0 63 q20 154 117 154 l39 0 ZM180 82 q31 -14 31 -27 l0 -28 q0 -13 -23 -27 l-32 0 q-11 0 -23 27 l0 28 q8 27 47 27 Z" /><glyph glyph-name="at" unicode="@" d="M367 670 q188 0 188 -240 q-24 -225 -149 -225 q-13 -8 -31 -8 q-41 8 -78 63 q-53 -82 -102 -82 l-7 0 q-32 15 -32 62 l0 45 q0 141 133 170 q63 0 78 -98 l0 -17 l-8 -63 l16 -9 l8 0 q103 0 117 197 l0 27 q0 125 -117 125 l-47 0 q-195 0 -242 -332 l0 -8 q0 -205 172 -205 q52 0 234 53 l8 -18 q-92 -107 -250 -107 q-141 0 -203 152 q-16 71 -16 116 q35 402 328 402 ZM211 260 q72 70 102 125 q0 17 -16 17 l-8 0 q-68 0 -78 -117 l0 -25 Z" /><glyph glyph-name="A" unicode="A" d="M250 689 q70 0 184 -662 l0 -37 q-20 -17 -24 -17 l-10 0 q-27 0 -74 271 q-176 -17 -176 -55 q-48 -216 -76 -216 l-8 0 q-13 0 -25 27 l0 8 q0 72 193 681 l16 0 ZM250 563 q0 -40 -66 -282 q48 18 132 18 l0 10 q-50 254 -66 254 Z" /><glyph glyph-name="B" unicode="B" d="M74 689 q184 -17 184 -66 l0 -37 q0 -82 -100 -231 l8 0 q16 0 150 10 q69 -8 69 -76 l0 -12 q0 -160 -194 -295 l-50 -9 q-47 0 -100 17 q8 242 8 383 l0 164 l-8 115 q12 0 33 37 ZM92 623 q15 -41 15 -152 l0 -59 q53 35 102 192 q-33 19 -92 19 l-25 0 ZM107 59 l34 -10 q185 117 185 240 l-17 8 q-202 -16 -202 -37 l0 -201 Z" /><glyph glyph-name="C" unicode="C" d="M301 689 q92 -70 92 -150 l0 -21 q0 -20 -18 -20 l-82 131 l-35 0 q-100 0 -151 -315 l0 -109 q0 -101 69 -150 q33 0 217 121 l0 -12 q-69 -191 -194 -191 l-33 0 q-107 0 -125 232 l0 31 q33 453 217 453 l43 0 Z" /><glyph glyph-name="D" unicode="D" d="M74 689 q18 0 18 -41 l15 0 q84 0 209 10 q77 0 94 -95 q-107 -590 -361 -590 l-8 19 l0 612 q0 80 25 85 l8 0 ZM100 584 l0 -516 l7 0 q166 153 235 461 q10 18 10 43 q-26 12 -26 22 q-84 -10 -127 -10 l-99 0 Z" /><glyph glyph-name="E" unicode="E" d="M49 689 l76 -9 q184 9 242 9 l18 -29 q0 -15 -33 -39 q-45 0 -168 -10 q-47 10 -67 10 q8 -182 8 -240 l8 0 l51 10 l142 0 q49 -6 49 -30 l0 -9 q0 -30 -217 -30 l-41 0 l0 -101 q0 -55 -10 -141 q10 -29 18 -29 q51 0 268 51 q33 -14 33 -30 l0 -21 q0 -45 -268 -78 l-41 0 q-76 0 -76 107 q33 408 33 549 q-33 0 -33 31 l0 10 l8 19 Z" /><glyph glyph-name="F" unicode="F" d="M400 672 l0 -22 q0 -31 -234 -37 q-16 10 -25 10 q17 -98 17 -176 l0 -78 q139 12 209 12 l8 0 q51 -8 51 -29 l0 -20 q0 -21 -16 -21 l-43 0 q-70 0 -209 -8 l0 -225 q0 -105 -25 -105 l-26 0 q-13 0 -25 58 q18 127 18 367 l0 225 q-59 6 -59 27 l0 10 q2 20 18 20 q123 0 334 9 l7 -17 Z" /><glyph glyph-name="G" unicode="G" d="M242 689 q88 0 125 -189 l0 -12 q0 -17 -15 -17 l-10 0 q-14 0 -33 95 q-32 57 -75 77 q-103 0 -127 -354 l0 -59 q0 -82 59 -125 q43 0 168 125 q18 -3 18 -19 q0 -148 -186 -191 q-105 0 -125 210 q27 459 193 459 l8 0 ZM410 385 q8 0 24 -41 q-16 -112 -16 -324 q-6 -47 -25 -47 l-18 0 q-12 0 -23 29 l0 18 q0 123 23 298 q-82 -21 -100 -21 q-58 14 -58 39 l0 8 q2 21 17 21 l59 0 q80 20 92 20 l25 0 Z" /><glyph glyph-name="H" unicode="H" d="M381 689 q37 0 43 -337 l0 -350 q0 -16 -26 -29 l-17 0 q-26 9 -26 58 l0 262 q-162 -12 -205 -12 q-17 12 -25 12 q-14 -303 -43 -303 l-16 0 q-13 0 -25 30 q18 263 18 361 l0 105 q0 51 -10 164 l17 10 l8 0 q45 0 51 -213 l0 -95 q37 0 230 17 l0 303 q4 17 18 17 l8 0 Z" /><glyph glyph-name="I" unicode="I" d="M217 689 q76 0 76 -60 l-18 -8 l-84 0 q8 -150 8 -221 l0 -349 l26 0 q62 0 68 -30 l0 -19 q0 -16 -25 -29 l-202 0 q-13 0 -25 29 l0 10 q16 39 59 39 l33 0 l0 230 q0 229 17 340 l-91 0 q-18 0 -18 20 q0 48 176 48 Z" /><glyph glyph-name="J" unicode="J" d="M342 660 l0 -10 q-4 -27 -67 -27 l-25 0 l18 -418 q0 -232 -84 -232 q-65 0 -125 134 l15 12 q53 -51 110 -51 q15 137 15 438 l0 117 l-8 0 l-50 -10 q-100 10 -100 37 l0 10 q0 20 25 20 q39 0 260 9 l16 -29 Z" /><glyph glyph-name="K" unicode="K" d="M66 689 l8 0 q37 0 51 -300 q64 31 201 238 l8 0 q18 -2 18 -22 l0 -19 q-47 -150 -153 -219 l0 -19 q137 -141 186 -313 q-10 -43 -33 -43 q-24 0 -194 334 l-41 -12 l0 -82 q0 -259 -35 -259 l-16 0 q-21 0 -25 41 q18 308 18 396 l0 113 q0 51 -10 157 l17 9 Z" /><glyph glyph-name="L" unicode="L" d="M82 689 q29 0 35 -138 q-10 -340 -10 -492 l10 0 l49 9 l176 0 q13 0 25 -31 l0 -23 q0 -14 -25 -32 l-192 0 l-101 -9 q-8 19 -8 31 q4 685 41 685 Z" /><glyph glyph-name="M" unicode="M" d="M141 689 l9 0 q75 -115 151 -470 l8 0 q91 396 117 461 l17 9 q49 0 125 -660 l0 -13 q0 -14 -25 -34 l-8 0 q-35 0 -92 495 l-9 0 q-80 -461 -133 -461 l-8 0 q-27 0 -117 427 l-10 0 q-37 -470 -84 -470 l-23 0 q-18 0 -18 33 q59 314 84 674 l16 9 Z" /><glyph glyph-name="N" unicode="N" d="M117 689 l74 -136 q94 -319 176 -444 q49 549 67 549 q13 0 25 -31 l0 -64 q0 -590 -66 -590 l-8 0 q-90 0 -244 537 l-8 0 l0 -22 q0 -515 -51 -515 l-16 0 q-13 0 -25 41 l51 656 l25 19 Z" /><glyph glyph-name="O" unicode="O" d="M242 689 q154 0 176 -335 q-61 -381 -227 -381 l-25 0 q-125 45 -125 222 l0 137 q35 348 125 348 q31 9 76 9 ZM92 297 q12 -203 74 -234 l10 0 q176 85 176 314 q-22 234 -127 234 l-59 0 q-74 -107 -74 -314 Z" /><glyph glyph-name="P" unicode="P" d="M74 689 l8 0 l25 -17 l84 0 q151 -10 151 -55 l0 -45 q0 -107 -235 -355 l0 -145 q0 -99 -25 -99 l-23 0 q-18 0 -18 17 q8 496 8 592 l10 35 q-18 29 -18 45 l33 27 ZM107 617 q10 -168 10 -246 l0 -27 q166 177 166 256 q-66 17 -142 17 l-34 0 Z" /><glyph glyph-name="Q" unicode="Q" d="M234 689 q153 0 192 -160 q25 -52 25 -138 l0 -65 q0 -58 -25 -162 q66 -107 66 -160 l0 -12 q0 -19 -15 -19 l-18 0 q-6 0 -84 117 q-92 -98 -158 -98 l-59 0 q-92 0 -117 184 l0 10 q0 296 193 503 ZM107 219 q0 -129 77 -129 l7 0 q77 0 135 86 l-43 74 l0 21 q2 24 18 24 l15 0 l51 -45 q26 57 26 150 q-22 225 -125 225 l-34 0 q-127 -180 -127 -406 Z" /><glyph glyph-name="R" unicode="R" d="M66 689 q16 0 16 -9 l84 9 l25 0 q176 0 209 -89 l0 -59 q0 -72 -150 -250 q121 -145 176 -250 l0 -49 q0 -19 -16 -19 l-17 0 l-202 277 q-27 -18 -50 -18 l-34 0 l0 -181 q0 -51 -33 -69 l-8 0 q-13 0 -25 30 q0 105 8 320 q-8 184 -8 268 q6 89 25 89 ZM92 611 q15 -103 15 -320 l10 0 q225 180 225 291 l0 8 q-74 39 -143 39 q-70 -8 -107 -8 l0 -10 Z" /><glyph glyph-name="S" unicode="S" d="M250 689 q61 0 143 -121 l0 -21 q0 -18 -18 -18 l-16 0 q-91 112 -142 112 q-100 -43 -100 -133 l0 -29 q14 -51 235 -165 q74 -89 74 -138 l0 -53 q0 -105 -133 -150 l-51 0 q-201 25 -201 150 l0 41 q2 20 18 20 q62 -129 216 -129 q92 33 92 109 q0 74 -250 201 q-58 53 -58 114 l0 39 q43 171 140 171 l51 0 Z" /><glyph glyph-name="T" unicode="T" d="M443 689 q49 -11 49 -29 l0 -17 q0 -38 -217 -51 l18 -266 q-10 -123 -10 -306 l0 -8 q0 -16 -33 -39 l-8 0 q-8 0 -33 39 l16 580 l-8 0 q-176 10 -176 51 l0 17 l8 20 q115 -8 142 -8 q178 0 252 17 Z" /><glyph glyph-name="U" unicode="U" d="M66 689 q24 0 51 -408 q53 -207 82 -209 l18 0 q76 0 150 438 l8 72 l-23 98 l15 9 q67 0 67 -107 q-43 -609 -243 -609 q-128 0 -150 558 l0 139 q2 19 18 19 l7 0 Z" /><glyph glyph-name="V" unicode="V" d="M385 689 q15 -3 15 -19 l0 -12 q0 -111 -158 -676 l-17 -9 l-34 0 q-31 0 -117 578 q-11 0 -33 97 l18 10 l7 0 q51 0 143 -504 l8 0 q138 532 168 535 Z" /><glyph glyph-name="W" unicode="W" d="M477 689 q11 0 25 -50 q-61 -666 -92 -666 l-35 0 q-41 25 -117 443 l-8 0 q-33 -432 -92 -432 l-25 0 q-53 0 -74 561 q-16 0 -18 94 l0 11 q2 28 18 28 q56 0 82 -485 q15 0 76 420 q25 51 33 51 l25 0 q12 0 92 -482 l18 0 q37 507 92 507 Z" /><glyph glyph-name="X" unicode="X" d="M385 689 q15 -1 15 -17 q0 -24 -117 -287 q176 -315 176 -403 l-16 -9 l-25 0 q-51 45 -168 341 q-12 0 -143 -253 q-25 -41 -48 -41 l-18 31 l0 10 q0 25 158 345 q-60 131 -133 225 l0 19 q2 22 16 22 q37 0 168 -197 q12 56 117 214 l18 0 Z" /><glyph glyph-name="Y" unicode="Y" d="M443 689 q12 0 26 -29 q-24 -74 -194 -250 q8 -133 8 -195 l0 -213 q0 -16 -25 -29 l-16 0 q-25 6 -25 76 l0 340 l-176 261 l0 10 l18 12 l7 0 q49 0 184 -195 q41 39 176 212 l17 0 Z" /><glyph glyph-name="Z" unicode="Z" d="M100 689 l84 -9 l99 0 q47 0 117 9 q39 -17 43 -39 q-19 -171 -302 -587 q99 9 142 9 l176 0 q14 0 25 -29 l0 -22 q0 -13 -25 -29 l-49 0 q-94 0 -344 -19 l-25 39 l0 9 q0 49 201 315 q55 107 133 283 l-217 0 q-60 0 -66 31 l0 20 l8 19 Z" /><glyph glyph-name="bracketleft" unicode="[" d="M172 650 q60 0 70 -29 l0 -8 l-23 -21 l-39 6 l-55 0 l8 -75 l0 -476 l47 0 q58 0 62 -22 l0 -15 q0 -20 -54 -30 q-6 0 -47 8 l-47 -8 q-31 12 -31 22 q15 256 15 426 l0 170 q-39 0 -39 15 l0 16 q0 10 24 21 l109 0 Z" /><glyph glyph-name="backslash" unicode="\" d="M252 2 q-25 37 -90 260 l-123 394 q4 14 14 14 l17 0 q92 -88 215 -549 q8 -57 8 -88 q0 -19 -25 -33 l-16 2 Z" /><glyph glyph-name="bracketright" unicode="]" d="M219 670 q11 0 23 -22 l0 -7 q0 -10 -23 -22 l8 -14 q7 -347 7 -541 l0 -21 q0 -37 -23 -43 q-80 8 -125 8 l-16 0 q-11 0 -23 21 l0 6 q0 10 23 22 l94 0 l0 263 q0 110 8 299 l-70 0 q-57 0 -63 22 l0 7 q0 10 24 22 l156 0 Z" /><glyph glyph-name="asciicircum" unicode="^" d="M148 678 q59 0 118 -141 l0 -16 q0 -15 -16 -15 l-8 0 l-94 101 q0 -9 -78 -78 l-15 0 q-16 0 -16 16 q0 53 109 133 Z" /><glyph glyph-name="underscore" unicode="_" d="M367 70 q43 0 55 -31 l0 -16 q-8 -23 -47 -23 l-234 0 q-102 0 -102 23 l0 24 q0 23 102 23 l226 0 Z" /><glyph glyph-name="grave" unicode="`" d="M70 670 q157 -41 157 -133 q-26 -23 -39 -23 q-104 93 -110 93 q-39 6 -39 24 l0 15 q0 12 24 24 l7 0 Z" /><glyph glyph-name="a" unicode="a" d="M234 443 q133 -25 133 -129 l0 -15 q-25 -31 -25 -110 q0 -54 68 -54 q33 0 33 -28 q0 -31 -68 -52 q-92 17 -92 80 l-15 0 q-77 -162 -151 -162 q-64 0 -76 90 l0 17 q0 283 150 363 l43 0 ZM107 100 l10 -45 q121 127 176 306 l-59 20 l-9 0 q-100 0 -118 -254 l0 -27 Z" /><glyph glyph-name="b" unicode="b" d="M66 689 q51 0 51 -335 l0 -79 l8 0 q59 104 150 104 q84 -14 84 -111 q0 -209 -209 -295 q-109 6 -109 43 l18 267 q-10 192 -10 338 l-8 33 q12 35 25 35 ZM133 49 q160 82 160 234 q-10 35 -35 35 q-133 -56 -133 -269 l8 0 Z" /><glyph glyph-name="c" unicode="c" d="M242 443 q100 -29 100 -115 l0 -27 q0 -18 -16 -18 l-10 0 q-9 0 -48 98 q-10 0 -26 10 q-92 0 -125 -225 q0 -94 59 -115 q23 0 183 115 l8 -16 q-74 -177 -191 -177 q-135 17 -135 170 l0 7 q0 223 201 293 Z" /><glyph glyph-name="d" unicode="d" d="M326 689 q20 0 33 -84 q-7 -156 -7 -242 l0 -56 q0 -159 33 -289 q-14 -38 -26 -38 q-66 0 -66 86 q-76 -93 -143 -93 q-91 0 -109 140 l0 82 q20 215 117 215 l33 0 q32 0 84 -37 l8 0 q0 10 -8 10 q18 306 51 306 ZM100 178 q9 -121 58 -121 q55 17 117 129 l0 113 q-78 45 -99 45 l-18 0 q-58 -37 -58 -166 Z" /><glyph glyph-name="e" unicode="e" d="M250 443 q102 -9 102 -107 l0 -74 q-71 -139 -211 -139 l-24 0 l0 -14 q39 -50 92 -50 q35 0 191 74 l18 -10 q-49 -150 -193 -150 l-16 0 q-168 0 -168 172 l0 19 q55 279 209 279 ZM141 195 q127 0 160 141 q-8 43 -51 43 q-94 0 -143 -184 l34 0 Z" /><glyph glyph-name="f" unicode="f" d="M225 689 q91 -35 91 -134 l-15 -10 l-18 0 q-17 0 -41 86 l-17 0 q-41 0 -41 -168 l0 -76 q0 -16 132 -33 l10 -18 q0 -12 -25 -27 l-67 0 l-43 -8 l0 -92 q0 -72 8 -229 l-15 -7 l-34 0 q-27 0 -33 107 l0 221 q-76 0 -76 25 l0 18 q0 10 76 35 q0 310 108 310 Z" /><glyph glyph-name="g" unicode="g" d="M217 439 q47 0 142 -142 q-48 -518 -125 -518 l-50 0 q-143 28 -143 151 q8 0 8 11 q113 -80 142 -80 l18 0 q39 0 66 274 q-84 -123 -142 -123 q-59 33 -59 93 l0 81 q0 207 135 253 l8 0 ZM125 166 q8 -72 25 -72 q55 56 133 183 q-25 73 -66 102 l-18 0 q-74 -76 -74 -213 Z" /><glyph glyph-name="h" unicode="h" d="M66 689 q41 0 41 -283 l0 -92 l18 0 q74 139 150 139 q61 0 77 -463 l-26 -17 l-17 0 q-41 0 -41 195 l0 197 q0 20 -18 20 q-92 -114 -143 -168 l10 -67 q-8 -168 -25 -168 l-26 0 q-13 0 -25 30 q8 455 8 668 l17 9 Z" /><glyph glyph-name="i" unicode="i" d="M66 689 q69 0 84 -85 q0 -18 -17 -18 l-8 0 q-47 0 -84 66 l0 20 q2 17 18 17 l7 0 ZM82 443 l10 0 q33 0 33 -322 l0 -133 q0 -15 -18 -15 l-25 0 q-33 0 -33 148 q10 262 10 305 l23 17 Z" /><glyph glyph-name="j" unicode="j" d="M174 445 l17 0 q43 0 51 -281 q-2 -385 -53 -385 l-17 0 q-82 0 -133 225 l16 12 l101 -102 q18 318 18 385 q-16 115 -16 137 l16 9 ZM148 689 q71 0 84 -85 q0 -18 -15 -18 l-10 0 q-45 0 -82 66 l0 20 q2 17 16 17 l7 0 Z" /><glyph glyph-name="k" unicode="k" d="M66 689 l8 0 q43 0 43 -271 l0 -113 l8 0 q94 58 158 113 l10 0 l16 -25 l0 -20 q-36 -64 -176 -139 l0 -17 q125 -78 183 -149 l0 -17 q0 -18 -15 -18 l-18 0 q-29 0 -158 104 l-8 0 l0 -86 q0 -67 -35 -78 l-16 0 q-21 0 -25 35 q0 203 8 674 l17 7 Z" /><glyph glyph-name="l" unicode="l" d="M74 689 l18 0 q25 0 25 -95 q0 -63 -10 -518 q86 98 110 98 q0 -12 8 -12 q-47 -189 -133 -189 l-10 0 q-10 0 -41 47 l0 19 q18 574 18 641 l15 9 Z" /><glyph glyph-name="m" unicode="m" d="M59 443 l7 0 q38 0 59 -189 l8 0 q0 27 101 125 l34 0 q33 0 33 -113 q82 138 117 158 l16 0 q33 0 58 -309 q28 -70 51 -105 l0 -20 q0 -17 -16 -17 l-35 0 q-64 0 -82 320 l0 18 q-117 -190 -117 -301 l-18 -8 l-25 0 q-16 0 -16 18 l0 263 q-95 -97 -142 -281 l-33 0 q-18 0 -18 18 l25 253 q-7 106 -25 163 l18 7 Z" /><glyph glyph-name="n" unicode="n" d="M74 443 q51 -23 51 -172 l0 -46 q123 199 176 199 l8 0 q33 -14 33 -63 q0 -269 58 -361 l0 -10 l-25 -17 l-8 0 q-92 0 -92 244 l0 90 q-72 -94 -175 -299 q-18 -8 -26 -8 q-33 8 -33 35 q18 154 18 209 l0 137 l-10 43 l25 19 Z" /><glyph glyph-name="o" unicode="o" d="M141 443 q17 -21 142 -47 q59 -70 59 -136 l0 -39 q0 -211 -166 -248 q-106 0 -135 203 q39 267 92 267 l8 0 ZM133 352 q-26 -100 -26 -168 q0 -80 69 -127 q82 0 107 203 q0 99 -150 99 l0 -7 Z" /><glyph glyph-name="p" unicode="p" d="M66 439 l75 0 q193 -17 193 -146 q0 -107 -193 -262 q-8 -88 -8 -144 l0 -76 q0 -14 -26 -32 l-15 0 q-33 18 -33 75 l0 33 l7 123 q-13 0 -25 31 l0 12 l25 41 l0 21 q0 73 8 188 q-25 121 -25 125 l17 11 ZM133 377 q8 -123 8 -176 l0 -45 l9 0 q108 100 108 125 l0 32 q0 41 -125 64 Z" /><glyph glyph-name="q" unicode="q" d="M225 439 q58 0 127 -140 l0 -8 q-45 -227 -53 -369 q82 121 92 121 l17 0 l0 -10 q0 -144 -101 -260 l-41 0 q-22 0 -34 81 l0 50 q0 153 36 285 q-123 -140 -168 -140 l-26 0 q-15 0 -33 60 q0 211 135 330 l49 0 ZM125 160 q8 0 150 149 q-25 70 -76 70 q-82 -82 -82 -219 l8 0 Z" /><glyph glyph-name="r" unicode="r" d="M59 443 l7 0 q41 -27 41 -103 l10 0 q57 103 100 103 l33 0 q53 -33 84 -103 l0 -31 q0 -18 -18 -18 l-23 0 q-12 0 -68 70 q-92 -136 -92 -236 l0 -121 q0 -16 -26 -31 l-25 0 q-19 0 -33 91 l17 184 q-25 158 -25 186 l18 9 Z" /><glyph glyph-name="s" unicode="s" d="M209 443 q68 0 92 -89 l0 -10 q0 -14 -18 -14 l-8 0 l-66 65 l-25 0 q-51 -30 -51 -73 q0 -52 168 -121 q33 -37 33 -66 l0 -16 q0 -94 -168 -146 l-25 0 q-100 7 -100 82 l0 15 q2 16 18 16 l7 0 q43 -41 75 -41 q82 0 127 82 l0 8 q-2 11 -168 97 q-34 69 -34 90 q32 121 110 121 l33 0 Z" /><glyph glyph-name="t" unicode="t" d="M141 689 l9 0 q24 0 34 -109 l0 -129 l15 0 q127 0 127 -45 q0 -21 -17 -21 l-125 0 l0 -281 l99 144 q18 -4 18 -23 q-43 -252 -135 -252 l-8 0 q-33 0 -51 154 q18 197 18 258 l-66 0 q-18 0 -18 21 l0 12 q6 33 66 33 l26 0 l0 151 l-8 78 l16 9 Z" /><glyph glyph-name="u" unicode="u" d="M49 443 l17 0 q22 0 41 -369 q10 0 10 -25 l8 0 q88 72 158 377 l18 10 l15 0 q26 0 26 -36 q-33 -158 -33 -232 q0 -94 84 -94 l0 -8 q0 -52 -67 -60 q-51 0 -76 86 l-8 0 q0 -37 -92 -119 l-50 0 q-59 29 -59 162 l0 265 l8 43 Z" /><glyph glyph-name="v" unicode="v" d="M316 443 l10 0 q12 0 33 -33 q0 -150 -160 -430 l-41 -7 q-43 0 -76 298 q-6 0 -41 139 l18 8 l7 0 q45 0 110 -334 l8 0 q78 189 117 352 l15 7 Z" /><glyph glyph-name="w" unicode="w" d="M434 443 l9 0 q12 0 34 -35 l0 -17 q0 -418 -110 -418 q-58 0 -109 220 l-8 0 q-51 -213 -125 -213 l-8 0 q-43 8 -43 293 q-33 92 -33 135 l18 8 q72 -37 82 -301 q27 24 101 248 l16 8 l25 0 q16 0 51 -248 q18 -2 25 -53 l16 0 l51 301 q-8 37 -8 65 l16 7 Z" /><glyph glyph-name="x" unicode="x" d="M342 443 q17 -2 17 -17 l0 -22 q-117 -179 -117 -203 q125 -166 125 -203 l0 -10 q0 -15 -15 -15 l-26 0 q-6 0 -127 170 q-29 -26 -107 -163 l-33 0 q-18 0 -18 18 l0 8 q0 53 117 209 l-117 195 l0 8 q2 18 18 18 l7 0 q45 -36 133 -157 q125 164 135 164 l8 0 Z" /><glyph glyph-name="y" unicode="y" d="M176 439 q58 0 58 -281 l8 0 q24 0 151 281 l25 0 q16 -1 16 -21 q-36 -580 -65 -580 q-2 -27 -92 -61 q-158 39 -158 192 l16 8 q92 -110 135 -110 q84 0 82 332 l0 8 l-10 0 q-47 -148 -108 -148 q-58 0 -58 201 q-12 94 -18 119 q-13 -10 -84 -20 q-33 14 -33 30 l0 9 q0 20 135 41 Z" /><glyph glyph-name="z" unicode="z" d="M82 443 l84 -9 q127 9 186 9 l15 -39 q-2 -82 -217 -353 l8 0 q215 39 260 39 l8 -20 l0 -29 q0 -39 -319 -68 l-41 0 q-19 0 -25 47 l201 255 l51 90 l0 8 l-143 0 q-64 0 -76 41 l0 10 l8 19 Z" /><glyph glyph-name="braceleft" unicode="{" d="M203 670 q16 -2 16 -14 l0 -11 q-67 0 -86 -90 q47 -94 47 -123 l0 -26 q0 -51 -39 -64 q23 -63 23 -168 l0 -110 q31 14 47 14 l8 -14 q-28 -64 -47 -64 l-39 0 q-31 14 -31 39 l7 205 q0 78 -39 78 q-31 0 -31 20 l0 6 q0 17 70 25 q24 23 24 45 q-47 121 -47 137 l0 6 q0 84 109 109 l8 0 Z" /><glyph glyph-name="bar" unicode="|" d="M86 670 q23 0 23 -168 l0 -486 q0 -16 -15 -16 l-24 0 q-21 0 -31 64 q6 606 31 606 l16 0 Z" /><glyph glyph-name="braceright" unicode="}" d="M55 670 q109 0 109 -96 l0 -45 q0 -50 -8 -121 q18 -64 39 -64 q16 25 47 25 l24 -25 q-71 -147 -71 -319 l-39 -25 l-39 0 q-62 4 -62 51 q8 0 8 6 l39 -6 l15 0 q29 0 55 230 q8 0 8 20 q-63 0 -78 101 q0 53 15 172 q-15 76 -78 76 l0 6 q2 14 16 14 Z" /><glyph glyph-name="asciitilde" unicode="~" d="M195 402 l78 -62 q69 47 94 47 q16 -2 16 -16 l0 -31 q-55 -70 -117 -70 q-18 0 -110 85 q-47 -11 -93 -70 l-8 0 q-16 0 -16 16 l0 8 q0 66 109 93 l47 0 Z" /><glyph glyph-name="emdash" unicode="&#x2014;" d="M701 367 q135 0 135 -23 l0 -16 q0 -12 -37 -23 l-598 0 q-17 0 -35 23 q0 39 340 39 l195 0 Z" /><glyph glyph-name="quoteleft" unicode="&#x2018;" d="M598 693 l0 -7 l-110 -118 l0 -7 l24 -32 l0 -15 q-20 -39 -63 -39 l-15 0 q-32 13 -32 54 q86 180 188 180 l8 -16 Z" /><glyph glyph-name="quoteright" unicode="&#x2019;" d="M492 705 q71 -10 71 -70 l0 -16 q-26 -140 -125 -140 l0 7 q62 131 62 149 q-62 0 -62 23 l0 16 q0 12 39 31 l15 0 Z" /><glyph glyph-name="quotedblleft" unicode="&#x201c;" d="M484 709 q8 -16 8 -23 q-62 -98 -62 -110 q39 -12 39 -55 q-10 -31 -39 -46 l-32 0 q-39 19 -39 62 l0 16 q34 156 125 156 ZM641 686 q-22 -45 -63 -102 l0 -16 q31 0 31 -47 q-15 -46 -86 -46 l-23 31 l0 39 q0 90 133 156 l8 -15 Z" /><glyph glyph-name="quotedblright" unicode="&#x201d;" d="M586 701 q55 -13 55 -31 l0 -8 q-20 -180 -110 -180 l-8 16 l47 102 q-11 0 -31 31 l0 15 q0 55 47 55 ZM461 693 q10 0 39 -39 q-35 -156 -117 -156 l-24 0 l0 8 q0 8 63 94 l0 7 q-24 32 -24 47 q16 35 32 39 l31 0 Z" /><glyph glyph-name="ellipsis" unicode="&#x2026;" d="M520 102 q39 -12 39 -55 l0 -16 q0 -11 -32 -31 l-7 0 q-43 0 -63 39 l0 16 q31 47 63 47 ZM301 94 q35 -16 39 -31 l0 -8 q0 -41 -31 -55 l-39 0 q-12 0 -32 31 l0 32 q0 15 63 31 ZM707 94 q55 0 55 -55 l0 -8 q0 -11 -32 -31 l-15 0 q-43 0 -63 39 l0 24 q0 11 32 31 l23 0 Z" /><glyph glyph-name="uni3001" unicode="&#x3001;" d="M234 141 q102 -67 102 -125 q0 -16 -16 -16 l-23 0 l-117 117 l0 8 q2 16 15 16 l39 0 Z" /><glyph glyph-name="uni3002" unicode="&#x3002;" d="M281 172 q43 0 63 -39 l0 -31 q-28 -102 -102 -102 q-70 10 -70 70 q23 102 55 102 l54 0 ZM234 109 l0 -39 l16 0 q12 0 23 24 l0 15 l-39 0 Z" /><glyph glyph-name="uni300A" unicode="&#x300a;" d="M715 672 q12 0 23 -24 q0 -95 -203 -283 l-15 -21 q234 -252 234 -305 l0 -23 q0 -14 -24 -14 q-31 8 -164 207 q-109 86 -109 135 q0 35 148 170 q49 62 102 158 l8 0 ZM863 627 l8 0 q16 -4 16 -16 l0 -7 q0 -43 -149 -252 q186 -262 196 -321 q-20 -15 -32 -15 q-27 5 -156 222 q-62 73 -62 106 l0 29 l179 254 Z" /><glyph glyph-name="uni300B" unicode="&#x300b;" d="M285 672 q12 -2 102 -151 q156 -142 156 -177 q0 -33 -180 -225 q-52 -117 -109 -117 l-8 14 l0 23 q0 53 234 305 q-171 179 -171 193 q-47 65 -47 111 q0 12 23 24 ZM137 627 q8 0 133 -193 q9 0 46 -61 l0 -29 q0 -22 -203 -321 q0 -7 -8 -7 l-15 0 q-20 0 -24 29 l196 312 q-137 176 -149 247 l0 7 q2 16 16 16 l8 0 Z" /><glyph glyph-name="uni300C" unicode="&#x300c;" d="M846 672 q43 0 62 -41 l-15 -24 q-79 8 -118 8 l-23 0 l8 -15 l0 -129 q0 -45 8 -414 q-14 -55 -32 -55 q-39 0 -39 70 l0 502 l8 41 q-39 0 -39 16 l0 15 q6 26 63 26 l117 0 Z" /><glyph glyph-name="uni300D" unicode="&#x300d;" d="M293 672 q31 -12 31 -72 l0 -502 l8 -80 l-23 -16 l-196 0 q-11 0 -23 23 l0 16 q2 16 15 16 l165 0 l0 597 q1 18 15 18 l8 0 Z" /><glyph glyph-name="uni3010" unicode="&#x3010;" d="M775 672 q102 0 141 -16 q-62 -148 -62 -316 q0 -160 70 -324 q-33 -14 -125 -14 l-86 0 l-16 6 q-8 267 -8 406 l0 242 q2 16 16 16 l70 0 Z" /><glyph glyph-name="uni3011" unicode="&#x3011;" d="M303 672 q15 -4 15 -16 l0 -242 q0 -139 -7 -406 l-16 -6 l-86 0 q-92 0 -125 14 q70 158 70 338 q0 146 -62 302 q33 16 125 16 l86 0 Z" /><glyph glyph-name="uni4E00" unicode="&#x4e00;" d="M830 414 l0 -23 q0 -36 -344 -55 q-131 -31 -242 -31 q-70 17 -70 39 l0 15 l8 0 q45 0 461 63 q0 8 171 16 l16 -24 Z" /><glyph glyph-name="uni4E03" unicode="&#x4e03;" d="M424 732 q27 0 33 -127 l0 -123 l6 0 l312 79 q18 -2 18 -18 l0 -23 q0 -32 -336 -104 l0 -162 q6 -170 53 -170 l31 0 q92 0 225 209 q0 64 17 64 q35 -9 49 -41 l0 -23 q0 -127 -228 -268 q-30 -15 -63 -15 l-31 0 q-119 0 -119 189 l0 31 q0 55 7 170 q-76 -7 -115 -7 q-111 5 -111 33 q0 17 226 41 l8 13 l0 235 q2 17 18 17 Z" /><glyph glyph-name="uni4E07" unicode="&#x4e07;" d="M672 719 l0 -26 q0 -27 -213 -82 l-45 -216 l16 0 q74 0 300 66 l24 0 q17 -2 17 -16 l-83 -490 l-34 -25 l-15 0 q-78 0 -159 150 l0 8 l8 0 l143 -84 q39 172 72 387 l-8 0 q-140 -45 -218 -53 l-69 -4 q-62 -311 -111 -363 l-33 0 q-34 15 -34 58 l0 18 q51 0 51 74 q98 356 108 483 l-100 0 q-70 0 -100 48 l0 18 q2 16 18 16 q45 -26 74 -26 q129 0 373 84 l18 -25 Z" /><glyph glyph-name="uni4E08" unicode="&#x4e08;" d="M625 742 l0 -117 l-6 -14 l12 0 q25 0 117 32 q25 0 25 -34 q0 -39 -164 -80 l-70 -293 q135 -74 242 -205 l0 -31 q0 -14 -25 -25 l-8 0 q-131 127 -242 203 q-88 -203 -164 -203 l-16 0 q-60 0 -72 80 q2 17 19 17 q0 -11 30 -31 l15 0 q43 0 123 186 l-148 101 q2 18 18 18 l7 0 q41 0 157 -63 q54 123 76 246 q-108 -15 -217 -15 q-111 7 -111 33 l0 25 l9 0 q198 0 334 32 q22 164 43 164 l16 -26 Z" /><glyph glyph-name="uni4E09" unicode="&#x4e09;" d="M695 629 l0 -16 q0 -27 -261 -43 l-32 0 q-89 12 -89 43 l0 16 q1 19 21 19 q25 -15 45 -15 l23 0 q63 0 276 23 l17 -27 ZM676 391 q19 -4 19 -20 l0 -16 q0 -33 -230 -50 l-39 0 q-63 0 -74 33 l0 10 l9 19 l41 -8 l8 0 q37 0 258 32 l8 0 ZM852 98 l0 -18 l-10 -17 q-428 -16 -510 -16 q-121 8 -121 43 q0 19 27 19 q186 0 596 16 l18 -27 Z" /><glyph glyph-name="uni4E0A" unicode="&#x4e0a;" d="M449 742 l8 0 q63 0 63 -283 l0 -80 l5 -14 q106 24 190 24 l10 -20 l0 -8 q0 -37 -198 -52 l0 -241 q92 10 135 10 l74 0 q137 0 137 -55 q-10 -37 -39 -37 q-53 18 -121 26 l-428 -33 l-66 0 q-94 0 -94 29 q0 19 320 53 q0 60 8 300 q-8 250 -8 319 q-15 27 -15 52 l19 10 Z" /><glyph glyph-name="uni4E0B" unicode="&#x4e0b;" d="M813 670 l0 -18 q0 -39 -293 -70 l7 -86 l0 -84 q125 0 278 -139 l0 -35 q0 -19 -20 -19 l-27 0 q-168 135 -221 146 l0 -386 q-8 -114 -37 -114 l-18 0 q-13 0 -27 28 q18 205 18 320 q0 96 -10 223 q10 50 10 136 l-6 0 q-45 -17 -156 -17 l-61 0 q-47 0 -62 37 l0 10 l9 17 l45 -8 l16 0 q97 0 537 86 l18 -27 Z" /><glyph glyph-name="uni4E0D" unicode="&#x4e0d;" d="M639 721 l25 0 q22 -2 22 -20 l0 -23 q0 -47 -190 -282 q24 -54 24 -210 l0 -258 q0 -14 -36 -35 l-9 0 q-10 0 -30 33 q10 94 10 135 l-6 289 q-189 -168 -287 -186 q-41 16 -45 35 l0 31 q2 20 20 20 l9 0 q22 -16 32 -16 q297 182 422 422 q-205 -52 -282 -52 l-50 0 q-14 0 -36 33 l0 17 q2 20 20 20 l10 0 l23 -16 l354 63 ZM598 377 q129 0 244 -150 l0 -34 q0 -13 -29 -29 q-79 68 -174 143 q-102 21 -102 43 q0 13 27 27 l34 0 Z" /><glyph glyph-name="uni4E0E" unicode="&#x4e0e;" d="M439 760 q12 0 24 -24 l0 -33 q0 -74 -6 -105 l8 0 q291 54 312 54 l8 -17 l0 -16 q0 -35 -318 -84 l-24 0 q0 -12 -48 -148 l7 0 q180 58 344 82 q41 0 65 -41 l0 -32 q-86 -474 -153 -474 l-23 0 q-76 0 -145 180 l16 7 q94 -84 137 -113 q113 299 113 408 l-10 0 q-101 -17 -375 -82 q-49 6 -49 49 q110 336 110 389 l7 0 ZM580 256 q33 -12 33 -24 l0 -25 q0 -21 -273 -49 l-111 -8 q-57 12 -57 34 q0 35 408 72 Z" /><glyph glyph-name="uni4E11" unicode="&#x4e11;" d="M717 697 q33 -17 33 -41 q-39 -361 -86 -576 l76 0 q143 0 143 -33 l0 -24 q0 -13 -33 -25 q-57 16 -196 23 q-449 -31 -453 -31 q-41 6 -41 26 q0 29 235 48 l0 6 q0 6 -8 22 q15 137 15 203 l-6 0 q-87 -16 -125 -16 l-31 0 q-13 0 -25 24 l0 10 q0 15 189 48 q12 0 22 231 l-76 0 q-73 0 -112 54 l0 26 q2 17 18 17 q39 -39 101 -39 q32 0 329 47 l31 0 ZM477 547 q0 -55 -8 -170 q133 31 191 31 l0 6 q8 113 31 225 l-5 0 q-14 0 -209 -39 l0 -53 ZM545 80 l45 0 q55 242 55 268 q-176 -32 -176 -53 q-8 -29 -16 -223 l92 8 Z" /><glyph glyph-name="uni4E13" unicode="&#x4e13;" d="M484 785 q30 -4 39 -133 l0 -31 q100 8 104 8 q31 -12 31 -24 q0 -19 -142 -46 l-32 -164 l8 0 q287 70 334 70 q16 -2 16 -16 l0 -15 q0 -34 -365 -102 q-26 -61 -41 -125 q209 70 238 70 q14 0 25 -23 l0 -8 q0 -35 -144 -250 q47 0 119 -70 l0 -24 q0 -15 -16 -15 l-15 0 l-286 117 q-17 0 -17 16 q2 15 17 15 l32 0 l95 -8 q79 94 120 164 l-8 0 q-160 -62 -207 -62 q-32 31 -32 47 q16 90 39 140 l-56 -7 l-39 0 q-119 7 -119 46 l0 24 q66 -16 111 -16 q135 0 135 63 l19 129 q-138 11 -138 43 l0 7 q2 16 15 16 q43 0 137 -8 q8 78 8 117 l0 40 q2 15 15 15 Z" /><glyph glyph-name="uni4E14" unicode="&#x4e14;" d="M648 736 q0 -11 24 -23 q-8 -285 -8 -408 l0 -133 l8 -76 l115 0 q45 0 57 -33 l0 -16 q0 -14 -26 -26 l-15 0 q-57 0 -86 8 q-293 -23 -430 -23 l-47 0 q-80 10 -80 33 l0 16 l8 17 l80 -8 l16 0 l37 8 q15 287 15 405 q0 13 -7 185 q-59 29 -63 49 q2 18 18 18 q82 -24 101 -24 l78 0 q28 0 205 31 ZM359 646 l8 -91 l0 -61 q219 -6 219 -41 l0 -23 q0 -45 -121 -168 q98 29 133 29 q6 104 15 379 q-125 -24 -162 -24 l-92 0 ZM367 443 l8 -76 l0 -113 q53 47 152 168 l0 6 l-160 15 ZM387 186 q0 15 -12 15 l0 -129 q88 16 215 16 l8 14 l0 130 q-159 -46 -211 -46 Z" /><glyph glyph-name="uni4E16" unicode="&#x4e16;" d="M426 732 l8 0 q43 0 89 -228 l16 0 q127 0 127 29 l39 137 l-8 14 q2 17 18 17 q27 -8 27 -47 l0 -15 q0 -39 -23 -119 l4 0 q52 0 162 7 l17 -23 l0 -18 q0 -31 -209 -47 l-80 -191 q98 37 129 37 l0 -17 q-68 -84 -211 -123 l-25 0 q-26 7 -26 46 l0 32 q0 64 -7 201 l-39 0 l-47 0 l-8 -96 q0 -117 -16 -308 l6 0 q274 60 426 60 l18 0 q11 0 25 -25 l0 -8 q0 -26 -356 -70 q-43 -22 -113 -22 l-8 0 q-66 6 -66 55 q23 228 23 295 l0 111 l-37 -6 l-105 0 q-82 10 -82 31 l0 34 q60 -8 66 -8 q65 0 151 13 q-16 71 -41 145 l19 8 l8 0 q33 0 74 -139 l47 -6 q37 0 37 14 q-21 133 -49 221 l20 9 ZM533 432 q16 -51 16 -147 q10 2 84 151 l0 3 l-6 0 q-12 0 -94 -7 Z" /><glyph glyph-name="uni4E18" unicode="&#x4e18;" d="M623 693 l0 -9 q0 -55 -262 -90 l-4 0 l0 -2 l39 -170 q153 0 374 57 l17 -28 l0 -17 q0 -34 -133 -49 q16 -145 16 -315 l184 0 q13 0 27 -25 l0 -18 q0 -13 -35 -27 q-360 -8 -555 -8 l-125 0 q-20 0 -20 20 q0 33 172 51 q16 167 16 222 q0 301 -35 301 q-100 0 -113 70 q7 0 7 10 l82 -10 l47 0 q53 0 291 57 l10 -20 ZM396 359 l0 -222 l-7 -74 l211 0 q0 58 7 105 q-7 88 -7 199 q-102 -8 -153 -8 l-51 0 Z" /><glyph glyph-name="uni4E1A" unicode="&#x4e1a;" d="M533 768 l8 0 q51 0 70 -692 q-7 0 -7 -4 l5 0 q108 8 133 8 q156 0 156 -41 l0 -8 q0 -10 -33 -33 q-43 8 -62 8 q-215 0 -690 -31 l-8 17 l0 8 q0 25 256 57 l0 6 q16 248 16 269 q0 162 -31 373 l15 8 q63 0 73 -318 l0 -186 q0 -86 -14 -145 l59 0 l52 8 l0 129 q0 45 8 55 q0 6 -8 45 q-8 303 -8 433 q-7 16 -7 26 l17 8 ZM773 504 q12 0 24 -24 l0 -15 q0 -133 -164 -274 l-18 10 q129 293 141 303 l17 0 ZM193 428 q110 -100 110 -235 q-22 -17 -26 -17 l-15 0 q-22 0 -71 185 q-9 0 -31 41 l0 8 q2 18 18 18 l15 0 Z" /><glyph glyph-name="uni4E1B" unicode="&#x4e1b;" d="M635 729 q25 0 25 -81 q0 -121 -47 -212 q262 -143 262 -282 q-12 -31 -25 -31 l-8 0 q-16 4 -98 145 q-101 103 -146 103 q-90 -236 -168 -232 l-10 0 q-18 0 -18 17 l0 16 l57 76 l0 4 q-37 2 -127 184 q-10 -2 -68 -159 q-76 -131 -121 -129 q-34 14 -34 26 l0 39 l10 17 l16 -7 q138 140 185 427 q6 86 26 86 q25 -9 25 -48 q20 -59 -27 -196 q113 -107 142 -197 l4 0 q57 101 57 117 q-18 0 -18 18 l0 9 q41 14 65 114 q21 177 41 176 ZM715 57 q98 -6 98 -39 l0 -24 q0 -12 -26 -23 q-68 19 -80 21 q-305 18 -486 -25 l-16 25 l0 10 q86 82 502 55 l8 0 Z" /><glyph glyph-name="uni4E1C" unicode="&#x4e1c;" d="M396 787 q71 -16 67 -144 l8 0 l293 39 l17 -24 l0 -8 q0 -43 -322 -68 q-14 -82 -80 -256 l8 0 q103 33 103 98 l0 29 l-8 76 l16 8 l10 0 q25 -4 35 -49 l6 -82 l176 76 l13 -21 q-31 -39 -197 -135 l0 -342 q0 -39 -33 -52 q-59 0 -112 136 q-35 57 -93 106 l-10 0 l0 -8 q-22 -170 -102 -182 l-9 0 q-45 0 -51 24 l0 23 q2 14 17 14 q18 -8 26 -8 q51 53 86 182 l25 0 l188 -188 l0 6 q9 160 9 258 l-9 0 q-94 -45 -137 -53 q-43 12 -43 53 q86 215 102 289 q-178 25 -178 66 q2 16 17 16 q90 -23 170 -23 l0 23 q0 72 -33 105 q2 16 16 16 l9 0 ZM680 258 q179 -123 179 -235 l0 -31 q0 -13 -17 -13 l-26 0 q-13 0 -111 195 q-53 53 -53 76 q18 8 28 8 Z" /><glyph glyph-name="uni4E1D" unicode="&#x4e1d;" d="M635 773 q45 -25 45 -85 l0 -53 q0 -74 -92 -201 l31 0 q33 0 84 7 q55 -13 55 -31 l0 -15 q0 -32 -123 -170 l0 -8 q123 54 178 54 l7 -15 q-95 -94 -216 -110 q-47 8 -47 24 l0 23 q0 47 131 186 l-8 0 q-100 -8 -162 -8 l-16 24 l0 23 q141 164 141 256 l-24 92 l16 7 ZM324 750 q47 -16 47 -76 q0 -84 -94 -233 l0 -7 l8 0 q92 31 141 31 l8 0 q15 -2 15 -16 l0 -15 q0 -26 -117 -178 l0 -8 q92 59 147 68 l7 0 l0 -7 q-187 -202 -246 -202 l-8 0 q-15 4 -31 39 q20 59 147 241 l-8 0 q-86 -39 -147 -39 q-15 0 -15 15 l0 16 q0 14 123 217 l23 92 l-23 39 l0 7 q0 16 23 16 ZM828 47 l0 -16 q0 -45 -433 -62 l-55 0 q-147 0 -147 31 l0 8 q0 15 24 15 q205 0 596 47 l15 -23 Z" /><glyph glyph-name="uni4E22" unicode="&#x4e22;" d="M344 746 q181 -62 314 -62 l8 -16 q-18 -45 -109 -45 l-39 0 l7 -74 l0 -16 l141 24 l16 -24 l0 -15 q0 -24 -157 -47 l0 -104 l8 0 l315 55 q15 -2 15 -16 l0 -23 q0 -41 -394 -92 l0 -16 q0 -87 -86 -224 l8 0 l244 99 q-31 55 -31 79 q1 15 15 15 l16 0 q111 -96 111 -264 l0 -15 q0 -41 -23 -47 l-24 0 q-21 0 -41 180 l-15 6 q-164 -112 -299 -131 l-31 0 q-12 0 -24 31 q0 19 117 201 q24 74 24 78 l-8 0 q-43 -8 -70 -8 l-96 0 q-102 16 -102 45 l0 8 l8 16 q67 -16 78 -16 q31 0 221 24 l0 113 l-55 -8 l-47 0 q-41 0 -46 22 l0 7 q0 28 148 32 l0 54 l8 59 q-145 51 -156 92 l0 7 q1 16 15 16 l16 0 Z" /><glyph glyph-name="uni4E24" unicode="&#x4e24;" d="M342 738 q64 -8 78 -15 q2 0 2 7 q88 -15 193 -15 l45 0 q43 0 57 -35 q0 -30 -76 -41 l0 -102 q134 8 199 8 q49 -4 49 -27 l0 -8 q-39 -584 -110 -584 l-13 0 q-36 0 -227 232 q12 0 12 8 q90 -27 209 -141 l2 0 q29 120 29 129 l-10 -4 l-17 0 q-147 178 -157 178 l-5 0 q-51 -193 -131 -193 q-14 0 -26 25 l0 20 q37 31 61 76 l0 2 q-10 0 -90 94 l-2 0 q-55 -217 -143 -217 l0 -114 q0 -42 -25 -48 l-17 0 l-26 17 q0 299 -53 553 l20 10 q41 -22 41 -55 q189 0 189 20 q6 33 6 142 q-52 0 -82 51 l18 27 ZM475 645 q0 -20 -14 -131 q127 0 127 43 l0 70 l6 12 l-47 6 l-72 0 ZM633 475 q0 -36 -14 -88 q180 -131 180 -205 l0 0 l37 302 l-12 6 q-172 -15 -191 -15 ZM438 404 q15 0 95 -84 l4 0 q35 119 35 147 l-2 0 q-125 -18 -125 -20 l-7 -43 ZM234 443 l0 -4 q30 -183 30 -248 q43 22 119 252 l-84 -7 l-16 0 l-49 7 Z" /><glyph glyph-name="uni4E25" unicode="&#x4e25;" d="M754 729 q12 0 23 -22 l0 -8 q0 -33 -187 -58 q8 -100 8 -147 l0 -53 q31 22 90 155 l25 0 q16 0 16 -14 l0 -16 q-10 -91 -122 -205 l0 -7 q6 7 196 29 l8 -14 l0 -15 q0 -43 -409 -75 l-48 0 l0 -50 q-24 -305 -98 -334 l-39 0 q-26 7 -26 44 l0 6 q45 24 65 104 q33 92 58 230 q-82 10 -82 30 l0 7 q2 16 16 16 l147 0 l0 8 q25 160 25 213 l0 74 q0 8 -147 35 q-33 24 -33 29 q0 12 26 24 q97 -24 177 -24 l41 0 q104 0 270 38 ZM469 633 l15 -96 q-7 -101 -23 -197 l16 0 l56 6 q8 99 8 148 l0 139 l-72 0 ZM273 604 q47 0 90 -200 q-13 -29 -25 -29 l-8 0 q-27 0 -74 221 l17 8 Z" /><glyph glyph-name="uni4E2A" unicode="&#x4e2a;" d="M514 771 q19 -3 19 -19 q0 -39 -37 -137 q113 -25 352 -228 l7 -43 l-27 -18 l-25 0 q-203 195 -334 242 q-153 -240 -252 -269 l-18 0 q-41 21 -41 66 q8 49 28 49 l11 0 q0 -16 12 -43 q187 149 285 373 q0 27 20 27 ZM482 484 q43 0 43 -474 q0 -160 -43 -160 l-7 0 l-26 17 q8 248 8 365 l0 225 q0 14 25 27 Z" /><glyph glyph-name="uni4E2D" unicode="&#x4e2d;" d="M510 805 q33 0 41 -153 q2 -72 0 -80 q174 35 232 35 l16 0 q12 0 23 -25 l0 -16 q-4 -128 -271 -318 q4 -119 2 -174 l-2 -119 q-4 -88 -28 -88 l-23 0 q-25 0 -27 135 l6 207 q-79 -39 -145 -39 q-2 -41 -25 -41 l-16 0 q-18 0 -45 103 q2 16 16 16 q-10 201 -45 367 l15 8 l8 0 q43 -72 135 -72 l31 0 l80 8 l6 230 q2 16 16 16 ZM549 506 q-2 -121 -4 -170 l8 0 q162 123 203 199 l0 8 l-207 -37 ZM295 504 q35 -180 33 -264 l16 0 q144 33 144 65 l0 15 q2 55 -2 176 l-72 -10 q-33 0 -119 26 l0 -8 Z" /><glyph glyph-name="uni4E30" unicode="&#x4e30;" d="M490 809 q24 -49 24 -166 l0 -4 q152 31 185 31 l8 -20 l0 -23 q0 -33 -186 -59 l0 -107 q120 23 145 23 q18 -4 18 -19 l0 -16 q0 -43 -163 -66 l0 -100 q73 0 282 76 q29 0 29 -35 q0 -66 -303 -111 l0 -67 q0 -87 8 -232 l-25 -18 l-18 0 q-37 0 -41 159 l0 142 q-31 0 -176 -15 q-103 13 -103 43 l0 23 q2 20 21 20 l22 -16 l15 0 q110 0 221 21 q8 75 8 110 l-4 0 q-137 8 -137 43 l0 8 q2 19 20 19 l121 0 l0 104 q0 11 -12 11 l-47 0 q-109 0 -150 57 l0 10 q2 19 19 19 q57 -15 108 -15 l82 0 l0 119 q6 51 29 51 Z" /><glyph glyph-name="uni4E32" unicode="&#x4e32;" d="M498 760 q22 0 29 -123 q94 23 157 23 q37 -6 37 -23 l0 -16 q0 -58 -186 -189 l0 -92 l8 0 q193 39 232 39 l16 0 q12 0 23 -24 l0 -7 q-19 -108 -271 -244 l0 -129 q0 -131 -31 -131 l-14 0 q-23 8 -23 47 l0 175 l-8 0 q-76 -39 -125 -39 q0 8 -8 8 q0 -12 -21 -23 l-24 0 q-19 0 -70 304 l15 8 l16 0 q21 -19 92 -21 q76 6 140 21 l0 84 q-70 -15 -101 -15 l-39 7 q0 -52 -24 -52 l-13 0 q-12 0 -24 23 l0 76 q0 108 -23 213 l15 8 l8 0 q8 0 45 -55 l8 0 q62 0 141 16 l0 107 q0 12 23 24 ZM535 516 q53 21 110 91 q-110 -15 -110 -31 l0 -60 ZM373 561 q-14 7 -39 7 l-8 0 q16 -45 16 -113 l39 0 q101 0 101 61 l0 45 l-7 15 l-102 -15 ZM535 271 l8 -91 l0 -8 l8 0 q82 41 185 144 l0 8 l-201 -53 ZM289 256 l37 -168 q149 23 149 68 q7 67 7 100 l-7 0 q-53 -8 -86 -8 l-84 0 l-16 8 Z" /><glyph glyph-name="uni4E34" unicode="&#x4e34;" d="M502 752 q18 0 25 -64 q-7 -14 -7 -32 l0 -27 l222 0 q61 0 72 -33 l0 -16 l-9 -17 q-92 7 -133 7 l-168 0 l0 -4 q92 0 209 -148 l0 -8 q-12 -33 -25 -33 l-8 0 q-94 86 -186 146 l-6 0 q-45 -130 -78 -130 l-23 0 q-18 0 -18 17 q70 145 100 240 q4 102 33 102 ZM285 717 q49 0 49 -697 q-10 -96 -41 -96 q-33 12 -33 25 l0 155 q0 181 8 302 q-8 80 -8 278 l0 15 q2 18 17 18 l8 0 ZM154 586 l8 0 q41 0 41 -172 l0 -141 q0 -41 -33 -54 l-8 0 q-14 0 -25 23 q0 55 8 203 q-8 90 -8 131 l17 10 ZM834 389 q33 -12 33 -57 q-39 -389 -78 -389 l-41 0 l-107 123 q-118 -52 -180 -52 q0 15 -14 15 l-6 0 q0 -39 -23 -39 q-14 0 -33 31 l0 149 q0 41 -16 164 l16 8 l10 0 q11 0 23 -22 l14 6 q93 0 402 63 ZM629 293 q6 -76 6 -115 l0 -53 l37 8 l16 0 q13 0 27 -28 q-14 0 -24 -19 q12 0 65 -37 q55 197 55 281 l-6 0 l-176 -37 ZM436 275 q13 -74 13 -152 l0 -64 q14 11 121 43 l0 173 l-134 0 Z" /><glyph glyph-name="uni4E38" unicode="&#x4e38;" d="M395 777 l7 0 q22 0 22 -86 l0 -115 l240 55 l16 0 q31 -16 31 -39 q-23 -199 -100 -580 l6 0 q194 123 194 224 q-22 39 -22 61 l16 8 q68 -10 68 -69 l0 -23 q0 -113 -232 -279 l-37 -8 l-8 0 q-63 4 -63 62 q115 492 115 580 q-230 -47 -230 -62 q-8 -131 -39 -270 q92 -56 92 -109 l0 -16 q0 -13 -16 -13 l-16 0 l-76 68 q-68 -201 -109 -201 l-37 0 q-16 0 -16 15 l0 16 q69 80 100 225 q-104 76 -115 99 l0 16 q2 16 15 16 q33 -12 123 -69 q39 153 39 223 l-117 0 q-115 10 -115 39 l0 16 l15 0 q53 0 92 -8 l133 15 q0 26 16 178 q-8 16 -8 24 l16 7 Z" /><glyph glyph-name="uni4E39" unicode="&#x4e39;" d="M666 721 q51 -22 51 -67 l2 -328 l8 0 q123 -8 123 -49 l0 -7 q0 -22 -30 -22 q-66 16 -95 16 l-8 0 l8 -90 l0 -86 q0 -162 -75 -162 q-183 82 -183 156 q25 0 183 -82 l0 8 q8 131 8 232 l0 30 q-273 -14 -347 -14 l-8 -16 l0 -37 q0 -82 8 -152 q0 -45 -38 -67 q-37 18 -37 75 l0 197 l-13 0 q-104 0 -104 29 q0 22 125 22 l0 289 q0 117 24 117 l5 0 q30 -37 38 -37 l23 0 q158 0 332 45 ZM348 625 l-51 8 l6 -53 l0 -266 q324 16 357 12 l-4 319 q0 15 -15 15 q-145 -35 -241 -35 l-52 0 ZM406 535 q180 -80 186 -101 l0 -16 q0 -12 -24 -22 l-5 0 q-86 0 -178 110 l0 8 q0 11 21 21 Z" /><glyph glyph-name="uni4E3A" unicode="&#x4e3a;" d="M463 818 l25 0 q0 -19 8 -31 q43 -27 -17 -287 q263 47 318 47 q31 0 49 -31 l0 -18 q0 -47 -141 -533 q-25 -41 -62 -41 q-61 0 -127 176 l19 0 l100 -86 q25 0 123 402 q15 51 15 59 l-5 0 q-168 -18 -305 -51 q-76 -453 -154 -453 l-32 0 q-31 13 -31 58 q8 0 8 8 l17 -8 q42 0 129 391 l-129 0 q-97 0 -111 64 q18 8 26 8 q25 -13 46 -13 l131 0 q53 0 53 27 l47 312 ZM217 625 q154 -43 179 -70 q0 -14 -25 -28 l-47 0 q-133 32 -133 73 q0 11 26 25 ZM525 354 q75 0 157 -102 l0 -57 l-34 0 q-84 84 -164 118 l0 15 q0 20 41 26 Z" /><glyph glyph-name="uni4E3B" unicode="&#x4e3b;" d="M385 756 l8 0 q97 -96 220 -96 l10 -15 l0 -8 q-14 -33 -57 -33 l-7 0 q-200 25 -200 136 l26 16 ZM732 557 l0 -24 q0 -35 -220 -49 l15 -181 l135 23 q31 -12 31 -23 l0 -16 q0 -27 -166 -49 l0 -174 l24 0 q66 0 293 8 l25 -31 l0 -8 q0 -41 -238 -41 l-295 0 q-41 0 -135 -8 l-8 18 q0 55 215 55 l55 0 l0 173 l-96 -7 q-60 0 -70 33 q0 25 166 39 l0 166 l8 16 l-112 0 q-101 0 -127 48 l0 8 l8 16 l57 -8 l31 0 q104 0 397 31 l7 -15 Z" /><glyph glyph-name="uni4E3D" unicode="&#x4e3d;" d="M748 719 l0 -8 q0 -57 -357 -57 q-157 4 -157 34 l0 7 q0 18 26 18 q138 0 472 31 l16 -25 ZM189 582 q41 -47 55 -47 q188 24 217 24 l16 -26 l0 -504 q0 -43 -39 -62 l-16 0 q-61 0 -151 156 l18 10 q41 -16 117 -78 l6 0 q8 164 8 246 l0 107 l8 92 q-131 -16 -176 -16 l-29 0 q0 -4 7 -4 q8 -197 8 -310 l0 -63 q0 -117 -33 -117 l-16 0 l-25 16 q8 207 8 326 l0 8 q0 70 -8 201 q10 41 25 41 ZM809 566 q11 0 25 -25 l0 -271 q0 -334 -49 -334 l-23 0 q-49 0 -141 140 l8 18 q55 -22 117 -78 l6 0 q31 166 31 371 l0 127 q-49 -14 -144 -30 l-47 8 l-14 0 l0 -13 q0 -153 24 -458 q-10 -46 -26 -46 l-23 0 q-26 0 -26 86 l0 472 q0 12 26 26 l23 -16 l69 0 q146 23 156 23 l8 0 ZM258 381 q135 -53 135 -113 l-18 -8 l-16 0 q-74 0 -119 111 l18 10 ZM654 357 q20 0 102 -93 l0 -10 q0 -18 -18 -18 l-31 0 q-78 61 -78 104 q0 17 25 17 Z" /><glyph glyph-name="uni4E3E" unicode="&#x4e3e;" d="M445 764 l8 0 q57 0 72 -166 l6 0 q94 74 147 150 l10 0 q19 -2 19 -16 l0 -29 q0 -55 -144 -164 l3 0 q112 8 182 8 q20 -2 20 -18 l0 -21 q0 -24 -92 -24 q150 -132 150 -193 l0 -21 q0 -12 -27 -24 l-18 0 q-78 123 -172 217 q-27 8 -27 14 q-111 -14 -162 -14 q-51 -131 -215 -231 l-35 0 q-14 0 -37 30 l0 23 q2 16 19 16 q16 -8 34 -8 q115 90 162 158 l0 4 l-135 0 q-47 0 -55 24 l0 7 q0 16 295 45 q16 18 16 20 q-16 8 -43 205 l19 8 ZM238 721 q106 0 158 -162 l0 -14 q0 -18 -19 -18 l-18 0 q-13 0 -88 123 q-15 0 -52 53 q2 18 19 18 ZM523 438 q28 -4 28 -59 l0 -14 l8 0 q121 -4 121 -29 l0 -8 q0 -12 -28 -23 l-101 0 l0 -82 q178 13 258 13 l9 -15 l0 -24 q0 -29 -267 -37 l-8 -14 l0 -193 q0 -58 -45 -74 q-19 0 -37 45 q8 158 18 221 q-129 -6 -188 -6 l-70 0 q-20 0 -20 15 l0 8 q0 22 278 53 l0 98 q-122 7 -122 29 l0 8 q6 23 71 23 l17 0 l41 -6 q0 71 28 71 l9 0 Z" /><glyph glyph-name="uni4E43" unicode="&#x4e43;" d="M180 719 q78 -26 172 -31 q25 0 312 29 l18 -26 l0 -7 q0 -18 -118 -205 q-23 -45 -23 -63 q33 -35 182 -35 l78 0 q13 0 35 -33 q-113 -387 -182 -387 q-72 0 -199 215 l22 12 q58 -38 169 -141 q59 84 118 273 l-26 0 q-258 0 -258 102 q0 57 112 228 l0 0 q-139 -15 -197 -15 l0 -4 q-36 -625 -120 -625 l-17 0 q-41 25 -41 58 l19 10 l14 -6 q61 213 90 567 l-18 0 q-113 0 -152 62 l10 22 Z" /><glyph glyph-name="uni4E45" unicode="&#x4e45;" d="M455 795 q10 -18 10 -25 l-98 -299 q16 0 266 84 l17 0 q18 -2 18 -18 l0 -23 q0 -24 -105 -200 q93 -48 253 -287 l8 -47 l0 -7 q0 -12 -25 -26 l-20 0 q-199 295 -234 324 q-170 -285 -246 -285 l-33 0 q-41 0 -51 112 l19 9 q0 -13 49 -46 l6 0 q174 162 283 412 q-154 -69 -232 -69 l-8 0 q-14 0 -35 32 l0 25 q0 57 148 334 l10 0 Z" /><glyph glyph-name="uni4E48" unicode="&#x4e48;" d="M473 688 q19 -2 19 -22 l-2 -16 q-17 -166 -232 -361 l-33 0 q-16 0 -28 29 l2 28 q74 37 112 92 q76 89 150 250 l12 0 ZM629 645 q27 -10 23 -53 l-4 -47 q-19 -184 -228 -445 l0 4 q221 97 275 97 l2 2 q0 18 -25 147 q6 21 23 21 l18 0 q94 -111 70 -355 l-4 -39 q-2 -14 -31 -28 l-16 0 q-33 0 -25 209 l0 0 q-256 -154 -357 -154 l-24 0 q-13 0 -25 27 l2 18 q2 19 164 250 q137 224 148 346 l14 0 Z" /><glyph glyph-name="uni4E49" unicode="&#x4e49;" d="M691 797 q22 -2 22 -20 q-8 -127 -154 -486 q238 -219 238 -303 l0 -15 q0 -14 -33 -28 q-24 0 -82 112 q-61 82 -159 166 q-103 -200 -216 -200 q-55 0 -90 82 l23 14 q0 -23 67 -33 q56 0 158 197 l0 6 q-149 139 -256 215 q2 21 20 21 l23 0 q59 0 254 -173 q72 166 168 435 l17 10 ZM383 711 q76 -18 166 -141 l0 -33 q0 -19 -26 -19 q-23 0 -168 158 l0 8 q0 15 28 27 Z" /><glyph glyph-name="uni4E4B" unicode="&#x4e4b;" d="M607 623 l6 -16 q-6 -23 -45 -23 q-125 0 -216 100 l0 15 q0 16 23 16 l232 -92 ZM637 529 q31 -11 31 -23 l0 -8 q-70 -170 -293 -340 l-8 -15 q321 -45 502 -61 l8 -16 q-43 -39 -92 -39 q-275 0 -658 123 l0 8 q2 16 16 16 l7 0 q43 0 108 -8 q101 0 318 287 l0 8 q-101 -23 -201 -23 q-76 0 -102 46 l0 6 q2 16 16 16 q51 -16 102 -16 q86 0 246 39 Z" /><glyph glyph-name="uni4E4C" unicode="&#x4e4c;" d="M516 758 l0 -22 q0 -23 -139 -54 q10 -36 19 -36 q34 0 225 28 q27 0 27 -31 q-15 -288 -29 -321 q115 8 172 8 q51 -19 51 -55 q-92 -357 -182 -357 l-8 0 q-56 0 -152 133 l0 19 l12 0 q35 0 138 -78 q121 178 121 279 l-3 0 q-176 -13 -455 -58 l-18 0 q-25 10 -25 49 q44 252 68 412 l-49 -8 l-23 0 q-59 0 -59 51 l18 8 l33 0 q41 0 248 50 l10 -17 ZM385 596 q0 -12 -45 -317 q129 30 185 30 q-64 66 -103 127 l19 9 q45 -11 116 -62 q29 154 29 234 l-4 0 q-55 -21 -154 -21 l-43 0 ZM633 125 l0 -16 q0 -13 -28 -25 q-283 -14 -394 -14 l-8 0 q-19 0 -19 18 l0 8 q0 41 431 54 l18 -25 Z" /><glyph glyph-name="uni4E4E" unicode="&#x4e4e;" d="M678 730 l0 -7 q0 -30 -155 -57 q24 -59 34 -203 q62 41 117 168 l10 0 q13 0 27 -26 l0 -15 q0 -88 -152 -223 l13 -6 q192 14 258 14 l10 -16 l0 -15 q0 -49 -274 -49 l0 -270 q0 -125 -78 -125 q-99 0 -217 194 l0 11 l20 0 q168 -125 188 -125 q15 0 15 307 q-72 0 -170 -8 q-97 8 -172 24 l0 17 q0 18 325 39 q0 22 25 39 q-10 268 -39 268 q-45 -8 -53 -8 q-121 16 -121 49 l18 25 l60 -7 q63 0 301 23 l10 -18 ZM281 607 l10 0 q53 0 78 -195 q-14 -33 -27 -33 l-18 0 q-13 0 -27 25 l0 24 q0 60 -33 172 l17 7 Z" /><glyph glyph-name="uni4E50" unicode="&#x4e50;" d="M287 730 q125 -15 174 -15 l96 0 q37 0 97 8 q35 -14 35 -28 q0 -39 -183 -49 q-238 18 -238 57 l0 10 q2 17 19 17 ZM330 650 q29 0 29 -80 q0 -80 -27 -236 l172 55 l0 140 q2 18 17 18 q38 0 38 -96 l0 -37 q89 39 164 39 l11 0 l0 -19 q-39 -43 -175 -104 l0 -291 q0 -94 -45 -105 l-18 0 q-49 17 -166 246 l-6 0 q-17 -106 -105 -182 l-63 0 q-19 0 -19 18 l0 15 q88 45 88 65 q25 37 60 166 l18 0 l0 4 q-35 0 -35 27 l0 23 q35 209 35 254 l0 55 q0 14 27 25 ZM326 260 q31 -31 154 -235 l6 0 q18 176 18 260 l0 28 q-102 -42 -178 -53 ZM662 270 q102 0 203 -182 l8 -49 l0 -23 q0 -18 -19 -18 l-10 0 q-33 18 -114 174 q-9 0 -87 80 q2 18 19 18 Z" /><glyph glyph-name="uni4E54" unicode="&#x4e54;" d="M629 719 q0 -28 -147 -63 q0 -13 -31 -142 q242 47 293 47 q16 -2 16 -16 l0 -8 q0 -35 -147 -55 l0 -7 q244 -104 244 -205 l-23 -18 l-18 0 q-103 127 -162 135 l0 -8 q14 0 24 -418 q-10 -80 -32 -80 l-17 0 q-12 0 -24 23 l0 73 q0 84 8 134 q-8 57 -8 141 l0 96 q0 95 -64 119 q-146 0 -146 -65 q25 0 31 -101 l0 -96 q-14 -174 -57 -174 l-33 0 q-12 0 -23 24 l0 8 q56 64 56 222 l0 78 l-8 0 q-33 -82 -131 -150 l-41 0 q-15 0 -15 16 l0 7 q146 125 172 215 l-59 0 q-43 0 -57 31 q2 16 18 16 l16 0 q41 0 121 8 q58 142 58 150 l-48 0 q-65 0 -90 47 l0 8 q2 16 15 16 q65 -6 65 -16 q195 31 228 31 l16 -23 Z" /><glyph glyph-name="uni4E58" unicode="&#x4e58;" d="M375 758 q35 -22 82 -22 q145 6 182 6 l7 -13 l0 -8 q0 -22 -74 -37 l-41 0 l0 -94 l231 29 l9 0 q16 -2 16 -15 l0 -14 q0 -29 -248 -59 l0 -345 l8 0 q2 29 33 29 q96 0 297 -184 q10 -11 10 -29 l0 -8 q0 -14 -18 -14 l-33 0 q-229 198 -289 198 l0 -248 q0 -12 -31 -30 l-26 0 q-27 0 -49 88 q14 6 32 6 l0 176 l-8 0 q-127 -190 -223 -190 q-33 10 -33 22 l0 16 l92 50 q90 86 90 96 l0 6 q-26 0 -26 16 l0 80 q-103 -73 -148 -73 l-8 14 l0 16 q20 27 156 101 q10 14 10 30 l0 44 l-10 0 q-88 -29 -138 -29 q-18 0 -18 14 l0 8 q0 9 166 66 q0 37 16 37 l7 0 q43 -21 43 -45 l-17 -29 q0 -25 17 -176 l8 0 q33 51 33 162 l0 117 l-84 -7 l-89 0 q-108 5 -108 29 q2 16 16 16 q265 5 265 29 l0 88 l-9 0 q-123 8 -123 43 l0 15 q0 10 25 22 ZM613 523 q26 0 33 -82 l67 45 l16 0 q17 0 17 -21 q-2 -22 -92 -82 q0 -37 26 -65 q60 26 133 73 l15 0 q-33 -139 -133 -139 l-23 0 q-76 0 -92 125 q-8 0 -8 6 l0 8 l18 21 l0 96 q2 15 15 15 l8 0 Z" /><glyph glyph-name="uni4E5D" unicode="&#x4e5d;" d="M387 785 l15 -8 l-23 -191 l262 62 q11 0 23 -23 l0 -16 q-84 -238 -84 -511 l0 -61 q209 149 209 244 l-23 47 l15 6 l16 0 q53 -21 53 -90 q0 -105 -262 -283 l-39 0 q-39 19 -39 60 q31 446 86 557 l-225 -53 q-78 -564 -117 -564 q0 -16 -14 -16 l-31 0 q-23 0 -23 69 q39 0 39 99 q52 215 76 405 l-53 0 q-94 0 -94 31 l0 8 q2 15 16 15 l107 0 q55 0 55 114 q29 99 47 99 l8 0 Z" /><glyph glyph-name="uni4E5F" unicode="&#x4e5f;" d="M418 777 q29 0 37 -185 q174 47 217 47 l16 0 q11 0 31 -32 l0 -15 q-69 -457 -123 -457 l-47 0 q-94 97 -102 156 l-8 0 q0 -61 -29 -70 l-8 0 q-11 0 -23 31 q16 111 16 262 q-104 -16 -110 -16 l8 -29 q0 -434 47 -434 l39 0 q418 70 418 178 q0 19 -8 115 l16 8 q60 -65 60 -147 q0 -142 -470 -224 l-55 0 q-102 0 -102 193 l0 147 q0 66 -6 193 l-15 0 q-78 10 -78 31 l0 24 l93 0 l0 8 q0 19 -7 117 l13 6 l8 0 q22 0 39 -123 l8 0 q31 0 102 15 l0 186 q1 15 15 15 l8 0 ZM455 529 q-8 -115 -8 -170 l0 -39 l125 -107 q41 80 92 371 l-8 0 q-17 0 -201 -55 Z" /><glyph glyph-name="uni4E60" unicode="&#x4e60;" d="M707 711 q63 -12 63 -65 q-24 -375 -32 -658 l-39 -39 l-8 0 q-56 0 -195 201 l0 20 l10 0 q86 -47 162 -125 l6 0 q14 217 29 598 l4 2 q-279 -47 -357 -47 q-79 0 -110 56 l0 16 q2 18 18 18 q41 -32 84 -32 l15 0 q100 0 350 55 ZM326 479 q242 -26 242 -57 q-15 -31 -41 -31 q-224 15 -224 62 q0 14 23 26 ZM670 359 q-213 -205 -336 -232 q-31 12 -31 25 l0 8 q308 219 357 219 l10 -20 Z" /><glyph glyph-name="uni4E61" unicode="&#x4e61;" d="M514 789 l9 0 q28 -8 28 -45 q0 -76 -164 -258 l9 0 q127 37 254 53 q18 53 36 53 q13 0 27 -24 q0 -117 -272 -302 l0 -6 l18 0 l264 74 q29 84 45 84 l7 0 q20 -2 20 -16 l0 -15 q0 -162 -281 -408 q-114 -83 -190 -83 l-10 0 q-62 0 -62 53 l0 8 q2 14 18 14 l37 -14 q105 0 324 234 q55 69 55 75 l-10 0 q-289 -114 -379 -114 q-45 14 -45 47 q0 20 254 188 q90 84 90 92 l-10 0 q-191 -77 -279 -77 l-28 32 l0 7 q0 14 207 264 q0 16 20 53 q-10 15 -10 23 l18 8 Z" /><glyph glyph-name="uni4E66" unicode="&#x4e66;" d="M412 766 q35 0 35 -178 q131 31 172 31 l26 0 q17 -2 17 -17 l0 -24 q0 -45 -139 -176 l4 0 q186 39 258 39 q33 -37 33 -56 q-74 -365 -134 -365 l-26 0 q-82 0 -176 187 q0 10 12 10 q53 -20 164 -115 q90 146 90 281 l-293 -53 q14 -254 14 -379 q-8 -47 -28 -47 l-23 0 q-27 0 -27 86 l2 323 q-123 -14 -149 -14 q-56 0 -84 39 l0 10 l10 15 l43 -8 l16 0 q46 0 164 16 q-8 104 -8 150 l-65 0 q-66 0 -93 49 l0 8 q3 18 19 18 q55 -16 74 -16 l65 0 l8 37 l0 131 q3 18 19 18 ZM686 682 l7 0 q143 -45 143 -106 l-35 -15 q-135 52 -135 111 l20 10 ZM445 428 q112 92 129 125 q-99 -24 -127 -24 l-2 -101 Z" /><glyph glyph-name="uni4E70" unicode="&#x4e70;" d="M281 742 q59 -39 155 -39 l341 39 l18 0 q12 0 25 -31 q-97 -156 -222 -201 l-18 0 q0 45 137 170 q-143 -30 -291 -30 q-162 0 -162 77 q2 15 17 15 ZM555 627 q17 0 17 -23 q0 -98 -68 -288 l299 55 l17 0 q14 0 26 -23 l0 -8 q0 -45 -367 -92 q-94 -279 -190 -279 q-37 0 -43 70 l18 0 l17 -8 q49 63 119 209 l-60 0 q-119 6 -119 39 l0 8 q2 14 17 14 q26 0 59 -8 q146 0 146 47 q84 265 104 287 l8 0 ZM297 564 q162 -50 172 -78 l0 -6 q0 -17 -43 -23 q-155 49 -155 84 l0 8 q2 15 18 15 l8 0 ZM271 418 q172 -29 172 -55 q0 -11 -25 -23 l-18 0 q-111 0 -144 47 l0 15 q2 16 15 16 ZM572 256 q96 0 256 -225 q10 -13 10 -31 l0 -8 q0 -12 -35 -31 l-8 0 q-16 0 -111 146 q-8 0 -129 125 l0 8 q2 16 17 16 Z" /><glyph glyph-name="uni4E71" unicode="&#x4e71;" d="M213 738 q70 -23 211 -47 l8 -17 l0 -16 q0 -19 -20 -19 l-70 0 q13 -32 13 -98 l0 -10 l153 30 l17 -26 l0 -17 q0 -32 -170 -57 l0 -131 q86 29 120 29 q35 -11 35 -27 l0 -39 q-78 -297 -237 -297 l-35 8 q-6 -39 -27 -39 l-8 0 l-35 33 q10 43 10 49 q0 103 -47 303 l17 9 l10 0 q12 0 55 -62 q80 0 80 35 q0 96 6 111 q-84 -5 -125 -5 l-47 0 q-14 0 -27 25 l0 10 q0 13 201 48 l-8 36 l0 84 l-82 43 q-18 0 -18 19 l0 16 q2 19 20 19 ZM590 715 q41 0 51 -197 q-8 -223 -8 -364 q2 -27 12 -27 q130 59 187 162 q-8 0 -29 35 l0 16 q4 19 19 19 l16 0 q45 0 66 -41 l0 -17 q0 -119 -234 -250 l-57 0 q-56 31 -56 95 q23 221 23 295 l0 147 q0 39 -10 119 l20 8 ZM223 232 q15 -39 15 -138 q0 -14 43 -20 q82 31 137 145 q21 43 29 70 l-2 0 q-166 -53 -222 -53 l0 -4 Z" /><glyph glyph-name="uni4E86" unicode="&#x4e86;" d="M348 715 q54 -39 105 -39 l10 0 q74 0 221 8 l9 -18 l0 -16 q0 -21 -132 -218 l0 -39 q115 -55 115 -114 l0 -25 q-57 -318 -160 -318 l-18 0 q-98 0 -178 185 q10 0 10 10 q33 -16 168 -123 q53 0 115 263 q0 8 -115 104 q-10 16 -10 33 q0 65 108 201 l0 10 q-4 0 -116 -10 q-105 0 -150 67 l0 23 q2 16 18 16 Z" /><glyph glyph-name="uni4E88" unicode="&#x4e88;" d="M652 734 q18 -4 18 -17 l0 -33 q-141 -163 -180 -163 l0 -5 q0 -10 61 -53 q205 31 248 31 l25 -41 q0 -43 -125 -125 l-56 -15 l-8 15 q0 14 74 92 l-4 0 q-17 0 -176 -29 q24 -149 24 -286 q0 -187 -86 -187 q-74 0 -211 156 l0 18 l10 0 q172 -94 193 -94 l6 0 q21 74 29 207 q-8 168 -21 184 q-39 -16 -162 -16 l-24 0 q-101 6 -101 33 q0 18 25 18 q62 0 250 23 l-113 106 q2 17 17 17 l8 0 q14 0 68 -21 q92 92 108 92 l0 11 q-90 -15 -145 -15 l-8 0 q-111 0 -111 80 q18 10 28 10 q52 -32 99 -32 q76 8 217 39 l23 0 Z" /><glyph glyph-name="uni4E89" unicode="&#x4e89;" d="M443 859 l8 0 q16 0 28 -27 l0 -31 q0 -67 -36 -135 l0 0 q102 37 164 37 l8 0 q14 0 28 -25 l0 -16 q0 -51 -104 -152 l-2 0 q109 23 154 23 l24 0 q14 0 27 -25 l0 -49 l-8 -49 l36 8 l62 0 q18 -2 18 -20 l0 -15 q0 -29 -131 -43 q-35 -201 -74 -201 l-30 0 q-10 0 -64 62 l-2 0 q15 -187 15 -236 q0 -80 -66 -80 q-94 19 -195 148 l-20 37 q10 0 10 10 q184 -119 201 -119 l0 223 q-125 -30 -174 -30 l-7 0 q-14 0 -28 28 q0 23 201 72 l0 62 q-213 -29 -314 -29 l-18 26 q0 23 325 74 l0 47 q-73 -8 -112 -8 l-31 0 q-43 0 -59 33 l0 21 l82 0 q77 16 198 153 l0 0 q-100 -37 -135 -37 l-31 0 q-14 0 -28 25 l0 18 q71 158 71 183 q-8 16 -8 28 l17 9 ZM525 449 l0 -4 q0 -33 14 -58 q141 11 141 43 l0 49 l-155 -30 ZM541 271 q45 0 80 -37 q6 10 35 106 l-2 0 q-8 -8 -113 -16 l0 -53 Z" /><glyph glyph-name="uni4E8B" unicode="&#x4e8b;" d="M469 809 q15 -2 15 -14 l0 -125 q104 16 131 16 q33 -12 33 -22 l0 -8 q0 -31 -164 -37 l0 -51 q41 16 147 16 q14 0 25 -21 l0 -30 q0 -19 -164 -131 l0 -50 l180 37 l41 0 q12 0 33 -30 q0 -31 -17 -72 l7 0 q45 6 75 6 l15 -22 q0 -29 -121 -56 q-39 -160 -105 -160 q-49 0 -49 29 l-41 -8 l0 -101 q-6 -102 -41 -102 l-33 0 q-45 0 -172 131 l9 14 q69 -20 147 -73 l16 0 l0 110 q-82 -22 -147 -22 q-57 10 -57 30 q0 11 196 42 l8 14 l0 67 q-145 -22 -245 -30 q-89 6 -89 22 q0 25 187 37 q0 8 139 21 l0 43 l-8 0 q-41 0 -98 -8 q-123 16 -123 38 q2 13 16 13 l66 0 q65 0 147 16 l0 43 l-57 -8 l-25 0 q0 -29 -24 -29 l-9 0 q-26 0 -40 168 q-9 0 -33 72 l16 8 l17 0 q36 -37 40 -37 l33 0 l82 8 l0 50 q-213 4 -213 35 l0 8 q2 14 17 14 l196 0 q8 139 33 139 l8 0 ZM484 525 l0 -50 q47 17 98 66 l-98 -16 ZM371 512 l-41 0 q0 -16 16 -88 q82 10 82 29 l0 65 l-57 -6 ZM500 250 q172 0 172 59 q8 11 8 29 q-174 -35 -180 -51 l0 -37 ZM510 135 l23 13 q53 -13 74 -13 q32 56 32 80 q-22 -8 -129 -24 l0 -56 Z" /><glyph glyph-name="uni4E8C" unicode="&#x4e8c;" d="M332 564 q35 0 348 -7 l8 -16 l0 -23 q0 -16 -53 -24 q-350 0 -350 47 q8 23 47 23 ZM828 256 l0 -24 q0 -54 -512 -54 q-138 6 -138 31 l0 8 q2 15 15 15 q442 16 627 39 l8 -15 Z" /><glyph glyph-name="uni4E8E" unicode="&#x4e8e;" d="M326 721 q117 -24 279 -24 l8 0 q47 -4 47 -23 l0 -24 q0 -11 -23 -23 l-94 0 q8 -47 16 -193 l185 46 l16 -23 l0 -23 q0 -34 -201 -71 q15 -261 15 -355 q-8 -92 -62 -92 q-59 0 -194 162 l16 8 l164 -86 l0 8 q6 86 6 148 l0 194 q-137 -16 -162 -16 q-131 14 -131 37 l0 8 q2 16 16 16 l31 0 q138 0 246 31 q-6 105 -6 154 l0 31 l6 16 q-166 0 -193 78 q15 0 15 16 Z" /><glyph glyph-name="uni4E8F" unicode="&#x4e8f;" d="M344 707 l43 -8 l41 0 q68 0 220 8 l18 -25 l0 -16 q0 -25 -92 -25 l-138 0 q-96 0 -110 41 l18 25 ZM764 527 q17 0 17 -25 q0 -47 -336 -104 l0 -13 q0 -69 -39 -155 l4 0 q250 55 313 55 l15 0 q28 -8 28 -49 q-98 -314 -225 -314 l-8 0 q-74 0 -117 127 l20 10 q82 -63 113 -63 q119 96 146 229 q-267 -61 -308 -61 l-26 0 q-13 0 -25 25 l0 24 q64 158 64 178 l-80 -8 l-72 0 q-47 0 -68 31 l0 10 q2 17 17 17 l41 0 q67 0 516 86 l10 0 Z" /><glyph glyph-name="uni4E91" unicode="&#x4e91;" d="M324 693 q74 -25 219 -25 l25 0 q14 0 36 -33 l0 -8 q0 -18 -61 -33 q-244 19 -244 66 l0 16 q0 17 25 17 ZM814 479 l0 -26 q0 -47 -384 -90 l0 -8 q0 -56 -63 -314 q233 166 272 166 l0 8 q0 25 -26 56 l0 10 q0 12 26 24 q131 -94 131 -364 q-18 -37 -36 -41 l-15 0 q-33 0 -63 264 l-8 0 q-212 -213 -314 -213 q-41 16 -45 31 l0 34 q0 27 88 330 l0 9 l-10 0 q-58 -9 -96 -9 l-105 0 q-12 0 -25 25 q0 33 427 74 q200 49 237 49 l9 -15 Z" /><glyph glyph-name="uni4E92" unicode="&#x4e92;" d="M660 723 l10 -16 l0 -16 q0 -43 -264 -54 l0 -112 l-10 -41 l36 0 q205 16 228 16 l10 0 q16 -2 16 -16 l0 -31 q-77 -242 -170 -381 q115 8 170 8 l68 0 q60 0 60 -41 q-13 -31 -27 -31 q-178 0 -459 -16 q-58 8 -170 8 q-33 12 -33 23 l0 8 q0 32 322 41 q0 24 78 166 q-152 -62 -197 -62 l-33 0 q-25 8 -25 47 q85 298 85 414 l-42 0 q-73 0 -102 47 l0 15 q0 16 25 16 q20 -12 92 -24 l332 32 ZM414 430 q-18 8 -25 8 q-18 -106 -43 -192 q113 41 230 72 q51 121 51 135 q-84 -15 -213 -23 Z" /><glyph glyph-name="uni4E94" unicode="&#x4e94;" d="M713 682 l0 -10 q0 -47 -203 -47 l-41 0 l8 -70 q-8 -98 -8 -125 l8 0 q160 15 226 15 q39 -11 39 -54 q0 -82 -88 -286 l96 0 q148 0 148 -31 l0 -23 l-15 -24 q-43 0 -149 8 q-84 0 -580 -23 l-15 23 l0 8 q0 29 228 47 l0 8 q24 160 24 259 q-143 24 -143 88 q22 16 33 16 q53 -31 94 -31 l31 0 q16 125 16 187 q8 0 8 8 q-164 21 -164 47 l0 10 q2 15 15 15 q55 0 229 -8 q39 0 187 16 l16 -23 ZM461 357 q0 -48 -31 -259 l119 0 q47 0 131 275 q-8 0 -8 8 q-147 -16 -211 -16 l0 -8 Z" /><glyph glyph-name="uni4E9A" unicode="&#x4e9a;" d="M746 668 l0 -23 q0 -20 -146 -40 q7 -76 7 -115 l0 -291 l4 0 l116 285 l9 0 q26 0 26 -33 q0 -133 -141 -342 q-21 0 -21 -13 l0 -30 l113 0 q148 0 148 -33 l0 -21 q0 -18 -15 -18 l-24 0 q-95 0 -117 8 q-92 -8 -519 -16 l-8 16 q0 41 209 57 q15 99 15 269 l0 270 l-37 0 q-66 0 -94 47 l0 7 q2 18 18 18 q61 -16 100 -16 q58 0 349 32 l8 -18 ZM496 598 l-43 0 q16 -88 16 -215 l0 -133 q0 -64 -8 -191 l64 0 q24 275 24 431 l0 114 l-53 -6 ZM227 430 q107 0 156 -274 l-26 -15 l-15 0 q-18 0 -78 193 q-8 0 -55 70 l0 10 q2 16 18 16 Z" /><glyph glyph-name="uni4E9B" unicode="&#x4e9b;" d="M301 789 q53 0 66 -256 l4 0 q68 16 102 16 q17 -2 17 -20 l0 -15 q0 -28 -123 -49 l0 -113 q65 35 106 35 l9 0 l0 -14 q-86 -129 -250 -187 l-31 0 q-13 0 -35 50 q16 90 16 131 q-8 104 -8 172 l17 10 l10 0 q37 0 43 -244 l0 -32 q53 24 53 47 q0 24 8 149 q0 6 -8 21 q0 10 8 26 q-8 146 -24 263 l20 10 ZM533 695 q45 0 59 -146 l4 0 q2 0 92 94 l7 0 q20 -4 20 -20 l0 -18 q-22 -44 -123 -138 l0 -45 q8 -106 27 -106 l24 0 q66 0 142 106 l0 16 l-8 41 q18 9 28 9 q35 -13 35 -27 l0 -33 q-63 -188 -221 -188 q-74 0 -90 119 l0 90 q-47 0 -47 28 q0 17 47 25 l0 121 q0 6 -15 65 l19 7 ZM363 178 q18 0 86 -8 q100 8 164 8 l10 -18 l0 -17 q0 -36 -113 -36 l-100 0 q-45 0 -66 36 l0 15 q2 20 19 20 ZM754 27 l0 -15 q0 -59 -406 -59 q-127 16 -127 43 q0 14 25 27 l55 0 q181 0 443 24 l10 -20 Z" /><glyph glyph-name="uni4EA1" unicode="&#x4ea1;" d="M414 727 q195 -84 213 -112 q0 -13 -27 -27 l-8 0 q-164 0 -199 129 l21 10 ZM867 539 l0 -18 q0 -42 -426 -95 q14 -31 14 -98 q0 -90 -14 -262 q6 -15 6 -19 l4 0 l350 99 l27 0 l0 -19 q-80 -96 -351 -150 l-34 0 q-60 0 -72 82 q24 203 24 246 l0 121 l-59 0 q-180 8 -197 49 q2 19 19 19 l147 0 q175 0 545 70 l17 -25 Z" /><glyph glyph-name="uni4EA4" unicode="&#x4ea4;" d="M398 795 q180 -66 180 -94 l0 -8 q0 -11 -33 -23 q-129 31 -172 100 l0 7 q2 18 18 18 l7 0 ZM715 666 q17 -2 17 -18 l0 -15 q0 -45 -355 -70 l0 -4 l8 -16 q-59 -291 -166 -291 l-16 23 l0 26 q86 54 131 219 l8 43 l-53 0 q-78 9 -78 33 l0 8 q2 15 18 15 l62 0 q90 0 424 47 ZM553 553 q197 -80 234 -194 l0 -7 q0 -12 -25 -24 l-16 0 q-117 121 -121 121 q0 -66 -70 -226 q248 -194 248 -266 l0 -8 q0 -17 -18 -17 l-23 0 q-217 236 -241 236 l-5 0 q-121 -221 -248 -221 q-43 0 -49 80 l17 8 l32 -23 q95 17 199 205 l0 6 q-94 45 -94 52 l0 8 q2 18 18 18 l15 0 q20 0 98 -37 l0 6 q55 101 86 210 q-55 26 -55 63 l18 10 Z" /><glyph glyph-name="uni4EA7" unicode="&#x4ea7;" d="M383 793 q201 -68 201 -115 l-23 -16 l-32 0 q-60 0 -170 102 l0 13 q0 16 24 16 ZM715 646 l0 -23 q0 -23 -84 -39 q0 -96 -55 -215 l8 0 l170 22 q31 -12 31 -22 l0 -8 q0 -52 -426 -86 l0 -70 q-29 -324 -123 -324 q-35 15 -39 31 l0 24 q47 25 71 99 q52 164 52 248 l-15 0 q-59 0 -69 31 l0 8 q2 16 16 16 l16 0 q99 0 238 16 q70 193 70 222 q-113 -21 -170 -21 q39 -76 39 -164 q0 -12 -31 -30 q-27 0 -47 162 q-6 20 -107 61 l-8 16 q2 15 16 15 l45 0 q113 0 394 47 l8 -16 Z" /><glyph glyph-name="uni4EAB" unicode="&#x4eab;" d="M352 801 q50 -31 177 -71 l26 -31 q0 -11 -26 -23 l-25 0 q-186 43 -186 94 l0 7 q0 20 34 24 ZM691 660 l59 0 q18 -2 18 -15 q0 -55 -399 -86 q-121 0 -170 62 l0 8 q2 16 18 16 q80 -24 135 -24 l339 39 ZM656 527 l0 -7 q0 -86 -236 -204 q-18 -7 -25 -7 q-67 0 -102 234 l16 8 l9 0 l51 -24 q213 32 262 32 l25 -32 ZM377 480 l0 -7 q18 -69 18 -94 q54 0 185 125 q-115 -24 -168 -24 l-35 0 ZM615 285 q0 -17 -60 -109 q9 0 9 -8 q225 16 272 16 q33 -12 33 -24 l0 -23 q0 -24 -178 -24 l-50 0 l-18 -8 l8 -15 l0 -63 q0 -115 -127 -140 q-143 58 -143 140 l16 8 q117 -78 144 -78 q51 55 51 117 l-17 31 q-139 -15 -389 -15 q-18 0 -18 15 q0 36 340 63 q0 37 41 86 l0 8 q-11 -8 -109 -16 q-94 14 -94 39 q2 16 18 16 l51 0 q50 0 195 15 l25 -31 Z" /><glyph glyph-name="uni4EAC" unicode="&#x4eac;" d="M416 807 q197 -55 213 -77 l0 -7 q0 -12 -24 -24 l-39 0 q-84 0 -166 78 l0 16 q2 14 16 14 ZM756 684 q31 -12 31 -24 l0 -15 q0 -36 -433 -53 q-151 10 -151 37 l0 8 l8 15 l92 -4 q125 6 453 36 ZM322 561 l39 -8 l213 0 q39 0 119 8 l24 -32 q0 -58 -166 -177 l8 -39 l0 -16 q0 -371 -63 -371 l-16 0 q-78 58 -150 217 l0 7 q-12 0 -39 -146 q-31 -39 -64 -39 l-8 0 q-12 0 -24 23 l0 32 q2 13 16 13 l23 0 q24 59 47 217 l18 8 l23 0 l110 -201 q41 -45 48 -45 q32 154 32 316 q-88 -25 -88 -39 q0 -31 -24 -31 q-27 0 -86 287 l8 16 ZM371 494 q45 -127 53 -127 l15 0 q63 0 190 131 l-149 0 q-52 -6 -109 4 l0 -8 ZM629 297 l17 0 q77 0 174 -170 q24 -37 24 -100 l0 -7 q0 -12 -24 -24 l-17 0 q-14 0 -71 154 l-103 123 l0 24 Z" /><glyph glyph-name="uni4EAD" unicode="&#x4ead;" d="M383 822 l8 0 q19 0 172 -86 l0 -9 q0 -12 -26 -26 l-23 0 q-149 31 -149 112 l18 9 ZM740 689 l0 -9 q0 -41 -377 -71 q24 -43 43 -43 q158 16 217 16 q18 0 25 -41 q-56 -115 -226 -180 l-31 0 q-24 0 -65 227 q8 16 8 21 l-14 0 q-90 0 -101 41 q2 18 17 18 l8 0 q113 0 481 45 l15 -24 ZM408 516 q12 -88 20 -88 q76 31 138 99 l0 4 q-39 -15 -158 -15 ZM809 404 l25 -33 q0 -121 -287 -195 l8 -37 l0 -201 q0 -55 -57 -55 q-72 0 -164 213 l18 0 q11 0 140 -133 l4 0 q8 90 8 131 l0 74 q-74 -8 -113 -8 l-55 0 q-41 0 -49 26 q0 13 26 25 l15 0 q47 0 334 47 q0 -8 4 -8 q0 14 76 88 l-4 0 q-320 -68 -418 -68 l-50 13 l0 -4 q13 -31 13 -86 l0 -39 q0 -11 -23 -25 q-33 0 -49 164 q-6 2 -39 70 l0 8 q2 18 17 18 l16 0 q6 0 55 -63 l60 0 q41 0 473 78 l16 0 Z" /><glyph glyph-name="uni4EAE" unicode="&#x4eae;" d="M377 762 q168 -45 168 -63 l0 -15 q0 -6 -24 -24 q-82 0 -169 70 l0 16 q0 16 25 16 ZM666 645 l0 -16 q0 -37 -361 -70 q-73 9 -73 31 l0 8 q2 15 16 15 l16 0 q111 0 386 55 l16 -23 ZM344 551 l25 0 q16 0 16 -24 q47 0 232 16 l8 -16 l0 -7 q-14 -86 -217 -186 q-37 0 -64 201 l0 16 ZM441 480 l-33 0 q12 -70 26 -70 q62 24 103 78 l-96 -8 ZM803 379 q31 -10 31 -22 l0 -39 q-86 -132 -152 -132 l-8 15 q0 14 72 110 l-16 0 q-347 -71 -451 -71 q-15 8 -23 8 l0 -141 q0 -15 -16 -15 l-25 0 q-16 0 -16 15 l0 118 q0 70 -15 132 l15 8 l8 0 q20 -2 49 -78 l547 92 ZM369 209 q24 0 24 -31 q134 31 168 31 q56 0 56 -55 l0 -8 q0 -33 -15 -171 q193 97 193 171 l23 0 q16 -3 34 -39 q0 -93 -258 -203 l-16 0 q-37 16 -41 32 l0 23 q0 29 33 180 q-9 15 -9 23 q-168 -31 -168 -47 l0 -47 q0 -119 -41 -148 l-24 0 q-15 0 -15 16 l0 7 q31 123 48 266 l8 0 Z" /><glyph glyph-name="uni4EB2" unicode="&#x4eb2;" d="M389 758 q181 -37 203 -53 l0 -16 q0 -11 -26 -23 l-35 0 q-117 0 -168 61 l0 7 q0 12 26 24 ZM689 645 q14 0 28 -24 q2 -31 -94 -45 q2 -82 -57 -158 l0 -8 l10 0 l121 22 q18 -2 18 -14 l2 -23 q-86 -53 -192 -53 l4 -69 l8 0 q72 0 260 53 q14 0 27 -29 q2 -47 -285 -92 l4 -105 q8 -198 -45 -198 l-18 0 q-23 20 -119 190 l-9 0 q3 -84 -82 -151 l-8 0 q-47 0 -55 22 l0 31 q2 16 18 16 q17 -8 25 -8 q57 133 82 150 l25 0 q57 -31 112 -134 l8 0 q5 101 3 150 l-1 29 q-98 -13 -182 -13 q-106 7 -108 37 l0 8 l8 15 q49 -8 71 -8 q48 0 209 22 l-2 68 l-123 0 q-45 0 -53 24 l0 7 q-2 14 111 22 q-4 152 -84 152 q-78 6 -78 22 l-2 15 q0 14 227 37 q156 40 216 40 ZM422 545 q33 -33 49 -135 q-8 -15 -8 -23 l27 0 q82 144 80 181 q-45 -15 -148 -23 ZM637 176 q185 -69 189 -166 l2 -31 q0 -16 -17 -16 l-18 0 q-74 117 -182 189 l0 8 q0 16 26 16 Z" /><glyph glyph-name="uni4EBA" unicode="&#x4eba;" d="M529 746 q20 -2 20 -16 l0 -44 q0 -86 -69 -313 l4 0 q192 -80 397 -355 l0 -32 q0 -15 -18 -15 l-23 0 q-195 220 -361 342 l-16 17 q-170 -359 -272 -359 l-31 0 q-33 11 -33 54 q8 0 8 8 l39 -8 q164 129 277 491 q53 195 78 230 Z" /><glyph glyph-name="uni4EC0" unicode="&#x4ec0;" d="M703 729 q8 -170 8 -231 l2 0 q72 23 160 31 l18 -27 l0 -10 q0 -41 -180 -68 l0 -447 q0 -61 -29 -69 l-16 0 q-16 0 -29 28 q0 76 8 480 l-2 0 q-20 0 -63 -8 q-154 10 -154 45 l0 8 q2 21 21 21 l110 0 l88 8 l0 10 q0 256 41 256 l17 -27 ZM477 678 l0 -28 q-8 -17 -125 -80 l0 -4 q15 -355 15 -453 q0 -146 -45 -146 l-8 0 q-15 0 -37 35 q24 494 24 557 q-86 -30 -135 -30 q-35 0 -53 35 l0 18 q2 22 22 22 l31 -8 q27 0 291 111 l20 -29 Z" /><glyph glyph-name="uni4EC5" unicode="&#x4ec5;" d="M418 693 l0 -23 q-49 -57 -102 -70 q8 -129 8 -196 l0 -383 q0 -70 -39 -70 q-31 12 -31 24 q16 451 16 578 q7 0 7 8 q-7 0 -7 7 q-116 -54 -165 -62 q-39 10 -39 23 l0 8 q18 22 172 78 q147 94 172 94 l8 -16 ZM809 670 q31 -12 31 -24 l0 -15 q-78 -229 -149 -352 q250 -228 250 -297 q-19 -15 -31 -15 q-15 0 -187 195 q-10 0 -63 55 l-8 0 q-117 -196 -203 -196 q-49 16 -54 40 l0 23 q1 16 15 16 l39 -8 q94 66 156 164 l0 8 l-117 125 q2 15 16 15 q39 0 141 -86 l7 0 q86 182 118 282 l-8 0 q-123 -39 -196 -39 l-31 0 q-70 15 -70 39 l0 15 l8 16 q58 -16 78 -16 q166 24 258 55 Z" /><glyph glyph-name="uni4EC6" unicode="&#x4ec6;" d="M652 750 q34 0 37 -279 q82 0 249 -164 l7 -34 q-21 -17 -35 -17 l-213 154 l0 -12 q8 -332 6 -470 l-27 -16 l-18 0 q-25 8 -25 49 l2 109 q2 92 -12 614 l-8 33 q14 33 28 33 l9 0 ZM457 703 q20 -4 20 -17 l0 -8 q0 -22 -135 -73 q17 -103 17 -312 l0 -133 q0 -197 -35 -197 l-25 0 q-22 0 -28 57 q16 222 16 367 l0 193 q-99 -23 -141 -23 l-41 0 q-13 0 -27 25 q0 16 203 57 q160 64 176 64 Z" /><glyph glyph-name="uni4EC7" unicode="&#x4ec7;" d="M568 768 q30 0 30 -92 l0 -115 q6 0 115 23 q49 0 60 -68 q-33 -301 -33 -368 q6 -60 20 -60 q101 84 101 148 l0 16 q0 8 -17 66 q19 10 29 10 q59 -25 59 -76 q0 -148 -162 -242 l-18 0 q-74 0 -74 115 l31 393 l0 3 l-4 0 q-117 -15 -117 -37 q-53 -515 -115 -515 l-16 0 q-19 6 -37 45 q105 295 105 459 q-91 -16 -109 -16 q-39 18 -43 35 q0 18 160 43 q6 233 35 233 ZM422 701 l0 -19 q-96 -84 -145 -96 q24 -154 24 -461 l0 -23 q0 -149 -43 -149 l-8 0 q-8 0 -29 27 l17 249 l-17 324 l-2 0 q-74 -41 -121 -41 l-16 0 q-16 0 -29 29 q19 23 162 74 q176 114 187 114 l20 -28 Z" /><glyph glyph-name="uni4ECA" unicode="&#x4eca;" d="M461 781 l27 -15 q-9 -80 -25 -118 q267 -105 414 -304 l8 -16 q-14 -35 -28 -35 l-25 0 q-311 297 -389 297 q-175 -375 -312 -375 q-12 0 -45 41 l0 49 q2 15 19 15 l10 0 q6 -39 24 -39 q175 123 310 500 l12 0 ZM426 469 q49 0 154 -86 l0 -26 q0 -17 -19 -17 l-8 0 q-63 0 -145 96 l0 17 q2 16 18 16 ZM688 320 q15 0 27 -33 q-156 -400 -242 -400 q-35 13 -35 25 l0 41 q1 16 19 16 l16 -6 q74 98 162 291 l-6 0 q-201 -39 -262 -47 q-53 12 -53 25 l0 16 q0 18 180 33 q135 39 194 39 Z" /><glyph glyph-name="uni4ECB" unicode="&#x4ecb;" d="M555 789 q-10 -59 -53 -119 q230 -63 373 -236 l8 -39 q0 -18 -18 -18 l-23 0 q-164 180 -367 250 l-90 -129 q37 0 37 -143 l0 -39 q0 -252 -96 -252 q-25 28 -25 41 q0 20 31 57 q39 82 39 248 l0 31 l-8 36 q-129 -147 -185 -147 l-32 0 q-13 0 -25 25 l0 16 l10 18 l15 -8 q208 142 342 369 q28 57 41 57 l26 -18 ZM623 529 q57 -9 57 -486 q0 -205 -41 -205 l-16 0 l-18 8 q8 232 8 267 q-8 328 -8 408 l18 8 Z" /><glyph glyph-name="uni4ECD" unicode="&#x4ecd;" d="M447 725 q278 0 278 -49 q7 -14 7 -41 q0 -33 -76 -239 l2 0 q35 0 229 24 l25 -33 l0 -33 q-96 -395 -168 -395 q-64 0 -146 154 l21 12 q53 -23 119 -80 l4 0 q53 125 108 305 l-4 0 q-139 -24 -196 -24 q-58 14 -58 35 l0 34 l78 253 l-35 6 l-16 0 q-199 0 -199 43 l0 8 q0 20 27 20 ZM346 701 q15 0 27 -35 q-47 -74 -84 -74 q14 -80 14 -262 l0 -234 q0 -121 -43 -121 q-35 17 -35 50 q15 336 15 477 l0 57 q-94 -38 -121 -38 l-15 0 q-14 0 -28 28 q10 23 190 105 q2 6 64 47 l16 0 ZM510 654 q19 -2 19 -19 l0 -16 q-19 -590 -121 -590 l-10 0 l-25 35 l0 40 q2 19 23 19 q0 -8 2 -8 q61 170 92 531 l20 8 Z" /><glyph glyph-name="uni4ECE" unicode="&#x4ece;" d="M684 723 q0 -96 -79 -381 q139 -47 305 -283 l0 -39 q0 -18 -17 -18 l-24 0 q-117 152 -279 287 q-90 -248 -182 -295 l-23 0 q-14 0 -26 26 l0 7 q79 80 79 106 q-14 -6 -22 -6 q-18 0 -139 178 q-64 -272 -142 -272 l-8 0 q-27 0 -33 82 l17 8 l10 0 l0 -16 l12 0 q156 397 156 594 l18 8 q13 0 25 -25 l0 -47 q0 -112 -39 -242 q164 -198 164 -229 q88 133 152 393 q32 189 59 189 l16 -25 Z" /><glyph glyph-name="uni4ED3" unicode="&#x4ed3;" d="M494 795 q18 -2 18 -16 l0 -27 q0 -10 -16 -76 q166 -69 383 -280 l0 -21 q0 -23 -33 -23 q-139 113 -268 203 l-107 76 l-6 0 q-119 -235 -283 -315 l-32 0 q-13 0 -25 24 l0 8 q213 109 359 447 l10 0 ZM666 453 q25 -23 25 -37 q-45 -236 -103 -273 l-31 0 q-37 0 -65 113 l0 23 l10 0 q18 0 70 -56 l6 0 q55 146 55 185 q-88 -21 -207 -35 l8 -33 l0 -320 q5 -40 21 -40 q111 0 303 172 q8 12 8 28 q-39 41 -39 50 l17 8 q96 -8 96 -72 q0 -94 -322 -238 l-47 -8 l-8 0 q-96 4 -96 86 q0 49 16 375 q-31 10 -31 21 l0 8 q2 16 17 16 l39 0 q37 0 258 27 Z" /><glyph glyph-name="uni4ED4" unicode="&#x4ed4;" d="M377 746 q19 0 19 -27 q0 -24 -101 -104 l0 -6 q0 -72 8 -603 l-20 -10 l-23 0 q-28 10 -28 51 l0 226 q0 116 8 309 l-2 0 q-68 -39 -111 -39 l-23 0 q-14 0 -28 27 l0 8 q0 10 119 51 q102 70 157 117 l25 0 ZM490 738 q18 0 86 -8 q80 8 125 8 q39 -17 43 -35 q0 -21 -84 -238 l2 0 q119 23 229 23 l17 -25 l0 -10 q0 -31 -244 -51 l-4 -9 q170 -61 170 -96 l0 -16 q-86 -324 -199 -324 q-90 45 -90 180 l12 0 q13 0 93 -100 q122 182 122 236 l0 8 q0 10 -139 51 q-33 41 -33 55 l-90 -8 l-86 0 q-14 0 -27 27 q0 22 203 51 q0 35 76 219 l-143 0 q-43 0 -58 35 l0 8 q2 19 19 19 Z" /><glyph glyph-name="uni4ED6" unicode="&#x4ed6;" d="M578 746 q33 0 33 -137 l0 -17 q145 45 166 45 l30 0 q13 0 27 -28 q-33 -363 -80 -363 l-16 0 q-62 0 -111 139 l19 10 q47 -24 83 -59 q44 150 44 238 l-3 0 l-159 -47 q-6 -242 -33 -242 l-23 0 q-20 0 -20 20 q16 170 16 205 q-33 -14 -53 -14 l0 -12 q0 -433 49 -433 l16 0 q197 49 349 226 l22 0 l0 -27 q0 -100 -293 -254 q-51 -16 -71 -16 l-23 0 q-104 0 -104 270 l0 230 q-91 0 -91 36 l0 7 q2 20 19 20 l31 -8 l41 8 l0 74 q2 20 22 20 q17 -24 31 -78 q63 7 63 27 l0 141 q2 19 19 19 ZM402 691 l0 -17 q-66 -70 -152 -94 q37 -117 37 -443 l0 -125 q0 -14 -33 -35 l-10 0 q-14 0 -27 27 l0 195 q0 149 -14 356 q-72 -16 -98 -16 q-33 14 -33 27 l0 8 q0 12 178 74 q113 63 143 63 l9 -20 Z" /><glyph glyph-name="uni4ED8" unicode="&#x4ed8;" d="M732 758 l8 0 q30 0 43 -180 l4 0 q92 16 119 16 l10 -20 l0 -15 q0 -30 -133 -59 l0 -4 q16 -338 16 -367 q0 -184 -82 -184 q-72 22 -199 166 l0 14 l11 0 q24 0 184 -92 l0 2 q8 86 8 149 l0 164 q0 27 8 68 q-8 10 -8 57 l0 19 q-147 -15 -207 -15 l-71 0 q-13 0 -27 27 q0 31 254 51 q51 9 51 19 l0 39 q0 41 -8 135 l19 10 ZM393 703 q19 -2 19 -19 l0 -24 q0 -14 -117 -80 q16 -60 23 -545 q-7 -58 -27 -58 l-23 0 q-24 0 -36 82 q8 211 8 336 l0 168 l-4 0 q-60 -32 -101 -32 l-39 0 q-14 0 -28 28 l0 7 q0 12 190 75 q99 62 135 62 ZM482 367 q168 -62 168 -131 l-25 -17 l-27 0 q-55 52 -159 111 l0 10 q0 21 43 27 Z" /><glyph glyph-name="uni4ED9" unicode="&#x4ed9;" d="M592 773 q43 0 43 -214 l0 -309 l2 0 q86 47 146 63 q-8 128 -15 169 l25 18 q61 0 61 -387 l0 -47 q0 -97 -36 -97 l-25 0 l-25 17 q15 135 15 276 l0 -2 q-72 -67 -363 -205 l-39 0 q-14 0 -35 33 q8 279 8 322 l-8 57 l19 10 q43 0 43 -200 l0 -152 l2 0 q135 78 147 78 q15 192 15 348 l0 203 q2 19 20 19 ZM316 719 l34 0 q19 -2 19 -20 l0 -15 q-6 -30 -125 -88 q0 -4 8 -61 q0 -64 8 -437 q8 -41 8 -47 q-10 -74 -28 -74 l-23 0 q-28 5 -28 66 l0 398 q0 41 8 127 q-90 -29 -136 -29 q-14 0 -28 27 l0 8 q12 24 166 74 l117 71 Z" /><glyph glyph-name="uni4EE3" unicode="&#x4ee3;" d="M691 762 q100 -47 125 -86 l0 -8 q0 -12 -23 -23 q-59 0 -133 93 l0 8 q20 16 31 16 ZM535 715 q16 0 86 -172 q86 39 125 39 l24 0 q15 -2 15 -16 q0 -29 -148 -78 l0 -8 q125 -384 148 -398 q0 25 31 133 l16 0 l8 -94 l0 -109 q0 -43 -39 -63 l-24 0 q-41 6 -203 516 q-113 -31 -148 -31 q-31 11 -31 23 l0 8 q0 14 164 55 q-47 152 -47 195 l23 0 ZM357 699 l24 0 q15 -2 15 -15 l0 -24 q-66 -72 -121 -86 q22 -316 16 -562 q-2 -32 -41 -55 q-12 0 -31 31 l8 258 q3 104 0 266 q9 13 9 39 q-52 -24 -86 -24 l-46 0 q-12 0 -24 24 l0 8 q0 15 150 54 l127 86 Z" /><glyph glyph-name="uni4EE4" unicode="&#x4ee4;" d="M518 828 q19 -2 19 -19 q0 -41 -21 -121 q111 0 302 -237 q24 -39 24 -64 l0 -24 q0 -13 -28 -27 l-7 0 q-12 0 -106 143 q-96 93 -201 162 l-12 0 q-174 -368 -283 -368 q-39 18 -43 36 l0 43 l14 0 l21 -14 q141 123 239 324 q60 166 82 166 ZM439 508 q215 -65 223 -82 l0 -8 q0 -14 -27 -27 l-47 0 q-168 31 -168 107 l19 10 ZM705 313 q14 0 27 -28 l0 -8 q0 -50 -177 -248 q115 -47 115 -105 l-20 -10 l-33 0 q-72 55 -219 109 l-9 20 q0 23 35 27 q35 0 68 -15 l135 172 l0 0 q-100 -16 -117 -16 q-90 0 -137 57 l0 17 q0 20 29 20 q41 -24 77 -24 l46 0 q34 0 164 32 l16 0 Z" /><glyph glyph-name="uni4EE5" unicode="&#x4ee5;" d="M650 768 q14 0 26 -26 l0 -23 q0 -114 -55 -334 q182 -98 281 -369 q-9 -41 -25 -41 l-8 0 q-15 0 -111 179 q-121 164 -147 180 l-6 0 q-101 -336 -166 -336 l-31 0 q-12 0 -33 33 l0 24 q2 17 18 17 q15 -8 23 -8 q76 100 170 452 q39 252 64 252 ZM322 541 q151 -64 151 -166 q0 -14 -26 -25 l-8 0 q-9 0 -134 166 l0 7 q2 18 17 18 ZM119 533 l16 0 q60 -21 72 -351 l6 0 q72 125 137 125 q-108 -254 -176 -254 q-33 8 -33 33 q0 74 -2 193 q4 108 -37 246 l17 8 Z" /><glyph glyph-name="uni4EEA" unicode="&#x4eea;" d="M404 676 q-80 -106 -93 -108 q-6 0 13 -431 q-4 -174 -41 -174 l-8 0 q-11 0 -33 49 q0 6 8 47 q0 66 8 265 q-8 145 -8 207 q-82 -60 -139 -60 q-11 0 -33 33 l119 64 q147 133 190 133 l17 -25 ZM541 686 q135 -49 135 -127 q0 -18 -18 -18 l-23 0 q-112 92 -112 137 l18 8 ZM822 678 q18 -2 18 -18 l0 -15 q0 -106 -131 -368 q217 -191 217 -257 l0 -24 q0 -17 -18 -17 l-15 0 q-100 134 -219 242 l-6 0 q-107 -188 -197 -188 q-88 14 -88 90 l19 8 q30 -24 53 -24 l16 0 q74 43 146 163 q-86 99 -195 177 q0 20 25 20 q45 0 203 -133 q59 72 164 344 l8 0 Z" /><glyph glyph-name="uni4EEC" unicode="&#x4eec;" d="M846 727 q15 -32 25 -32 q-2 -172 2 -254 l12 -375 q4 -89 -63 -89 l-8 0 q-52 0 -257 236 l0 14 q47 0 252 -168 q0 0 5 15 q-1 539 -3 590 q-184 -31 -211 -31 q-120 10 -121 43 l0 8 l9 19 l57 -8 l37 0 q59 0 264 32 ZM369 738 q18 -2 18 -19 l0 -18 q-51 -62 -98 -72 l6 -35 q8 -317 8 -352 q0 -230 -43 -230 l-14 0 q-19 0 -27 58 q23 295 23 383 l0 151 q-66 -38 -113 -38 l-8 0 q-14 0 -27 30 q252 142 275 142 ZM381 609 l57 -7 l31 0 l47 7 q33 -13 33 -27 q-12 -35 -57 -35 l-70 0 q-43 0 -49 27 l0 16 l8 19 ZM414 527 q43 0 43 -332 q-6 -90 -35 -90 l-16 0 q-8 0 -27 26 q8 119 8 174 l0 203 q4 19 19 19 l8 0 Z" /><glyph glyph-name="uni4EF0" unicode="&#x4ef0;" d="M365 713 q16 -2 16 -16 l-2 -25 q0 -16 -98 -47 q12 -125 12 -557 q-12 -80 -35 -80 l-8 0 q-31 14 -29 57 q4 103 11 564 q-72 -25 -119 -25 l-33 0 q-16 0 -16 16 l0 9 q4 20 196 63 q82 41 105 41 ZM635 680 q56 -16 88 -16 q4 0 129 16 l31 -55 q-8 -41 -16 -400 q-15 -37 -31 -41 l-33 0 q-74 62 -88 121 l-8 0 l0 -8 q8 -135 8 -209 l0 -43 q0 -106 -24 -106 l-25 0 q-23 8 -23 49 l0 32 q0 168 7 293 q-7 97 -7 224 q7 70 7 88 q-11 0 -23 23 l0 16 l8 16 ZM611 633 q0 -49 -152 -49 l0 -8 q8 -111 8 -191 l0 -96 l88 96 l15 0 l0 -16 q0 -107 -111 -224 l-31 0 q-14 0 -33 39 q15 132 15 369 l0 31 l-23 33 l0 8 q2 16 15 16 q170 7 202 7 l7 -15 ZM691 600 q0 -264 47 -280 q8 0 57 -39 l8 0 q15 145 23 344 q-99 -16 -135 -16 l0 -9 Z" /><glyph glyph-name="uni4EF6" unicode="&#x4ef6;" d="M668 754 l10 -143 l80 0 q12 0 21 -21 l0 -8 q0 -29 -103 -29 l-2 -61 q-2 -53 2 -164 q201 29 238 29 l6 -13 l0 -16 q-2 -41 -246 -60 q4 -137 2 -202 l-2 -82 q-4 -66 -51 -66 l-21 29 l9 313 l-218 0 q-16 0 -16 15 l0 8 q23 37 228 37 l8 225 q0 16 -86 21 q-4 -142 -60 -179 q-12 0 -31 31 q70 305 82 305 l7 0 q24 -6 22 -45 l0 -14 l-10 -53 l70 0 q16 0 16 16 l4 111 q4 16 18 16 l23 0 ZM334 678 l23 0 q16 0 16 -14 l0 -16 q-6 -21 -88 -58 q18 -213 18 -508 q0 -90 -33 -90 l-8 0 q-12 0 -32 37 q8 123 8 188 l0 349 q-88 -13 -125 -13 l-15 0 q-16 0 -16 13 l0 8 q18 20 180 61 l72 43 Z" /><glyph glyph-name="uni4EF7" unicode="&#x4ef7;" d="M596 756 q15 -2 15 -16 l0 -8 q0 -21 -15 -72 l15 0 q141 0 293 -221 q8 -13 8 -31 l0 -8 q0 -13 -23 -25 l-8 0 q-162 197 -190 199 q0 6 -103 63 q-33 -82 -70 -135 q23 -41 23 -150 q0 -309 -96 -309 l-15 23 l0 10 q62 182 62 379 l-15 0 q0 -49 -102 -88 q-12 0 -23 24 l0 17 q191 192 228 340 l16 8 ZM398 668 q16 -2 16 -16 l0 -15 q-35 -47 -119 -88 l8 -16 l0 -166 q0 -115 8 -267 q-8 -135 -32 -135 l-15 0 q-12 0 -24 23 q8 317 8 475 q8 57 8 62 q-70 -23 -96 -23 l-39 0 q-12 0 -23 23 l0 8 q0 14 134 49 q141 86 166 86 ZM723 525 q54 0 54 -568 q-7 -49 -23 -49 l-16 0 q-11 0 -23 26 l0 142 q0 213 -16 418 q12 31 24 31 Z" /><glyph glyph-name="uni4EFB" unicode="&#x4efb;" d="M377 713 l0 -18 q-45 -41 -84 -66 q4 -176 4 -617 q-12 -33 -24 -33 l-15 0 q-26 0 -33 80 q17 230 17 447 l0 94 q-76 -24 -121 -24 l-8 0 q-11 0 -23 24 l0 9 q0 12 135 55 q101 72 136 72 l16 -23 ZM492 693 q18 -13 96 -25 q55 8 88 8 l80 0 q15 -2 15 -16 l0 -8 q0 -33 -105 -37 l-8 0 l8 -95 l0 -145 l209 23 l16 -25 l0 -8 q0 -43 -225 -52 l0 -112 l-8 -115 q139 6 186 6 l8 -16 l0 -17 q0 -47 -280 -47 l-72 0 q-57 0 -64 23 l0 16 q0 25 160 25 l0 227 q-22 0 -160 -8 q-47 8 -47 23 l0 8 q0 24 215 47 l0 176 l7 56 q-134 20 -134 47 l0 24 q2 17 15 17 Z" /><glyph glyph-name="uni4EFD" unicode="&#x4efd;" d="M631 773 q119 0 258 -263 q31 -51 31 -92 l0 -39 l-24 0 q-21 6 -117 201 q-47 70 -164 178 q2 15 16 15 ZM537 727 q16 -2 16 -16 q0 -113 -180 -293 q-14 -8 -31 -8 q-12 0 -24 24 l0 23 q147 127 196 254 q2 16 15 16 l8 0 ZM389 695 q15 -2 15 -15 l0 -8 q-60 -68 -125 -84 q24 -139 24 -541 l-24 -16 l-23 0 q-24 0 -24 100 l0 426 q-86 -24 -109 -24 q-39 10 -39 24 l0 7 q12 18 148 55 q131 76 157 76 ZM771 502 l8 0 q18 0 24 -37 q-22 -496 -63 -496 l-15 -8 q-65 0 -125 146 q33 0 109 -60 q47 267 47 418 q-70 -31 -180 -47 l0 -8 q0 -410 -101 -410 q-12 0 -32 31 l0 37 q2 16 16 16 q0 -8 8 -8 q39 110 70 350 q-62 8 -62 31 l0 8 q2 14 15 14 l71 -8 l210 31 Z" /><glyph glyph-name="uni4EFF" unicode="&#x4eff;" d="M559 746 q164 -45 164 -70 l0 -16 q0 -14 -16 -14 q-105 0 -180 69 l0 15 q2 16 16 16 l16 0 ZM402 711 l0 -23 q-45 -57 -101 -84 q15 -395 15 -499 q-7 -107 -39 -107 l-7 0 q-16 4 -32 37 q16 229 16 385 l0 68 l8 92 q-82 -45 -125 -45 l-39 0 q-16 0 -16 16 l0 13 q18 20 156 71 q127 92 157 92 l7 -16 ZM863 607 q0 -31 -211 -76 l-15 -107 l23 0 q26 0 172 21 q12 0 31 -29 q-35 -453 -93 -453 l-24 0 q-72 0 -148 183 l15 8 l125 -115 q41 39 71 354 q-82 -24 -125 -24 l-47 0 q-14 0 -78 -254 q-53 -131 -110 -131 q-31 12 -31 24 l0 8 q70 70 156 384 q24 120 24 131 l-16 -8 l-70 0 q-86 12 -86 38 l0 15 l8 16 l54 -8 q53 0 360 47 l15 -24 Z" /><glyph glyph-name="uni4F01" unicode="&#x4f01;" d="M500 762 q18 0 18 -26 q0 -17 -28 -86 q123 -19 328 -226 q32 -53 32 -70 l0 -16 q0 -18 -18 -18 l-16 0 q-187 211 -351 303 q-176 -287 -274 -287 l-23 0 q-14 0 -25 23 l0 18 q152 90 293 289 q23 33 54 96 l10 0 ZM496 512 q43 0 49 -203 l6 0 q6 0 164 31 q33 -14 33 -26 l0 -17 q-25 -47 -189 -47 l-14 0 l0 -37 q0 -25 8 -39 l-8 -47 l0 -61 q260 0 297 -56 l0 -16 q0 -14 -33 -25 q-106 23 -243 31 q-300 -23 -328 -23 l-31 0 q-18 0 -18 17 q0 27 157 49 l0 287 q0 12 25 25 q33 0 33 -158 l0 -146 l37 8 l38 0 q0 19 7 154 q-7 250 -7 289 l17 10 Z" /><glyph glyph-name="uni4F0A" unicode="&#x4f0a;" d="M799 680 l0 -49 l-8 -92 l6 0 q84 16 109 16 q18 -2 18 -18 l0 -16 q0 -27 -141 -56 l0 -14 q0 -260 -49 -260 l-39 0 q-31 18 -56 63 q-82 0 -82 -61 q-34 -191 -112 -275 l-39 0 q-17 0 -17 18 l0 15 q109 184 109 272 q-76 -16 -133 -16 l-15 25 l0 8 q0 18 164 49 q15 106 15 137 l-6 0 q-80 -8 -125 -8 l-7 0 q-43 0 -49 25 l0 8 q0 16 195 41 l8 76 l0 37 l-6 0 q-119 8 -119 49 l0 8 q0 18 25 18 q51 -16 63 -16 q39 0 265 47 l26 -31 ZM344 688 q17 -2 17 -18 q0 -24 -109 -109 q23 -135 23 -461 q0 -120 -33 -120 l-23 0 l-18 10 q8 283 8 406 l0 139 q-100 -39 -123 -39 l-23 0 q-18 0 -18 18 q4 13 195 111 q73 63 104 63 ZM596 613 l0 -105 q136 13 136 21 q8 53 8 86 l0 30 l-6 0 l-138 -32 ZM588 441 q0 -74 -16 -136 l28 0 l0 6 q-16 25 -16 41 q8 0 8 9 q105 -48 105 -72 q22 0 28 162 l0 6 l-6 0 q-125 -16 -131 -16 Z" /><glyph glyph-name="uni4F0D" unicode="&#x4f0d;" d="M451 705 q70 -16 102 -16 l8 0 q41 0 187 16 l18 -25 l0 -8 q-18 -49 -188 -49 l0 -207 q188 39 209 39 q26 -27 26 -41 q0 -49 -102 -318 l178 0 q13 0 25 -26 l0 -7 q-10 -34 -72 -34 l-149 0 q-113 0 -257 -8 q-112 14 -112 42 q2 17 18 17 l62 0 l92 8 q0 49 16 262 q-141 21 -141 56 l0 18 q80 -8 119 -8 l22 0 l15 207 q-84 22 -93 57 l0 8 q2 17 17 17 ZM383 680 l0 -16 q-35 -51 -110 -80 q16 -133 16 -287 l0 -242 q0 -96 -33 -96 l-16 0 q-13 0 -25 33 l15 235 q-7 121 -7 250 l0 70 l6 14 l-4 0 q-51 -16 -71 -16 l-39 0 q-13 0 -25 25 l0 8 q0 16 111 33 q153 86 174 86 l8 -17 ZM578 357 q-8 -232 -8 -269 q90 0 90 76 q37 59 86 225 q-86 -24 -168 -32 Z" /><glyph glyph-name="uni4F0F" unicode="&#x4f0f;" d="M635 771 q10 -19 10 -27 q0 -70 -32 -240 q160 39 200 39 q19 -4 19 -20 l0 -9 q0 -34 -236 -90 l0 -33 q220 -137 318 -405 l0 -25 q0 -20 -19 -20 l-28 0 q-121 221 -221 319 q-58 68 -66 68 q-74 -340 -166 -340 q-60 0 -60 65 l41 -8 q64 113 136 371 q-64 -8 -101 -8 q-61 12 -61 35 l0 18 l10 18 l43 -8 q135 0 135 60 q41 240 78 240 ZM723 717 q47 0 158 -98 l0 -10 q-8 -27 -53 -27 q-105 47 -142 98 l0 17 q3 20 21 20 l16 0 ZM363 668 l18 0 q19 -2 19 -20 q-29 -64 -107 -97 q12 0 20 -520 q-6 -82 -30 -82 l-25 0 q-28 8 -28 67 l0 509 q-56 -23 -101 -23 q-45 12 -45 29 l0 8 q12 14 174 66 l105 63 Z" /><glyph glyph-name="uni4F11" unicode="&#x4f11;" d="M584 762 q47 0 47 -203 l0 -39 l174 39 l8 -16 l0 -23 q0 -28 -182 -55 l0 -86 q277 -193 277 -297 l0 -16 q0 -15 -15 -15 l-24 0 l-135 179 l-88 79 l-7 0 l0 -8 q0 -96 7 -321 q-15 -35 -31 -39 l-15 0 q-12 0 -24 24 l0 359 q0 18 -10 31 q10 14 10 32 l0 62 q-13 0 -41 -156 q-105 -227 -181 -227 l-8 0 q-20 0 -24 32 l-8 0 q0 -125 -33 -125 l-15 0 q-8 0 -24 31 q8 129 8 195 l0 344 q-57 -23 -96 -23 q-31 11 -47 39 q0 11 24 23 l31 -8 q61 18 254 110 l8 0 q15 -2 15 -16 l0 -16 q0 -25 -142 -86 q17 -257 17 -453 q16 0 16 16 l16 -8 l8 0 q62 0 173 320 l-7 0 q-20 0 -63 -7 q-88 7 -88 31 q0 12 207 47 l0 203 l-10 39 l18 8 Z" /><glyph glyph-name="uni4F17" unicode="&#x4f17;" d="M516 807 q13 0 27 -26 q-4 -54 -61 -160 q291 -117 291 -205 l-27 -18 l-57 36 l0 -47 q-7 -71 -7 -127 q95 0 214 -287 l0 -16 q0 -14 -33 -35 l-9 0 q-12 0 -141 256 l-53 52 l-4 0 q-66 -269 -148 -269 l-8 0 q-20 0 -27 45 q74 0 177 428 q0 17 6 29 l-187 121 l-12 0 q-41 -92 -170 -193 l-41 0 q-14 0 -27 27 l0 10 q94 47 140 123 q86 101 147 256 l10 0 ZM393 453 q19 0 19 -27 q0 -39 -53 -211 q24 0 145 -149 l0 -33 q0 -19 -20 -19 l-17 0 q-131 154 -133 154 q-39 -111 -141 -207 l-31 0 q-14 0 -27 25 l0 53 l41 -10 q109 145 207 424 l10 0 Z" /><glyph glyph-name="uni4F18" unicode="&#x4f18;" d="M541 770 q20 -2 20 -20 l0 -193 l201 39 l9 -20 l0 -25 q0 -26 -156 -51 l0 0 q47 0 47 -164 q0 -107 -16 -250 l4 0 q215 100 215 146 l-31 98 l20 10 l9 0 q73 -55 73 -108 q0 -115 -293 -218 l-8 0 q-59 0 -59 60 q31 197 31 295 q0 43 -15 123 q8 0 8 0 l-12 0 q-51 0 -51 -99 q-47 -360 -111 -395 l-26 0 q-19 0 -19 22 q78 234 109 455 l-35 -8 l-70 0 q-45 0 -51 27 q0 20 164 53 q18 223 43 223 ZM658 746 q129 -35 129 -101 l-19 -10 l-8 0 q-55 0 -121 74 l0 18 q2 19 19 19 ZM396 672 l0 -20 q-76 -56 -125 -56 q16 -180 24 -506 q-6 -131 -35 -131 l-16 0 q-8 0 -27 27 q8 80 8 119 l0 96 q0 117 -8 272 q8 37 8 105 l-4 0 q-43 -8 -71 -8 l-62 0 q-20 0 -20 20 l0 17 q0 14 188 51 q0 10 123 41 l17 -27 Z" /><glyph glyph-name="uni4F19" unicode="&#x4f19;" d="M633 795 l19 -27 l0 -39 q0 -151 -29 -313 q82 64 176 238 l10 0 q19 -2 19 -19 q0 -108 -172 -256 l-4 0 l0 -2 q233 -231 260 -369 l0 -16 q0 -13 -25 -27 l-32 0 q-15 0 -58 125 q-90 127 -193 254 q-71 -371 -178 -371 l-16 0 q-14 0 -27 25 l0 12 q74 43 154 312 q29 121 76 461 l20 12 ZM414 674 q-14 -45 -107 -94 q15 -37 15 -158 l0 -307 q0 -119 -35 -119 l-16 0 q-15 0 -27 41 l24 322 q-8 32 -8 63 l0 84 l8 47 q-114 -43 -141 -43 l-31 0 q-20 0 -20 19 l0 16 q20 16 164 70 q102 73 149 94 l25 -35 ZM402 578 q53 0 119 -224 l0 -12 l-19 -10 l-16 0 q-17 4 -72 154 q-6 2 -47 73 q2 19 20 19 l15 0 Z" /><glyph glyph-name="uni4F1A" unicode="&#x4f1a;" d="M527 803 q18 -2 18 -18 l-47 -131 q279 -101 367 -275 l0 -8 q-11 -33 -25 -33 l-26 0 q-78 117 -341 289 q-196 -318 -328 -359 l-24 0 q-14 0 -25 25 l0 31 q2 18 19 18 q2 -16 14 -16 l8 0 q228 203 357 444 q4 33 26 33 l7 0 ZM426 451 q220 -13 220 -49 l0 -15 q0 -18 -25 -18 q-228 26 -228 49 l0 8 q0 13 25 25 l8 0 ZM691 365 q14 0 26 -33 q-176 -201 -225 -303 l4 0 q193 149 227 149 l15 0 q26 -8 26 -49 l0 -39 q0 -63 7 -149 q-11 -33 -25 -33 l-8 0 q-33 14 -33 57 l0 139 l-6 0 l-258 -188 l-23 0 q-14 0 -25 25 l0 8 q25 102 171 297 l0 6 q-158 -55 -248 -55 q-72 8 -72 33 q0 16 221 49 q213 86 226 86 Z" /><glyph glyph-name="uni4F1F" unicode="&#x4f1f;" d="M617 777 q24 -2 24 -58 l0 -22 l93 8 q12 0 24 -21 l0 -8 q0 -20 -78 -30 l-32 0 l0 -103 q79 8 118 8 q15 -2 15 -14 q-47 -51 -133 -51 l0 -103 l211 51 l24 0 q31 -10 31 -51 q-23 -256 -70 -256 l-24 0 q-54 12 -132 131 q15 8 23 8 q14 0 109 -67 q39 112 39 184 l-7 0 q-53 -22 -204 -51 l0 -344 q0 -39 -31 -52 l-15 0 q-24 5 -24 58 l0 59 q0 86 8 271 l-141 0 q-41 0 -54 30 q2 15 15 15 l86 0 l94 6 l0 104 q-49 0 -70 35 q0 11 23 23 l47 0 q0 35 8 109 l-47 0 q-61 0 -70 30 l0 8 q2 13 15 13 l102 0 l0 22 q0 56 23 58 ZM402 688 q16 -2 16 -16 l0 -16 q-25 -37 -109 -70 q23 -61 23 -453 l0 -86 q0 -41 -23 -47 l-16 0 q-20 0 -31 70 q8 92 8 133 l0 367 q-84 -15 -110 -15 q-70 8 -70 31 l0 8 q2 15 15 15 l24 0 q88 0 273 79 Z" /><glyph glyph-name="uni4F20" unicode="&#x4f20;" d="M623 760 q18 0 27 -59 q-7 -12 -7 -64 l0 -4 q87 23 132 23 q20 -4 20 -19 l0 -16 q-61 -49 -162 -51 q-16 -86 -16 -121 l6 0 q59 0 236 30 l12 3 l0 -11 q-10 -47 -271 -90 q0 -43 -16 -133 l217 57 l25 0 q14 0 28 -28 l0 -31 q0 -10 -161 -219 q110 -35 110 -97 q0 -18 -20 -18 l-8 0 q-37 0 -281 162 l0 18 q2 17 20 17 q121 -39 125 -39 q0 10 115 157 l-4 0 q-51 -24 -178 -57 q-60 18 -60 59 q31 132 17 144 l-113 0 q-14 0 -27 25 q0 16 156 43 q25 88 25 122 q-119 0 -119 60 q20 8 28 8 q3 0 109 -8 l0 6 q14 131 35 131 ZM400 689 q0 -54 -134 -130 q0 -4 7 -4 q10 -176 10 -262 l0 -250 q0 -43 -27 -51 l-18 0 q-13 0 -27 35 q0 49 18 340 q-10 82 -10 129 l8 45 q-73 -23 -98 -23 l-43 0 q-14 0 -27 27 q0 10 212 90 q81 74 122 74 l7 -20 Z" /><glyph glyph-name="uni4F24" unicode="&#x4f24;" d="M549 781 q15 -2 15 -15 q-15 -59 -15 -125 q66 0 250 7 q35 -15 39 -31 q-10 -31 -70 -31 l-164 0 l-79 8 q-19 -164 -70 -164 q-16 19 -16 31 q18 180 102 320 l8 0 ZM381 656 q15 -2 15 -15 l0 -16 q-7 -25 -78 -55 q16 -259 16 -562 q-10 -55 -31 -55 l-16 0 q-12 0 -23 24 q7 418 7 578 l-7 0 q-39 -16 -118 -24 q-39 10 -39 24 l0 8 q2 15 188 54 q53 39 86 39 ZM650 570 q2 -15 16 -15 q-8 -94 -23 -149 q132 32 187 32 l31 0 q32 -16 32 -47 q-43 -430 -94 -430 l-24 0 q-62 0 -148 195 l16 0 q11 0 132 -117 l8 0 q47 182 47 352 q-195 -32 -195 -39 q-90 -340 -164 -383 l-32 0 q-11 0 -23 23 l0 16 q109 107 164 344 l-39 0 q-86 11 -86 39 l0 15 q78 -8 117 -8 l24 0 q29 172 54 172 Z" /><glyph glyph-name="uni4F26" unicode="&#x4f26;" d="M623 762 q20 -2 20 -20 l0 -15 q0 -41 -30 -81 q153 -46 287 -242 q8 -13 8 -33 l0 -16 q0 -19 -19 -19 l-26 0 q-189 258 -277 258 q-150 -227 -229 -227 l-7 0 q-14 0 -28 28 l0 17 q184 117 282 340 l19 10 ZM389 672 q19 -2 19 -20 l0 -15 q0 -30 -125 -73 q16 -298 16 -568 q-14 -35 -28 -35 l-23 0 q-14 0 -27 35 q8 217 8 359 l0 192 l-75 -8 l-39 0 q-19 0 -19 20 l0 7 q8 18 234 82 q2 16 59 24 ZM521 402 q28 0 28 -89 l0 -42 q66 26 174 124 l17 0 q20 0 20 -30 q-123 -158 -211 -158 l0 -121 q0 -41 35 -51 q187 72 262 209 q0 33 19 33 l8 0 q18 0 35 -50 q-31 -135 -275 -254 l-57 -8 q-90 15 -90 90 l0 146 l-23 31 q0 22 31 22 l0 129 q2 19 20 19 l7 0 Z" /><glyph glyph-name="uni4F2A" unicode="&#x4f2a;" d="M613 797 q18 -4 18 -20 l0 -93 q0 -82 -22 -200 l243 55 q50 -18 50 -66 q-37 -512 -111 -512 l-41 0 q-86 72 -180 221 l0 21 l12 0 q59 -37 184 -162 q74 193 74 436 l-2 0 q-244 -57 -244 -69 q-84 -439 -184 -439 l-6 0 q-15 0 -27 25 l0 61 l31 0 q45 86 121 359 l-49 0 q-68 0 -95 49 l0 10 q2 19 19 19 q51 -15 69 -15 l62 0 q12 0 12 11 l0 4 l-27 0 q-114 16 -114 90 l0 8 q4 19 20 19 l17 0 q32 -33 112 -68 q33 240 49 256 l9 0 ZM404 688 q18 -4 18 -20 q0 -64 -131 -98 q23 -218 23 -496 l0 -62 q0 -45 -33 -59 l-10 0 q-35 0 -35 98 l0 502 l-72 -6 q-59 6 -59 27 l0 16 q0 15 204 56 q58 42 95 42 ZM652 359 q119 -109 119 -160 q0 -19 -19 -19 l-25 0 q-51 41 -104 134 l0 26 q4 19 20 19 l9 0 Z" /><glyph glyph-name="uni4F2F" unicode="&#x4f2f;" d="M457 703 l0 -15 q-35 -51 -143 -86 q30 -155 22 -579 q-8 -54 -41 -54 q-31 11 -31 23 l11 594 q-31 -16 -86 -16 l-46 0 q-12 0 -24 24 l0 8 q0 9 174 54 q131 71 148 71 l16 -24 ZM752 730 q16 -1 16 -15 l0 -16 q0 -39 -243 -86 l0 -31 q0 -18 55 -23 l250 46 l8 0 q31 -11 31 -54 l0 -305 q0 -98 8 -242 q0 -47 -55 -47 q-17 0 -140 133 q-157 -29 -157 -55 q0 -31 -23 -31 q-16 0 -31 47 l15 562 q-39 0 -39 24 l0 8 q0 13 235 62 q0 18 70 23 ZM533 512 l8 -94 l0 -70 l8 0 q166 39 219 39 l15 -24 q0 -33 -242 -70 l0 -180 l203 47 q31 -12 31 -23 q0 -24 -31 -24 l0 -8 q0 -9 55 -46 l8 0 q7 248 7 367 l0 125 q-173 -47 -234 -47 l-47 8 Z" /><glyph glyph-name="uni4F34" unicode="&#x4f34;" d="M596 773 q31 0 31 -195 l0 -55 l8 0 q92 88 105 176 l16 8 l8 0 q11 0 23 -31 q16 -65 -129 -223 l8 0 q70 16 102 16 q15 -2 15 -16 l0 -15 q0 -28 -148 -47 l8 -94 q74 16 226 58 l16 -23 q0 -59 -242 -105 l0 -293 q0 -41 -24 -47 l-15 0 q-32 0 -32 133 l0 191 l-8 0 q-52 0 -93 -8 q-102 8 -102 31 l0 8 q2 16 16 16 q97 0 187 23 l0 102 l-86 0 q-41 0 -54 31 q2 16 15 16 l24 0 q84 0 101 23 q-8 106 -8 156 l0 118 q6 46 24 46 l8 0 ZM350 688 q11 0 23 -24 q0 -25 -109 -62 q23 -163 23 -344 l0 -180 q0 -60 -31 -70 l-8 0 q-16 4 -31 39 q8 205 8 344 l0 23 q0 55 -8 172 q-69 -23 -125 -31 q-39 9 -39 23 l0 16 q0 15 140 39 q131 55 149 55 l8 0 ZM471 672 q29 0 78 -149 l0 -31 q0 -15 -16 -15 l-15 0 q-24 7 -79 179 q2 16 16 16 l16 0 Z" /><glyph glyph-name="uni4F38" unicode="&#x4f38;" d="M619 785 q33 0 33 -201 q186 39 213 39 l16 0 q19 0 25 -41 q-66 -430 -101 -430 l-16 0 q-18 0 -109 100 q-14 -6 -20 -6 l0 -332 q0 -43 -25 -49 l-16 0 q-23 0 -31 125 q6 96 6 188 l0 45 q-112 -30 -112 -39 l-31 0 q-17 0 -17 25 q0 111 -55 396 l17 10 l10 0 q49 -47 82 -47 l94 0 q12 0 12 14 l0 178 q0 13 25 25 ZM398 668 l0 -10 q-54 -70 -115 -70 q31 -203 31 -402 l0 -125 q0 -61 -33 -73 l-8 0 q-7 0 -31 33 q0 14 8 188 q-8 334 -8 361 q-53 -13 -92 -13 l-45 0 q-13 0 -25 25 l0 8 q0 15 191 55 q0 9 120 41 l7 -18 ZM652 525 l0 -82 l6 0 q10 0 76 8 q34 -12 34 -25 q-38 -33 -116 -55 q0 -58 51 -58 q20 0 35 -10 l-9 -18 l0 -4 q9 0 50 -31 q32 100 69 314 l-196 -39 ZM453 518 q24 -67 24 -114 q117 10 117 30 l0 76 l-106 0 l-35 8 ZM490 295 l8 -37 q96 15 96 37 l0 66 q-65 -15 -104 -15 l0 -51 Z" /><glyph glyph-name="uni4F3C" unicode="&#x4f3c;" d="M744 748 q26 0 33 -103 q-15 -153 -39 -250 q137 -102 203 -344 l0 -8 q0 -14 -25 -25 l-8 0 q-25 3 -119 228 q-59 84 -68 84 l-6 0 q-96 -297 -197 -297 l-8 0 q-14 0 -26 26 l0 17 q120 88 204 373 q41 299 56 299 ZM369 725 q18 -2 18 -18 l0 -8 q0 -25 -133 -80 q31 -123 31 -435 l0 -149 q0 -62 -41 -80 l-33 16 q8 285 8 408 q0 60 -8 221 q8 0 8 4 l-6 0 q-63 -16 -102 -16 q-48 8 -48 25 l0 16 q0 16 142 33 q121 63 164 63 ZM393 600 q64 0 64 -213 l0 -88 q82 97 94 97 l8 -17 q-39 -168 -127 -236 l-8 0 q-41 7 -41 33 q23 199 23 226 q0 119 -39 180 q0 18 26 18 ZM525 553 q127 -112 127 -174 q0 -18 -17 -18 l-16 0 q-12 0 -119 159 l0 15 q2 18 18 18 l7 0 Z" /><glyph glyph-name="uni4F3D" unicode="&#x4f3d;" d="M459 723 q27 -10 27 -51 l0 -121 l4 0 q71 23 94 23 l8 0 q13 0 27 -35 q-29 -535 -82 -535 l-8 0 q-52 0 -95 117 l-10 0 q-33 -156 -74 -156 l-24 0 q-13 0 -27 27 l0 35 q58 0 117 444 l-35 -6 l-47 0 q-63 0 -74 35 l0 8 l10 19 l72 -7 q82 0 82 35 q10 168 35 168 ZM369 703 q20 -2 20 -19 l0 -8 q0 -37 -157 -88 q16 -84 16 -264 l0 -297 q0 -60 -27 -66 l-16 0 q-14 0 -27 27 l0 274 q0 19 8 31 q-8 12 -8 31 l0 246 q-14 0 -82 -7 q-51 7 -51 27 q0 25 228 74 q53 39 88 39 l8 0 ZM662 551 l10 0 q33 -39 60 -39 l8 0 q172 15 182 15 l17 -25 l0 -33 q-101 -387 -222 -387 l-16 0 q-13 0 -35 33 l0 18 q2 19 16 19 l-39 389 l19 10 ZM512 109 q45 178 45 403 q-78 -14 -78 -51 q-16 -182 -40 -287 l73 -65 ZM715 457 q14 -51 37 -262 q61 43 123 270 q-105 -16 -119 -16 l-41 8 Z" /><glyph glyph-name="uni4F46" unicode="&#x4f46;" d="M418 688 l0 -8 q0 -34 -133 -80 q16 -178 16 -491 l0 -93 q0 -43 -33 -57 l-8 0 q-24 0 -33 80 q7 242 7 414 l0 123 l-76 -8 l-31 0 q-57 0 -57 51 l18 8 l39 0 q49 0 283 78 l8 -17 ZM789 705 q0 -12 24 -23 q-8 -272 -8 -393 l0 -86 q0 -43 -34 -57 l-31 0 q-84 79 -94 79 q-95 -32 -117 -32 q-64 26 -64 49 q0 69 8 172 q-10 232 -32 232 l0 10 l8 18 l96 -8 q49 0 244 39 ZM516 607 q0 -27 15 -113 q76 8 115 8 l47 0 q34 -16 34 -41 q0 -33 -102 -156 l0 -6 q109 -6 109 -28 q-15 -1 -15 -13 l0 -6 q6 0 19 -6 l0 4 q0 43 16 389 l-6 0 q-107 -32 -195 -32 l-37 0 ZM531 436 q8 -79 8 -92 l-8 -51 q71 61 127 150 l-51 0 l-76 -7 ZM602 287 l0 -12 l19 0 q0 12 -14 12 l-5 0 ZM914 70 l0 -23 q0 -49 -393 -49 l-23 0 q-123 0 -123 25 l0 8 q0 33 449 49 q0 8 82 8 l8 -18 Z" /><glyph glyph-name="uni4F4D" unicode="&#x4f4d;" d="M529 740 q174 -78 182 -103 l0 -16 q0 -17 -18 -17 l-15 0 q-166 37 -166 119 q2 17 17 17 ZM422 691 l0 -9 q-29 -59 -133 -94 q31 -188 31 -537 q-6 -104 -41 -104 l-8 0 q-13 0 -33 39 q8 94 8 135 l0 94 q0 113 -8 348 l-52 -6 l-71 0 q-17 0 -17 17 l0 8 q2 12 197 70 q82 65 111 65 l16 -26 ZM797 582 l0 -10 q-16 -56 -291 -70 q-119 10 -119 41 l0 8 l17 25 l39 -8 l16 0 q53 0 330 32 l8 -18 ZM740 506 q16 0 26 -41 q0 -154 -180 -361 l0 -4 q115 7 170 7 l55 0 q95 0 95 -43 q-11 -31 -25 -31 l-149 0 q-218 0 -361 -25 l-8 17 l0 10 q0 18 133 70 q0 12 24 24 l-8 53 l0 88 q0 85 -16 187 l18 10 l7 0 q57 -24 57 -237 l0 -27 q74 74 145 285 q2 18 17 18 Z" /><glyph glyph-name="uni4F4E" unicode="&#x4f4e;" d="M447 711 q108 -31 196 -31 l7 0 l79 8 l15 -24 l0 -8 q0 -31 -109 -39 q-28 0 -133 16 q23 -88 23 -227 l0 -23 l8 0 l133 55 q-31 134 -31 140 l15 8 q28 0 63 -133 q53 24 86 24 l8 0 q15 -2 15 -16 q-17 -39 -93 -63 l93 -320 q20 0 47 180 l16 0 q15 -94 15 -149 q0 -132 -70 -132 l-16 0 q-54 0 -132 398 l-8 0 q-156 -37 -156 -78 q0 -68 -8 -156 q68 80 109 93 l8 -15 q-78 -166 -148 -219 l-24 0 q-16 4 -31 39 q47 262 47 414 q-8 203 -16 203 q-12 0 -31 32 q0 11 23 23 ZM381 695 q15 -2 15 -15 l0 -16 q-5 -29 -125 -70 q24 -80 24 -453 l0 -55 q0 -94 -31 -94 l-16 0 q-14 0 -23 47 q7 145 7 242 l0 297 q-66 -23 -132 -23 l-16 23 l0 8 q10 12 219 78 q35 31 70 31 l8 0 ZM635 102 q39 -18 86 -79 l0 -31 q0 -15 -16 -15 l-16 0 q-11 0 -101 101 l0 8 q2 16 16 16 l31 0 Z" /><glyph glyph-name="uni4F4F" unicode="&#x4f4f;" d="M521 758 q188 -98 188 -110 q0 -11 -23 -23 l-32 0 q-156 35 -156 117 q0 16 23 16 ZM404 668 l0 -16 q-45 -60 -117 -78 q16 -164 16 -469 l0 -31 q0 -109 -47 -109 l-31 55 q7 105 15 531 q-70 -24 -94 -24 l-31 0 q-11 0 -23 24 l0 8 q0 9 172 62 q99 63 132 63 l8 -16 ZM818 570 l0 -7 q-15 -43 -148 -47 l-24 0 q16 -90 16 -172 l8 0 q92 8 133 8 l8 -16 l0 -16 q0 -27 -149 -39 l0 -187 l8 0 q242 0 242 -39 l0 -24 q0 -6 -23 -23 q-59 15 -110 15 l-93 0 q-192 0 -305 -15 l-8 15 l0 8 q0 37 219 55 l0 8 q8 80 8 125 l0 54 l-39 0 q-102 6 -102 32 l0 8 q2 15 16 15 l86 0 l39 8 l0 172 q-180 15 -180 47 l0 8 q2 15 16 15 l171 0 q32 0 196 16 l15 -24 Z" /><glyph glyph-name="uni4F51" unicode="&#x4f51;" d="M611 768 q18 -2 18 -18 l0 -23 q-8 -79 -8 -123 q37 0 188 39 l7 -18 l0 -16 q0 -37 -226 -88 q-39 -91 -39 -121 q60 -31 99 -31 q39 0 235 39 l25 -33 l0 -8 q0 -117 -195 -314 l-57 -16 l-15 0 q-28 0 -61 29 q0 -68 -33 -68 q-33 16 -33 41 q0 72 7 133 q-7 74 -7 162 l-12 0 q-90 -180 -166 -180 l-22 0 l0 -123 q0 -43 -33 -56 l-8 0 q-21 0 -33 72 q8 101 8 164 l0 16 q0 115 -8 218 q8 51 8 129 q-49 -21 -123 -21 l-16 0 q-17 0 -17 17 l0 16 q0 12 181 64 q118 63 135 63 l8 -18 l0 -15 q-35 -49 -117 -88 q8 -57 15 -379 l14 0 q127 142 193 316 l-37 0 q-111 8 -111 34 l0 15 l8 18 l96 -8 l31 0 q56 0 68 123 q20 57 33 57 ZM635 311 q-20 0 -69 15 l0 -6 q0 -209 69 -209 l15 0 q112 53 192 239 l-4 0 q-90 -39 -172 -39 l-31 0 Z" /><glyph glyph-name="uni4F53" unicode="&#x4f53;" d="M643 793 q27 0 27 -104 l0 -85 l6 0 q105 23 138 23 q18 -2 18 -18 l0 -15 q0 -24 -162 -65 l0 -52 q252 -256 252 -342 l0 -8 q0 -12 -26 -25 l-19 0 q-76 123 -193 285 l-6 0 l0 -155 l88 0 q17 -2 17 -17 q0 -22 -97 -49 q0 -246 -43 -246 l-8 0 q-14 0 -26 25 l0 211 l-80 -8 l-23 0 q-20 0 -20 20 l0 8 q0 23 123 41 l0 84 q0 27 8 41 l-8 47 l0 62 l-17 26 q17 0 17 13 l0 30 q-11 -6 -37 -6 l0 -8 q-31 -332 -164 -373 q-39 17 -43 35 q86 62 98 127 q64 141 64 211 l-6 0 q-99 0 -99 25 l0 8 q0 22 187 49 q8 117 8 172 l0 8 q0 13 26 25 ZM383 658 l0 -25 q0 -8 -90 -88 q16 -119 23 -369 q-7 -201 -50 -201 l-8 0 q-20 0 -26 43 q0 72 16 259 q-8 123 -8 250 q-51 -31 -119 -31 l-17 0 q-18 0 -18 20 l0 15 q0 12 146 57 q118 86 141 86 l10 -16 Z" /><glyph glyph-name="uni4F55" unicode="&#x4f55;" d="M887 684 l8 -18 l0 -16 q0 -19 -73 -31 q32 -115 32 -449 q0 -231 -65 -231 l-8 0 q-43 0 -193 200 l16 7 l162 -111 l7 0 q16 135 16 279 l0 88 q0 69 -8 202 q-25 0 -136 -8 q-155 17 -155 54 l0 8 q2 16 16 16 q82 -16 139 -16 l242 26 ZM389 666 q15 -2 15 -16 l0 -7 q-6 -24 -88 -65 l8 -15 l0 -329 q0 -74 8 -207 q-12 -33 -23 -33 l-26 0 q-23 8 -23 49 l0 271 q0 145 15 241 l-80 -8 l-33 0 q-43 0 -57 31 q0 16 147 33 q109 55 137 55 ZM473 490 q15 0 41 -54 l195 39 q31 -12 31 -24 l0 -23 q0 -92 -136 -233 l-90 -41 l-16 0 q-16 0 -16 16 l0 10 q0 119 -25 295 q2 15 16 15 ZM521 379 q0 -18 18 -145 l8 0 q119 108 129 176 l-8 0 q-105 -23 -147 -23 l0 -8 Z" /><glyph glyph-name="uni4F59" unicode="&#x4f59;" d="M512 816 q19 -2 19 -19 l0 -16 q-17 -72 -17 -92 q107 -9 363 -255 l0 -34 q0 -19 -20 -19 l-25 0 q-283 262 -352 262 q-171 -254 -287 -254 q-45 0 -50 27 l0 18 l9 19 l20 -10 q92 0 266 252 q58 121 66 121 l8 0 ZM652 488 l0 -9 q-2 -34 -103 -43 l6 -92 l0 -4 l4 0 q138 33 152 33 l16 -27 l0 -10 q0 -33 -164 -66 l0 -4 q-2 -120 11 -280 q-11 -74 -37 -74 l-23 0 q-35 0 -139 285 l-2 0 q-12 -101 -115 -197 l-39 0 q-16 0 -28 25 l0 12 q86 53 104 117 q27 75 59 100 l17 0 q20 -8 115 -207 l2 0 q10 174 12 215 l-4 0 l-47 -8 l-86 0 q-60 0 -66 27 l0 8 q0 20 203 43 l-6 76 l0 20 l-4 0 q-121 0 -119 62 q8 0 8 10 q72 -10 80 -10 q160 18 184 18 l9 -20 ZM621 254 q119 0 219 -193 l0 -18 q0 -27 -35 -27 q-18 0 -133 150 q-59 29 -88 66 q4 22 21 22 l16 0 Z" /><glyph glyph-name="uni4F5B" unicode="&#x4f5b;" d="M512 766 q33 0 33 -94 l39 0 q8 94 25 94 q20 0 32 -86 q66 15 138 15 l16 -23 l0 -8 q0 -57 -154 -156 l0 -94 q132 39 203 39 q64 0 64 -62 q0 -75 -80 -321 q-27 -15 -49 -15 q-39 0 -129 101 l-9 0 q9 -52 9 -86 q0 -195 -33 -195 q-33 35 -33 219 l0 234 l-8 0 q-49 0 -49 -62 q-23 -166 -54 -172 l-18 0 q-16 0 -16 23 l24 172 q-25 -16 -47 -16 l-33 0 q-12 0 -24 32 q0 13 65 156 q-33 0 -33 23 q0 20 97 39 l0 94 q-49 0 -90 55 l0 23 q2 16 18 16 q33 -31 80 -31 l0 70 q2 16 16 16 ZM367 668 q16 -2 16 -16 l0 -15 q0 -24 -106 -63 l16 -398 q-4 -156 -39 -156 l-18 0 l-23 15 q8 197 8 313 l0 78 q0 41 8 133 l-57 -8 l-24 0 q-43 0 -56 31 q0 18 170 47 q76 39 105 39 ZM641 625 l0 -47 q13 0 48 47 l-48 0 ZM553 617 l-8 -78 l23 0 q16 0 16 16 l0 62 l-31 0 ZM537 375 q26 16 47 16 l0 93 l-23 0 q-18 0 -24 -109 ZM432 336 q56 0 56 133 q-29 0 -56 -133 ZM641 219 q0 -12 130 -94 q81 145 81 266 l0 15 l-8 0 q-59 0 -203 -47 l0 -140 Z" /><glyph glyph-name="uni4F5C" unicode="&#x4f5c;" d="M482 816 q12 0 32 -31 l0 -125 l7 0 q77 0 290 24 l15 -24 l0 -15 q-12 -40 -203 -40 l8 -93 l0 -55 l47 0 q117 0 117 -62 q0 -41 -109 -188 l7 0 q131 55 203 55 l8 -16 q-175 -117 -281 -117 l0 -63 q0 -140 -39 -140 l-8 0 q-23 6 -23 62 q31 582 31 617 l-39 0 l-39 8 q-43 -258 -117 -258 l-24 32 q102 218 102 375 l0 39 q2 15 15 15 ZM404 668 l0 -23 q-54 -69 -125 -86 q24 -108 24 -258 l0 -180 q0 -60 -32 -70 l-15 0 l-16 8 q8 224 8 320 q0 41 -8 156 q-70 -15 -101 -15 l-24 0 q-15 0 -15 15 l0 8 q9 20 187 78 q82 63 109 63 l8 -16 ZM631 410 l0 -172 q101 108 101 164 q-43 8 -70 8 l-31 0 Z" /><glyph glyph-name="uni4F60" unicode="&#x4f60;" d="M500 754 q23 -4 23 -63 l0 -7 l-7 -39 l7 0 q75 0 262 23 q49 0 49 -55 q-80 -164 -160 -164 l-8 16 q8 39 88 133 l0 7 q-129 -15 -207 -15 l-39 8 l0 -8 q-20 -180 -55 -180 l-15 0 q-18 0 -18 16 l0 8 q53 320 72 320 l8 0 ZM396 664 q16 -2 16 -16 l0 -15 q-6 -24 -135 -70 q26 -124 26 -438 l0 -109 q0 -12 -26 -24 l-23 0 q-24 0 -24 86 l0 453 l8 16 l-78 -8 l-49 0 q-11 0 -23 24 l0 7 q0 12 150 39 q129 55 151 55 l7 0 ZM611 543 q47 0 47 -477 q8 0 8 -78 q0 -21 -39 -39 q-76 0 -135 289 l-15 0 q-30 -140 -104 -140 l-8 0 q-11 0 -23 23 l0 39 q53 0 70 63 q37 119 57 132 l15 0 q18 -5 80 -250 q24 -39 32 -39 l0 16 q0 84 8 117 q-8 90 -8 172 l0 156 q2 16 15 16 ZM723 340 l23 0 q125 -125 143 -258 q-12 -31 -24 -31 l-23 0 q-28 31 -96 211 q-39 35 -39 70 l16 8 Z" /><glyph glyph-name="uni4F69" unicode="&#x4f69;" d="M795 734 q31 0 31 -109 l0 -49 q0 -332 24 -494 l7 0 q22 78 79 127 q0 -8 7 -8 q0 -213 -101 -213 q-59 0 -71 237 q8 52 8 86 q-8 337 -8 369 l-7 0 q-131 -39 -205 -39 l-16 0 q-74 0 -125 23 q23 -76 31 -283 q-15 -338 -78 -338 l-8 0 q-15 0 -15 16 q39 195 39 345 q0 198 -16 268 q10 39 24 39 l140 -23 l260 46 ZM348 668 q0 -35 -104 -78 q24 -213 24 -527 l0 -55 q0 -12 -32 -31 q-31 11 -31 23 l0 582 q-12 -10 -78 -16 q-63 6 -63 24 l0 8 q0 21 196 62 q0 12 80 24 l8 -16 ZM559 602 q86 7 148 7 l8 -15 l0 -10 q0 -20 -94 -39 l0 -8 q8 -66 8 -109 l0 -8 q70 23 96 23 l15 0 q16 -2 16 -15 l0 -16 q-18 -258 -49 -258 l-23 0 q-39 24 -39 55 l-8 0 l0 -8 q8 -131 8 -197 q-4 -70 -24 -70 l-23 0 q-16 0 -16 15 q-8 258 -8 401 l0 15 l-39 0 q8 -92 8 -133 l0 -62 q0 -12 -23 -25 l-16 0 q-12 0 -24 25 q0 35 8 101 q-8 96 -23 188 l15 8 q40 -24 40 -55 l54 0 l8 94 l0 23 l8 16 q-125 6 -125 39 l0 10 q2 15 15 15 l79 -7 ZM629 365 l8 -94 l0 -23 q23 -8 47 -8 l15 149 l-70 -24 Z" /><glyph glyph-name="uni4F6C" unicode="&#x4f6c;" d="M557 775 q25 0 31 -101 l16 8 l70 0 q12 0 23 -24 q-39 -29 -109 -47 l0 -140 l16 0 q66 74 156 242 l8 0 q15 -2 15 -16 l0 -8 q0 -48 -86 -210 l8 0 q14 7 31 7 l55 0 q16 -2 16 -15 l0 -16 q0 -21 -164 -47 q0 -15 -55 -86 q23 -27 23 -93 q53 31 133 93 l16 0 q11 0 23 -23 q-125 -141 -179 -141 l7 -94 l0 -23 q2 -16 16 -16 q70 0 234 196 l24 0 q15 -2 15 -16 l0 -39 q-170 -211 -273 -211 l-23 0 q-55 27 -55 78 l0 102 l8 15 q-16 0 -16 16 l0 8 q23 29 23 70 l0 39 q-150 -172 -210 -172 q-41 0 -47 24 l0 23 l7 16 l16 -8 l8 0 q144 115 219 227 l0 7 q-116 -7 -157 -7 q-78 9 -78 31 l0 8 q0 15 24 15 q138 0 187 16 q0 16 -8 16 l8 78 l0 47 l-39 0 q-78 9 -78 31 l0 23 l8 16 l78 -8 l31 0 l0 8 q0 101 24 101 ZM393 674 l0 -16 q-14 -27 -125 -78 q0 -8 7 -8 q16 -330 16 -578 l-16 -8 l-23 0 q-23 0 -23 102 l0 461 l7 15 l-78 -7 l-23 0 q-41 0 -47 23 l0 16 q0 17 109 23 q164 78 180 78 l16 -23 Z" /><glyph glyph-name="uni4F73" unicode="&#x4f73;" d="M668 768 q25 0 31 -112 l0 -13 l6 0 q109 13 121 13 l16 -25 q0 -47 -145 -55 l0 -45 l-9 -37 l183 22 l16 -26 l0 -17 q0 -28 -192 -45 q12 -114 18 -114 l137 30 l9 0 q18 -4 18 -20 l-2 -15 q0 -34 -168 -61 l-4 -160 l6 0 q203 19 232 19 l18 -25 l0 -8 q-2 -58 -387 -66 q-146 8 -144 43 l0 8 q0 17 25 15 q37 0 174 6 l10 76 l2 76 l-55 0 q-98 2 -96 36 q8 25 49 25 l88 -2 q16 0 16 14 l0 23 l9 92 q-7 0 -7 8 q-49 -16 -151 -14 q-56 14 -56 33 l0 8 q0 18 25 18 q158 -2 160 27 q8 31 8 63 l0 5 q-119 20 -117 51 l0 8 q2 18 17 18 l8 0 l94 -10 l10 53 l0 62 q4 18 19 18 l8 0 ZM443 660 l0 -15 q0 -30 -129 -73 q24 -113 24 -474 l0 -55 q0 -63 -33 -72 l-16 0 q-19 0 -25 39 q7 361 7 545 q-29 -14 -85 -14 l-16 0 q-45 0 -51 23 l0 18 q0 14 129 31 q96 47 178 73 l17 -26 Z" /><glyph glyph-name="uni4F7F" unicode="&#x4f7f;" d="M684 756 l0 -76 l15 0 q39 0 82 8 q57 -8 57 -24 l0 -8 q0 -25 -106 -29 l-33 0 q-15 -2 -15 -16 l0 -70 l15 8 l139 0 q12 0 23 -22 l0 -23 q-6 -82 -234 -252 q0 -20 -18 -78 q327 -129 327 -197 l0 -16 q0 -16 -16 -16 l-33 0 q-237 168 -293 168 q-59 -144 -139 -144 l-8 0 q-105 21 -105 76 q8 0 8 8 q54 -24 89 -24 q43 0 81 116 l0 7 q-106 32 -114 53 q0 16 26 16 q23 0 113 -24 q0 6 16 55 l-24 -16 l-25 0 q-37 0 -57 313 l25 15 q24 0 24 -29 l98 6 l15 0 l10 55 l0 23 l-10 0 q-129 0 -129 29 q0 18 155 40 q3 91 23 91 l18 -23 ZM391 670 q15 0 15 -24 q0 -27 -113 -95 q16 -149 16 -287 l0 -135 q0 -145 -41 -145 l-8 0 q-16 4 -33 41 q17 174 17 334 l0 176 q-109 -33 -139 -33 q-41 10 -41 23 l0 18 q2 14 172 62 q24 26 147 65 l8 0 ZM740 496 l-49 0 q-25 0 -41 -139 q75 45 147 147 l-57 -8 ZM520 496 q23 -183 41 -183 l17 0 q31 164 31 175 l-7 0 l-82 8 Z" /><glyph glyph-name="uni4F8B" unicode="&#x4f8b;" d="M844 752 l8 0 q33 0 41 -633 q-12 -172 -61 -172 l-33 0 q-57 26 -125 149 l0 15 l8 0 q9 0 119 -78 q19 108 21 188 q4 119 -6 390 q10 51 12 133 l16 8 ZM529 721 q32 -16 32 -39 q-2 -47 -63 -227 l8 0 q6 0 105 55 l34 0 q17 0 23 -39 q-113 -354 -205 -430 l-49 0 q-39 20 -37 63 l0 39 q2 15 18 15 q-2 -12 31 -31 q23 0 66 102 l-8 0 q-119 60 -119 70 l0 8 q2 15 16 15 l10 0 q52 0 127 -47 l7 0 q0 10 61 149 l-8 0 q-101 -70 -131 -70 l-23 0 q-26 7 -24 46 q104 248 104 282 l-98 -8 q-15 0 -15 15 l0 8 q7 24 66 24 l72 0 ZM352 686 q15 -20 13 -32 q0 -31 -113 -86 q21 0 25 -523 q-6 -39 -25 -39 l-23 0 q-32 0 -30 109 l4 172 q2 82 -2 250 l-8 0 q-54 -31 -97 -31 l-24 0 q-11 0 -23 23 l0 8 q10 10 154 70 q119 79 149 79 ZM725 518 q25 0 29 -118 q-4 -164 -35 -164 l-18 0 q-15 0 -15 16 l5 219 q8 47 26 47 l8 0 Z" /><glyph glyph-name="uni4F8F" unicode="&#x4f8f;" d="M602 777 q25 0 31 -164 l8 0 q54 24 89 24 q12 0 24 -24 q0 -37 -113 -62 l0 -117 q11 0 160 46 l10 -15 q0 -65 -161 -102 l0 -86 q0 -11 231 -132 q41 -32 41 -40 l0 -39 q0 -15 -16 -15 l-8 0 q-23 0 -240 133 l0 -102 q0 -156 -33 -156 l-16 0 q-11 0 -23 23 l0 274 q0 11 -41 31 l-8 0 q-94 -219 -176 -219 q-41 12 -41 55 q16 0 16 15 l18 -7 q152 160 152 234 l-57 -8 l-88 0 q-15 0 -15 16 l0 8 q0 21 240 62 q-6 110 -18 110 q-74 -40 -142 -40 q-26 26 -26 40 q51 242 65 242 q15 -2 15 -16 l0 -55 q0 -62 -15 -140 l8 0 q105 29 105 47 l0 164 q2 15 16 15 l8 0 ZM361 664 l0 -8 q0 -35 -113 -78 q18 -86 18 -265 l0 -219 q-8 -102 -34 -102 l-7 0 q-12 0 -32 39 q8 129 16 532 q-37 -16 -104 -16 l-25 0 q-16 0 -16 16 l0 7 q10 12 209 71 q41 39 81 39 l7 -16 ZM586 285 l0 63 q-33 -6 -33 -63 l33 0 Z" /><glyph glyph-name="uni4F9B" unicode="&#x4f9b;" d="M682 762 q31 -10 31 -71 l0 -93 l94 23 l15 -23 l0 -16 q0 -21 -109 -55 q-16 -154 -47 -218 l8 0 l234 31 l8 -16 l0 -23 q0 -49 -570 -94 q-32 12 -32 23 l0 8 q0 20 165 39 l0 118 q0 39 -8 117 q-102 13 -102 39 q0 19 102 23 q-8 92 -8 133 l0 8 q2 15 16 15 q39 -13 39 -156 l7 0 q41 0 133 8 l8 78 l0 86 q2 16 16 16 ZM377 688 q16 -2 16 -16 l0 -16 q-55 -66 -133 -86 q31 -107 47 -484 q-6 -125 -39 -125 l-8 0 l-31 23 q7 92 7 133 l0 8 q0 146 -7 430 l-55 -8 l-63 0 q-11 0 -23 23 l0 8 q0 16 148 39 q112 71 141 71 ZM525 504 q8 -102 8 -164 l0 -55 q76 0 94 102 q23 86 23 133 l-7 0 q-79 -8 -118 -8 l0 -8 ZM510 199 q15 0 15 -23 q-68 -180 -156 -180 l-15 0 q-12 0 -24 24 l0 15 l86 55 q72 109 78 109 l16 0 ZM713 199 q88 0 203 -203 l0 -31 q0 -12 -23 -24 l-16 0 q-18 4 -109 149 q-32 39 -86 78 l0 8 q0 19 31 23 Z" /><glyph glyph-name="uni4F9D" unicode="&#x4f9d;" d="M516 781 q185 -66 185 -86 q0 -15 -45 -31 q-156 43 -156 86 l0 16 q2 15 16 15 ZM385 648 q0 -37 -100 -78 q16 -76 16 -211 l0 -78 q113 32 246 274 l0 8 l-53 0 q-109 5 -109 39 l0 7 q2 16 15 16 l94 0 q78 0 285 31 q16 -2 16 -15 l0 -24 q0 -29 -193 -54 q0 -34 -79 -157 q28 0 32 -336 q93 110 109 110 l8 -16 q-24 -117 -117 -203 l-39 0 q-18 0 -22 39 q6 248 6 359 l-6 0 q-119 -140 -185 -140 q0 8 -8 8 l0 -235 q0 -12 -31 -31 l-8 0 q-22 0 -32 62 q8 385 16 532 q-62 -24 -115 -24 l-8 0 q-57 0 -62 24 l0 15 q0 12 169 39 q112 63 139 63 l16 -24 ZM871 438 q16 -2 16 -16 l0 -24 q-33 -56 -139 -125 q186 -179 186 -273 l-32 -23 l-15 0 q-12 0 -69 109 q-142 174 -240 281 l0 16 q2 15 16 15 q8 0 115 -70 q66 31 146 110 l16 0 Z" /><glyph glyph-name="uni4FA0" unicode="&#x4fa0;" d="M631 793 q25 -4 25 -63 l0 -54 q22 0 131 23 l8 -15 l0 -24 q0 -12 -24 -23 q16 -26 16 -47 l0 -24 q0 -134 -105 -226 l-18 0 q-16 0 -16 15 l0 8 q82 170 82 258 q-82 0 -82 -47 q-17 -172 -41 -289 q108 16 286 63 l17 -24 l0 -15 q0 -47 -318 -94 q-61 -266 -149 -266 q-11 0 -33 31 l0 40 q2 15 18 15 q2 -15 15 -15 q67 156 67 195 q-8 0 -8 -8 q-164 8 -164 31 l0 8 q0 22 195 31 q33 110 59 328 l-74 0 q-82 10 -82 32 l0 8 q2 15 15 15 l51 0 q98 0 98 24 q7 109 31 109 ZM387 637 q15 -2 15 -16 l0 -8 q-47 -60 -123 -78 q34 -381 34 -476 q-6 -79 -34 -79 l-23 0 q-12 0 -26 40 l10 39 q-10 310 -10 453 l-7 0 l-82 -8 q-57 12 -57 31 l0 8 q2 16 16 16 l33 0 q94 0 221 78 l33 0 ZM436 574 l7 0 q49 0 90 -234 l-23 -16 l-18 0 q-15 0 -72 242 l16 8 ZM689 191 q94 0 229 -195 l0 -23 q0 -12 -25 -24 l-16 0 l-213 219 l0 8 q2 15 18 15 l7 0 Z" /><glyph glyph-name="uni4FA6" unicode="&#x4fa6;" d="M596 785 q23 0 31 -117 q96 23 133 23 l8 -15 l0 -16 q0 -27 -141 -47 l0 -82 l-8 -15 q8 0 8 -8 q174 47 195 47 q32 -8 32 -32 q-14 -382 -55 -382 l-24 0 q-11 0 -23 23 q31 190 39 320 q-156 -39 -242 -39 l-16 0 l-54 8 q15 -189 15 -265 l0 -32 q0 -11 -23 -23 l-16 0 q-12 0 -23 23 l0 63 q0 150 -24 304 l16 8 l15 0 q18 0 24 -39 l39 8 l55 0 q7 86 7 137 l0 133 q2 15 16 15 l16 0 ZM412 676 q16 -2 16 -16 l0 -8 q-63 -78 -133 -93 q31 -274 31 -512 l0 -63 q0 -11 -23 -23 l-24 0 q-11 0 -23 31 q-8 237 -8 379 l0 172 q-55 -22 -133 -31 q-39 9 -39 23 q0 22 211 78 q98 63 125 63 ZM627 438 q12 0 23 -24 l0 -23 q0 -250 -164 -430 l-47 0 q-15 0 -15 16 l0 31 q90 51 148 242 q24 70 39 180 l16 8 ZM682 164 q121 0 226 -180 l0 -31 q0 -15 -15 -15 l-24 0 q-86 113 -117 132 q-94 61 -94 71 q0 11 24 23 Z" /><glyph glyph-name="uni4FA7" unicode="&#x4fa7;" d="M842 746 q47 0 54 -523 q0 -266 -46 -266 l-39 0 q-47 0 -118 219 l8 0 q10 0 110 -110 q23 137 23 258 q0 61 -8 414 l16 8 ZM303 715 q15 -2 15 -16 l0 -15 q0 -20 -78 -47 q22 -49 31 -500 q-5 -172 -39 -172 l-23 0 q-14 0 -23 47 q15 199 15 289 q-8 242 -8 320 q-50 -23 -109 -23 l-31 0 q-12 0 -24 23 q0 12 227 78 q0 14 39 16 l8 0 ZM592 699 q23 0 23 -31 q-27 -422 -47 -422 l-31 0 q-16 0 -16 24 q0 68 40 367 q-96 -32 -165 -32 q16 -105 24 -226 q-8 -109 -31 -109 l-24 0 q-15 0 -15 15 q0 45 7 125 q0 33 -23 258 l16 8 l7 0 l24 -16 l23 0 q37 0 180 39 l8 0 ZM678 582 l8 0 q48 0 62 -281 q-12 -31 -23 -31 l-16 0 q-12 0 -23 23 l0 8 q0 140 -24 273 l16 8 ZM490 566 q14 0 24 -46 q-8 -163 -39 -258 q171 -108 171 -180 q0 -12 -23 -23 q-27 0 -148 140 l-16 8 q-29 -92 -102 -164 l-39 0 q-11 0 -23 23 l0 16 q86 72 133 234 l47 250 l15 0 Z" /><glyph glyph-name="uni4FB5" unicode="&#x4fb5;" d="M830 707 q-72 -256 -156 -256 q-39 -15 -180 -15 l-15 0 q-16 0 -16 15 l0 8 q0 27 219 55 q0 13 31 70 l-8 0 q-78 -31 -156 -31 l-16 0 q-41 0 -47 23 l0 16 q0 13 266 53 l8 39 l-8 0 q-156 -8 -234 -8 q-63 13 -63 31 l0 8 q2 15 16 15 l23 0 q115 0 313 8 l23 -31 ZM416 652 l0 -7 q-23 -47 -125 -79 l0 -7 q27 0 39 -454 l0 -62 q0 -43 -39 -63 l-8 0 l-31 32 q8 117 8 172 l0 46 q0 122 -8 329 q-59 -16 -109 -16 l-32 0 q-41 0 -47 23 l0 16 q2 16 16 16 l24 0 q119 0 296 78 l16 -24 ZM916 482 q12 0 23 -23 l0 -23 q0 -69 -140 -147 l-8 0 l8 -16 q0 -39 -110 -169 l0 -8 q207 -92 207 -151 l0 -15 q0 -16 -15 -16 l-8 0 q-16 0 -238 135 q-90 -84 -141 -84 l-55 0 q-31 14 -31 53 l0 15 l8 0 q57 -8 63 -8 q72 32 93 63 q-93 41 -93 47 l0 15 q1 16 15 16 q49 0 133 -31 q78 88 78 92 l-8 0 q-74 -14 -117 -14 l-55 0 q-11 0 -23 21 l0 16 q2 16 16 16 l39 0 q234 21 234 62 l70 86 l-7 0 q-223 -70 -391 -70 l0 -8 q8 -53 8 -86 l0 -37 q0 -12 -32 -31 l-7 0 q-12 0 -24 23 l0 29 q0 67 -23 172 q2 16 15 16 l16 0 q8 0 31 -31 q96 0 461 91 l8 0 Z" /><glyph glyph-name="uni4FBF" unicode="&#x4fbf;" d="M443 729 q297 -22 297 -38 l0 -7 q-10 -32 -70 -32 l-31 0 l7 -52 l0 -14 l157 29 q19 0 47 -45 q-34 -384 -79 -384 l-39 0 q-5 0 -101 99 q-70 -12 -70 -144 q359 -108 359 -143 l0 -29 q0 -24 -31 -24 q-65 45 -368 143 q-46 -90 -101 -113 l-16 0 q-49 0 -54 60 l0 24 l54 -16 q47 68 47 76 q-94 29 -94 45 q2 16 16 16 l16 0 q54 0 86 -16 q31 59 39 82 l-8 0 q-49 0 -78 -29 l-24 0 q-25 0 -39 383 l16 7 l8 0 q37 -44 78 -44 q33 0 133 15 l0 53 l7 15 q-175 22 -179 53 l0 14 q2 16 15 16 ZM357 652 q0 -6 8 -6 q0 -41 -117 -76 q47 -347 47 -572 q0 -29 -31 -45 l-24 0 q-23 6 -23 61 l0 82 q0 23 8 23 l-8 45 q0 121 -8 391 q-55 -14 -94 -14 l-47 0 q-11 0 -23 22 l0 7 q0 14 312 82 ZM639 457 l54 0 q12 0 24 -21 l0 -8 q0 -18 -94 -39 l-8 -45 q31 15 86 15 l24 0 l0 -15 l-32 -37 l47 -30 l8 0 q47 219 47 286 l-8 0 q-148 -20 -148 -61 l0 -45 ZM428 525 l8 -37 l0 -60 l7 0 q133 0 133 29 q8 31 8 61 l0 7 l-16 -7 l-101 0 l-39 7 ZM443 375 l0 -8 q2 -76 16 -76 q102 25 102 92 l-8 0 l-110 -8 Z" /><glyph glyph-name="uni4FC3" unicode="&#x4fc3;" d="M439 717 l24 -16 l125 0 q66 0 213 8 l15 -31 q0 -59 -171 -192 q15 -41 15 -148 l6 0 q98 21 127 21 l16 -23 l0 -8 q0 -31 -149 -47 l8 -52 l0 -127 q264 -96 266 -123 l0 -16 q0 -12 -26 -24 l-15 0 q-219 69 -413 204 q-52 -188 -111 -188 q-41 10 -41 24 l0 46 q2 16 20 16 q2 -16 13 -16 l6 0 q86 166 94 334 l18 8 q25 -8 25 -47 l0 -15 q0 -39 -8 -127 q41 0 98 -35 l0 302 q-51 -23 -92 -74 l-16 0 q-11 0 -48 55 q0 6 7 47 q-31 172 -31 228 l25 16 ZM369 684 q18 -2 18 -18 l0 -8 q0 -17 -110 -84 q24 -191 24 -439 q0 -160 -41 -160 l-16 0 l-25 15 q8 287 8 434 l0 133 q-8 0 -84 -14 l-55 0 q-14 0 -25 23 l0 8 q0 14 181 55 q86 55 117 55 l8 0 ZM480 650 q36 -170 45 -170 q67 26 202 166 l0 4 l-14 -5 l-195 0 l-38 5 Z" /><glyph glyph-name="uni4FC4" unicode="&#x4fc4;" d="M406 752 q157 -33 157 -53 l0 -13 q0 -16 -47 -16 q15 -61 15 -143 l0 -21 q90 14 110 14 q-16 84 -24 195 l16 8 l8 0 q21 0 54 -188 l8 0 q22 0 117 29 l8 0 q16 -1 16 -13 l0 -24 q0 -21 -133 -58 q47 -188 47 -203 l133 134 q15 -2 15 -15 q0 -61 -117 -201 q0 -14 55 -159 l8 0 q13 0 46 77 l24 0 l0 -8 q0 -151 -78 -151 l-16 0 q-39 0 -101 188 l-55 -22 q-47 14 -47 30 l0 37 q2 15 16 15 q15 -7 23 -7 q8 0 47 29 q-61 248 -70 248 q-53 -8 -86 -8 l-16 0 l0 -74 q80 37 109 37 q0 -45 -109 -113 l0 -194 q0 -150 -47 -150 l-8 0 q-80 0 -140 209 l0 16 l8 0 l109 -120 l8 14 l0 188 q-90 -61 -133 -61 l-8 16 l0 15 q8 18 149 112 l0 97 l-149 0 q-15 0 -15 16 l0 8 q0 17 164 37 l0 14 q7 130 7 158 q-66 0 -93 45 l0 7 l15 22 ZM727 715 l7 0 q102 -20 102 -74 l-16 -8 l-15 0 q-94 15 -94 74 l16 8 ZM352 674 l0 -8 q-14 -31 -86 -61 q15 -183 23 -425 q0 -203 -47 -203 l-8 0 q0 11 -23 23 q8 299 8 449 l0 119 l8 16 l-8 0 l-94 -23 q-78 11 -78 37 q0 13 148 31 q96 59 149 59 l8 -14 Z" /><glyph glyph-name="uni4FD8" unicode="&#x4fd8;" d="M473 732 q121 -23 166 -23 l84 0 l43 -8 l0 -23 q-12 -32 -77 -32 l-50 0 q-147 0 -192 61 l0 8 q0 17 26 17 ZM771 658 q20 -4 20 -17 q0 -80 -143 -172 l0 -6 l8 0 l84 8 l8 -16 l0 -16 q0 -27 -105 -169 q27 0 87 -30 q53 0 174 24 q35 -12 35 -26 q-25 -54 -199 -54 l0 -41 q0 -204 -94 -204 q-101 0 -160 145 q10 0 10 10 q125 -76 150 -76 l8 0 q24 56 34 130 q-10 14 -10 30 l-213 0 q-63 0 -69 23 q0 24 94 24 l104 0 q-24 27 -24 43 q0 9 100 142 l0 4 l-197 -14 q-35 12 -35 24 l0 10 l33 29 q0 82 -59 162 q4 18 20 18 l17 0 q45 0 84 -180 l6 0 q49 17 49 27 q-12 0 -25 24 l0 66 l-8 55 l17 8 q53 -18 53 -133 q45 25 146 148 ZM322 662 l26 0 q17 -2 17 -17 l0 -18 q-45 -49 -119 -86 q16 -55 31 -381 q-4 -166 -41 -166 l-9 0 l-26 16 q8 170 8 252 l0 261 q-53 -13 -94 -13 q-31 0 -49 31 q0 16 129 43 l127 78 Z" /><glyph glyph-name="uni4FDD" unicode="&#x4fdd;" d="M441 697 q47 -29 71 -29 q74 0 248 16 q35 -18 39 -34 l0 -15 q0 -71 -154 -164 q7 -76 7 -116 l0 -27 l153 45 l8 0 q13 0 25 -23 q0 -37 -186 -80 l0 -4 q102 0 272 -196 q0 -25 8 -39 q-14 -33 -26 -33 l-17 0 q-147 184 -194 186 q0 13 -43 31 l0 -176 q-6 -111 -41 -111 l-23 0 q-41 0 -70 232 l-6 0 q-61 -123 -141 -123 q-31 12 -49 41 l88 47 q53 41 82 113 q-129 0 -129 41 q0 18 24 18 l47 -8 q160 16 160 43 q0 20 8 115 q-51 0 -67 -47 l-15 -7 q-38 0 -73 224 q-4 0 -31 47 l0 18 q0 15 25 15 ZM381 691 q15 -21 15 -33 q-1 -33 -107 -86 l16 -533 q-6 -103 -34 -103 l-23 0 q-6 0 -25 25 q7 144 7 209 l0 342 l8 35 q-72 -31 -113 -31 q-49 9 -49 25 l0 16 q0 11 149 48 q123 86 156 86 ZM510 617 q0 8 -4 8 l0 -6 q31 -103 31 -121 q90 0 205 129 l0 6 q-140 -16 -232 -16 ZM553 232 q11 -164 33 -168 l0 14 q0 35 8 176 l-30 0 q-11 0 -11 -22 Z" /><glyph glyph-name="uni4FE1" unicode="&#x4fe1;" d="M535 723 q67 -39 178 -55 l10 -18 l0 -9 q-10 -28 -53 -28 q-141 0 -164 92 l29 18 ZM383 680 q15 0 27 -28 q0 -23 -109 -80 q6 -11 6 -21 q15 -440 15 -530 q0 -66 -60 -66 q-18 22 -18 35 q0 110 8 565 l-4 0 q-74 -39 -121 -39 l-8 0 q-19 0 -19 19 l0 8 q4 21 283 137 ZM883 596 l0 -26 q0 -41 -363 -58 q-141 6 -141 52 l10 18 q72 -8 82 -8 q88 0 402 39 l10 -17 ZM795 471 l0 -10 q0 -39 -260 -51 q-53 10 -53 28 q0 33 303 50 l10 -17 ZM775 395 q20 -2 20 -20 l0 -8 q0 -47 -229 -64 q-84 6 -84 33 l0 8 q0 19 30 19 q66 0 254 32 l9 0 ZM463 264 l10 0 l48 -47 l6 0 q116 0 280 31 q39 -18 43 -35 l0 -16 q0 -119 -202 -254 l-56 -15 q-110 25 -110 90 q0 78 -39 236 l20 10 ZM531 162 q28 -156 43 -156 q121 0 213 183 l0 2 q-139 -29 -256 -29 Z" /><glyph glyph-name="uni4FE9" unicode="&#x4fe9;" d="M742 732 l16 0 q13 -2 13 -15 l0 -8 q-9 -25 -68 -45 q24 -37 24 -101 l0 -55 l7 0 l137 31 q37 -12 37 -53 q-29 -496 -45 -496 l-23 -15 l-22 0 q-60 0 -152 132 q16 6 23 6 q32 -2 114 -52 q17 0 21 91 q-70 112 -121 155 l-6 0 q-31 -155 -68 -155 q-31 12 -31 24 l0 39 q-12 0 -69 92 l-8 0 q0 -88 -74 -186 q-15 -107 -47 -107 l-5 0 q-12 0 -24 23 q16 188 16 209 q0 35 -24 270 l16 7 l16 0 q29 -44 82 -44 l31 0 q13 136 21 162 q-97 19 -97 76 q15 8 23 8 q66 -16 98 -16 l189 23 ZM340 721 q12 0 23 -24 q0 -37 -90 -60 q14 -137 14 -348 l0 -217 q-6 -109 -37 -109 l-16 0 q-15 0 -21 62 q14 221 14 364 l0 224 l-8 0 q-35 -23 -98 -23 l-23 0 q-10 0 -30 31 l0 8 q2 12 190 60 q0 14 76 32 l6 0 ZM568 633 q0 -41 -7 -154 q113 15 113 21 q8 43 8 70 q0 18 -8 86 q-106 -11 -106 -23 ZM719 354 q25 -2 121 -108 q15 211 15 233 l-7 0 q-129 -26 -129 -40 l0 -85 ZM537 385 q55 -71 92 -115 q37 126 37 169 l-8 0 q-113 0 -113 -39 q0 -15 -8 -15 ZM432 432 q15 -131 15 -170 l8 0 q29 95 29 162 l-52 8 Z" /><glyph glyph-name="uni4FEE" unicode="&#x4fee;" d="M545 807 q23 0 23 -32 q-23 -117 -41 -146 l18 0 q156 53 176 53 q11 0 23 -24 q0 -37 -103 -178 l0 -7 q304 -100 304 -186 l0 -8 q0 -15 -15 -15 l-16 0 q-152 131 -322 162 q-112 -131 -207 -131 l-18 0 l0 -109 q0 -41 -23 -47 l-24 0 q-17 0 -17 15 q10 178 10 264 l23 16 l8 0 q23 0 23 -77 l8 0 q76 0 162 92 l0 8 q-105 25 -105 47 q23 8 23 16 l129 -24 q72 100 72 109 l-8 0 q-89 -39 -128 -39 l-24 0 q-16 4 -31 39 q70 200 80 202 ZM344 680 q15 -2 15 -16 l0 -23 q-33 -47 -129 -86 q0 -8 10 -8 q16 -328 16 -551 q-8 -31 -33 -31 q-32 12 -32 23 l0 551 q-31 -16 -87 -16 q-57 0 -57 47 q16 0 16 16 q7 0 25 -8 q90 0 240 102 l16 0 ZM609 402 l16 0 q23 -7 23 -45 q0 -31 -48 -93 l0 -8 l64 0 q12 0 33 -31 l0 -16 q0 -21 -17 -47 l9 0 q30 16 63 16 l10 0 q11 0 31 -32 l0 -15 q0 -92 -209 -201 q-14 -8 -39 -8 l-8 0 q-14 0 -25 23 l0 8 q0 16 88 47 q66 45 129 115 l0 8 l-137 -45 l-16 0 q-15 0 -15 16 q0 25 80 107 l0 8 q-22 -8 -129 -23 l-16 23 l0 16 q104 103 104 132 l-8 38 l17 7 Z" /><glyph glyph-name="uni4FEF" unicode="&#x4fef;" d="M516 766 q152 -59 152 -71 l0 -7 q0 -12 -23 -24 l-8 0 q-108 0 -147 63 l0 23 q0 16 26 16 ZM357 701 q16 -2 16 -15 l-2 -24 q-39 -51 -105 -86 q15 0 17 -562 l0 -39 q-2 -12 -25 -24 l-16 0 q-33 0 -29 110 l12 492 l-57 -8 l-49 0 q-12 0 -23 23 l0 16 q2 16 17 16 q18 0 32 -8 q74 17 195 109 l17 0 ZM838 648 q12 0 23 -23 l0 -8 q0 -56 -345 -78 l-57 8 l0 -141 q47 24 137 117 l8 0 q15 0 15 -23 q-23 -57 -47 -78 q16 -70 16 -188 l0 -234 q0 -12 -24 -23 l-17 0 q-6 0 -24 23 q8 145 8 211 l0 164 l-8 0 q-46 -31 -72 -31 q0 -360 -49 -360 l-15 0 q-12 0 -26 24 q34 250 49 547 q-31 11 -31 23 l0 16 q2 15 16 15 l152 0 q103 0 273 39 l18 0 ZM820 555 q28 0 34 -102 q72 16 80 16 l15 -24 q0 -25 -95 -54 q0 -41 -8 -133 q8 -168 8 -250 q-14 -63 -34 -63 l-47 0 q-154 106 -154 164 q35 0 147 -78 l7 0 q8 53 24 344 q-65 -23 -137 -23 q-41 13 -41 46 q125 18 178 40 q0 19 8 117 l15 0 ZM660 313 l113 -86 l0 -8 q0 -24 -33 -24 q-111 37 -111 78 l0 24 q2 16 16 16 l15 0 Z" /><glyph glyph-name="uni4FF1" unicode="&#x4ff1;" d="M783 721 q35 -12 35 -28 l-9 -463 q84 14 117 14 l17 -25 q-4 -45 -170 -65 q125 -86 125 -179 q0 -18 -25 -30 l-18 0 q-15 0 -119 200 l14 5 l-164 -11 q-35 -157 -139 -157 l-31 0 q-16 0 -27 26 l0 15 q0 8 80 41 q52 53 56 75 l-4 0 q-13 -8 -33 -8 l-54 0 q-65 0 -75 33 l0 10 q0 8 6 12.5 q6 4.5 14 4.5 l88 0 q12 0 12 12 q0 18 9 135 q4 187 -33 369 q88 -16 92 -16 q58 0 236 30 ZM84 625 q0 23 201 66 q69 39 113 39 l10 -19 l0 -16 q0 -25 -103 -58 q13 -149 19 -633 q-19 -43 -35 -43 l-16 0 q-31 0 -33 113 q12 174 12 280 q0 33 -4 162 q6 27 10 105 l-4 0 q-66 -23 -135 -23 q-35 11 -35 27 ZM525 639 q6 -67 20 -67 l217 22 l0 66 l-2 0 q-57 0 -106.5 -10.5 q-49.5 -10.5 -59.5 -10.5 l-69 0 ZM547 461 q156 21 201 21 l4 0 l0 12 l8 47 l-4 0 q-51 0 -125 -12 q-49 -9 -80 -9 l-4 0 l0 -59 ZM549 207 q39 0 123 6 l66 6 l2 105 q-58 -11 -189 -21 l-2 -96 ZM553 355 q197 22 197 34 l0 49 l-2 0 q-64 -30 -195 -30 l0 -53 Z" /><glyph glyph-name="uni500D" unicode="&#x500d;" d="M533 773 q45 -29 147 -54 l0 -26 q0 -15 -28 -27 l-7 0 q-108 0 -147 64 l0 24 q2 19 20 19 l15 0 ZM387 701 l0 -25 q-73 -78 -104 -80 q16 -180 24 -598 q-12 -41 -28 -41 l-23 0 q-18 0 -29 41 q7 254 7 395 l0 171 l-2 0 q-72 -21 -95 -21 l-33 0 q-14 0 -36 33 l0 8 q0 18 114 35 q173 100 195 100 l10 -18 ZM764 674 q19 -2 19 -20 l0 -25 q-72 -37 -72 -61 q0 -68 -66 -177 l230 50 l16 0 q19 -2 19 -17 l0 -16 q0 -62 -472 -105 l-16 0 q-70 0 -108 51 l10 19 q82 -8 121 -8 l45 0 q0 215 -94 215 l-9 20 l0 15 q2 20 19 20 l8 0 q182 0 340 39 l10 0 ZM564 572 l-58 0 l0 -2 q33 -39 47 -177 q103 105 103 187 l-92 -8 ZM457 270 q106 -16 195 -16 l159 0 q15 0 27 -25 l0 -41 q-117 -176 -281 -227 l-47 0 q-53 0 -53 254 q-8 0 -8 47 q8 0 8 8 ZM516 205 q13 -33 13 -156 l0 -18 q76 0 231 166 l-28 -6 l-144 0 q-16 0 -72 14 Z" /><glyph glyph-name="uni5012" unicode="&#x5012;" d="M850 742 l7 0 q38 0 47 -617 q-6 -164 -47 -164 l-31 0 q-68 0 -180 187 q8 0 8 8 q141 -117 172 -117 l0 8 q16 150 16 391 l0 257 l-8 39 l16 8 ZM326 703 l0 -31 q0 -6 -76 -78 l4 -211 q2 -129 12 -289 q-6 -117 -30 -117 l-15 0 q-12 0 -24 23 q2 301 0 453 q0 20 6 117 q-51 -15 -70 -15 l-31 0 q-12 0 -32 31 q0 12 110 39 q111 94 138 94 l8 -16 ZM592 703 l0 -8 q0 -31 -117 -47 q0 -21 -32 -171 l102 70 l39 0 q55 -47 55 -102 l-24 -15 l-8 0 l-54 62 q-63 -54 -63 -62 q8 -53 8 -86 q90 31 102 31 l7 -16 l0 -7 q-17 -32 -101 -79 l0 -70 l8 0 q72 39 117 39 l8 0 l0 -8 q-69 -103 -250 -171 l-16 0 l-16 23 l0 23 l102 71 l0 78 l-8 0 q-51 -16 -70 -16 l-8 0 q-16 0 -16 16 l0 15 q0 16 94 47 l0 71 l-8 0 q-25 -16 -47 -16 l-15 0 q-12 0 -24 23 l71 250 l-32 0 q-41 0 -46 24 l0 16 q0 15 23 15 q201 16 211 16 l8 -16 ZM709 547 q31 0 31 -172 q0 -203 -39 -203 l-8 0 q-19 0 -23 31 q16 235 16 320 l0 8 q2 16 15 16 l8 0 Z" /><glyph glyph-name="uni5019" unicode="&#x5019;" d="M527 738 q41 -21 78 -21 q26 0 155 21 q31 -11 31 -21 l0 -31 q-14 -24 -102 -110 l8 0 q133 22 155 22 l7 -14 l0 -8 q0 -41 -293 -74 q0 -88 55 -88 l8 0 q25 0 178 29 l7 -13 l0 -8 q0 -37 -156 -59 q0 -33 -6 -95 l215 58 l8 0 q16 -2 16 -15 l0 -14 q-2 -26 -262 -104 q-66 -250 -117 -250 l-37 0 q-12 0 -24 22 l0 45 q2 13 16 13 q2 -13 15 -13 q67 107 77 170 l-8 0 q-53 -8 -84 -8 l-24 0 q-11 0 -23 21 l0 8 q0 12 154 37 q31 39 31 131 q-17 0 -31 8 q-25 -139 -47 -139 l-23 0 q-14 0 -14 14 q37 139 37 244 l-37 0 q-11 0 -23 22 l0 7 q10 8 154 43 q0 20 84 104 l0 8 q-70 -10 -92 -16 q-109 0 -109 59 l23 15 ZM369 729 l8 0 q23 0 23 -30 q0 -45 -154 -90 q16 0 24 -625 l-32 -21 l-8 0 q-11 0 -31 29 l0 213 q0 117 -8 229 q8 37 8 154 l-8 0 q-41 -8 -68 -8 l-31 0 q-16 0 -16 16 l0 8 q0 17 186 66 l107 59 ZM369 559 q24 0 24 -133 l0 -80 q0 -104 -32 -104 l-7 0 q-12 0 -24 22 q8 154 8 250 q6 45 23 45 l8 0 ZM729 180 q169 -114 169 -192 l0 -23 q0 -14 -15 -14 l-24 0 q-60 102 -154 197 l0 16 q0 16 24 16 Z" /><glyph glyph-name="uni501F" unicode="&#x501f;" d="M693 803 q26 0 26 -86 l0 -14 l37 8 l39 0 q18 -2 18 -18 q0 -25 -94 -56 q-8 -39 -37 -119 l4 0 q185 31 218 31 l8 -18 l0 -15 q0 -57 -459 -86 l-39 0 q-43 0 -49 23 l0 16 q2 17 18 17 l55 0 l76 8 l0 37 l-8 90 l-37 0 q-43 0 -49 25 l0 8 q2 18 18 18 l60 0 l-8 74 q2 18 18 18 l8 0 q25 0 31 -84 q121 0 121 45 q0 78 25 78 ZM336 711 l16 0 q17 -2 17 -18 l0 -23 q-45 -57 -94 -78 q16 -141 39 -492 q-7 -41 -7 -94 l0 -14 q0 -13 -24 -25 l-25 0 q-16 0 -24 62 q0 26 8 131 q-8 278 -8 401 l-5 0 q-57 -40 -86 -40 l-32 0 q-13 0 -25 26 l0 8 l133 70 l117 86 ZM563 615 q0 -19 7 -113 l22 0 q23 12 60 127 l-6 0 q-52 -8 -83 -8 l0 -6 ZM844 393 l-16 -278 q8 -43 8 -62 q-10 -125 -49 -125 l-8 0 q-62 0 -117 92 q-105 -38 -195 -45 l-16 23 l0 272 q0 37 -8 115 l26 17 l31 -23 l55 0 q43 0 256 31 l33 -17 ZM514 320 l-12 8 l0 -6 q8 -64 8 -107 l0 -6 l6 0 l185 31 q33 -11 33 -25 q0 -39 -216 -70 l0 -96 q175 60 230 60 l29 0 l0 51 q0 67 8 192 q-158 -32 -238 -32 l-33 0 ZM711 35 q0 -8 51 -33 l8 14 l0 41 q-41 -22 -59 -22 Z" /><glyph glyph-name="uni5021" unicode="&#x5021;" d="M469 732 l8 0 q3 0 46 -46 l8 0 q248 39 289 39 l16 -24 l0 -15 q-51 -290 -94 -290 q-25 0 -31 55 q-172 -23 -188 -47 l-23 0 q-16 0 -47 321 l16 7 ZM375 697 l0 -15 q0 -12 -109 -78 q39 -415 47 -594 q-10 -71 -32 -71 l-23 0 q-12 0 -24 24 l0 125 q-15 484 -15 508 l-8 0 q-31 -16 -94 -24 q-47 16 -47 32 l0 15 q0 14 141 39 q113 55 156 55 l8 -16 ZM523 631 q8 -43 8 -63 q110 32 157 32 l31 0 q15 -2 15 -16 q-45 -39 -195 -63 l0 -23 q0 -16 24 -16 q195 0 195 94 l23 94 q-179 -39 -250 -39 l-8 0 ZM879 393 q35 -16 39 -32 q-25 -406 -94 -406 l-8 0 q-52 0 -86 86 q-218 -33 -218 -39 q0 -12 -32 -31 q-33 0 -46 234 q-12 2 -39 156 l15 8 l8 0 q6 0 47 -47 q115 0 414 71 ZM488 275 l-15 8 l0 -8 q15 -70 15 -78 q33 16 274 55 q13 -8 31 -8 l0 -15 q0 -47 -289 -71 l-8 0 q8 -80 16 -94 q185 47 281 55 q14 -8 31 -8 q16 49 39 219 q-215 -55 -312 -55 l-63 0 ZM809 49 q7 15 7 23 q-39 -9 -39 -23 l32 0 Z" /><glyph glyph-name="uni5026" unicode="&#x5026;" d="M576 789 q16 -2 16 -14 l0 -43 q0 -46 -16 -101 q74 45 96 129 l17 8 q32 -14 32 -36 q0 -48 -73 -130 q61 15 114 15 l8 -15 l0 -14 q0 -33 -217 -65 q-10 -9 -10 -43 q74 0 291 36 l8 -14 l0 -22 q-37 -37 -88 -37 q168 -132 168 -201 l0 -13 q0 -12 -24 -22 l-17 0 q-12 0 -88 123 l-113 100 q-184 0 -184 -51 l0 -27 l72 -8 l153 21 q33 -11 33 -21 l0 -30 q-43 -164 -82 -164 l-39 0 q-14 0 -49 49 l0 37 l23 0 q18 -15 49 -15 q41 64 41 93 l-8 0 q-37 -13 -105 -13 l-41 0 l10 -86 l0 -188 q281 84 281 129 l-25 37 q2 14 17 14 l8 0 q57 0 57 -51 l0 -29 q-149 -137 -330 -164 l-18 0 q-55 0 -55 51 q0 49 16 158 q-10 158 -33 158 q-69 -158 -145 -158 l-23 0 l-32 21 l0 -7 q8 -75 8 -116 q0 -37 -33 -50 l-16 0 q-33 0 -33 101 l0 129 q0 104 -8 324 q-78 -37 -103 -37 l-8 0 q-43 0 -49 22 l0 7 q8 16 129 51 q106 71 129 94 l16 0 q15 0 15 -23 q0 -36 -80 -79 l33 -380 q42 -8 47 -8 q121 142 121 195 l-48 -8 q-96 6 -96 22 l0 8 q0 25 176 35 q0 21 17 50 q-113 6 -113 36 l0 7 q2 14 16 14 l89 0 q-25 59 -97 123 l15 22 q53 0 122 -73 q35 137 48 137 l8 0 Z" /><glyph glyph-name="uni503A" unicode="&#x503a;" d="M623 816 q31 0 31 -93 l0 -32 l8 0 q35 0 125 16 l8 -16 l0 -7 q-37 -49 -141 -49 l0 -39 l102 23 l15 -23 l0 -8 q0 -18 -117 -55 q0 -35 -8 -47 l8 0 l244 32 l8 -16 l0 -16 q0 -52 -488 -78 l-16 0 q-56 0 -62 24 l0 15 q0 16 23 16 q73 0 237 16 q-8 13 -8 39 l-47 0 q-43 0 -49 23 l0 8 q0 17 96 39 l8 47 l-16 0 q-135 6 -135 41 l0 8 q0 15 24 15 q115 -8 127 -8 l0 110 q2 15 15 15 l8 0 ZM363 691 q0 -41 -70 -103 q0 -24 23 -551 q-9 -70 -31 -70 l-15 0 q-22 0 -32 62 q8 244 8 418 l0 102 q-92 -63 -142 -63 q-41 0 -47 24 l0 15 q132 71 205 125 q45 65 86 65 l15 -24 ZM449 393 l8 0 q31 -16 31 -49 l325 49 q35 -16 39 -34 q0 -109 -65 -281 q127 -80 127 -127 l0 -8 q0 -11 -23 -23 l-16 0 q-225 182 -260 182 q-49 -114 -135 -151 l-39 0 q-11 0 -31 31 l0 24 q2 15 16 15 q13 -7 31 -7 q115 105 174 283 l8 0 q15 -2 15 -16 l0 -31 q-8 -64 -8 -109 q77 -24 94 -24 l55 219 q-119 -31 -227 -31 l-31 0 l-41 8 l0 -8 q0 -41 10 -71 q-10 -50 -10 -101 l0 -16 q0 -12 -31 -31 l-8 0 q-12 0 -23 23 q0 84 7 141 q-7 51 -7 135 l15 8 Z" /><glyph glyph-name="uni503C" unicode="&#x503c;" d="M646 760 q16 -2 16 -16 l0 -6 q0 -52 -16 -82 l16 0 q16 0 94 16 q31 -12 31 -24 l0 -5 q0 -28 -172 -61 q0 -18 -39 -72 l8 0 q64 0 195 35 q35 -14 39 -29 q-7 -262 -7 -412 l0 -67 l70 0 q60 0 70 -29 l0 -16 l-15 -21 q-145 8 -243 8 q-93 0 -336 -8 l-7 13 l0 16 q0 20 93 29 l0 229 q0 88 8 273 l24 14 q23 -6 23 -43 l16 0 q0 31 31 80 q-117 8 -117 37 q6 24 62 24 l86 0 q39 117 55 117 l15 0 ZM346 693 q15 -17 15 -29 q0 -23 -86 -82 q8 -109 8 -162 l0 -117 q0 -110 8 -295 q-12 -74 -31 -74 l-16 0 q-17 0 -31 50 l16 569 q-73 -37 -125 -37 q-32 11 -32 23 l0 6 q0 18 133 66 q115 82 141 82 ZM506 449 l0 -58 q0 -14 62 -22 q108 22 157 22 q15 -2 15 -14 l0 -8 q0 -35 -172 -58 q-43 5 -62 5 l0 -43 l8 -15 q156 37 234 37 q0 -8 8 -8 l0 104 l8 88 q-129 -30 -211 -30 l-47 0 ZM514 170 l23 0 q190 14 211 14 l0 15 l8 74 q-94 -58 -242 -58 l0 -45 ZM514 111 l0 -60 l-8 -14 l234 0 l8 37 l0 67 q-98 -30 -187 -30 l-47 0 Z" /><glyph glyph-name="uni5047" unicode="&#x5047;" d="M320 766 q16 -2 16 -16 l0 -8 q0 -19 -86 -94 q31 -95 31 -531 l0 -101 q0 -41 -31 -55 l-23 0 q-6 0 -24 23 q8 157 8 235 l0 78 q0 115 -8 312 l-8 0 q-70 -46 -101 -46 l-31 0 q-12 0 -24 23 l0 8 l172 94 q74 78 109 78 ZM660 750 q84 -16 180 -16 l15 -23 l0 -16 q0 -29 -78 -132 l8 0 q14 7 31 7 l16 -23 l0 -24 q0 -29 -141 -70 q-31 12 -31 24 l0 15 q0 28 125 188 l-55 0 q-78 9 -78 31 l0 23 l8 16 ZM613 719 q32 -12 32 -24 l0 -15 q0 -67 -211 -242 l0 -32 l7 -15 q82 23 149 31 l15 -24 q0 -41 -148 -54 l-16 0 l0 -102 l125 39 l16 0 q16 -2 16 -15 l0 -16 q0 -29 -157 -78 q0 -45 8 -125 q-8 -55 -23 -55 l-24 0 q-11 0 -23 24 l0 500 q0 140 16 179 l54 -7 l8 0 q47 0 156 31 ZM434 633 l0 -110 l7 0 q10 0 118 118 l0 7 q-32 -15 -86 -15 l-39 0 ZM863 453 q24 0 24 -31 q-16 -65 -94 -227 q131 -88 187 -156 l0 -39 q0 -16 -15 -16 l-8 0 q-29 0 -172 133 l-15 8 l-8 0 q-82 -102 -125 -102 l-39 0 q-10 0 -39 40 l0 46 l7 0 l55 -15 q25 0 86 86 q-70 43 -70 54 q0 12 23 24 q39 0 78 -24 q55 102 55 125 q-59 -31 -109 -31 q-32 12 -32 24 l0 15 q0 18 118 47 q0 6 62 39 l31 0 Z" /><glyph glyph-name="uni504F" unicode="&#x504f;" d="M490 799 q45 -29 162 -61 l8 -17 q-4 -26 -62 -26 q-133 10 -133 78 l0 8 q2 18 17 18 l8 0 ZM330 686 q16 -4 16 -18 l0 -23 q-26 -45 -84 -92 l15 -408 q55 0 127 447 q0 86 26 86 q41 0 107 -8 q152 8 184 16 q39 -12 39 -26 l0 -8 q0 -47 -160 -170 q-80 -29 -141 -29 l-20 0 l0 -43 q57 -21 75 -21 q302 37 361 37 q35 -16 39 -31 l0 -16 q-33 -406 -86 -406 l-31 0 l-59 50 q0 -103 -33 -103 l-16 0 q-13 0 -25 39 l8 39 l0 68 q0 24 -26 55 l26 0 l0 72 l-6 0 l-51 -7 l0 -51 q0 -61 -33 -71 l-8 0 q-11 0 -25 24 l0 90 l-65 0 l8 -88 q-4 -70 -25 -70 l-24 0 q-15 0 -15 15 l0 47 q0 80 -8 240 l-4 0 q-33 -220 -109 -220 l-8 0 l-22 13 l0 -117 q0 -14 -23 -25 l-24 0 q-33 0 -33 109 l0 350 l8 72 q-51 -29 -76 -29 l-22 0 q-13 0 -33 33 l0 17 q76 0 239 161 l17 0 ZM453 627 l-8 -88 l0 -21 l6 0 q117 0 211 101 l-172 0 l-37 8 ZM730 279 l0 -13 q120 15 120 21 q7 16 13 82 q-50 0 -140 -15 l7 -75 ZM629 338 l-22 0 l8 -35 l0 -51 l22 0 l35 6 l0 53 l8 35 l-51 -8 ZM477 338 q7 -92 7 -109 l6 0 l47 7 l20 0 l0 94 l-28 0 l-52 8 ZM730 113 q24 -33 75 -58 q21 50 37 170 q-112 -14 -112 -30 l0 -82 Z" /><glyph glyph-name="uni505A" unicode="&#x505a;" d="M303 734 q11 0 23 -23 q0 -51 -94 -113 q8 -209 24 -410 q-8 -59 -8 -153 q0 -33 -39 -56 l-8 0 q-12 0 -31 33 q16 261 16 418 l0 127 l-8 0 q-53 -32 -94 -32 l-23 0 q-12 0 -24 24 l0 8 q8 23 117 64 q80 59 141 113 l8 0 ZM646 727 q45 -4 55 -122 q-8 -29 -8 -64 l0 -16 l8 0 q139 88 172 88 l16 0 q15 0 15 -23 q0 -16 -93 -88 l0 -49 q0 -72 -40 -201 q196 -188 196 -266 l-24 -15 l-23 0 q-98 134 -180 209 q-72 -160 -148 -160 q-51 0 -63 72 l0 31 l8 0 q35 -31 39 -31 l16 0 q41 25 101 137 l-86 95 l0 8 q0 16 24 16 q60 -28 94 -55 q31 88 46 191 q-70 -39 -93 -39 l-32 0 q-11 0 -23 32 q23 113 23 144 l0 18 q0 15 -15 80 l15 8 ZM428 703 q19 0 39 -154 l109 33 q12 0 24 -25 l0 -24 q0 -23 -141 -64 q0 -20 8 -121 q-8 -14 -8 -32 q8 8 94 16 l23 -31 q0 -153 -148 -307 l-39 0 q-71 18 -71 41 q0 174 -31 322 l24 16 q17 0 54 -64 l63 0 l-16 23 l0 121 l-8 16 l-54 -8 l-63 0 q-16 0 -16 16 l0 17 q8 31 133 39 l0 145 q0 11 24 25 ZM365 260 q16 -86 16 -184 l0 -10 l8 0 q125 127 125 209 q-88 -15 -125 -15 l-24 0 Z" /><glyph glyph-name="uni505C" unicode="&#x505c;" d="M508 754 q37 -35 135 -68 l0 -14 q0 -12 -24 -24 l-8 0 q-129 26 -129 69 q-7 0 -7 8 l0 13 q2 16 15 16 l18 0 ZM338 664 l0 -16 q-76 -78 -111 -82 q23 -123 23 -277 l0 -246 q0 -90 -33 -90 l-16 0 q-19 0 -23 29 q0 104 15 293 q-7 262 -15 262 q-78 -23 -96 -23 q-37 15 -41 31 l0 6 q0 17 121 45 q145 90 160 90 l16 -22 ZM740 656 q16 -2 16 -15 l0 -14 q0 -37 -313 -68 q-52 0 -72 37 l0 8 l8 15 q43 -8 64 -8 q26 0 297 45 ZM691 551 q16 0 16 -14 l0 -16 q0 -74 -184 -171 l-25 0 q-21 0 -47 187 q8 0 8 8 q8 0 23 -8 q108 14 209 14 ZM508 506 l0 -6 l23 -82 q69 29 121 96 q-82 -8 -121 -8 l-23 0 ZM859 410 q37 -15 41 -31 l0 -6 q0 -70 -168 -150 l-7 15 q9 28 88 104 l-16 0 q-283 -67 -379 -67 l-16 8 l8 -39 l0 -74 q0 -12 -31 -29 l-8 0 q-14 0 -25 21 l8 53 q0 47 -40 150 l16 8 l16 0 q8 0 49 -53 q107 14 464 90 ZM684 268 q11 0 23 -24 q-19 -37 -64 -37 q17 -148 17 -201 q0 -68 -49 -90 l-31 0 q-98 0 -170 150 q8 0 8 6 q146 -90 170 -90 q16 34 16 122 l0 74 l-8 15 q-37 -15 -106 -15 l-8 0 q-11 0 -23 21 l0 8 q0 16 225 61 Z" /><glyph glyph-name="uni5065" unicode="&#x5065;" d="M633 758 q27 0 37 -84 q80 15 141 15 l13 -23 l0 -45 l-10 -37 l8 0 l55 8 q31 -12 31 -24 q0 -25 -119 -60 q-2 -80 -64 -121 l-47 6 l-2 -45 q82 23 111 23 l14 -23 q0 -39 -125 -53 l-2 -53 l140 16 l8 -16 l0 -15 q-2 -26 -150 -53 l-2 -121 q287 -30 287 -55 q-23 -37 -119 -37 q-164 0 -434 105 q-2 -48 -105 -105 l-16 0 q-15 0 -13 16 l87 128 q-35 14 -52 45 l0 8 q2 16 15 16 l8 0 q55 -16 63 -16 q33 51 33 92 l-55 0 q-62 0 -60 68 q0 36 52 211 l-15 -6 l-55 0 q-12 0 -23 22 l0 16 q0 15 23 15 q8 0 23 -8 q55 16 94 16 q16 -18 16 -47 l31 0 q51 0 156 8 l2 68 q-133 6 -133 39 l0 6 q4 16 18 16 q65 -8 107 -8 l8 0 l2 76 q4 16 18 16 ZM311 705 l7 -16 l-2 -23 q0 -8 -70 -68 q27 -155 18 -477 q-8 -152 -35 -152 l-24 0 l-21 15 q13 286 17 432 l4 160 q-68 -47 -117 -47 q-12 0 -24 24 l0 15 l247 137 ZM676 621 l0 -23 q0 -37 13 -37 q79 0 81 68 l0 8 l-94 -16 ZM680 447 l31 0 q16 49 16 61 q-12 -8 -47 -8 l0 -53 ZM406 500 q-33 -135 -35 -182 q0 -15 102 -23 l13 -24 l0 -29 q0 -39 -41 -115 q135 -53 155 -53 l2 92 l-8 0 l-39 -8 q-63 10 -63 31 l2 14 q2 16 16 16 l78 0 q12 0 23 23 l0 37 l-62 0 q-12 0 -22 24 l0 8 q0 21 86 21 l2 47 l-78 -8 l-8 0 q-15 0 -15 16 l0 6 q0 21 101 39 l2 52 l-15 0 q-49 0 -118 -7 q-45 3 -70 23 l-8 0 Z" /><glyph glyph-name="uni5076" unicode="&#x5076;" d="M754 725 q25 -32 25 -57 q-33 -316 -72 -316 l-10 0 q-29 0 -88 58 l-7 0 l0 -92 q224 51 257 51 l16 0 q16 0 33 -58 q-53 -366 -97 -366 l-32 0 q-45 0 -136 116 l15 9 l8 0 q31 0 121 -43 l0 10 q57 135 57 266 l-8 0 q-84 -26 -234 -51 l0 -59 q105 26 105 67 l23 0 q26 -6 41 -174 q0 -12 -25 -25 l-16 0 q-33 0 -33 109 q-146 -100 -240 -100 l-10 0 q-11 0 -23 24 l0 10 q0 15 113 56 l0 18 l-8 15 q8 16 8 34 l-8 17 l-15 -8 l-82 0 l-57 8 q25 -154 25 -250 q-17 -37 -33 -41 l-8 0 q-19 0 -23 33 q0 129 -25 340 l25 18 q6 0 39 -41 l146 0 q16 0 16 15 l0 75 q-53 0 -80 -41 l-10 0 q-41 0 -54 306 q-10 0 -10 43 q17 8 25 8 q53 -18 72 -18 l34 0 l240 34 ZM602 576 l80 8 l33 0 q0 10 8 84 l-8 0 q-108 -25 -129 -25 l16 -67 ZM344 643 l0 -18 q-8 -21 -106 -74 q24 -143 41 -580 q-11 -51 -49 -51 q-33 29 -33 117 q0 141 -8 488 q-74 -23 -111 -23 q-33 12 -33 23 q12 30 283 143 l16 -25 ZM447 643 q18 -71 18 -84 l31 0 q49 0 49 76 l-57 0 l-41 8 ZM602 484 q2 -15 15 -15 q18 0 33 8 q14 -8 32 -8 l7 0 q0 8 8 66 l-8 0 q-35 -17 -87 -25 l0 -26 ZM473 502 l0 -43 q2 -16 15 -16 l8 0 l41 8 l0 51 l-64 0 Z" /><glyph glyph-name="uni5077" unicode="&#x5077;" d="M615 820 q16 -2 16 -15 l0 -8 q0 -8 -39 -109 q119 -8 328 -204 l8 -39 l-24 -15 q-27 0 -172 125 q-142 93 -179 93 l-78 -109 l7 0 l204 24 q31 -12 31 -24 q0 -43 -227 -55 q-19 0 -54 24 q-67 -78 -118 -78 l-23 0 q-12 0 -24 23 l0 16 q184 117 329 351 l15 0 ZM326 719 q16 -2 16 -16 l0 -15 q-43 -69 -86 -102 q15 -410 15 -609 q-15 -47 -31 -47 l-15 0 q-16 0 -32 47 q8 269 8 421 l0 71 l8 78 q-61 -47 -109 -47 q-12 0 -24 23 l0 8 l203 149 q0 23 32 39 l15 0 ZM834 453 l16 0 q15 -39 23 -383 q-6 -148 -47 -148 l-15 0 q-65 0 -118 133 l16 8 q74 -55 78 -55 l8 0 q23 226 23 437 l16 8 ZM607 445 q39 -11 39 -54 l0 -360 q0 -60 -31 -70 l-31 0 q-43 33 -86 102 q2 15 16 15 q35 -12 62 -31 l8 16 l0 93 q-133 -39 -133 -54 q-8 -41 -8 -79 l0 -31 q0 -15 -15 -15 l-24 0 q-11 0 -23 23 l0 375 q0 33 15 63 l55 -8 q24 0 156 15 ZM443 336 l0 -39 q100 16 125 16 q16 -20 16 -32 l8 0 l0 110 q-78 -16 -156 -16 l7 -39 ZM709 398 q12 0 23 -23 l0 -86 q0 -133 -31 -133 l-15 0 q-12 0 -24 24 q16 218 47 218 ZM443 234 l8 -54 q108 39 133 39 l0 39 l8 15 l-8 0 q0 -15 -141 -31 l0 -8 Z" /><glyph glyph-name="uni507F" unicode="&#x507f;" d="M625 785 q31 0 31 -92 l0 -117 q90 67 117 156 l24 0 q23 -7 23 -46 q0 -59 -117 -157 q108 24 193 24 q12 0 24 -24 l0 -31 q-49 -84 -147 -113 l-7 15 q5 22 62 92 q-226 -39 -310 -39 l-86 0 l7 -76 l0 -31 q0 -59 -31 -69 l-13 0 q-24 8 -24 47 l0 30 q0 17 8 31 q-8 17 -24 160 l16 8 l8 0 l45 -47 l70 0 l94 8 q0 23 -8 23 q8 248 31 248 l14 0 ZM439 713 q118 -67 118 -137 l0 -23 q0 -16 -16 -16 l-23 0 q-24 0 -102 160 l23 16 ZM355 689 q16 -1 16 -15 q0 -47 -94 -98 q16 -96 24 -590 q-12 -29 -24 -29 l-31 0 q-12 0 -23 23 l0 434 q0 41 7 131 q-60 -31 -84 -31 l-46 0 q-12 0 -24 23 l0 8 q2 14 154 76 q2 8 102 68 l23 0 ZM549 414 q162 -37 162 -53 l0 -15 q0 -22 -31 -22 q-108 0 -155 61 l0 15 q0 14 24 14 ZM773 309 q32 -12 32 -24 l0 -23 q-110 -106 -209 -229 l0 -8 q123 61 209 123 l31 0 q41 0 45 -130 l0 -32 q0 -13 -16 -13 l-23 0 q-24 0 -29 97 q-208 -129 -280 -129 l-31 0 q-16 0 -16 16 l0 37 q0 6 170 215 l-15 0 q-112 -23 -139 -23 q-94 11 -94 39 l0 21 q2 16 16 16 q56 -16 62 -16 q69 0 287 63 Z" /><glyph glyph-name="uni5080" unicode="&#x5080;" d="M584 736 q-18 -48 -199 -62 l0 -6 q2 -16 15 -16 l61 0 q57 0 269 22 l22 -37 q-33 -375 -53 -375 l-15 0 q-34 0 -92 60 q15 -269 31 -299 l29 0 q123 0 291 184 q12 0 24 -21 l0 -40 q-164 -191 -322 -191 q-100 0 -100 139 l0 213 l-29 0 q-18 0 -84 -213 q-67 -108 -116 -108 q-11 0 -31 30 l0 15 q76 49 123 176 q24 74 24 78 q-51 -23 -71 -23 q-11 0 -21 23 l0 244 q0 166 -39 184 q0 12 23 23 q8 0 8 -7 q16 7 22 7 q66 0 230 16 l0 -16 ZM293 697 q16 -2 16 -15 l0 -14 q0 -51 -84 -107 q7 -90 7 -131 l0 -84 q0 -383 -39 -383 l-23 0 q-16 0 -22 39 q30 299 30 404 l0 108 q-74 -53 -108 -53 l-29 0 q-12 0 -23 29 q0 22 115 71 q88 72 144 136 l16 0 ZM545 514 q103 23 123 23 q16 -8 23 -8 l0 92 q-146 -27 -146 -39 q0 -39 -6 -68 l6 0 ZM400 514 q2 -16 16 -16 l8 0 q60 0 60 47 l8 37 q-21 6 -92 16 l0 -84 ZM516 369 q68 16 99 16 l16 0 l14 -8 l-8 -16 l0 -7 q8 0 23 -8 q24 136 24 152 q-30 -25 -153 -53 q-15 -64 -15 -76 ZM408 453 q0 -8 -8 -8 l8 -54 l0 -37 l-8 -16 l8 0 q61 0 61 107 l-45 0 l-16 8 ZM768 322 q15 -2 15 -15 l0 -37 l-8 -55 l8 0 q33 31 61 31 l8 0 q39 -17 39 -76 l-24 -16 l-23 0 l-22 16 q-66 -84 -107 -84 l-8 0 q-12 0 -23 21 l0 8 q60 207 84 207 Z" /><glyph glyph-name="uni50A8" unicode="&#x50a8;" d="M648 758 q32 -10 32 -70 l0 -16 l62 16 q31 -12 31 -24 q-27 -45 -93 -45 l0 -86 l23 0 q33 37 123 201 l24 0 l0 -7 q-4 -65 -69 -170 l0 -8 q53 15 92 15 q16 -1 16 -15 l0 -16 q0 -29 -162 -62 q0 -18 -47 -69 l15 0 q32 0 162 16 q0 -12 24 -23 q-8 -166 -8 -249 l0 -177 q-16 -31 -39 -31 q-16 0 -84 85 l-8 0 q-76 -39 -101 -39 l-8 0 q-53 26 -53 47 q22 143 22 278 q-59 -47 -84 -47 q-32 11 -32 23 l0 24 q73 39 162 154 l-54 -8 l-22 0 q-72 0 -101 31 q-55 -175 -55 -254 l47 38 q16 -2 16 -16 q-40 -154 -94 -154 q-45 0 -45 54 q15 119 68 317 q-66 -30 -99 -30 l-16 0 q-16 0 -16 14 l0 8 q0 19 162 70 l16 0 q24 0 24 -31 q7 8 130 16 l8 54 l0 32 l-60 0 q-41 0 -47 23 l0 8 l15 21 q8 0 24 -6 l76 6 l0 55 q6 47 23 47 ZM277 688 l16 0 q16 -2 16 -16 l0 -16 q0 -8 -63 -60 q16 -137 16 -350 l0 -123 l8 -47 q-10 -99 -32 -99 l-23 0 q-12 0 -24 23 q8 332 8 510 l0 54 l-8 0 q-37 -23 -76 -23 l-23 0 q-12 0 -24 23 l0 16 q0 10 116 47 l93 61 ZM340 643 q115 -16 115 -39 l0 -8 q-16 -32 -47 -32 q-84 24 -84 47 l0 16 q2 16 16 16 ZM664 348 l-16 7 q16 -115 24 -115 q70 14 101 14 l22 0 q16 -2 16 -14 l0 -8 q0 -27 -155 -62 l0 -125 q88 47 131 47 l24 0 l7 39 q0 137 16 232 q-76 -15 -154 -15 l-16 0 ZM795 45 l16 0 l0 23 q-16 -2 -16 -15 l0 -8 Z" /><glyph glyph-name="uni50AC" unicode="&#x50ac;" d="M596 801 q23 -4 23 -63 l0 -117 l8 0 q70 16 102 16 l7 0 l-7 93 l15 8 q43 0 47 -193 q0 -39 -31 -39 l15 -24 l0 -15 l-7 -16 l78 0 q15 -2 15 -15 l0 -8 q0 -30 -125 -47 l8 -47 l39 8 l63 0 q15 -2 15 -16 l0 -15 q0 -24 -117 -40 l0 -31 l78 8 l8 0 q16 -2 16 -16 l0 -7 q0 -30 -94 -47 l0 -61 l-8 -15 l8 0 q105 7 156 7 l16 -23 l0 -16 q0 -47 -383 -47 l-16 24 l0 8 q0 31 172 39 l0 8 q-8 13 -8 31 l0 29 l-70 0 q-41 0 -47 24 l0 7 q0 26 117 32 l0 46 l-78 -7 q-39 6 -39 23 l0 16 q0 15 117 31 q0 25 8 39 q-8 0 -8 8 l-39 -8 l-46 0 q-61 0 -71 31 l0 8 q8 24 47 24 l55 0 l94 7 l0 8 q-77 0 -94 78 l23 16 q20 0 78 -31 l0 76 q-29 -14 -203 -69 l0 -7 q24 0 24 -16 l0 -16 q-51 -62 -71 -62 q16 -94 16 -234 l0 -178 q0 -57 -23 -63 l-32 0 l-23 16 q15 143 15 326 l0 102 l-7 0 q-61 -32 -102 -32 q-12 0 -23 24 l0 15 q0 10 172 79 q0 15 46 31 l0 8 l-39 -8 l-15 0 q-16 4 -32 39 q16 78 16 107 q-16 26 -16 47 q2 16 16 16 l16 0 q31 -10 31 -70 l0 -69 l8 0 q54 18 54 29 l0 180 q2 16 16 16 l16 0 ZM295 699 l23 0 q16 -2 16 -15 l0 -24 q-49 -62 -78 -62 q23 -270 23 -590 l0 -24 q0 -9 -39 -39 l-8 0 q-9 0 -31 47 q8 156 8 233 l0 343 q-70 -23 -94 -23 l-31 0 q-12 0 -23 23 l0 8 q23 22 179 84 l55 39 Z" /><glyph glyph-name="uni50B2" unicode="&#x50b2;" d="M461 744 q19 0 33 -76 l14 6 l39 0 q14 0 25 -26 q-17 -41 -78 -41 l0 -43 l69 16 l17 -25 l0 -8 q-29 -49 -86 -49 l0 -59 l6 0 q51 16 70 16 q18 0 18 -25 q0 -45 -156 -80 l0 -28 l91 -8 l32 0 q13 0 33 -33 l0 -15 q-76 -284 -143 -284 l-7 0 q-65 0 -65 65 l0 23 q2 18 18 18 l31 -24 q64 65 99 194 l0 6 l-105 0 q-51 -219 -96 -219 l-31 0 q-14 0 -25 25 l0 8 q117 178 117 272 l-29 0 q-59 0 -65 25 l0 16 q0 15 141 33 l0 60 q0 12 -86 30 l-8 17 l0 16 q2 17 18 17 l23 0 l53 -7 l0 43 l-37 0 q-43 0 -49 25 l0 16 q2 17 17 17 l69 0 q0 86 25 86 l8 0 ZM680 736 q23 0 33 -56 l-24 -98 q147 68 170 68 q18 -2 18 -17 l0 -16 q0 -21 -55 -41 q0 -23 8 -37 q-23 -164 -70 -266 q148 -158 187 -218 l0 -39 q0 -12 -25 -26 l-18 0 q-66 94 -170 196 l-5 0 q-79 -204 -159 -204 l-15 0 q-14 0 -34 34 l0 33 l10 0 q10 0 10 -8 q49 0 137 209 l-86 102 l0 15 q0 18 25 18 q33 -14 94 -63 l6 0 q62 217 62 223 l-6 0 q-74 -39 -142 -39 l-16 25 l0 24 q41 103 55 181 l10 0 ZM322 703 l0 -15 q-70 -79 -101 -81 l23 -576 q-10 -72 -33 -72 l-16 0 q-33 18 -33 49 q8 418 8 574 q-24 -14 -45 -14 l-47 0 q-14 0 -25 26 l0 8 q0 11 142 56 q90 71 112 71 l15 -26 Z" /><glyph glyph-name="uni50BB" unicode="&#x50bb;" d="M666 771 q16 -1 16 -15 l0 -14 q0 -39 -211 -60 l-8 0 l0 -32 l55 0 q7 0 7 -5 q16 5 24 5 l265 24 q38 0 55 -45 q0 -49 -62 -188 q7 -13 7 -31 q-46 -37 -46 -45 q171 -90 171 -150 q-25 -22 -39 -22 q-11 0 -218 180 l-39 -8 l-39 0 q0 -23 -32 -119 q147 53 180 53 l16 0 q0 -8 7 -24 l-109 -158 q250 -101 250 -164 l-23 -15 l-24 0 q-94 78 -250 134 q-92 -105 -180 -105 q-62 21 -62 39 l0 37 l8 0 q51 -16 62 -16 q92 34 117 77 q-101 19 -101 37 q0 17 39 21 q16 0 109 -21 l55 74 l0 8 q-72 -37 -117 -37 l-24 0 q-17 0 -23 37 l55 134 l-78 0 l7 -13 l0 -16 q-39 -127 -117 -127 l-15 0 q-12 0 -24 22 l0 7 q102 77 102 98 q-24 27 -24 90 l0 264 l-15 21 l0 24 q2 15 15 15 l47 0 q27 0 211 29 ZM322 703 q16 -2 16 -14 q0 -46 -63 -89 q16 -186 24 -573 q-8 -45 -24 -45 l-23 0 q-12 0 -23 24 l0 502 l7 53 l-7 0 q-69 -38 -110 -38 q-55 0 -55 45 q106 14 243 135 l15 0 ZM713 613 l0 -29 q0 -29 -39 -82 q12 0 31 -31 l0 -16 l-16 -21 l8 0 q53 0 78 113 q10 4 32 66 q-16 8 -24 8 l-70 -8 ZM471 523 q0 -37 8 -113 l54 0 l-15 24 l0 7 l62 53 q-16 2 -62 67 q0 11 23 23 q4 0 86 -45 l47 66 l-8 0 q-90 -13 -125 -13 q-12 0 -70 13 l0 -82 ZM596 418 q29 8 70 8 q0 17 -39 23 l-31 -31 Z" /><glyph glyph-name="uni50CF" unicode="&#x50cf;" d="M521 818 q16 -2 16 -13 l0 -30 q0 -25 -49 -93 q145 27 155 27 q37 -14 41 -27 l0 -8 q0 -43 -114 -110 l8 0 q152 22 178 22 l23 -29 l0 -6 q0 -72 -193 -174 l0 -8 q43 -37 64 -94 q36 0 194 153 l25 0 l8 -16 q0 -55 -154 -174 q218 -158 218 -238 l0 -29 q0 -12 -23 -22 l-25 0 l-96 153 l-121 101 l-10 0 l10 -101 q0 -182 -106 -182 q-82 18 -82 131 l90 -59 q31 82 31 174 q0 16 -7 80 l-8 0 q-114 -267 -258 -267 l-8 0 q-23 0 -49 13 q-11 -58 -33 -58 l-23 0 q-26 7 -26 45 l0 101 q0 149 -8 404 q8 16 8 24 l-8 0 q-39 -24 -64 -24 l-39 0 q-14 0 -33 30 q11 13 129 50 q109 81 146 81 l16 -22 q-69 -88 -106 -88 q16 -137 41 -521 q123 0 299 297 q0 7 -41 44 q-45 0 -121 -117 q-57 -50 -88 -50 l-25 0 q-24 7 -24 44 q76 26 114 86 l0 8 q-41 0 -41 153 q-10 0 -32 85 l16 8 l16 0 q25 -21 41 -21 q87 0 113 51 q72 27 72 43 l-8 0 q-99 -22 -138 -22 l-8 0 q-12 0 -24 22 q0 13 106 152 q0 21 15 21 ZM529 420 q131 59 170 109 l-8 0 q-146 -15 -146 -37 q-16 -64 -16 -72 ZM400 508 q18 -110 32 -110 l9 0 q28 10 57 110 l-98 0 ZM529 332 q16 0 16 -14 l0 -13 q0 -71 -137 -168 l-33 0 q-16 0 -16 15 l0 14 q88 68 170 166 Z" /><glyph glyph-name="uni50F5" unicode="&#x50f5;" d="M758 707 q0 -37 -207 -51 q-92 12 -92 37 l18 22 l41 -8 q97 8 224 22 l16 -22 ZM344 686 q15 -2 15 -14 q0 -20 -99 -94 q21 -168 31 -582 q-16 -37 -43 -37 q-41 0 -39 88 l4 201 q2 111 -4 301 q8 0 8 8 l-16 0 q-72 -30 -109 -30 q-49 8 -49 22 l0 21 q2 14 18 14 q7 0 25 -6 q51 0 250 108 l8 0 ZM426 650 l8 0 q7 0 33 -29 l332 22 l15 -22 q-15 -236 -19 -234 l49 0 l49 4 l17 -22 l0 -14 q-2 -35 -523 -50 l-26 0 q-11 0 -23 21 q0 33 398 51 l0 14 q-27 0 -56 50 q-76 -21 -209 -43 q0 -15 -16 -15 q-33 15 -33 37 q2 82 -14 223 l18 7 ZM623 578 q8 -15 8 -21 l17 6 l67 0 q15 -2 15 -14 q0 -18 -91 -43 l0 -22 l33 0 q17 0 33 8 q14 -8 33 -8 q26 79 26 121 l-8 0 q-108 -15 -133 -27 ZM475 584 l0 -35 q-2 -14 23 -14 q22 0 84 14 l0 29 l-92 0 l-15 6 ZM498 484 l-18 0 l0 -35 l8 0 q92 16 92 28 l0 15 l-82 -8 ZM834 297 q25 -6 23 -43 q-39 -215 -86 -215 l-7 0 q-45 0 -67 35 q-150 -35 -199 -35 l-33 0 q-12 0 -24 22 l0 35 q2 68 -13 187 l17 8 l8 0 q26 -21 41 -21 q106 0 322 27 l18 0 ZM668 225 l8 -28 q115 6 115 22 l0 29 q-41 -16 -123 -16 l0 -7 ZM500 168 q12 6 117 14 l0 43 q-82 -6 -125 -6 l8 -51 ZM674 133 l58 -8 l24 0 q0 12 17 35 l-7 0 q-37 -14 -92 -21 l0 -6 ZM508 133 l0 -43 q19 0 107 21 l0 22 l-56 -8 l-34 0 l-17 8 ZM813 10 q33 -10 33 -22 q-2 -37 -225 -43 q-182 8 -182 30 l0 5 q0 26 374 30 Z" /><glyph glyph-name="uni5121" unicode="&#x5121;" d="M408 723 l8 0 q29 -32 78 -32 q158 32 227 32 l8 0 q23 0 23 -32 q-31 -289 -63 -289 l-31 0 l-47 39 q-93 -46 -117 -46 l-8 0 q-62 19 -62 85 q0 45 -31 235 l15 8 ZM580 605 q18 8 70 16 l39 -16 q8 18 16 71 q-117 -16 -125 -16 l0 -55 ZM322 680 q16 -2 16 -16 q0 -51 -86 -101 q39 -290 39 -571 l0 -47 q0 -11 -23 -23 l-8 0 q-12 0 -31 31 q-16 529 -16 578 l-8 0 q-51 -15 -70 -15 q-41 0 -47 23 l0 8 q0 10 125 55 q51 39 94 78 l15 0 ZM455 652 q16 -58 16 -70 q62 6 62 23 l0 40 l-23 0 l-55 7 ZM588 520 q25 0 78 -40 l23 110 q-46 -39 -101 -39 l0 -31 ZM479 527 q9 -70 15 -86 q47 18 47 32 l0 47 l-8 15 q-31 -8 -54 -8 ZM885 348 q21 0 31 -55 q-8 -174 -8 -281 q-8 -63 -31 -63 l-39 0 l-63 55 l-78 -24 q-8 0 -23 8 q-14 -8 -31 -8 q-12 0 -24 24 l0 305 q0 15 24 15 l46 -8 q20 0 188 32 l8 0 ZM330 316 l39 -31 q154 31 180 31 l15 0 q12 0 24 -23 q-8 -229 -8 -289 q-25 -16 -47 -16 l-47 39 q-72 -47 -101 -47 l-39 0 q-16 0 -16 16 l0 133 q0 47 -16 180 l16 7 ZM775 277 q10 -78 24 -78 l31 8 q14 -8 31 -8 l0 39 q0 18 8 32 q-8 15 -8 23 q-31 -16 -86 -16 ZM471 199 l54 8 l8 -16 q0 -17 -62 -62 l0 -31 q33 -8 54 -8 q16 66 16 172 l0 8 l-8 0 q-12 0 -70 -16 l8 -55 ZM674 270 l0 -47 l8 -39 l39 0 q11 0 23 23 q-8 43 -8 63 l-62 0 ZM377 230 q8 -54 8 -62 l39 8 l0 70 q-47 -8 -47 -16 ZM791 74 l39 0 q16 -2 16 -15 l-8 -16 l0 -16 l8 0 q15 106 15 149 q-45 -31 -70 -31 l0 -71 ZM682 129 l0 -102 l7 0 l63 32 l-8 54 l0 16 l-62 0 ZM385 35 l8 0 l39 24 q-8 31 -8 62 q-14 -8 -39 -8 l0 -78 Z" /><glyph glyph-name="uni513F" unicode="&#x513f;" d="M459 713 l18 0 q48 0 64 -606 q6 0 22 -37 q152 57 253 205 q6 12 6 30 l0 8 q-29 31 -29 60 q0 18 25 18 q71 -26 71 -86 l0 -8 q-24 -117 -233 -270 q-58 -31 -93 -31 q-96 0 -96 164 q0 61 8 145 l-16 408 ZM307 697 q17 0 25 -93 q-47 -559 -141 -600 l-31 0 q-14 0 -25 25 l0 32 q2 15 19 15 q0 -8 4 -8 q115 274 115 567 q12 62 26 62 l8 0 Z" /><glyph glyph-name="uni5141" unicode="&#x5141;" d="M371 746 q20 -2 20 -19 l0 -6 q0 -71 -98 -258 l0 0 q166 51 273 78 q-25 49 -45 76 l0 10 q4 18 20 18 q76 0 150 -243 l0 -31 q0 -17 -17 -17 l-24 0 q-23 0 -66 144 l-2 0 q-53 -35 -68 -35 l0 0 q47 0 47 -127 q-8 -197 -8 -232 q0 -69 35 -69 q236 88 236 168 q-23 37 -23 63 l17 7 l10 0 q65 0 65 -60 l0 -8 q0 -117 -266 -244 l-63 0 q-74 0 -87 121 q21 191 21 371 q-100 -39 -100 -45 l0 -8 q0 -216 -132 -437 l-18 -10 l-16 0 q-13 0 -35 33 q139 295 139 409 q-25 -12 -80 -12 l-31 0 q-14 0 -36 31 l0 16 q0 15 147 269 q10 47 27 47 l8 0 Z" /><glyph glyph-name="uni5143" unicode="&#x5143;" d="M336 693 q232 -9 289 -23 l0 -18 q0 -21 -80 -31 l-8 0 q-211 0 -211 47 l0 8 l10 17 ZM758 500 q17 -2 17 -18 l0 -13 q0 -35 -170 -63 q16 -93 16 -160 l0 -76 q0 -41 -8 -106 q8 -13 8 -29 q55 4 190 121 l0 6 q-8 16 -8 26 l23 15 l31 0 q14 0 34 -31 q0 -80 -233 -209 q-31 -8 -54 -8 q-57 20 -57 78 q0 41 16 268 l-8 88 q-135 -4 -135 -12 q-47 -350 -125 -398 l-25 0 q-12 0 -32 31 l0 25 q76 100 131 340 l-29 0 q-172 6 -172 47 l0 16 l8 17 l80 -8 l45 0 q217 0 457 53 Z" /><glyph glyph-name="uni5144" unicode="&#x5144;" d="M252 742 l8 0 q19 0 39 -60 l15 0 q122 0 340 31 q35 -16 39 -31 q0 -75 -132 -215 q31 -63 31 -168 l0 -215 q6 -45 23 -45 q240 90 240 191 q-15 26 -15 45 q2 16 15 16 q61 0 61 -61 l0 -7 q0 -82 -215 -231 q-39 -23 -78 -23 l-23 0 q-69 0 -79 99 q16 125 16 254 q-8 96 -8 100 q-123 -78 -123 -131 q-80 -322 -154 -322 l-8 0 q-12 0 -23 23 l0 24 q84 111 138 314 l-7 0 q-77 0 -77 92 q0 125 -39 314 l16 6 ZM320 621 l0 -8 q24 -201 39 -215 q73 0 256 245 l-8 0 l-287 -22 Z" /><glyph glyph-name="uni5145" unicode="&#x5145;" d="M344 766 q29 0 160 -71 l0 -7 q0 -12 -25 -22 l-24 0 q-76 0 -137 76 l0 8 q2 16 18 16 l8 0 ZM695 619 l0 -8 q0 -39 -271 -68 q-53 -117 -106 -193 l10 0 q235 99 272 99 l-8 39 l0 8 q2 16 15 16 q51 0 104 -201 l0 -22 l-31 -23 q-32 0 -73 154 q-177 -98 -183 -117 q-39 -282 -113 -369 l-16 -8 l-24 0 q-11 0 -23 23 l0 31 q66 79 119 301 l0 8 l-8 0 q-41 -23 -80 -23 l-31 0 q-25 7 -25 45 q0 27 144 216 l0 8 l-80 -8 l-31 0 q-43 0 -57 30 l0 7 q2 16 16 16 q105 0 465 63 l15 -24 ZM527 357 q73 0 80 -138 q-7 -67 -7 -115 l0 -77 l7 0 q102 32 207 153 l-7 15 l0 8 q0 16 25 16 q39 -12 39 -53 q0 -55 -183 -186 q-47 -31 -104 -31 q-37 14 -57 47 l0 31 q16 186 16 207 l0 32 q0 43 -31 76 q2 15 15 15 Z" /><glyph glyph-name="uni5148" unicode="&#x5148;" d="M498 791 q39 0 39 -168 l92 0 q45 -4 45 -21 l0 -16 q0 -10 -22 -22 l-115 0 l0 -7 q0 -53 -8 -164 l252 29 q47 0 47 -51 q-10 -14 -207 -37 l0 -307 q2 -13 16 -13 q109 52 183 140 l0 8 q-7 16 -7 22 l31 15 q45 -11 45 -45 q-49 -129 -237 -215 l-31 0 q-68 10 -68 67 q8 92 8 320 q-116 -4 -116 -15 q-60 -366 -154 -366 q-10 0 -21 24 l0 29 q76 106 121 313 l-92 -8 l-14 0 q-139 0 -139 23 l0 22 q0 15 24 15 q127 0 291 22 q8 156 16 179 l-16 0 q-49 0 -107 22 l0 -8 q-28 -162 -92 -162 l-16 22 l0 15 q53 149 92 313 l16 0 q15 0 23 -53 q-8 -53 -8 -90 l108 0 l0 154 q0 14 13 14 l8 0 Z" /><glyph glyph-name="uni5149" unicode="&#x5149;" d="M443 789 q39 0 39 -283 l0 -113 l16 0 l109 224 q16 74 38 74 q11 0 31 -29 l0 -16 q0 -103 -100 -238 l0 -8 l8 0 q23 0 146 8 q36 -15 40 -29 q-12 -37 -55 -37 l-63 0 l-91 -8 q19 -328 46 -328 q202 92 202 148 q-16 26 -16 45 l16 8 l29 0 q31 -12 31 -53 q0 -90 -224 -215 q-26 0 -38 -7 q-93 0 -93 127 l0 50 q0 59 7 106 q-7 37 -7 96 l0 23 q-131 0 -131 -29 q0 -149 -133 -336 l-37 -8 l-24 29 l0 16 q124 162 147 312 l-47 0 q-37 0 -76 -7 q-78 9 -78 31 l0 8 q0 17 31 21 q22 0 154 8 l0 8 q-49 0 -62 148 q-16 0 -24 90 l16 8 l8 0 q86 -74 86 -195 l0 -30 l-16 -21 l47 0 l39 6 l0 373 q0 11 22 23 l7 0 Z" /><glyph glyph-name="uni514B" unicode="&#x514b;" d="M488 768 q30 0 30 -98 l0 -43 q33 0 193 43 q23 0 23 -29 q0 -43 -232 -78 l0 -6 q0 -37 -14 -100 l37 8 q180 6 186 6 q16 -22 16 -41 q0 -49 -131 -164 q8 -49 8 -57 q0 -18 -8 -189 l15 -8 q82 23 202 148 l-8 35 l15 8 l32 0 q15 0 31 -43 q0 -84 -225 -205 l-47 -8 l-39 0 q-47 28 -47 73 q24 105 24 183 l0 22 q-123 -57 -131 -79 q0 -126 -115 -226 l-24 0 q-11 0 -31 27 l0 30 q2 13 16 13 l7 0 l16 -8 q76 133 76 186 q-54 0 -60 205 q-8 0 -32 113 q0 14 24 14 q12 0 53 -51 q52 8 86 8 l0 14 l7 86 l-125 -8 q-107 8 -107 35 l0 14 l8 15 l54 -8 q186 0 186 36 q0 127 23 127 l8 0 ZM379 400 q-16 8 -24 8 l32 -178 q101 0 248 170 l0 14 q-6 0 -47 -6 q-8 0 -24 6 q-68 -14 -185 -14 Z" /><glyph glyph-name="uni514D" unicode="&#x514d;" d="M465 813 q23 0 23 -73 q0 -21 -17 -86 q152 51 213 51 l23 -31 l0 -16 q0 -37 -113 -142 q90 17 174 17 q11 0 23 -23 l0 -16 q0 -45 -209 -221 l0 -9 q25 -34 51 -272 q55 10 162 141 l0 10 q-25 33 -25 46 q25 16 48 16 q34 0 57 -39 l0 -16 q0 -119 -225 -234 l-33 0 q-66 23 -66 96 l0 138 l-8 100 l-10 0 q-94 -43 -94 -59 q-85 -267 -158 -267 q-11 0 -31 31 q70 106 119 240 l-21 -9 l-16 0 q-43 0 -84 302 q-16 0 -16 30 l24 15 l8 0 q41 -21 41 -49 l101 0 q63 0 207 143 l-13 0 q-186 -64 -209 -64 l-16 21 l0 33 q76 98 76 196 l14 0 ZM480 430 q0 -30 -17 -143 q96 51 234 186 q-158 -20 -217 -43 ZM328 432 q27 -147 45 -176 q35 0 61 176 l-43 -10 l-63 10 Z" /><glyph glyph-name="uni5154" unicode="&#x5154;" d="M367 768 q16 -2 16 -16 l2 -16 q-2 -29 -51 -97 q182 50 236 50 l26 -29 q0 -41 -147 -164 q156 37 172 37 l20 0 q15 -2 15 -15 l0 -24 q0 -47 -166 -193 q26 -53 53 -270 q10 0 10 -8 q131 45 236 180 q-14 0 -27 22 l0 9 q9 24 52 24 q36 0 53 -31 l0 -24 q0 -84 -263 -232 q-14 -8 -34 -8 l-17 0 q-76 0 -88 98 l0 89 q0 120 -26 120 q-58 -26 -89 -165 q-53 -142 -86 -142 l-45 0 q-12 0 -26 23 l0 61 q0 16 18 16 q0 -14 25 -24 q71 131 71 156 l0 8 q-18 -8 -96 -14 l-18 20 l0 84 q0 152 -52 211 l0 6 q2 15 17 15 l18 0 l53 -45 l78 0 q125 77 193 143 l-10 0 q-156 -41 -177 -41 l-26 0 q-14 0 -27 23 l0 6 q90 141 90 157 l17 0 ZM412 375 l-8 -53 l8 0 q156 116 166 145 q-84 -8 -166 -33 l0 -59 ZM246 426 q18 -84 18 -149 l0 -19 l7 0 q88 0 90 166 l0 8 l-115 -6 ZM605 316 q114 -25 114 -97 l0 -24 q0 -13 -20 -13 l-15 0 q-67 82 -123 111 l0 8 q2 15 17 15 l27 0 Z" /><glyph glyph-name="uni5165" unicode="&#x5165;" d="M238 689 q168 0 643 -628 l0 -22 q0 -18 -39 -23 q-51 31 -324 390 q-8 0 -94 92 q-10 -10 -45 -168 q-113 -291 -193 -291 l-24 0 q-39 18 -39 61 l0 31 l8 0 q39 -31 47 -31 q86 105 209 435 q-96 98 -170 139 q2 15 13 15 l8 0 Z" /><glyph glyph-name="uni5168" unicode="&#x5168;" d="M525 787 q14 -2 14 -16 l0 -15 q0 -22 -31 -84 q123 -43 338 -299 q50 -74 50 -98 l0 -7 q-1 -16 -15 -16 l-24 0 q-314 375 -367 375 l-15 0 q-215 -359 -307 -359 q-45 13 -45 29 l2 47 q2 15 16 15 q15 0 15 -23 l8 0 q139 127 299 375 q37 76 55 76 l7 0 ZM662 428 l0 -16 q-2 -19 -135 -45 l0 -8 q6 -66 4 -107 l0 -8 l125 37 l16 -29 q-2 -45 -135 -70 q4 -106 4 -137 l123 0 q131 -4 129 -47 l-23 -29 q-139 8 -186 8 q-68 0 -311 -24 l-13 24 q10 27 219 68 q-4 96 -4 115 l-16 0 q-27 0 -70 -8 q-39 0 -61 37 l0 8 q4 16 18 16 l21 0 q51 0 110 16 l2 46 l-6 45 q7 14 9 39 l0 8 l-78 0 q-41 0 -52 29 l0 8 q2 16 15 16 q102 0 279 31 l16 -23 Z" /><glyph glyph-name="uni516B" unicode="&#x516b;" d="M443 697 q172 0 465 -650 l0 -26 q0 -23 -31 -23 q-37 0 -170 320 q-88 178 -279 362 q2 17 15 17 ZM352 549 q13 0 23 -41 q0 -201 -186 -420 q-25 -18 -46 -18 q-47 0 -47 59 l15 8 q8 0 8 -8 q115 68 201 361 q0 55 24 59 l8 0 Z" /><glyph glyph-name="uni516C" unicode="&#x516c;" d="M498 711 q178 -57 324 -275 q39 -73 39 -108 l0 -15 q0 -12 -23 -24 l-24 0 q-11 4 -99 168 q-106 113 -233 231 l0 7 q2 16 16 16 ZM336 695 q12 0 23 -23 q-15 -156 -154 -383 q-25 -16 -39 -16 q-39 12 -39 55 q8 45 23 45 l24 0 q99 176 146 315 l16 7 ZM451 443 l16 0 q17 0 31 -62 q0 -82 -92 -299 q137 84 231 154 q-26 78 -45 108 q2 13 15 13 l14 0 q117 -115 117 -359 q-11 -60 -47 -60 q-31 7 -31 31 q0 35 8 76 q-16 111 -16 129 q-240 -201 -316 -205 l-23 0 q-12 0 -24 21 l0 24 l131 275 q23 63 23 115 l-7 32 l15 7 Z" /><glyph glyph-name="uni516D" unicode="&#x516d;" d="M408 754 q59 -49 186 -92 l0 -23 q0 -12 -24 -24 l-7 0 q-178 24 -178 115 q0 12 23 24 ZM840 525 l0 -23 q0 -59 -559 -68 l-15 0 q-100 5 -100 37 l0 8 q2 15 16 15 l23 0 q490 24 627 45 l8 -14 ZM375 371 q23 -8 23 -45 q0 -170 -125 -346 l-37 0 q-15 0 -15 16 l0 16 q84 176 123 283 q0 68 31 76 ZM646 363 l6 0 q149 -146 149 -351 l0 -16 q0 -12 -24 -23 l-15 0 q-24 0 -71 230 q-60 110 -60 152 l15 8 Z" /><glyph glyph-name="uni5170" unicode="&#x5170;" d="M584 777 l21 0 q30 0 47 -91 q0 -79 -99 -223 l8 0 q136 16 146 23 q35 -15 39 -31 q0 -60 -426 -92 q-101 16 -101 47 l0 16 l8 13 l54 -5 l71 0 q0 56 -102 212 l0 8 q2 16 16 16 l7 0 q79 0 139 -199 l0 -32 l31 0 q133 176 133 247 l0 44 l-8 40 l16 7 ZM660 271 q31 -11 31 -23 l0 -21 q0 -41 -324 -63 q-70 14 -70 31 l0 8 q0 22 303 53 q0 10 60 15 ZM754 72 q131 -6 131 -37 l0 -23 l-16 -24 l-107 8 q-71 0 -520 -31 q-123 6 -123 39 q0 29 635 68 Z" /><glyph glyph-name="uni5171" unicode="&#x5171;" d="M580 785 q33 0 47 -183 l8 0 l76 23 l16 0 q15 -2 15 -16 l0 -23 q0 -18 -123 -68 q0 -108 -39 -254 q129 23 262 62 l8 -15 l0 -24 q0 -64 -455 -115 l0 -8 q7 -16 7 -21 q-58 -231 -132 -231 q-34 16 -38 31 l0 22 q84 64 131 199 q-193 12 -209 39 q0 20 32 24 q324 0 324 52 q39 160 39 215 l0 16 q-53 -16 -147 -24 q0 -19 8 -207 q-12 -31 -23 -31 l-16 0 q-31 14 -31 55 l0 144 q0 55 -108 55 l-23 23 l0 8 q2 14 16 14 l99 0 q0 41 -31 170 l16 8 q78 -69 78 -170 q39 0 170 23 l0 192 q2 15 15 15 l8 0 ZM557 164 q99 0 256 -221 l0 -47 q0 -15 -16 -15 l-31 0 q-106 140 -225 262 l0 5 q2 16 16 16 Z" /><glyph glyph-name="uni5173" unicode="&#x5173;" d="M600 799 q11 0 31 -29 l0 -61 q0 -53 -70 -146 l7 0 q123 21 147 21 l15 -21 l0 -16 q0 -45 -216 -59 l0 -8 q-8 -91 -24 -148 q88 0 303 37 l16 -21 l0 -24 q0 -41 -340 -66 q-86 -334 -172 -334 l-14 0 q-31 14 -31 53 q0 11 23 21 l14 -6 q109 229 109 258 l-62 0 q-131 4 -147 45 l0 8 q2 13 16 13 l78 0 q6 0 6 -5 l16 5 l117 0 q31 92 31 164 q-185 20 -185 51 l0 8 q0 12 21 24 q43 -8 70 -8 l8 0 l0 8 q-43 91 -92 146 l0 16 q2 15 14 15 l8 0 q76 0 133 -164 l0 -21 l39 0 q123 134 123 244 l8 0 ZM584 229 q102 0 232 -282 l0 -29 q0 -12 -23 -23 l-31 0 q-110 199 -201 312 l0 6 q2 16 15 16 l8 0 Z" /><glyph glyph-name="uni5174" unicode="&#x5174;" d="M664 754 q45 0 70 -108 q0 -78 -162 -236 l8 0 q203 45 240 45 q12 0 22 -21 l0 -16 q0 -53 -487 -115 l16 -24 l0 -23 q0 -133 -123 -260 l-8 0 q-41 0 -47 24 l0 37 q53 27 147 246 q-178 11 -178 37 l0 8 q0 11 24 23 l76 0 q232 0 232 55 q178 181 178 244 q-24 55 -24 68 q2 16 16 16 ZM426 738 l15 0 q69 -52 69 -191 l0 -53 q0 -15 -16 -15 l-23 0 q-22 0 -53 222 q-8 0 -8 29 l16 8 ZM209 725 q104 0 154 -286 q-11 -29 -23 -29 l-16 0 q-29 0 -84 221 l-47 70 l0 8 q2 16 16 16 ZM572 303 q112 0 209 -276 l0 -7 q0 -12 -31 -32 l-16 0 q-21 8 -99 184 l-86 99 l0 8 q0 12 23 24 Z" /><glyph glyph-name="uni5176" unicode="&#x5176;" d="M557 826 l15 0 q47 -51 47 -144 q72 15 108 15 q15 -19 15 -31 q-10 -45 -115 -45 q8 -127 8 -191 l0 -178 q66 0 178 16 q33 -16 37 -30 l0 -15 q0 -39 -364 -55 q0 -10 -99 -16 l8 -13 l0 -16 q-69 -168 -141 -168 l-6 0 q-12 0 -23 22 l0 23 q97 82 123 146 l-8 0 q-96 -7 -108 -7 q-78 9 -78 29 l0 8 q0 10 170 39 q0 86 8 199 q-8 86 -8 160 q-131 8 -131 39 q0 22 123 22 l0 8 q0 15 -15 107 l15 8 l16 0 q31 0 47 -115 q178 25 178 39 q0 35 -16 138 l16 6 ZM387 582 l0 -8 l8 -76 q169 10 169 31 l0 76 l-7 0 l-170 -23 ZM395 443 l0 -91 q177 31 177 46 l0 53 q-92 -8 -131 -8 l-46 0 ZM395 299 l-8 -76 l177 21 l0 86 q-87 -23 -169 -23 l0 -8 ZM611 168 q104 0 162 -221 q0 -11 -31 -31 l-8 0 q-13 0 -115 199 q-12 0 -23 24 l0 13 q2 16 15 16 Z" /><glyph glyph-name="uni5177" unicode="&#x5177;" d="M336 746 l8 0 l31 -23 q229 15 293 15 q0 -11 23 -21 q-7 -237 -7 -350 l0 -103 l-8 -53 q0 8 148 16 l8 -16 l0 -22 q0 -41 -434 -58 l0 -24 q0 -84 -109 -169 l-37 0 q-12 0 -23 21 l0 23 q91 57 123 149 l-108 0 q-60 0 -70 29 q0 10 23 22 l8 0 q8 0 8 -8 l16 8 l52 0 l39 7 q0 6 -7 45 q15 174 15 192 q-8 199 -8 312 l16 8 ZM445 672 q-29 8 -62 8 l-8 0 l8 -53 l0 -37 q25 0 170 21 q11 0 23 -29 q-23 -51 -146 -51 l-39 0 l0 -74 q7 0 23 -8 q92 22 131 22 l8 0 q15 -2 15 -14 l0 -16 q-33 -45 -130 -45 l-47 0 l0 -74 l185 24 l16 -24 l0 -8 q0 -41 -209 -50 l-8 -75 q232 16 232 30 l32 467 q-174 -6 -194 -14 ZM615 137 q84 0 170 -199 l0 -24 q0 -10 -23 -21 l-16 0 q-14 0 -123 177 q-8 0 -23 30 l0 23 q2 14 15 14 Z" /><glyph glyph-name="uni5178" unicode="&#x5178;" d="M596 779 q23 0 23 -119 l0 -14 l8 0 q25 0 133 8 q39 -11 39 -52 q0 -47 -55 -348 q33 14 125 14 q16 -18 16 -30 q0 -54 -352 -74 q-21 -8 -156 -8 l-86 0 q-61 0 -133 24 l0 13 q0 24 94 24 l0 133 q0 144 -23 281 l46 15 q61 -29 125 -29 l0 6 l-15 106 l15 5 l8 0 q31 0 47 -111 q109 0 109 31 q6 125 32 125 ZM611 498 l0 -16 q118 0 118 45 q7 10 7 53 l0 14 q-39 0 -117 -8 l-8 -88 ZM291 580 q23 -62 23 -148 l8 0 q49 7 94 21 q0 111 -31 111 q-39 0 -94 16 ZM463 557 q8 -12 8 -30 l0 -66 q86 6 86 21 l0 75 l7 15 l-15 0 q-69 -8 -86 -8 l0 -7 ZM596 238 q86 0 86 59 q0 14 31 142 q-109 -7 -109 -44 q-16 -129 -16 -157 l8 0 ZM479 402 l0 -172 l39 0 q0 34 31 178 l-16 0 l-54 -6 ZM400 387 l-78 0 l0 -170 l8 0 q68 6 86 6 l0 172 l-16 -8 ZM658 148 q63 0 149 -140 q15 -28 15 -59 l0 -8 q-8 -21 -47 -21 q-132 199 -132 215 q2 13 15 13 ZM369 127 q12 0 24 -22 q0 -68 -118 -156 l-31 0 q-12 0 -23 22 l0 23 q64 53 133 133 l15 0 Z" /><glyph glyph-name="uni517B" unicode="&#x517b;" d="M615 824 l8 0 q18 -2 18 -15 q0 -84 -73 -202 l8 0 q69 8 104 8 l8 -15 l0 -14 q0 -23 -167 -53 q-15 -33 -15 -66 l8 0 q86 6 150 6 l16 0 q15 0 15 -14 l0 -8 q0 -33 -222 -53 l-16 -50 l8 0 l308 43 q18 0 18 -14 l0 -16 q0 -29 -119 -45 q182 -144 205 -185 l0 -29 q0 -16 -16 -16 l-23 0 l-182 164 q8 -102 8 -148 l0 -209 q0 -39 -33 -53 l-8 0 q-8 0 -31 29 q8 151 8 225 l0 127 q0 39 23 66 l-23 16 l-182 -24 l0 -8 q23 -19 31 -119 q-11 -214 -47 -214 l-15 0 q-12 0 -24 21 q24 133 24 225 l0 29 l-8 0 q-100 -156 -176 -156 l-8 0 q-41 0 -47 21 l0 24 q0 7 81 29 q68 66 117 148 q-151 6 -151 32 q8 21 49 21 l63 0 q103 0 103 66 l-39 0 q-43 0 -49 24 l0 14 q2 15 16 15 l64 0 q63 8 63 82 l-8 0 q-158 8 -158 37 l0 16 l8 14 l80 -6 l23 0 l0 6 q-23 41 -88 105 l0 8 q2 14 16 14 l8 0 q62 0 142 -120 q71 88 112 209 l15 8 Z" /><glyph glyph-name="uni517C" unicode="&#x517c;" d="M598 814 q17 0 17 -13 l0 -16 q0 -70 -101 -166 l7 0 l194 31 l8 -15 l0 -24 q0 -27 -166 -45 l0 -66 q2 -16 15 -16 q49 0 100 16 q53 -16 58 -39 l0 -61 q98 16 135 16 l8 -16 l0 -21 q0 -24 -166 -53 q-16 -150 -51 -150 l-41 0 q-35 13 -35 45 l-16 0 l0 -45 l92 -45 q63 -12 176 -145 l0 -13 l-25 -16 l-26 0 q-187 158 -209 158 l0 -195 q0 -41 -25 -45 l-26 0 q-11 0 -23 21 q8 268 8 309 l-8 0 q-68 -6 -68 -16 q0 -285 -34 -285 l-25 0 q-19 0 -23 30 q0 60 15 218 l0 16 l-8 0 q0 -90 -158 -203 l-25 0 q-14 0 -26 21 l0 24 q94 49 151 150 l8 16 q-75 4 -75 21 l0 8 q0 25 133 31 l0 59 l-99 -6 q-100 8 -100 29 l0 8 q0 16 24 16 q70 0 175 13 l0 53 q-105 0 -117 61 q18 8 25 8 q55 -16 77 -16 l15 0 l0 92 l-8 0 q-142 4 -142 29 q0 12 25 23 l176 0 q0 51 66 75 q30 29 100 134 l18 0 ZM330 777 q76 -50 76 -127 q0 -11 -25 -23 l-10 0 q-19 0 -66 135 q2 15 17 15 l8 0 ZM422 553 l-16 0 q16 -92 24 -92 l76 8 l0 90 l-84 -6 ZM564 379 l100 8 l8 52 l0 8 q-108 -15 -108 -31 l0 -37 ZM430 363 l9 0 q8 0 67 8 l0 45 l-8 0 q-8 0 -68 -8 l0 -45 ZM564 273 l41 0 l18 -7 q25 43 25 60 l-9 0 q-75 -10 -75 -23 l0 -30 ZM430 303 l0 -53 l76 16 l0 37 l-76 0 Z" /><glyph glyph-name="uni517D" unicode="&#x517d;" d="M598 824 l7 0 q14 0 26 -21 q0 -76 -111 -162 l7 0 q166 15 198 15 q25 -29 25 -52 q-33 -231 -57 -284 l8 0 q113 8 160 22 q32 -10 32 -22 l0 -23 q0 -47 -622 -84 l-54 0 q-104 6 -104 29 l0 8 q0 16 24 16 q15 0 15 -8 q30 0 471 47 q-43 60 -64 60 q-116 -37 -262 -52 l-18 23 l0 37 q0 141 -39 275 l16 8 l15 0 l34 -23 l95 0 q-56 107 -80 138 l0 8 q2 16 16 16 l8 0 q66 0 103 -131 l0 -16 l-8 -15 l24 0 q0 55 80 107 l55 84 ZM512 520 q88 13 142 13 l8 -13 l0 -8 q0 -30 -150 -47 l0 -53 l8 0 q50 16 70 16 l41 0 l23 -16 q24 98 39 192 q-181 -16 -181 -32 l0 -52 ZM320 588 q0 -31 16 -100 l119 24 l0 68 l-96 0 l-39 8 ZM336 434 l8 -69 q111 22 111 39 l0 45 q-39 0 -119 -8 l0 -7 ZM639 404 l0 -15 l7 0 l0 15 l-7 0 ZM686 205 q35 -16 39 -31 l0 -8 q0 -129 -239 -260 q-43 -8 -62 -8 q-88 0 -88 215 q-12 0 -16 76 q16 8 24 8 q25 -15 47 -15 l56 0 q98 0 239 23 ZM391 129 q27 -170 41 -170 q105 0 222 178 q0 6 -8 6 q-113 -14 -160 -14 l-95 0 Z" /><glyph glyph-name="uni5185" unicode="&#x5185;" d="M492 789 q22 -8 22 -47 l0 -45 q0 0 -6 -76 q15 0 222 53 q47 0 55 -61 l0 -175 q0 -83 -8 -131 q8 -57 8 -139 l0 -152 q0 -43 -39 -61 l-16 0 q-60 0 -154 129 l0 8 l8 0 q31 0 131 -53 q15 512 15 574 l-7 0 q-231 -47 -231 -78 q0 -29 -8 -60 q92 0 209 -168 l8 -39 q-12 -30 -23 -30 l-24 0 q-50 90 -101 145 q-14 0 -69 47 l-7 0 q-49 -254 -94 -254 l-24 0 q-23 8 -23 47 l0 37 q47 0 47 70 q47 109 47 221 q-20 0 -63 -8 q-68 8 -84 16 q24 -108 24 -299 l0 -153 q0 -107 -32 -107 l-15 0 q-12 0 -24 23 q8 241 8 291 q0 120 -23 329 l15 7 l8 0 q33 -52 84 -52 q43 7 70 7 l32 0 q25 0 47 176 l15 8 Z" /><glyph glyph-name="uni5188" unicode="&#x5188;" d="M723 717 q70 0 70 -166 q0 -160 8 -487 q0 -95 -63 -95 q-58 0 -162 142 l0 8 l8 0 q51 -4 123 -55 l16 0 q15 385 15 557 q-6 41 -23 41 q-289 -41 -363 -41 q-26 0 -108 18 q39 -94 39 -403 l0 -54 q0 -157 -39 -157 l-15 0 l-24 16 q8 209 8 330 l0 63 q0 129 -16 220 l16 32 q111 -8 123 -8 q57 0 387 39 ZM576 598 q16 -2 16 -16 l0 -23 q0 -59 -39 -204 q78 -74 78 -126 l0 -32 q0 -15 -16 -15 l-23 0 q-63 101 -71 101 l-7 0 q-43 -125 -116 -125 q-46 6 -46 47 q56 12 117 135 l0 15 l-94 118 q2 15 16 15 q37 0 115 -70 q49 180 70 180 Z" /><glyph glyph-name="uni518C" unicode="&#x518c;" d="M602 709 l169 0 q40 -14 40 -104 l0 -175 q101 -8 101 -32 l0 -23 q0 -6 -23 -25 q-53 7 -71 17 q0 -10 -7 -10 l7 -54 l0 -287 q-13 -28 -47 -39 q-99 29 -99 103 q8 0 8 8 l78 -31 l0 318 l-156 0 l0 -33 q0 -106 15 -317 q-25 -17 -39 -17 q-45 0 -45 367 l-47 0 l0 -129 q0 -25 8 -39 q0 -230 -47 -230 l-8 0 q-64 0 -99 168 q8 0 8 7 q7 0 68 -48 q8 195 16 263 l-32 0 q-39 0 -130 -10 l0 -62 q0 -65 7 -168 l-7 -16 q7 -13 7 -31 l0 -55 q0 -17 -15 -17 l-24 0 q-39 0 -39 263 l0 79 l-53 0 l-54 7 l0 18 q0 31 115 31 l0 63 q0 207 23 207 l47 0 q131 15 147 15 l8 0 q47 0 47 -205 l0 -48 l62 0 l0 31 q0 211 23 248 l38 -8 ZM594 660 l8 -80 l0 -142 l156 0 l0 214 l-86 0 l-78 8 ZM262 629 l0 -8 q4 -199 15 -199 q88 0 155 16 l-8 15 l0 111 l-8 81 q-61 -16 -131 -16 l-23 0 Z" /><glyph glyph-name="uni518D" unicode="&#x518d;" d="M682 736 l0 -15 q0 -28 -155 -45 q8 -100 24 -100 q51 0 170 37 q39 -9 39 -52 l0 -276 l92 8 q46 -4 46 -23 l0 -8 q0 -28 -138 -45 l0 -170 q0 -137 -71 -137 q-70 0 -177 184 l15 8 l147 -116 l15 0 q16 114 16 168 l0 55 q-35 0 -371 -47 l0 -84 q0 -146 -39 -146 l-16 0 q-11 0 -23 23 q0 27 15 207 q-123 16 -123 47 q2 14 16 14 l100 0 l15 7 q0 36 -23 346 l15 8 l8 0 l32 -23 l138 0 l39 7 l0 32 l-8 76 l-44 0 q-110 6 -110 37 l0 16 l8 15 q4 0 102 -8 q68 0 230 24 l16 -24 ZM543 438 l8 0 l107 23 l16 -23 l0 -8 q0 -26 -139 -69 l0 -107 q51 16 178 23 l0 276 q-131 -32 -170 -32 l0 -83 ZM311 521 q23 -74 23 -259 l0 -32 l8 0 q35 0 131 16 q0 39 7 115 l-68 0 q-41 0 -47 24 l0 15 q2 14 16 14 l47 0 q60 0 60 47 l0 53 q-31 0 -60 -6 q-63 6 -117 21 l0 -8 Z" /><glyph glyph-name="uni5192" unicode="&#x5192;" d="M236 752 q55 -41 80 -41 l32 0 q363 33 429 33 l24 -49 q-63 -257 -135 -257 l-16 23 q86 207 86 227 q-297 -40 -396 -40 l-24 0 l-15 8 l0 -8 q23 -140 23 -218 l-31 -26 q-39 0 -49 237 q-23 43 -23 103 l15 8 ZM586 617 q39 -10 39 -23 q0 -45 -213 -63 q-64 10 -64 32 l0 7 q0 16 238 47 ZM609 516 q16 -2 16 -16 l0 -16 q0 -37 -254 -54 q-31 11 -31 23 l0 16 q0 17 254 47 l15 0 ZM689 404 q12 0 24 -23 l0 -393 q0 -54 -55 -54 q-19 7 -95 62 q-151 -62 -239 -62 q-8 23 -15 23 q7 170 7 252 l0 156 l8 16 q63 -16 104 -16 q45 0 254 39 l7 0 ZM451 318 q-56 0 -88 16 l8 -39 l0 -47 q176 31 199 31 l16 -23 q-35 -55 -207 -55 l0 -70 q170 39 230 39 l16 -24 q-49 -64 -246 -64 l0 -86 q121 39 135 39 l0 8 l-16 23 l16 8 q80 -19 136 -54 l0 7 q16 264 16 315 l0 15 q-129 -39 -199 -39 l-16 0 Z" /><glyph glyph-name="uni5195" unicode="&#x5195;" d="M229 730 l7 0 q55 -50 112 -50 l7 0 q45 0 350 37 l24 -31 l0 -22 q-55 -232 -88 -232 l-8 0 q-16 0 -16 15 l0 30 q0 19 57 187 l-8 0 q-221 -37 -303 -37 l-8 0 q-33 0 -62 14 l0 -6 q16 -94 16 -158 l0 -51 q0 -16 -16 -16 l-25 0 q-18 0 -39 262 q-16 0 -16 51 l16 7 ZM570 619 q16 -2 16 -15 q0 -45 -238 -67 q-12 0 -24 22 l0 7 q0 22 223 53 l23 0 ZM563 537 q15 -2 15 -16 l0 -13 q0 -16 -103 -45 l-24 -37 l8 0 q59 13 70 13 q34 -9 34 -21 l0 -16 q0 -41 -73 -95 q170 43 199 43 l24 -30 l0 -7 q0 -65 -158 -157 l8 -52 l0 -120 q66 0 197 120 l-24 31 l0 13 q2 16 16 16 l16 0 q72 0 72 -60 q0 -88 -270 -186 l-15 0 q-34 12 -49 37 l0 172 q-70 0 -111 -143 q-40 -50 -47 -50 l-39 0 q-16 0 -16 13 l0 30 q70 60 70 113 q-78 12 -78 29 l0 8 q0 76 -25 193 l15 8 l10 0 l47 -45 l47 0 q37 0 72 67 q12 0 24 23 l-8 0 q-51 -23 -72 -23 l-24 0 q-16 0 -16 15 l0 24 l47 58 q-62 0 -62 24 l0 6 q0 15 223 60 ZM467 180 l8 0 q97 45 142 103 l-8 0 q-142 -31 -142 -53 l0 -50 ZM332 238 q6 -90 23 -90 l32 0 q21 0 41 90 l-96 0 Z" /><glyph glyph-name="uni5199" unicode="&#x5199;" d="M264 746 q6 0 84 -60 l47 0 q78 0 386 52 q35 -15 39 -31 l0 -14 q0 -78 -162 -162 q0 8 -8 8 q22 53 84 131 q-220 -47 -300 -47 l0 -8 q39 0 39 -84 l-8 -45 q154 30 193 30 l14 0 q16 -2 16 -14 q-49 -70 -209 -70 l-30 0 q-31 -98 -31 -108 q223 55 324 55 l8 0 q63 0 70 -76 q-78 -330 -148 -330 q0 -16 -14 -16 l-23 0 q-78 0 -162 184 q-139 -30 -217 -30 q-70 8 -70 30 l0 7 q0 20 410 71 l15 0 q12 0 24 -24 q-72 -47 -125 -47 q117 -105 117 -115 q53 0 131 254 l0 24 q0 13 -16 13 q-35 0 -363 -60 l-16 0 q-11 0 -23 31 q78 191 78 228 l0 8 l-8 78 q8 0 8 6 q-20 0 -94 16 q8 -8 16 -100 q-6 -84 -24 -84 l-23 0 q-14 0 -14 16 l0 84 q0 107 -47 176 l0 7 q2 16 16 16 l16 0 Z" /><glyph glyph-name="uni519B" unicode="&#x519b;" d="M230 740 l16 0 q33 -47 84 -47 l457 47 l16 -23 l0 -16 q-2 -72 -143 -146 l-8 0 l0 8 q0 33 73 115 l-8 0 q-268 -37 -358 -37 l-68 5 q14 -72 10 -175 l-31 -22 q-30 0 -40 237 q-15 0 -15 46 l15 8 ZM459 609 q39 0 37 -68 l0 -31 q20 0 154 31 l8 0 q12 0 24 -23 q-2 -49 -203 -77 l-67 -146 l102 16 l2 91 q0 12 25 24 q29 -10 27 -69 l0 -31 q26 0 110 16 q37 -10 37 -24 q0 -35 -141 -54 l-2 -69 q186 24 264 24 l23 -31 q-9 -30 -33 -30 q-97 0 -256 -31 l6 -92 l-4 -129 q0 -11 -23 -23 l-24 0 q-11 0 -23 23 l8 213 q-63 -15 -149 -15 l-23 0 q-131 5 -131 39 l2 7 q2 14 16 14 q17 0 84 -6 l201 22 l2 70 q-76 -8 -116 -8 l-7 0 q-12 0 -32 29 l2 24 q57 131 57 139 l-8 0 q-99 4 -99 29 l0 8 q2 21 140 31 l2 47 l-8 53 l16 7 Z" /><glyph glyph-name="uni519C" unicode="&#x519c;" d="M531 805 q12 0 26 -22 l0 -45 l-10 -74 q6 8 195 29 q55 0 55 -52 q-67 -145 -176 -194 l-17 0 q-16 0 -16 14 q14 39 121 166 l0 6 l-8 0 q-193 -18 -193 -67 q-18 -50 -65 -134 q16 -112 16 -186 l0 -180 q72 88 152 149 q10 -14 10 -22 q-105 -246 -185 -246 l-26 0 q-31 12 -31 51 q16 139 23 299 l-7 16 l7 15 q-7 12 -7 29 q-106 -121 -163 -150 l-39 0 q-13 0 -33 31 q201 135 291 358 l-49 -8 q-33 0 -97 16 q17 -75 17 -135 l0 -67 q0 -11 -33 -29 l-16 0 l-33 22 l8 37 l0 52 q0 77 -23 194 l15 8 l18 0 q8 0 31 -38 q29 0 72 -7 q129 0 129 45 q28 119 41 119 ZM822 484 q16 -2 16 -15 l0 -14 q0 -55 -145 -172 q143 -170 161 -254 l0 -31 q0 -14 -16 -14 l-31 0 q-16 0 -121 202 q-116 169 -186 209 q2 15 16 15 l23 0 q43 0 113 -68 l8 0 q39 12 147 142 l15 0 Z" /><glyph glyph-name="uni51A0" unicode="&#x51a0;" d="M740 732 q16 -25 16 -39 q-86 -129 -152 -129 l-8 14 q8 31 54 86 l-7 0 q-174 -23 -305 -23 l-8 0 q-51 0 -113 23 q23 -57 23 -154 l0 -45 q0 -12 -23 -24 l-24 0 q-17 0 -17 16 l0 61 q0 76 -31 199 l15 8 l8 0 q14 0 25 -24 q16 0 16 8 l96 -8 q121 0 435 31 ZM691 578 q28 0 41 -98 l47 0 q18 -1 18 -15 q-22 -39 -65 -39 q8 -115 8 -168 l0 -123 l-8 -53 q129 41 129 107 l32 0 q15 -1 15 -15 l0 -47 q-187 -168 -369 -168 q-129 0 -129 152 l0 223 q-14 0 -72 -23 l8 -38 q-22 -322 -114 -322 q-11 0 -31 31 q72 141 72 200 q16 86 16 113 q-12 -8 -80 -14 q-41 8 -41 22 l0 15 q0 10 170 55 q117 53 160 53 l16 0 q17 -2 17 -16 l0 -8 q-2 -15 -72 -45 q0 -322 64 -322 l24 0 q31 0 96 16 q-65 64 -65 92 l18 7 q37 -23 72 -23 q16 35 16 100 l0 183 l-57 -8 l-23 0 q-63 0 -73 32 l0 7 q2 16 16 16 l31 0 q106 0 106 23 l0 38 l-8 54 l15 6 ZM281 557 q186 -14 186 -39 l0 -8 q-12 -30 -57 -30 q-144 6 -144 45 l0 16 q2 16 15 16 ZM523 318 q153 -33 153 -60 l0 -8 q0 -12 -26 -23 l-7 0 q-75 0 -137 62 l0 14 q2 15 17 15 Z" /><glyph glyph-name="uni51AC" unicode="&#x51ac;" d="M457 793 l0 -39 q0 -49 -53 -147 l4 0 q180 63 235 63 l7 0 q14 0 26 -25 l0 -8 q0 -43 -147 -241 q248 -83 373 -205 l0 -23 q0 -14 -25 -25 q-20 0 -289 148 l-109 47 q-153 -188 -274 -188 q-64 6 -64 67 q7 0 7 10 l18 -10 l31 0 q92 0 217 146 q-94 61 -94 71 l0 17 l26 0 q27 0 117 -31 q123 164 123 176 l-6 0 q-170 -63 -203 -63 l-23 0 q-14 0 -26 26 l0 15 l86 188 q0 56 27 56 l16 -25 ZM479 225 l150 -63 l0 -17 q0 -14 -25 -26 l-40 0 q-78 0 -126 65 l0 23 q1 18 17 18 l24 0 ZM447 45 q229 -53 229 -80 l0 -16 q0 -13 -26 -25 l-7 0 q-116 0 -237 86 l0 17 q2 18 18 18 l23 0 Z" /><glyph glyph-name="uni51B0" unicode="&#x51b0;" d="M553 754 l8 0 q62 0 62 -291 l0 -25 l16 0 q47 0 174 142 l7 0 q12 0 24 -25 q0 -69 -133 -160 q203 -213 203 -286 l0 -17 q0 -12 -23 -26 l-24 0 q-64 135 -181 252 q0 14 -32 36 l-23 0 q8 -188 8 -204 q0 -201 -71 -201 q-60 0 -142 153 l0 7 q8 0 8 8 q9 0 111 -66 l8 0 q15 148 15 267 q0 295 -31 428 l16 8 ZM324 479 q0 25 16 25 q33 0 62 -8 l119 33 l8 0 q16 -2 16 -15 l0 -18 q-86 -310 -213 -387 l-39 0 q-12 0 -23 26 q166 162 197 310 l-57 -7 q-53 0 -86 33 q0 -20 -54 -26 q-135 35 -135 110 q0 13 23 25 l166 -101 ZM316 361 q0 -7 8 -7 q0 -92 -181 -288 l-16 0 q-16 0 -16 18 l0 33 q139 219 205 244 Z" /><glyph glyph-name="uni51B2" unicode="&#x51b2;" d="M635 781 q23 0 19 -211 l10 0 q82 0 213 24 q39 -16 39 -49 q-55 -166 -250 -293 q12 -234 10 -311 q-16 -64 -33 -64 l-24 0 q-12 0 -23 23 l6 319 l-55 -8 l-26 0 q0 -49 -31 -49 q-41 0 -52 203 q1 35 -43 229 l15 8 l8 0 q31 -16 31 -41 q100 -8 112 -8 l39 8 l2 89 q2 131 25 131 l8 0 ZM129 594 q49 -10 166 -90 l0 -8 q-8 -23 -47 -23 l-8 0 q-60 0 -127 80 l0 25 q2 16 16 16 ZM660 342 l8 0 q102 56 160 170 l-8 0 q-158 -16 -158 -32 l-2 -138 ZM480 488 l51 -205 q53 18 65 18 l2 172 q0 15 -16 15 l-102 0 ZM350 406 q0 -78 -198 -285 l-23 0 q-16 0 -16 16 l0 25 q141 217 229 260 l8 -16 Z" /><glyph glyph-name="uni51B3" unicode="&#x51b3;" d="M586 785 q33 0 33 -137 q-8 -44 -8 -58 q118 23 151 23 l15 0 q14 0 26 -23 l0 -16 q0 -60 -143 -267 l10 0 q174 33 250 33 l8 -18 l0 -15 q0 -28 -393 -98 q-68 -258 -158 -258 q-12 0 -25 24 l0 15 q58 67 109 211 l-76 0 q-43 0 -49 26 l0 7 q0 10 150 39 q49 178 49 245 l-15 0 q-75 0 -110 56 l0 8 q0 16 26 16 q54 -16 74 -16 l43 0 q15 104 15 195 l18 8 ZM191 586 l16 0 q57 -41 158 -88 l10 -16 l0 -9 q-10 -24 -51 -24 q-158 53 -158 121 l25 16 ZM561 283 q21 0 58 96 q49 47 100 162 l-8 0 q-117 0 -117 -57 l-33 -201 ZM418 428 l0 -8 q0 -59 -232 -268 q-16 -7 -34 -7 l-7 0 q-18 0 -18 15 l0 18 q207 211 275 250 l16 0 ZM637 201 q101 0 250 -242 l0 -25 q0 -12 -26 -24 l-17 0 q-18 2 -108 137 l-134 131 q0 19 35 23 Z" /><glyph glyph-name="uni51B5" unicode="&#x51b5;" d="M408 758 q55 -82 110 -82 l7 0 q34 0 235 33 q31 -12 31 -25 l0 -24 q0 -41 -148 -221 q15 -31 15 -66 l0 -303 l8 0 q104 67 156 164 l0 16 l-8 41 l24 16 q55 0 55 -57 l0 -8 q-39 -144 -219 -254 l-47 0 q-23 6 -39 57 q23 166 23 262 l0 99 l-7 0 q-55 -35 -55 -41 q-33 -353 -141 -369 q-31 18 -31 41 q105 154 125 311 l-39 0 q-12 0 -24 33 l8 33 q0 96 -62 328 q2 16 15 16 l8 0 ZM479 619 q31 -168 31 -189 l8 0 q121 91 195 213 q-117 -24 -188 -24 l-46 0 ZM150 578 q188 -37 188 -66 q-4 -24 -55 -24 q-97 0 -156 57 l0 16 q2 17 16 17 l7 0 ZM377 430 q0 -8 8 -8 q-141 -166 -242 -188 l-16 0 q-16 0 -16 16 l0 18 q186 162 266 162 Z" /><glyph glyph-name="uni51B7" unicode="&#x51b7;" d="M570 797 q16 0 16 -26 q4 -91 4 -101 q301 -176 316 -291 l-25 -18 l-16 0 q-133 145 -301 260 q-134 -307 -234 -307 l-16 24 l0 16 q211 230 215 378 q20 65 34 65 l7 0 ZM148 582 q145 -86 145 -98 l0 -15 q0 -16 -16 -16 q-95 0 -154 98 l0 8 q0 11 25 23 ZM541 461 q139 -47 139 -72 l0 -8 q0 -18 -18 -18 l-31 0 q-57 0 -113 75 l0 7 q2 16 15 16 l8 0 ZM318 389 q-4 -45 -130 -170 q-20 -41 -65 -41 q-16 0 -16 15 l0 26 q123 166 204 185 l7 -15 ZM760 332 q15 -2 15 -18 l0 -23 q0 -53 -152 -227 q88 -78 88 -123 l0 -7 q0 -16 -16 -16 l-25 0 q-100 109 -178 170 l0 8 q2 17 16 17 q49 -9 74 -9 q51 52 106 138 l0 8 q-86 -23 -131 -23 l-24 0 q-45 0 -64 39 q2 17 15 17 l80 0 q30 0 180 49 l16 0 Z" /><glyph glyph-name="uni51BB" unicode="&#x51bb;" d="M537 791 q14 0 35 -35 l0 -67 l-8 -43 q34 0 202 36 l25 0 l0 -18 q0 -41 -244 -98 q-26 -105 -70 -211 l9 0 l104 28 l0 140 q2 18 17 18 l10 0 q26 -6 26 -70 l0 -63 l9 0 l157 35 q17 -2 17 -17 l0 -8 q-10 -29 -174 -98 l0 -334 q0 -47 -27 -52 l-35 0 q-31 23 -131 228 l-8 0 q0 -166 -105 -166 l-28 35 l0 8 q63 33 63 53 q33 117 60 123 l18 0 q72 -55 113 -158 l10 0 q8 144 8 220 l0 26 q-31 -18 -139 -35 q-53 0 -53 62 q0 25 88 246 q-107 0 -158 53 l0 8 q2 17 18 17 q35 0 158 -17 q25 64 25 101 l-8 43 l16 10 ZM109 531 q202 -33 202 -60 q-18 -35 -53 -35 q-166 23 -166 60 l0 18 q2 17 17 17 ZM336 391 q-94 -200 -201 -246 l-18 0 q-17 0 -17 17 l0 18 q144 203 228 228 l8 -17 ZM756 242 q107 0 168 -176 l0 -27 q0 -18 -18 -18 l-27 0 q-76 139 -156 204 q2 17 17 17 l16 0 Z" /><glyph glyph-name="uni51C0" unicode="&#x51c0;" d="M459 832 q16 0 23 -45 q0 -31 -31 -139 q145 69 168 69 l16 0 q31 -14 31 -37 q0 -51 -127 -176 l16 0 q21 0 160 31 q51 0 62 -68 l0 -63 l-7 -13 l7 0 q8 0 137 13 l16 -29 q0 -37 -168 -55 q-20 -220 -73 -220 l-15 0 q-18 0 -80 76 l0 -168 q0 -121 -80 -121 q-119 41 -192 160 l0 8 q10 0 10 8 q63 -32 158 -92 l24 0 q9 125 9 191 q-136 -39 -183 -39 l-8 16 l0 15 q0 28 191 76 l0 61 q-128 -23 -255 -23 l-8 0 q-33 -77 -129 -205 l-24 0 q-15 0 -15 15 l0 14 q76 195 199 306 l23 0 q0 -33 -23 -84 l8 0 q19 0 224 38 l0 84 q-70 -8 -87 -8 q-114 13 -114 47 l0 5 q0 16 26 16 q99 -8 103 -8 q31 0 72 92 q12 0 24 24 l0 7 l-8 0 q-70 -39 -111 -39 l-26 0 q-11 0 -31 32 l0 23 q72 166 72 205 l16 0 ZM107 527 l24 0 q150 -78 160 -99 l0 -8 q0 -14 -39 -22 q-160 57 -160 122 l15 7 ZM578 436 l8 -77 q119 8 119 45 q10 43 10 63 l-10 0 q-21 0 -127 -24 l0 -7 ZM586 260 l64 -37 l0 -16 l16 0 q23 86 23 107 l-7 0 q-14 -7 -96 -15 l0 -39 Z" /><glyph glyph-name="uni51C6" unicode="&#x51c6;" d="M482 766 q18 -2 18 -16 q-41 -102 -84 -102 q12 -125 18 -625 q-16 -85 -43 -85 l-8 0 q-14 0 -33 31 l9 359 q2 92 14 289 q-74 -39 -107 -39 q-36 16 -39 31 l0 8 q0 14 115 39 q90 63 133 110 l7 0 ZM578 727 q164 -39 164 -63 l0 -8 q0 -11 -33 -23 q-146 0 -146 78 q1 16 15 16 ZM848 586 l0 -8 q0 -33 -180 -55 l8 -15 l0 -94 q115 16 156 16 l8 -16 l0 -16 q0 -31 -156 -46 l0 -71 l-8 -15 q8 0 8 -8 q99 23 156 23 l15 -23 q0 -43 -179 -70 l0 -110 q152 8 220 8 l16 0 l26 -16 q0 -62 -334 -62 l-67 0 q-90 0 -90 23 l0 8 q0 12 26 24 l23 0 q41 0 123 7 l0 118 l-15 0 q-90 11 -90 39 l0 7 q2 16 15 16 l98 0 l0 94 l-33 0 q-94 0 -106 39 q0 23 139 23 l0 117 l-8 0 q-156 4 -156 40 l0 7 q4 16 17 16 l49 0 q39 0 311 16 l8 -16 ZM117 500 q80 -23 162 -31 l10 -16 l0 -15 q0 -16 -18 -16 l-72 0 q-70 0 -99 47 l0 15 q2 16 17 16 ZM305 367 q0 -8 8 -8 q-45 -105 -196 -211 l-17 0 l-16 24 l0 8 q160 187 221 187 Z" /><glyph glyph-name="uni51C9" unicode="&#x51c9;" d="M459 766 q20 -18 172 -55 l0 -22 q0 -11 -24 -23 l-46 0 q-141 0 -141 84 q2 16 16 16 l23 0 ZM803 666 q15 -2 15 -16 l0 -7 q-35 -71 -406 -92 q-86 4 -86 29 l0 8 q0 17 274 39 q134 39 187 39 l16 0 ZM787 543 q12 0 24 -23 l0 -16 q-20 -94 -165 -201 q8 -76 8 -115 l0 -131 q0 -147 -39 -147 l-23 0 q-24 0 -94 194 q-39 52 -47 52 q-21 -176 -109 -176 l-8 0 q-12 0 -23 22 l0 16 q93 64 93 170 q20 39 32 39 l7 0 q24 -4 149 -202 q8 92 8 131 l0 110 q-45 0 -71 -39 l-23 0 q-20 2 -78 308 l23 0 q31 -31 94 -31 q193 39 219 39 l23 0 ZM131 535 q195 -45 203 -62 l0 -16 q-8 -23 -47 -23 l-16 0 q-117 0 -164 70 l0 16 q2 15 16 15 l8 0 ZM506 449 q31 -117 31 -146 q127 80 195 177 q-115 -31 -171 -31 l-55 0 ZM357 373 q8 -16 8 -23 q0 -69 -203 -246 l-23 0 q-16 0 -16 15 l0 14 q174 228 234 240 ZM717 242 q76 0 172 -170 l7 -39 l0 -15 q0 -12 -23 -24 l-23 0 l-102 170 q-12 0 -47 47 l0 16 q2 15 16 15 Z" /><glyph glyph-name="uni51CC" unicode="&#x51cc;" d="M609 818 q22 0 34 -105 l7 0 q100 16 108 16 l15 -24 l0 -8 q0 -25 -140 -52 l0 -67 q119 22 166 22 l41 0 q17 -2 17 -16 q0 -45 -347 -98 l8 -13 l0 -16 q0 -86 -123 -182 l-26 0 q-17 0 -17 16 l0 23 q103 102 132 172 l-89 0 q-14 0 -26 24 l0 8 q0 21 207 45 l0 74 l-92 0 q-43 0 -58 31 l0 8 q4 13 17 13 l8 0 q41 0 125 8 q6 121 33 121 ZM104 592 q173 0 191 -41 l0 -8 q-8 -25 -51 -25 l-41 0 q-107 5 -107 33 l0 25 l8 16 ZM707 502 q102 0 199 -182 l0 -13 l-33 -24 q-19 0 -123 137 l-92 66 q2 16 16 16 l33 0 ZM609 465 l8 0 q16 -2 16 -16 l0 -8 q0 -23 -57 -158 l174 37 q21 0 41 -37 q0 -31 -107 -166 q119 -49 238 -150 l0 -29 q0 -16 -16 -16 l-17 0 q-22 0 -182 105 l-64 37 l-10 0 q-131 -105 -182 -105 l-41 0 q-10 0 -41 39 l0 29 q2 16 16 16 l25 -16 l16 0 q56 0 133 77 l0 5 q-30 0 -67 47 l0 6 q0 16 26 16 q9 0 99 -30 l74 98 l-7 0 q-92 -31 -125 -31 l-41 0 q-16 4 -34 39 l125 211 ZM369 371 q-43 -82 -240 -203 l-16 0 q-13 0 -25 23 l0 16 q180 180 273 180 l8 -16 Z" /><glyph glyph-name="uni51CF" unicode="&#x51cf;" d="M551 816 q19 0 60 -140 q90 8 131 8 l8 -16 l0 -8 q0 -23 -115 -39 l115 -336 q10 0 92 141 l15 0 q14 -2 14 -16 l0 -8 q0 -23 -84 -211 l55 -132 q21 0 21 125 l0 15 l8 0 q25 0 39 -156 q0 -78 -60 -78 l-8 0 q-100 90 -100 156 l-8 0 q-41 -39 -68 -39 q-31 12 -31 23 l0 32 q68 47 68 78 q-117 389 -131 390 l-37 0 q-37 0 -76 -7 q-88 15 -107 15 q7 -78 7 -117 l0 -156 q0 -344 -91 -344 q-12 0 -24 24 l0 7 q61 205 61 352 l0 8 l-8 0 q-4 -41 -207 -250 q-12 -8 -29 -8 l-8 0 q-16 0 -16 16 l0 23 q193 250 268 250 l0 266 q2 15 15 15 q24 0 24 -31 q4 0 99 -8 q12 0 123 8 l0 8 q-31 103 -31 133 l16 7 ZM742 801 q10 0 69 -71 l0 -39 l-8 0 q-53 0 -100 79 l0 15 q2 16 16 16 l23 0 ZM84 559 q168 -80 168 -94 q0 -12 -23 -24 l-16 0 q-86 0 -152 79 l0 23 q0 16 23 16 ZM596 504 l0 -8 q0 -31 -121 -47 q-94 12 -94 39 l0 8 q0 16 23 16 q14 0 184 8 l8 -16 ZM428 402 q39 -25 39 -31 l137 31 l15 0 q12 0 24 -23 l0 -39 q-16 -119 -184 -274 l-8 0 q-39 0 -39 329 l16 7 ZM467 324 l13 -148 q92 99 92 164 q-68 -16 -97 -16 l-8 0 Z" /><glyph glyph-name="uni51D1" unicode="&#x51d1;" d="M590 773 q15 -2 15 -15 q0 -41 -7 -94 l56 8 l82 0 q16 -2 16 -16 l0 -8 q0 -25 -178 -54 l-10 -47 l41 8 l90 0 q18 -2 18 -16 q0 -37 -164 -55 l-24 -62 l8 0 q110 23 260 31 l18 -23 q-45 -32 -90 -32 l0 -7 q195 -135 195 -211 l0 -16 q0 -12 -25 -23 l-8 0 q-92 111 -229 242 q-162 -20 -162 -47 l0 -8 q196 -19 196 -39 l0 -8 q0 -13 -57 -39 q-8 -43 -8 -62 l8 0 l49 8 l41 0 q15 -2 15 -16 l0 -8 q0 -21 -131 -47 q-70 -219 -146 -219 l-23 0 q-26 8 -26 47 l26 16 q0 -8 7 -8 q90 111 90 156 l-58 0 q-59 0 -65 24 l0 23 l98 8 l33 0 q20 0 41 86 q-55 0 -107 47 q-80 -211 -162 -211 q-38 16 -42 31 l0 8 q90 63 131 172 l34 62 q-53 0 -75 16 q0 -76 -228 -258 l-33 0 q-16 0 -16 16 l0 15 q236 250 293 250 q107 0 107 86 q-58 14 -58 32 l0 7 q0 12 25 24 l57 0 l8 55 l-80 0 q-45 0 -67 39 l0 15 l8 16 l82 -8 l82 0 q29 109 49 109 ZM148 555 q32 -14 172 -47 l0 -24 q-7 -23 -49 -23 l-15 0 q-108 0 -139 55 l0 15 q0 20 31 24 ZM688 86 q62 -31 130 -141 l0 -39 q0 -15 -25 -15 q-16 0 -147 179 q2 16 18 16 l24 0 Z" /><glyph glyph-name="uni51DD" unicode="&#x51dd;" d="M322 746 l8 0 q25 0 37 -109 q108 72 131 72 l8 -16 l0 -17 q-2 -18 -139 -106 q10 -41 26 -41 q58 57 97 57 l8 -16 q-51 -115 -139 -115 l0 -31 q18 0 123 15 l16 -25 l0 -8 q0 -10 -57 -41 l-17 -131 l10 0 q41 26 64 26 l8 0 q17 0 17 -26 q0 -19 -82 -74 q43 0 106 -90 q49 129 49 280 q2 15 17 15 l8 0 q12 0 25 -23 l0 -67 q0 -41 -9 -123 l49 -7 l0 269 l-90 0 q-63 0 -73 33 l0 8 q2 18 16 18 l49 0 q41 0 123 7 q-4 14 -131 75 l0 8 l16 23 l58 -8 l8 0 q8 0 49 59 l-41 -10 l-33 0 q-90 14 -90 41 l0 18 q2 15 17 15 q61 -15 73 -15 q131 15 140 15 l16 -25 l0 -16 q0 -31 -74 -115 q21 0 49 -49 l91 25 q32 -11 32 -25 l0 -23 q-36 -71 -123 -100 l-8 0 q0 10 -8 10 l33 56 q-17 0 -58 -15 q17 -63 17 -115 l0 -26 l8 0 q59 33 90 33 l8 -15 l0 -18 q0 -25 -98 -49 l0 -105 q2 -14 197 -82 q16 -27 16 -49 q-20 -18 -26 -18 l-7 0 q-182 55 -311 124 l0 -8 q-31 -116 -57 -116 l-17 0 q-55 36 -123 149 l-16 0 q-13 0 -49 -123 q-25 -33 -33 -33 l-33 0 q-16 0 -16 15 l0 33 q45 65 49 108 q-37 -18 -74 -18 l-16 26 l0 8 q0 9 123 66 q34 123 34 154 l-34 0 q-21 -154 -48 -154 l-18 0 q-12 0 -23 23 q48 137 48 280 l-13 224 l17 8 ZM76 518 l26 0 q25 -20 130 -49 l0 -18 q0 -12 -25 -23 l-57 0 q-89 15 -89 82 l15 8 ZM281 402 q0 -62 -164 -228 q-15 -8 -23 -8 l-18 23 q51 131 190 213 l15 0 Z" /><glyph glyph-name="uni51E0" unicode="&#x51e0;" d="M270 723 q17 0 29 -69 q162 30 230 30 l37 0 q75 0 79 -98 q0 -43 -47 -475 q7 -13 7 -31 l16 0 q70 0 199 115 q0 18 22 45 l0 24 q-22 29 -22 52 l14 8 l39 0 q45 -25 45 -76 q0 -72 -197 -221 q-51 -31 -116 -31 q-62 0 -84 100 l0 15 l61 467 q-8 45 -23 45 l-22 0 q-211 -23 -238 -23 l0 -22 q-22 -582 -100 -582 l-21 0 q-12 0 -32 31 l0 8 q100 258 100 664 l24 24 Z" /><glyph glyph-name="uni51E1" unicode="&#x51e1;" d="M516 707 q109 -10 109 -94 l0 -23 l-35 -461 l0 -47 q66 0 258 266 l-8 15 q0 20 29 24 q37 -12 37 -55 q-33 -158 -281 -336 q-29 -8 -51 -8 q-58 30 -58 78 l0 55 l50 469 q-7 47 -21 47 q-37 0 -289 -24 l0 -8 q15 -89 15 -171 q-19 -461 -82 -477 l-29 0 q-10 0 -21 23 l0 8 q66 258 66 485 l0 62 q0 70 -16 133 q12 31 24 31 q35 -23 43 -23 q60 0 260 31 ZM322 496 q67 0 157 -211 l0 -23 q0 -24 -30 -24 q-27 0 -148 227 l0 15 l21 16 Z" /><glyph glyph-name="uni51EF" unicode="&#x51ef;" d="M279 785 l16 0 q29 0 47 -250 q51 16 62 16 l0 39 l-8 55 l24 15 q39 0 47 -117 l0 -55 q0 -56 -24 -62 l-23 0 q-16 0 -16 15 l0 55 l-8 0 q-80 -57 -187 -86 l-39 0 q-31 14 -31 55 q15 129 15 140 q-15 26 -15 47 q0 16 23 16 q39 0 47 -102 l0 -86 l70 24 l-8 16 l0 85 q0 55 -7 172 l15 8 ZM795 539 q-24 -211 -24 -414 l0 -8 q51 49 102 141 l-8 39 l16 8 l23 0 q12 0 32 -32 l0 -15 q0 -108 -165 -242 l-31 0 q-39 17 -39 78 q24 304 24 422 q-102 -32 -157 -32 l0 -7 q8 -139 8 -227 l0 -47 q0 -219 -55 -219 l-15 0 l-24 32 l0 15 q32 98 32 282 l0 242 q2 15 15 15 l8 0 q24 0 24 -39 q173 47 210 47 l24 -39 ZM396 395 q24 -26 24 -40 q0 -11 -86 -101 q47 0 47 -16 l0 -15 q0 -24 -125 -55 q8 -92 8 -133 l0 -8 q123 94 148 94 q8 -16 8 -23 q-119 -174 -188 -180 q-21 0 -39 39 l16 141 l-8 47 l-39 0 q-12 0 -23 23 l0 16 l172 125 l7 15 l-78 -8 q-88 0 -109 39 l0 8 l8 16 l93 -8 q38 0 164 24 Z" /><glyph glyph-name="uni51F6" unicode="&#x51f6;" d="M607 777 q16 -2 16 -15 l0 -32 q0 -95 -78 -234 q117 -137 117 -180 l-23 -15 q-39 0 -125 117 q-108 -172 -164 -172 l-16 0 q-12 0 -31 31 l0 63 q2 15 15 15 q0 -11 32 -31 q109 133 109 164 q-109 104 -109 133 q15 8 23 8 q12 0 125 -86 q47 84 94 227 l15 7 ZM764 520 q64 0 78 -243 q-10 -312 -55 -312 l-31 0 q-12 0 -24 31 q0 8 32 188 l-8 0 q-461 -196 -500 -196 l-24 0 q-52 0 -62 71 q16 162 16 296 q0 40 -24 149 l16 8 l8 0 q62 -12 62 -453 q520 207 523 218 l0 32 q0 107 -31 203 q16 8 24 8 Z" /><glyph glyph-name="uni51F8" unicode="&#x51f8;" d="M383 717 q47 -37 101 -47 q16 8 24 8 q137 8 164 8 l23 -32 l0 -39 q0 -25 -62 -203 l8 0 q39 0 195 24 q47 -20 47 -55 q-70 -346 -86 -391 l-24 -15 l-31 0 q-19 2 -78 93 q-309 -62 -351 -62 l-40 23 l-7 0 q0 -31 -24 -31 l-15 0 q-8 0 -32 31 q8 92 8 133 l0 47 q0 86 -39 234 q2 16 16 16 l8 0 q41 -39 54 -39 q35 0 125 16 l0 46 q0 100 -15 204 q11 31 23 31 l8 0 ZM430 607 q0 -37 15 -179 q0 -78 -195 -78 q23 -67 23 -243 l0 -54 q141 54 407 78 l54 -8 l-7 -39 l15 0 q78 266 78 289 q-121 -23 -164 -23 l-15 0 q-53 0 -78 78 q0 6 62 187 l-8 0 q-80 -8 -125 -8 l-62 0 Z" /><glyph glyph-name="uni51F9" unicode="&#x51f9;" d="M176 652 l8 0 q39 -47 54 -47 q55 0 149 16 q86 0 86 -344 q84 8 101 16 q-8 18 -31 281 q31 57 31 63 l71 -8 q123 16 164 16 q31 -34 31 -63 l0 -70 q0 -524 -47 -524 q-14 -8 -31 -8 q-20 0 -110 86 q-400 -54 -437 -54 q-18 39 -24 39 l8 94 q0 232 -39 500 l16 7 ZM613 551 q8 -16 8 -24 l24 -257 q0 -53 -227 -79 l-16 24 l0 203 q0 62 -15 141 q-106 -8 -149 -8 l0 -8 q32 -197 32 -430 l0 -31 q335 49 359 63 q31 0 109 -55 q33 0 39 461 l0 23 q-138 -15 -164 -23 Z" /><glyph glyph-name="uni51FA" unicode="&#x51fa;" d="M506 799 q47 0 47 -297 l0 -8 q140 29 140 84 l0 76 q2 16 16 16 l8 0 q31 0 47 -131 q0 -205 -78 -205 q-24 25 -24 37 q0 24 16 100 q-102 -53 -125 -53 q8 -90 8 -131 l0 -29 q0 -41 -8 -131 l8 0 q136 62 171 62 l16 -23 l0 -8 q-45 -68 -430 -205 l-39 0 q-62 4 -62 61 q15 60 15 144 q0 39 -7 115 l15 8 l8 0 q39 0 47 -138 l0 -45 l-8 -77 q94 28 195 69 q0 8 -7 23 q7 178 7 266 l-7 0 q-125 -45 -157 -45 l-23 0 q-47 27 -47 68 q16 77 16 153 l0 23 l-8 76 l15 8 l8 0 q39 0 47 -131 l-8 -121 q34 0 164 53 l0 320 q2 16 16 16 l8 0 ZM787 350 l8 0 q31 -10 31 -69 l0 -62 q0 -297 -55 -297 l-23 0 q-12 0 -31 31 l0 68 q39 0 54 282 q-7 13 -7 31 l23 16 Z" /><glyph glyph-name="uni51FB" unicode="&#x51fb;" d="M475 797 q43 -20 43 -190 q146 16 166 16 l17 -23 l0 -8 q0 -35 -174 -45 l0 -53 q2 -76 18 -76 q66 0 277 61 l8 0 q18 -2 18 -16 l0 -24 q0 -43 -313 -97 l0 -8 q10 -109 10 -121 l-10 -106 q14 0 192 67 l-10 55 l0 44 q4 16 17 16 l10 0 q43 0 51 -168 q0 -242 -43 -242 l-25 0 q-22 0 -26 31 q0 61 16 197 q-326 -152 -406 -152 q-61 0 -61 61 q35 152 35 213 q-10 29 -10 52 l18 8 l10 0 q29 0 33 -100 q0 -27 -18 -166 q14 0 139 45 l0 100 q0 53 10 166 q-102 -8 -149 -8 q-207 10 -207 39 l0 6 q2 16 18 16 l60 0 q139 0 278 15 l0 145 l-96 0 q-86 10 -86 29 l0 16 q0 15 26 15 q37 0 95 -7 l51 7 l0 174 q4 16 18 16 Z" /><glyph glyph-name="uni51FD" unicode="&#x51fd;" d="M602 754 l13 -24 l0 -15 q0 -43 -119 -149 q29 -48 45 -140 q88 64 127 156 l16 8 q11 0 21 -24 q0 -70 -103 -179 q72 -49 127 -117 l0 -24 l-16 -23 l8 0 q29 15 60 15 l22 0 l8 39 l0 118 l-8 78 l15 7 l16 0 q29 0 37 -132 l0 -203 q0 -196 -29 -196 l-39 0 q-22 8 -22 47 q16 84 16 109 l0 47 l6 16 l-6 0 q-471 -172 -580 -172 q-74 10 -74 78 l29 250 q0 12 -22 125 l22 0 q43 -13 45 -156 q0 -76 -14 -211 l22 -16 q60 8 211 55 q-30 139 -30 149 l14 0 l45 -40 q15 81 23 149 q-8 105 -29 156 l-16 -8 l-7 0 q-16 0 -16 24 q0 17 98 125 l-14 0 q-27 0 -68 -8 q-122 18 -122 47 l0 15 q2 16 16 16 q90 -16 106 -16 l166 24 ZM285 496 l37 -8 q88 8 129 8 l8 -16 l0 -23 q0 -88 -129 -234 l-21 0 q-16 0 -16 15 l0 24 q90 127 98 172 l-61 0 q-39 0 -53 31 l0 15 l8 16 ZM541 355 l8 -15 q0 -94 -31 -188 l7 0 q164 63 180 63 l0 8 q-88 76 -156 132 l-8 0 Z" /><glyph glyph-name="uni5200" unicode="&#x5200;" d="M748 711 q55 -20 55 -76 q-43 -694 -86 -694 q-14 -7 -31 -7 q-30 0 -235 252 l0 15 q72 -10 227 -160 q31 143 70 602 l-23 15 q-241 -31 -289 -47 q-41 -638 -157 -638 l-15 0 q-12 0 -24 21 l0 39 q0 37 39 45 q55 147 117 533 q-148 0 -148 69 q2 15 16 15 q25 -15 86 -29 q345 45 398 45 Z" /><glyph glyph-name="uni5203" unicode="&#x5203;" d="M230 701 q43 -39 102 -39 q275 39 438 39 q54 0 54 -78 q-64 -648 -117 -648 q-14 -8 -31 -8 l-8 0 q-61 0 -234 211 l15 8 q127 -59 219 -133 q102 406 102 578 l0 8 q0 15 -16 15 l-16 0 q-265 -23 -265 -47 q-77 -632 -180 -632 q-39 11 -39 54 q117 196 172 578 l-125 0 q-67 0 -94 47 l0 24 q0 11 23 23 ZM277 514 l8 0 q24 -8 24 -47 l0 -8 q0 -174 -71 -250 l-31 0 q-16 0 -16 16 l0 15 q71 198 71 266 l15 8 Z" /><glyph glyph-name="uni5206" unicode="&#x5206;" d="M480 779 q92 0 348 -357 q63 -65 63 -104 l0 -5 q0 -26 -36 -26 q-39 16 -292 363 q-65 73 -102 102 l0 8 q2 19 19 19 ZM324 672 q20 0 20 -26 q0 -171 -166 -345 q-16 -8 -33 -8 l-8 0 q-14 0 -28 25 l0 24 q98 60 164 256 q20 74 43 74 l8 0 ZM676 451 q58 0 58 -55 q-29 -464 -113 -464 l-8 0 q-41 2 -154 175 l21 10 q71 -43 124 -84 q37 82 68 356 l-12 4 q-207 -18 -207 -32 q0 -189 -158 -402 l-41 -8 q-18 6 -35 41 q138 156 187 373 l-43 0 q-62 0 -82 39 l0 14 q2 20 20 20 q51 -16 70 -16 q264 29 305 29 Z" /><glyph glyph-name="uni5207" unicode="&#x5207;" d="M248 738 l8 0 q55 -86 55 -203 l7 0 q151 39 172 39 l16 0 q15 -2 15 -15 l0 -8 q0 -39 -203 -78 q8 -118 8 -172 l0 -55 q108 117 117 117 l0 -8 q-93 -296 -172 -296 q-31 7 -31 31 q24 209 24 312 l0 63 l-55 0 q-109 6 -109 39 l0 31 q2 16 15 16 q30 -24 55 -24 l86 0 l-24 203 l16 8 ZM842 707 q62 0 62 -78 q-47 -664 -156 -664 q-64 0 -156 195 l15 8 l133 -109 q102 254 102 578 l0 15 l-8 0 q-74 0 -211 -23 l0 -63 q-41 -558 -133 -593 l-31 0 q-16 0 -16 15 l0 39 q71 94 110 391 q8 0 23 211 l-55 0 q-60 0 -85 47 l0 8 q2 15 15 15 q70 -15 94 -15 q211 23 273 23 l24 0 Z" /><glyph glyph-name="uni520A" unicode="&#x520a;" d="M832 750 q53 0 53 -547 q0 -230 -92 -230 q-61 0 -207 164 l16 8 q177 -90 191 -90 q23 156 31 291 q-8 84 -8 150 l0 238 q2 16 16 16 ZM219 701 q17 0 84 -8 q142 8 207 8 l8 -15 q-26 -45 -116 -45 l-45 0 q22 -86 22 -180 q2 -14 16 -14 q138 45 160 45 l8 -15 l0 -16 q-112 -82 -176 -82 q15 -217 15 -299 q-6 -105 -31 -105 l-21 0 l-24 15 q8 176 8 262 l0 105 q-109 -15 -154 -15 l-30 0 q-11 0 -31 29 l0 8 q0 14 192 37 q0 8 15 8 q-8 125 -8 187 l0 16 q0 12 -91 29 l-16 24 l0 6 l8 15 ZM633 623 q53 0 53 -172 q0 -203 -40 -203 l-13 0 q-12 0 -31 39 q15 108 15 291 l0 29 q2 16 16 16 Z" /><glyph glyph-name="uni5211" unicode="&#x5211;" d="M846 785 q27 0 31 -180 l0 -472 q0 -164 -45 -164 l-8 0 q-60 0 -170 179 l16 8 q10 0 131 -97 q23 173 23 326 l0 385 q2 15 16 15 l6 0 ZM227 709 q97 -25 183 -25 l153 0 l0 -24 q0 -23 -77 -33 l16 -188 q96 8 115 8 l16 -23 q0 -37 -131 -59 l16 -334 q-10 -41 -24 -41 l-23 0 q-10 0 -22 26 l0 341 q-123 -15 -123 -23 q-27 -262 -99 -262 l-8 0 q-12 0 -24 26 l0 48 q28 0 63 188 q-26 0 -39 -10 q-92 12 -92 33 l0 8 q0 18 144 33 q16 159 16 221 q8 0 8 8 q-68 19 -84 57 l0 7 q2 18 16 18 ZM342 619 l0 -74 q0 -43 -8 -139 q84 18 115 18 l0 195 l-107 0 ZM686 613 q39 0 39 -259 l0 -75 q0 -43 -24 -49 l-23 0 q-14 0 -24 41 q8 151 8 252 l0 75 q2 15 16 15 l8 0 Z" /><glyph glyph-name="uni5212" unicode="&#x5212;" d="M803 770 l8 0 q62 0 62 -676 q0 -143 -86 -143 q-62 0 -156 158 l15 10 q96 -80 141 -80 q8 43 8 70 l0 598 l-8 55 l16 8 ZM248 727 q27 0 70 -200 l8 0 q14 0 164 65 q31 -14 31 -26 l0 -15 q0 -31 -187 -96 q39 -174 55 -174 l125 158 q11 0 23 -23 q-8 -82 -133 -223 q45 -119 55 -119 q33 88 62 112 l8 0 l0 -8 q0 -28 8 -73 q0 -134 -86 -134 q-49 0 -101 168 l-8 0 q0 -24 -71 -41 l-39 0 q-11 0 -31 33 l0 47 q2 15 16 15 q8 -23 47 -23 q21 8 62 47 q-41 215 -55 215 q-70 -16 -101 -16 l-47 0 q-12 0 -23 23 l0 16 q0 14 148 41 q0 8 16 8 q-32 164 -32 215 l16 8 ZM381 711 q125 -45 125 -72 l0 -8 q0 -16 -16 -16 l-8 0 q-125 22 -125 78 l24 18 ZM654 627 q39 0 39 -311 q-15 -35 -31 -39 q-39 12 -39 55 l0 231 q0 60 23 64 l8 0 Z" /><glyph glyph-name="uni5217" unicode="&#x5217;" d="M779 760 l8 0 q49 0 70 -578 q0 -244 -86 -244 l-5 0 q-73 0 -194 185 q8 0 8 8 q51 -20 178 -111 l8 0 q13 148 13 294 q0 137 -13 438 l13 8 ZM510 729 q31 -10 31 -22 l0 -6 q0 -29 -154 -64 q0 -45 -84 -201 l8 0 q127 35 177 35 l22 -30 l0 -13 q0 -94 -168 -381 l-63 -43 l-52 0 q-39 17 -39 57 l0 50 l23 0 q0 -21 37 -43 l8 0 q101 92 101 129 q-162 59 -162 94 l0 8 q16 6 24 6 q33 0 176 -49 q31 72 62 164 l-8 0 q-166 -70 -209 -70 q-10 0 -29 27 l0 16 q0 13 107 201 q16 23 16 35 l-39 0 q-123 6 -123 29 l0 6 q0 12 23 22 l45 0 q123 0 270 43 ZM641 574 q23 0 23 -80 l0 -68 q0 -170 -29 -170 l-16 0 q-19 0 -23 29 q0 67 8 260 q11 29 23 29 l14 0 Z" /><glyph glyph-name="uni5218" unicode="&#x5218;" d="M773 787 q40 0 40 -320 q23 -156 23 -307 l0 -62 q0 -153 -78 -153 l-29 0 q-114 82 -147 176 l16 8 q9 0 138 -100 l14 0 q0 4 8 100 q0 115 -8 590 q6 68 23 68 ZM264 779 q164 -97 170 -113 q-8 -23 -47 -23 l-16 0 q-129 35 -129 107 l0 8 q0 10 22 21 ZM570 627 q16 -2 16 -16 l0 -7 q0 -8 -123 -77 q0 -39 -61 -275 q131 -131 131 -184 l0 -15 q0 -12 -23 -24 l-16 0 l-123 155 l-8 0 q-80 -178 -160 -178 l-37 0 q-10 0 -39 39 l0 16 q0 9 92 31 q88 105 99 152 q-84 69 -84 76 l0 8 q2 16 16 16 l14 0 q29 0 86 -39 q21 41 60 215 q-113 -16 -168 -16 q-117 10 -123 39 l0 8 q2 15 16 15 l45 0 q142 0 383 61 l7 0 ZM621 527 q29 0 29 -230 l0 -29 q0 -41 -21 -47 l-24 0 q-23 8 -23 47 l0 199 q0 56 23 60 l16 0 Z" /><glyph glyph-name="uni5219" unicode="&#x5219;" d="M811 754 l7 0 q45 0 45 -219 q0 -148 8 -543 q0 -105 -76 -105 q-51 6 -143 172 q2 15 14 15 q74 -86 121 -105 l8 37 q8 404 8 642 l0 45 l-8 53 l16 8 ZM162 701 l14 0 q41 -60 84 -60 l256 45 l7 0 q24 0 24 -32 q0 -474 -47 -474 l-29 0 q-6 0 -24 23 q47 266 47 422 l0 8 q-131 -45 -234 -45 l-24 0 q45 -192 45 -295 q-4 -129 -37 -129 l-15 0 l-30 31 l8 37 l0 122 q0 117 -61 339 l16 8 ZM645 535 q37 0 37 -166 l0 -31 q0 -143 -30 -143 l-15 0 q-16 4 -30 37 q6 141 6 235 l0 53 q2 15 16 15 l16 0 ZM381 527 q17 0 21 -68 q0 -111 -37 -248 q203 -117 203 -211 q-11 -31 -21 -31 l-16 0 l-129 150 l-52 39 q-69 -213 -143 -213 l-16 0 q-11 0 -29 32 l0 23 q2 14 14 14 q15 -8 23 -8 q158 252 158 482 q12 39 24 39 Z" /><glyph glyph-name="uni521A" unicode="&#x521a;" d="M797 760 q53 0 64 -547 l0 -53 q0 -256 -80 -256 q-68 0 -156 196 l12 0 q60 -26 123 -84 l8 0 q9 0 19 648 q-8 53 -8 86 l18 10 ZM500 697 q31 -33 31 -62 l22 -606 l0 -15 q-2 -43 -43 -63 l-39 0 q-43 26 -129 141 l19 8 q16 0 119 -51 l2 64 q4 158 -9 533 q-162 -37 -244 -37 l-36 8 q34 -146 28 -385 q27 24 84 112 q-61 72 -59 107 l18 10 q35 -14 76 -55 l6 0 q54 170 74 170 l16 0 q17 0 15 -25 q0 -57 -58 -199 q66 -86 66 -116 l0 -7 q-2 -18 -18 -18 l-7 0 q-49 0 -77 70 l-11 0 q-2 -29 -73 -86 l-44 0 l-4 -97 q-2 -116 -43 -116 l-8 0 q-16 4 -31 39 q2 55 11 170 l-9 446 q17 0 46 39 q41 -8 47 -8 q200 29 262 29 ZM645 561 q35 0 39 -165 l0 -152 q0 -41 -24 -49 l-23 0 q-14 0 -26 26 l0 314 q0 12 26 26 l8 0 Z" /><glyph glyph-name="uni521B" unicode="&#x521b;" d="M371 754 q16 -2 16 -16 l0 -8 q0 -37 -4 -84 q207 -142 207 -212 l0 -8 q0 -16 -16 -16 l-15 0 q-139 149 -200 192 q-48 -94 -91 -155 l0 -8 q7 0 62 -5 l152 29 l24 -29 l0 -16 q-29 -238 -108 -238 q-48 15 -54 39 l0 37 l8 15 q25 -15 39 -15 q52 82 52 139 l-7 0 q-61 -24 -114 -24 l-15 0 l0 -107 q0 -125 15 -213 l22 0 q191 119 191 197 l24 0 q11 0 23 -21 l0 -16 q-59 -150 -223 -238 l-37 0 q-64 0 -78 99 l16 323 q-16 0 -16 23 q-74 -76 -113 -76 q-39 12 -39 45 q113 0 263 367 l16 0 ZM846 781 q47 0 47 -697 l0 -68 q0 -84 -63 -84 q-59 0 -213 168 l6 15 l191 -92 l0 8 q0 61 16 313 q-8 162 -8 345 l0 77 q2 15 16 15 l8 0 ZM678 498 q33 0 37 -123 l0 -123 q0 -39 -29 -53 l-16 0 q-24 8 -24 47 l0 236 q2 16 16 16 l16 0 Z" /><glyph glyph-name="uni521D" unicode="&#x521d;" d="M186 785 q148 -55 162 -78 q-10 -29 -49 -29 q-129 25 -129 92 q2 15 16 15 ZM402 664 q12 0 22 -21 l0 -8 q0 -28 -100 -170 l0 -16 q20 6 108 86 l13 0 q22 0 22 -27 q-71 -108 -135 -108 l0 -7 q148 -43 156 -79 l0 -13 q0 -14 -13 -14 q-28 0 -143 49 l0 -8 q8 -146 8 -242 l0 -57 q0 -37 -29 -49 l-22 0 q-16 0 -21 36 q13 244 13 341 l0 8 q0 10 -21 22 q-80 -116 -127 -116 l-22 0 q-11 0 -21 22 l0 21 q58 32 113 86 l129 178 l0 8 l-72 -8 l-49 0 q-70 0 -78 65 l13 5 q71 -13 79 -13 l15 0 q43 0 162 29 ZM840 643 l37 0 q12 0 29 -30 q-41 -586 -66 -586 l-22 -15 l-23 0 q-59 0 -133 134 l0 6 q8 0 8 8 q4 0 119 -66 q37 248 66 498 q-35 0 -214 -29 l0 -45 q-61 -485 -157 -485 q-31 12 -31 24 l0 37 q35 0 119 355 l24 106 q-127 8 -127 37 l0 13 l8 16 l50 -8 l37 0 l276 30 Z" /><glyph glyph-name="uni5220" unicode="&#x5220;" d="M850 758 l7 0 q47 0 47 -606 q0 -160 -78 -160 q-78 0 -152 176 l8 0 q115 -92 136 -92 l0 8 q16 27 24 230 q-8 344 -8 436 l16 8 ZM613 727 q30 -10 30 -22 q-8 -170 -8 -254 l70 0 q16 -2 16 -13 l0 -24 q-4 -23 -63 -23 l-23 0 q0 -43 23 -336 q-4 -71 -60 -71 q-45 0 -92 131 l15 8 q12 -2 61 -39 l0 299 l-8 0 l-68 -8 q-22 -307 -70 -307 l-22 0 l-23 16 q0 -68 -47 -68 q-63 0 -129 115 l15 8 q18 0 92 -24 l0 237 l-84 0 q-31 -321 -99 -321 l-8 0 q-24 24 -24 37 q61 145 61 284 q-68 17 -68 31 l0 8 q2 15 15 15 l69 0 l0 176 q0 43 -16 115 q29 16 62 16 l129 0 q12 0 24 -24 q-8 -158 -8 -259 l55 0 q13 0 13 13 l0 254 q0 12 24 24 l23 0 q43 0 123 6 ZM559 674 l-61 0 l8 -92 l0 -139 l76 0 l16 239 l-39 -8 ZM223 658 q15 -31 15 -123 l0 -121 l45 0 q39 0 39 16 q0 33 8 228 l-107 0 ZM758 535 q19 0 31 -97 q-8 -147 -39 -147 l-8 0 q-12 0 -21 23 q8 221 29 221 l8 0 ZM375 359 l16 -228 l7 0 l38 236 l-22 0 l-39 -8 Z" /><glyph glyph-name="uni5224" unicode="&#x5224;" d="M375 768 q39 0 39 -166 l0 -69 q68 67 92 174 l15 0 q12 0 24 -21 l0 -55 q0 -35 -78 -143 q47 0 47 -15 l0 -14 q0 -21 -108 -45 q-15 -53 -15 -129 l7 0 l192 45 l15 -21 l0 -16 q0 -31 -230 -76 q-64 -227 -129 -256 l-47 0 q-37 19 -37 68 l16 8 l21 -16 l8 0 q43 20 92 188 l-45 0 q-123 6 -123 31 q0 18 31 22 q160 0 160 31 q24 80 24 113 l-39 0 q-108 6 -108 37 l0 16 l8 14 l55 -6 l92 0 q7 74 7 111 l0 174 q2 16 14 16 ZM820 744 l24 0 q15 0 29 -648 q0 -180 -76 -180 l-39 0 q-84 47 -153 143 q16 7 24 7 q51 -19 152 -76 q16 65 24 356 q-8 113 -8 166 q8 150 8 226 l15 6 ZM230 654 q47 0 84 -142 l0 -16 q0 -12 -23 -23 l-8 0 q-25 0 -76 173 q16 8 23 8 ZM637 557 q52 0 52 -211 l0 -90 q0 -12 -23 -24 l-21 0 q-12 0 -24 24 l0 158 q0 39 -8 127 l24 16 Z" /></font>
</defs>
</svg>
